<svg width="12" height="16" viewBox="0 0 12 16" fill="none" xmlns="http://www.w3.org/2000/svg">
<path d="M6.04901 15.5701C4.8795 15.5701 3.87571 15.2742 3.03764 14.6824C2.20431 14.0858 1.56274 13.2264 1.11293 12.1042C0.66785 10.9773 0.445312 9.6208 0.445312 8.03462C0.450047 6.44845 0.674953 5.09902 1.12003 3.98633C1.56984 2.8689 2.21141 2.01663 3.04474 1.42951C3.88281 0.842389 4.88423 0.548828 6.04901 0.548828C7.21378 0.548828 8.2152 0.842389 9.05327 1.42951C9.89134 2.01663 10.5329 2.8689 10.978 3.98633C11.4278 5.10375 11.6527 6.45319 11.6527 8.03462C11.6527 9.62553 11.4278 10.9844 10.978 12.1113C10.5329 13.2335 9.89134 14.0905 9.05327 14.6824C8.21993 15.2742 7.21851 15.5701 6.04901 15.5701ZM6.04901 13.3471C6.9581 13.3471 7.67543 12.8997 8.20099 12.0048C8.7313 11.1052 8.99645 9.78178 8.99645 8.03462C8.99645 6.87932 8.87571 5.90868 8.63423 5.12269C8.39276 4.33671 8.05185 3.74485 7.61151 3.34712C7.17116 2.94466 6.65033 2.74343 6.04901 2.74343C5.14465 2.74343 4.42969 3.19324 3.90412 4.09286C3.37855 4.98775 3.1134 6.30167 3.10866 8.03462C3.10393 9.19466 3.21993 10.17 3.45668 10.9608C3.69815 11.7515 4.03906 12.3481 4.4794 12.7505C4.91974 13.1483 5.44295 13.3471 6.04901 13.3471Z" fill="#5AC3A4"/>
</svg>
