<svg width="69" height="16" viewBox="0 0 69 16" fill="none" xmlns="http://www.w3.org/2000/svg">
<path d="M53.3965 14.8187V3.90962H55.8539V5.76332H55.9817C56.209 5.13832 56.5854 4.65063 57.111 4.30025C57.6365 3.94513 58.2639 3.76758 58.9931 3.76758C59.7317 3.76758 60.3543 3.9475 60.861 4.30735C61.3723 4.66246 61.7322 5.14779 61.9405 5.76332H62.0542C62.2956 5.15726 62.7028 4.6743 63.2757 4.31445C63.8534 3.94987 64.5376 3.76758 65.3283 3.76758C66.3321 3.76758 67.1512 4.08481 67.7857 4.71928C68.4202 5.35375 68.7374 6.27941 68.7374 7.49627V14.8187H66.1593V7.894C66.1593 7.21691 65.9793 6.72212 65.6195 6.40962C65.2597 6.09239 64.8193 5.93377 64.2985 5.93377C63.6782 5.93377 63.1929 6.1279 62.8425 6.51616C62.4969 6.89968 62.324 7.39921 62.324 8.01474V14.8187H59.8027V7.78746C59.8027 7.22402 59.6323 6.77421 59.2914 6.43803C58.9552 6.10186 58.5149 5.93377 57.9703 5.93377C57.601 5.93377 57.2649 6.02847 56.9618 6.21786C56.6588 6.40252 56.4173 6.6653 56.2374 7.00621C56.0575 7.34239 55.9675 7.73538 55.9675 8.18519V14.8187H53.3965Z" fill="#5AC3A4"/>
<path d="M43.3535 11.3951L43.3464 8.29142H43.7583L47.6788 3.90931H50.6831L45.8606 9.27863H45.3279L43.3535 11.3951ZM41.0098 14.8184V0.272949H43.5808V14.8184H41.0098ZM47.8564 14.8184L44.3052 9.85392L46.0382 8.04284L50.9316 14.8184H47.8564Z" fill="#5AC3A4"/>
<path d="M26.0568 15.0955C24.8873 15.0955 23.8835 14.7996 23.0455 14.2077C22.2121 13.6112 21.5705 12.7518 21.1207 11.6296C20.6757 10.5027 20.4531 9.14619 20.4531 7.56001C20.4579 5.97384 20.6828 4.62441 21.1278 3.51172C21.5777 2.39429 22.2192 1.54202 23.0526 0.954902C23.8906 0.36778 24.892 0.0742188 26.0568 0.0742188C27.2216 0.0742188 28.223 0.36778 29.0611 0.954902C29.8991 1.54202 30.5407 2.39429 30.9858 3.51172C31.4356 4.62914 31.6605 5.97858 31.6605 7.56001C31.6605 9.15092 31.4356 10.5098 30.9858 11.6367C30.5407 12.7589 29.8991 13.6159 29.0611 14.2077C28.2277 14.7996 27.2263 15.0955 26.0568 15.0955ZM26.0568 12.8725C26.9659 12.8725 27.6832 12.4251 28.2088 11.5302C28.7391 10.6306 29.0043 9.30717 29.0043 7.56001C29.0043 6.40471 28.8835 5.43407 28.642 4.64808C28.4006 3.8621 28.0597 3.27024 27.6193 2.87252C27.179 2.47005 26.6581 2.26882 26.0568 2.26882C25.1525 2.26882 24.4375 2.71863 23.9119 3.61825C23.3864 4.51314 23.1212 5.82706 23.1165 7.56001C23.1117 8.72005 23.2277 9.69543 23.4645 10.4862C23.706 11.2769 24.0469 11.8735 24.4872 12.2759C24.9276 12.6737 25.4508 12.8725 26.0568 12.8725Z" fill="#5AC3A4"/>
<path d="M16.0582 14.9746C15.6273 14.9746 15.258 14.823 14.9503 14.52C14.6425 14.217 14.491 13.8477 14.4957 13.4121C14.491 12.9859 14.6425 12.6213 14.9503 12.3183C15.258 12.0153 15.6273 11.8638 16.0582 11.8638C16.4749 11.8638 16.8371 12.0153 17.1449 12.3183C17.4574 12.6213 17.616 12.9859 17.6207 13.4121C17.616 13.7009 17.5402 13.9637 17.3934 14.2004C17.2514 14.4372 17.062 14.6266 16.8253 14.7686C16.5933 14.9059 16.3376 14.9746 16.0582 14.9746Z" fill="#5AC3A4"/>
<path d="M6.04901 15.0955C4.8795 15.0955 3.87571 14.7996 3.03764 14.2077C2.20431 13.6112 1.56274 12.7518 1.11293 11.6296C0.66785 10.5027 0.445312 9.14619 0.445312 7.56001C0.450047 5.97384 0.674953 4.62441 1.12003 3.51172C1.56984 2.39429 2.21141 1.54202 3.04474 0.954902C3.88281 0.36778 4.88423 0.0742188 6.04901 0.0742188C7.21378 0.0742188 8.2152 0.36778 9.05327 0.954902C9.89134 1.54202 10.5329 2.39429 10.978 3.51172C11.4278 4.62914 11.6527 5.97858 11.6527 7.56001C11.6527 9.15092 11.4278 10.5098 10.978 11.6367C10.5329 12.7589 9.89134 13.6159 9.05327 14.2077C8.21993 14.7996 7.21851 15.0955 6.04901 15.0955ZM6.04901 12.8725C6.9581 12.8725 7.67543 12.4251 8.20099 11.5302C8.7313 10.6306 8.99645 9.30717 8.99645 7.56001C8.99645 6.40471 8.87571 5.43407 8.63423 4.64808C8.39276 3.8621 8.05185 3.27024 7.61151 2.87252C7.17116 2.47005 6.65033 2.26882 6.04901 2.26882C5.14465 2.26882 4.42969 2.71863 3.90412 3.61825C3.37855 4.51314 3.1134 5.82706 3.10866 7.56001C3.10393 8.72005 3.21993 9.69543 3.45668 10.4862C3.69815 11.2769 4.03906 11.8735 4.4794 12.2759C4.91974 12.6737 5.44295 12.8725 6.04901 12.8725Z" fill="#5AC3A4"/>
</svg>
