<svg width="12" height="16" viewBox="0 0 12 16" fill="none" xmlns="http://www.w3.org/2000/svg">
<path d="M6.04901 15.8699C4.8795 15.8699 3.87571 15.574 3.03764 14.9822C2.20431 14.3856 1.56274 13.5262 1.11293 12.404C0.66785 11.2771 0.445312 9.9206 0.445312 8.33443C0.450047 6.74825 0.674953 5.39882 1.12003 4.28613C1.56984 3.16871 2.21141 2.31644 3.04474 1.72932C3.88281 1.14219 4.88423 0.848633 6.04901 0.848633C7.21378 0.848633 8.2152 1.14219 9.05327 1.72932C9.89134 2.31644 10.5329 3.16871 10.978 4.28613C11.4278 5.40356 11.6527 6.75299 11.6527 8.33443C11.6527 9.92534 11.4278 11.2842 10.978 12.4111C10.5329 13.5333 9.89134 14.3903 9.05327 14.9822C8.21993 15.574 7.21851 15.8699 6.04901 15.8699ZM6.04901 13.6469C6.9581 13.6469 7.67543 13.1995 8.20099 12.3046C8.7313 11.405 8.99645 10.0816 8.99645 8.33443C8.99645 7.17913 8.87571 6.20848 8.63423 5.4225C8.39276 4.63651 8.05185 4.04466 7.61151 3.64693C7.17116 3.24447 6.65033 3.04324 6.04901 3.04324C5.14465 3.04324 4.42969 3.49305 3.90412 4.39267C3.37855 5.28755 3.1134 6.60147 3.10866 8.33443C3.10393 9.49447 3.21993 10.4698 3.45668 11.2606C3.69815 12.0513 4.03906 12.6479 4.4794 13.0503C4.91974 13.4481 5.44295 13.6469 6.04901 13.6469Z" fill="#5AC3A4"/>
</svg>
