<svg width="52" height="19" viewBox="0 0 52 19" fill="none" xmlns="http://www.w3.org/2000/svg">
<path d="M45.5471 15.5062C44.3775 15.5062 43.3738 15.2102 42.5357 14.6184C41.7024 14.0218 41.0608 13.1624 40.611 12.0403C40.1659 10.9134 39.9434 9.55683 39.9434 7.97066C39.9481 6.38449 40.173 5.03505 40.6181 3.92236C41.0679 2.80494 41.7095 1.95267 42.5428 1.36555C43.3809 0.778425 44.3823 0.484863 45.5471 0.484863C46.7118 0.484863 47.7132 0.778425 48.5513 1.36555C49.3894 1.95267 50.031 2.80494 50.476 3.92236C50.9258 5.03979 51.1507 6.38922 51.1507 7.97066C51.1507 9.56157 50.9258 10.9205 50.476 12.0474C50.031 13.1695 49.3894 14.0265 48.5513 14.6184C47.718 15.2102 46.7166 15.5062 45.5471 15.5062ZM45.5471 13.2832C46.4561 13.2832 47.1735 12.8357 47.699 11.9408C48.2293 11.0412 48.4945 9.71782 48.4945 7.97066C48.4945 6.81536 48.3738 5.84471 48.1323 5.05873C47.8908 4.27274 47.5499 3.68089 47.1096 3.28316C46.6692 2.8807 46.1484 2.67947 45.5471 2.67947C44.6427 2.67947 43.9277 3.12928 43.4022 4.0289C42.8766 4.92378 42.6114 6.2377 42.6067 7.97066C42.602 9.1307 42.718 10.1061 42.9547 10.8968C43.1962 11.6875 43.5371 12.2841 43.9774 12.6866C44.4178 13.0843 44.941 13.2832 45.5471 13.2832Z" fill="#5AC3A4"/>
<path d="M31.2072 15.5062C30.0377 15.5062 29.0339 15.2102 28.1958 14.6184C27.3625 14.0218 26.7209 13.1624 26.2711 12.0403C25.8261 10.9134 25.6035 9.55683 25.6035 7.97066C25.6083 6.38449 25.8332 5.03505 26.2782 3.92236C26.728 2.80494 27.3696 1.95267 28.2029 1.36555C29.041 0.778425 30.0424 0.484863 31.2072 0.484863C32.372 0.484863 33.3734 0.778425 34.2115 1.36555C35.0495 1.95267 35.6911 2.80494 36.1362 3.92236C36.586 5.03979 36.8109 6.38922 36.8109 7.97066C36.8109 9.56157 36.586 10.9205 36.1362 12.0474C35.6911 13.1695 35.0495 14.0265 34.2115 14.6184C33.3781 15.2102 32.3767 15.5062 31.2072 15.5062ZM31.2072 13.2832C32.1163 13.2832 32.8336 12.8357 33.3592 11.9408C33.8895 11.0412 34.1547 9.71782 34.1547 7.97066C34.1547 6.81536 34.0339 5.84471 33.7924 5.05873C33.551 4.27274 33.21 3.68089 32.7697 3.28316C32.3294 2.8807 31.8085 2.67947 31.2072 2.67947C30.3029 2.67947 29.5879 3.12928 29.0623 4.0289C28.5368 4.92378 28.2716 6.2377 28.2669 7.97066C28.2621 9.1307 28.3781 10.1061 28.6149 10.8968C28.8564 11.6875 29.1973 12.2841 29.6376 12.6866C30.0779 13.0843 30.6011 13.2832 31.2072 13.2832Z" fill="#5AC3A4"/>
<path d="M21.1378 0.683594V15.229H18.5028V3.24751H18.4176L15.0156 5.42081V3.00604L18.6307 0.683594H21.1378Z" fill="#5AC3A4"/>
<path d="M13.1671 13.2407L13.0748 14.022C13.0085 14.6186 12.8901 15.2246 12.7196 15.8402C12.5539 16.4604 12.3787 17.031 12.1941 17.5518C12.0094 18.0726 11.8603 18.4822 11.7466 18.7805H10.0137C10.08 18.4917 10.1699 18.0987 10.2836 17.6015C10.4019 17.1044 10.5156 16.5456 10.6245 15.9254C10.7334 15.3051 10.8068 14.6754 10.8446 14.0362L10.8944 13.2407H13.1671Z" fill="#5AC3A4"/>
<path d="M6.22763 0.683594V15.229H3.59268V3.24751H3.50746L0.105469 5.42081V3.00604L3.72053 0.683594H6.22763Z" fill="#5AC3A4"/>
</svg>
