<svg width="110" height="18" viewBox="0 0 110 18" fill="none" xmlns="http://www.w3.org/2000/svg">
<path d="M98.1504 12.8256V10.7304L104.322 0.979004H106.069V3.96196H105.004L100.849 10.5458V10.6594H109.464V12.8256H98.1504ZM105.089 15.5245V12.1864L105.118 11.2489V0.979004H107.604V15.5245H105.089Z" fill="#5AC3A4"/>
<path d="M85.3035 15.5246V13.6212L90.3532 8.6709C90.8362 8.18321 91.2386 7.74997 91.5606 7.37118C91.8826 6.9924 92.124 6.62544 92.285 6.27033C92.446 5.91522 92.5265 5.53643 92.5265 5.13397C92.5265 4.67469 92.4223 4.28169 92.214 3.95499C92.0057 3.62355 91.7192 3.36787 91.3546 3.18794C90.99 3.00802 90.5757 2.91806 90.1117 2.91806C89.6335 2.91806 89.2145 3.01749 88.8546 3.21635C88.4948 3.41048 88.2154 3.68747 88.0166 4.04732C87.8224 4.40717 87.7254 4.83567 87.7254 5.33283H85.2183C85.2183 4.40954 85.429 3.60698 85.8504 2.92516C86.2718 2.24334 86.8518 1.71541 87.5904 1.34135C88.3338 0.9673 89.1861 0.780273 90.1472 0.780273C91.1226 0.780273 91.9796 0.962565 92.7183 1.32715C93.4569 1.69173 94.0298 2.19126 94.437 2.82573C94.8489 3.4602 95.0549 4.18463 95.0549 4.99902C95.0549 5.54353 94.9507 6.07857 94.7424 6.60414C94.5341 7.12971 94.1671 7.71209 93.6416 8.3513C93.1207 8.9905 92.3892 9.76465 91.447 10.6737L88.9398 13.2235V13.3229H95.2751V15.5246H85.3035Z" fill="#5AC3A4"/>
<path d="M76.34 15.8016C75.1705 15.8016 74.1667 15.5057 73.3287 14.9138C72.4953 14.3172 71.8538 13.4578 71.4039 12.3357C70.9589 11.2088 70.7363 9.85224 70.7363 8.26607C70.7411 6.6799 70.966 5.33046 71.411 4.21777C71.8609 3.10035 72.5024 2.24808 73.3358 1.66096C74.1738 1.07383 75.1753 0.780273 76.34 0.780273C77.5048 0.780273 78.5062 1.07383 79.3443 1.66096C80.1824 2.24808 80.8239 3.10035 81.269 4.21777C81.7188 5.3352 81.9437 6.68463 81.9437 8.26607C81.9437 9.85698 81.7188 11.2159 81.269 12.3428C80.8239 13.4649 80.1824 14.3219 79.3443 14.9138C78.511 15.5057 77.5095 15.8016 76.34 15.8016ZM76.34 13.5786C77.2491 13.5786 77.9664 13.1311 78.492 12.2362C79.0223 11.3366 79.2875 10.0132 79.2875 8.26607C79.2875 7.11077 79.1667 6.14012 78.9253 5.35414C78.6838 4.56815 78.3429 3.9763 77.9025 3.57857C77.4622 3.17611 76.9414 2.97488 76.34 2.97488C75.4357 2.97488 74.7207 3.42469 74.1951 4.32431C73.6696 5.21919 73.4044 6.53311 73.3997 8.26607C73.3949 9.42611 73.511 10.4015 73.7477 11.1922C73.9892 11.9829 74.3301 12.5795 74.7704 12.982C75.2108 13.3797 75.734 13.5786 76.34 13.5786Z" fill="#5AC3A4"/>
<path d="M57.5418 15.5246V13.6212L62.5915 8.6709C63.0744 8.18321 63.4769 7.74997 63.7989 7.37118C64.1208 6.9924 64.3623 6.62544 64.5233 6.27033C64.6843 5.91522 64.7648 5.53643 64.7648 5.13397C64.7648 4.67469 64.6606 4.28169 64.4523 3.95499C64.2439 3.62355 63.9575 3.36787 63.5929 3.18794C63.2283 3.00802 62.814 2.91806 62.35 2.91806C61.8718 2.91806 61.4528 3.01749 61.0929 3.21635C60.7331 3.41048 60.4537 3.68747 60.2548 4.04732C60.0607 4.40717 59.9636 4.83567 59.9636 5.33283H57.4565C57.4565 4.40954 57.6672 3.60698 58.0886 2.92516C58.51 2.24334 59.0901 1.71541 59.8287 1.34135C60.5721 0.9673 61.4243 0.780273 62.3855 0.780273C63.3609 0.780273 64.2179 0.962565 64.9565 1.32715C65.6952 1.69173 66.2681 2.19126 66.6753 2.82573C67.0872 3.4602 67.2932 4.18463 67.2932 4.99902C67.2932 5.54353 67.189 6.07857 66.9807 6.60414C66.7724 7.12971 66.4054 7.71209 65.8798 8.3513C65.359 8.9905 64.6275 9.76465 63.6852 10.6737L61.1781 13.2235V13.3229H67.5134V15.5246H57.5418Z" fill="#5AC3A4"/>
<path d="M54.9296 0.297363L50.2421 17.7121H47.9907L52.6782 0.297363H54.9296Z" fill="#5AC3A4"/>
<path d="M36.758 15.5245L42.9441 3.28014V3.18071H35.7637V0.979004H45.6713V3.23042L39.4924 15.5245H36.758Z" fill="#5AC3A4"/>
<path d="M22.8035 15.5246V13.6212L27.8532 8.6709C28.3362 8.18321 28.7386 7.74997 29.0606 7.37118C29.3826 6.9924 29.624 6.62544 29.785 6.27033C29.946 5.91522 30.0265 5.53643 30.0265 5.13397C30.0265 4.67469 29.9223 4.28169 29.714 3.95499C29.5057 3.62355 29.2192 3.36787 28.8546 3.18794C28.49 3.00802 28.0757 2.91806 27.6117 2.91806C27.1335 2.91806 26.7145 3.01749 26.3546 3.21635C25.9948 3.41048 25.7154 3.68747 25.5166 4.04732C25.3224 4.40717 25.2254 4.83567 25.2254 5.33283H22.7183C22.7183 4.40954 22.929 3.60698 23.3504 2.92516C23.7718 2.24334 24.3518 1.71541 25.0904 1.34135C25.8338 0.9673 26.6861 0.780273 27.6472 0.780273C28.6226 0.780273 29.4796 0.962565 30.2183 1.32715C30.9569 1.69173 31.5298 2.19126 31.937 2.82573C32.3489 3.4602 32.5549 4.18463 32.5549 4.99902C32.5549 5.54353 32.4507 6.07857 32.2424 6.60414C32.0341 7.12971 31.6671 7.71209 31.1416 8.3513C30.6207 8.9905 29.8892 9.76465 28.947 10.6737L26.4399 13.2235V13.3229H32.7751V15.5246H22.8035Z" fill="#5AC3A4"/>
<path d="M20.1914 0.297363L15.5039 17.7121H13.2524L17.9399 0.297363H20.1914Z" fill="#5AC3A4"/>
<path d="M5.41828 15.7235C4.39555 15.7235 3.48646 15.5483 2.69101 15.1979C1.90029 14.8475 1.27529 14.3598 0.816007 13.7348C0.356726 13.1098 0.112882 12.3878 0.0844727 11.5686H2.75493C2.7786 11.9616 2.90881 12.3049 3.14555 12.5985C3.38229 12.8873 3.69716 13.1122 4.09015 13.2732C4.48315 13.4342 4.92349 13.5146 5.41118 13.5146C5.93201 13.5146 6.39366 13.4247 6.79612 13.2448C7.19858 13.0601 7.51345 12.8044 7.74072 12.4777C7.968 12.151 8.07926 11.7746 8.07453 11.3485C8.07926 10.9081 7.96563 10.5199 7.73362 10.1837C7.50161 9.84751 7.16544 9.58473 6.7251 9.39533C6.28949 9.20594 5.76392 9.11124 5.14839 9.11124H3.86288V7.07999H5.14839C5.65502 7.07999 6.09773 6.99239 6.47652 6.81721C6.86004 6.64202 7.1607 6.3958 7.37851 6.07857C7.59631 5.7566 7.70284 5.38491 7.69811 4.96351C7.70284 4.55158 7.61051 4.1941 7.42112 3.89107C7.23646 3.5833 6.97368 3.34419 6.63277 3.17374C6.29659 3.00328 5.90123 2.91806 5.44669 2.91806C5.00161 2.91806 4.58968 2.99855 4.21089 3.15953C3.83211 3.32052 3.52671 3.55016 3.2947 3.84846C3.06269 4.14202 2.93959 4.49239 2.92538 4.89959H0.38987C0.40881 4.0852 0.643185 3.37024 1.093 2.75471C1.54754 2.13444 2.1536 1.65149 2.91118 1.30584C3.66875 0.955463 4.51866 0.780273 5.46089 0.780273C6.43154 0.780273 7.27434 0.962565 7.9893 1.32715C8.709 1.687 9.26534 2.17232 9.65834 2.78311C10.0513 3.39391 10.2478 4.06863 10.2478 4.80726C10.2526 5.62639 10.0111 6.31294 9.52339 6.86692C9.04044 7.4209 8.40597 7.78311 7.61998 7.95357V8.06721C8.64271 8.20925 9.42633 8.58804 9.97084 9.20357C10.5201 9.81436 10.7923 10.5743 10.7876 11.4834C10.7876 12.2978 10.5556 13.027 10.0916 13.6709C9.6323 14.3101 8.99783 14.812 8.18817 15.1766C7.38324 15.5412 6.45995 15.7235 5.41828 15.7235Z" fill="#5AC3A4"/>
</svg>
