<svg width="143" height="27" viewBox="0 0 143 27" fill="none" xmlns="http://www.w3.org/2000/svg">
<path d="M126.76 17.1596C126.76 14.2534 127.486 11.9389 128.939 10.2162C130.392 8.49359 132.473 7.63226 135.18 7.63226C137.43 7.63226 139.293 8.42328 140.769 10.0053C142.258 11.5756 143.002 14.0893 143.002 17.5463C143.002 18.0737 142.762 18.3373 142.281 18.3373H130.029C130.228 20.5991 130.838 22.1752 131.857 23.0659C132.877 23.9448 134.031 24.3842 135.32 24.3842C136.68 24.3842 137.723 24.1557 138.449 23.6987C139.176 23.2416 139.709 22.7905 140.049 22.3452C140.424 21.853 140.787 21.7592 141.139 22.0639L142.176 22.9604C142.445 23.1948 142.445 23.517 142.176 23.9272C141.953 24.267 141.314 24.812 140.26 25.562C139.217 26.312 137.57 26.687 135.32 26.687C132.391 26.687 130.228 25.8256 128.834 24.103C127.451 22.3803 126.76 20.0659 126.76 17.1596ZM129.959 16.0522H139.891C139.844 14.4116 139.422 12.976 138.625 11.7455C137.828 10.5034 136.656 9.88226 135.109 9.88226C133.75 9.88226 132.596 10.3393 131.646 11.2534C130.697 12.1557 130.135 13.7553 129.959 16.0522Z" fill="black"/>
<path d="M106.925 26.3881C106.397 26.3881 106.134 26.1245 106.134 25.5971V8.72211C106.134 8.19476 106.397 7.93109 106.925 7.93109H108.401C108.928 7.93109 109.192 8.19476 109.192 8.72211V10.1284H109.262C110.024 9.28461 110.844 8.65765 111.723 8.2475C112.602 7.83734 113.698 7.63226 115.01 7.63226C117.143 7.63226 118.673 8.23578 119.598 9.44281C120.536 10.6381 121.005 12.2787 121.005 14.3647V25.5971C121.005 26.1245 120.741 26.3881 120.214 26.3881H118.702C118.175 26.3881 117.911 26.1245 117.911 25.5971V15.2084C117.911 12.9116 117.53 11.4584 116.768 10.8491C116.007 10.228 115.04 9.91742 113.868 9.91742C112.344 9.91742 111.19 10.3745 110.405 11.2885C109.62 12.1909 109.227 13.7436 109.227 15.9467V25.5971C109.227 26.1245 108.964 26.3881 108.436 26.3881H106.925Z" fill="black"/>
<path d="M97.0386 26.3881C96.5112 26.3881 96.2476 26.1245 96.2476 25.5971V8.72211C96.2476 8.19476 96.5112 7.93109 97.0386 7.93109H98.5503C99.0776 7.93109 99.3413 8.19476 99.3413 8.72211V25.5971C99.3413 26.1245 99.0776 26.3881 98.5503 26.3881H97.0386ZM97.0386 4.59125C96.5112 4.59125 96.2476 4.32758 96.2476 3.80023V2.28851C96.2476 1.76117 96.5112 1.4975 97.0386 1.4975H98.5503C99.0776 1.4975 99.3413 1.76117 99.3413 2.28851V3.80023C99.3413 4.32758 99.0776 4.59125 98.5503 4.59125H97.0386Z" fill="black"/>
<path d="M87.1526 26.3881C86.6252 26.3881 86.3616 26.1245 86.3616 25.5971V3.65961C86.3616 3.42523 86.4202 3.20258 86.5374 2.99164L87.7678 0.759216C87.9905 0.34906 88.1721 0.143982 88.3127 0.143982H88.928C89.2795 0.143982 89.4553 0.34906 89.4553 0.759216V25.5971C89.4553 26.1245 89.1917 26.3881 88.6643 26.3881H87.1526Z" fill="black"/>
<path d="M65.5245 26.3881C64.9972 26.3881 64.7335 26.1245 64.7335 25.5971V8.72211C64.7335 8.19476 64.9972 7.93109 65.5245 7.93109H67.0011C67.5284 7.93109 67.7921 8.19476 67.7921 8.72211V10.1284H67.8624C68.6241 9.28461 69.4445 8.65765 70.3234 8.2475C71.2023 7.83734 72.298 7.63226 73.6105 7.63226C75.7433 7.63226 77.2726 8.23578 78.1984 9.44281C79.1359 10.6381 79.6046 12.2787 79.6046 14.3647V25.5971C79.6046 26.1245 79.3409 26.3881 78.8136 26.3881H77.3019C76.7745 26.3881 76.5109 26.1245 76.5109 25.5971V15.2084C76.5109 12.9116 76.13 11.4584 75.3683 10.8491C74.6066 10.228 73.6398 9.91742 72.4679 9.91742C70.9445 9.91742 69.7902 10.3745 69.005 11.2885C68.2198 12.1909 67.8273 13.7436 67.8273 15.9467V25.5971C67.8273 26.1245 67.5636 26.3881 67.0363 26.3881H65.5245Z" fill="black"/>
<path d="M35.2655 13.7846C35.2655 9.68304 36.2733 6.47211 38.2889 4.15179C40.3163 1.81976 43.2343 0.653748 47.0428 0.653748C50.8514 0.653748 53.7635 1.81976 55.7792 4.15179C57.8065 6.47211 58.8202 9.68304 58.8202 13.7846C58.8202 17.8862 57.8065 21.103 55.7792 23.435C53.7635 25.7553 50.8514 26.9155 47.0428 26.9155C43.2343 26.9155 40.3163 25.7553 38.2889 23.435C36.2733 21.103 35.2655 17.8862 35.2655 13.7846ZM38.869 13.7846C38.869 17.0659 39.5428 19.6205 40.8905 21.4487C42.2382 23.2651 44.2889 24.1733 47.0428 24.1733C49.7968 24.1733 51.8475 23.2651 53.1952 21.4487C54.5428 19.6205 55.2167 17.0659 55.2167 13.7846C55.2167 10.5034 54.5428 7.95453 53.1952 6.13812C51.8475 4.31 49.7968 3.39594 47.0428 3.39594C44.2889 3.39594 42.2382 4.31 40.8905 6.13812C39.5428 7.95453 38.869 10.5034 38.869 13.7846Z" fill="black"/>
<path d="M0.165527 14.5932C0.165527 9.43695 1.06201 5.86273 2.85498 3.87054C4.64795 1.86664 6.82764 0.864685 9.39404 0.864685C10.8589 0.864685 12.0308 1.05219 12.9097 1.42719C13.7886 1.80219 14.5444 2.28265 15.1772 2.86859C15.6694 3.32562 15.7808 3.70648 15.5112 4.01117L14.6851 4.97797C14.3569 5.35297 13.9292 5.31781 13.4019 4.8725C12.9683 4.4975 12.4468 4.17523 11.8374 3.9057C11.228 3.63617 10.3608 3.5014 9.23584 3.5014C7.65381 3.5014 6.27686 4.29242 5.10498 5.87445C3.93311 7.45648 3.34717 9.94086 3.34717 13.3276H3.38232C3.90967 12.5659 4.66553 11.9213 5.6499 11.394C6.646 10.8549 7.8999 10.5854 9.41162 10.5854C11.2866 10.5854 12.9331 11.2299 14.3511 12.519C15.769 13.7963 16.478 15.7241 16.478 18.3022C16.478 20.8569 15.7983 22.9311 14.439 24.5248C13.0913 26.1186 11.0933 26.9155 8.44482 26.9155C5.6792 26.9155 3.60498 25.8198 2.22217 23.6284C0.851074 21.4252 0.165527 18.4135 0.165527 14.5932ZM3.94482 18.5307C3.94482 19.9838 4.34326 21.308 5.14014 22.5034C5.94873 23.687 7.06201 24.2787 8.47998 24.2787C9.94482 24.2787 11.0698 23.728 11.855 22.6264C12.6401 21.5248 13.0327 20.1186 13.0327 18.4077C13.0327 16.7084 12.6343 15.4311 11.8374 14.5756C11.0405 13.7084 10.0444 13.2748 8.84912 13.2748C7.30225 13.2748 6.09521 13.7495 5.22803 14.6987C4.37256 15.6479 3.94482 16.9252 3.94482 18.5307Z" fill="black"/>
</svg>
