<svg width="125" height="16" viewBox="0 0 125 16" fill="none" xmlns="http://www.w3.org/2000/svg">
<path d="M117.53 8.90079V15.2928H114.958V4.38374H117.416V6.23744H117.544C117.795 5.62664 118.195 5.14132 118.744 4.78147C119.298 4.42162 119.982 4.2417 120.797 4.2417C121.549 4.2417 122.205 4.40268 122.764 4.72465C123.327 5.04662 123.763 5.51301 124.071 6.1238C124.383 6.7346 124.537 7.4756 124.532 8.34681V15.2928H121.961V8.74454C121.961 8.01537 121.772 7.44482 121.393 7.03289C121.019 6.62096 120.501 6.41499 119.838 6.41499C119.388 6.41499 118.988 6.51443 118.637 6.71329C118.292 6.90742 118.02 7.18914 117.821 7.55846C117.627 7.92778 117.53 8.37522 117.53 8.90079Z" fill="#365F6F"/>
<path d="M106.549 15.5059C105.484 15.5059 104.56 15.2715 103.779 14.8028C102.998 14.334 102.392 13.6783 101.961 12.8354C101.535 11.9926 101.322 11.0078 101.322 9.8809C101.322 8.75401 101.535 7.76679 101.961 6.91926C102.392 6.07172 102.998 5.41357 103.779 4.94482C104.56 4.47607 105.484 4.2417 106.549 4.2417C107.614 4.2417 108.538 4.47607 109.319 4.94482C110.1 5.41357 110.704 6.07172 111.13 6.91926C111.561 7.76679 111.776 8.75401 111.776 9.8809C111.776 11.0078 111.561 11.9926 111.13 12.8354C110.704 13.6783 110.1 14.334 109.319 14.8028C108.538 15.2715 107.614 15.5059 106.549 15.5059ZM106.563 13.4462C107.141 13.4462 107.624 13.2876 108.012 12.9704C108.4 12.6484 108.689 12.2176 108.879 11.6778C109.073 11.138 109.17 10.5367 109.17 9.8738C109.17 9.20619 109.073 8.60249 108.879 8.06272C108.689 7.51821 108.4 7.08498 108.012 6.76301C107.624 6.44104 107.141 6.28005 106.563 6.28005C105.971 6.28005 105.479 6.44104 105.086 6.76301C104.698 7.08498 104.407 7.51821 104.212 8.06272C104.023 8.60249 103.928 9.20619 103.928 9.8738C103.928 10.5367 104.023 11.138 104.212 11.6778C104.407 12.2176 104.698 12.6484 105.086 12.9704C105.479 13.2876 105.971 13.4462 106.563 13.4462Z" fill="#365F6F"/>
<path d="M84.942 15.293L80.8369 0.747559H83.6707L86.2915 11.4365H86.4264L89.2247 0.747559H91.8028L94.6082 11.4436H94.7361L97.3568 0.747559H100.191L96.0855 15.293H93.4861L90.5741 5.08705H90.4605L87.5415 15.293H84.942Z" fill="#365F6F"/>
<path d="M72.4518 7.26727L70.108 7.52295C70.0418 7.28621 69.9257 7.06367 69.76 6.85534C69.599 6.647 69.3812 6.47891 69.1066 6.35107C68.832 6.22323 68.4958 6.15931 68.0981 6.15931C67.5631 6.15931 67.1133 6.27532 66.7487 6.50732C66.3888 6.73933 66.2113 7.03999 66.216 7.40931C66.2113 7.72655 66.3273 7.9846 66.564 8.18346C66.8055 8.38232 67.2032 8.54568 67.7572 8.67352L69.618 9.07124C70.6502 9.29378 71.4172 9.64653 71.9191 10.1295C72.4258 10.6124 72.6814 11.2445 72.6862 12.0258C72.6814 12.7123 72.4802 13.3184 72.0825 13.844C71.6895 14.3648 71.1426 14.772 70.4418 15.0656C69.7411 15.3591 68.9362 15.5059 68.0271 15.5059C66.6918 15.5059 65.617 15.2265 64.8026 14.6678C63.9883 14.1044 63.5029 13.3208 63.3467 12.317L65.8538 12.0755C65.9674 12.5679 66.2089 12.9396 66.5782 13.1906C66.9475 13.4415 67.4281 13.567 68.02 13.567C68.6308 13.567 69.1208 13.4415 69.4901 13.1906C69.8642 12.9396 70.0512 12.6295 70.0512 12.2602C70.0512 11.9477 69.9305 11.6896 69.689 11.486C69.4523 11.2824 69.0829 11.1262 68.5811 11.0173L66.7203 10.6266C65.6739 10.4088 64.8997 10.0419 64.3978 9.52579C63.8959 9.00496 63.6473 8.34681 63.6521 7.55136C63.6473 6.87901 63.8296 6.29662 64.1989 5.8042C64.573 5.30704 65.0915 4.92352 65.7543 4.65363C66.422 4.37901 67.1914 4.2417 68.0626 4.2417C69.341 4.2417 70.3471 4.51395 71.0811 5.05846C71.8197 5.60297 72.2766 6.33924 72.4518 7.26727Z" fill="#365F6F"/>
<path d="M55.8037 15.5059C54.7099 15.5059 53.7653 15.2786 52.9699 14.8241C52.1791 14.3648 51.5707 13.7161 51.1446 12.8781C50.7184 12.0353 50.5054 11.0433 50.5054 9.90221C50.5054 8.78005 50.7184 7.7952 51.1446 6.94766C51.5754 6.09539 52.1768 5.43251 52.9486 4.95903C53.7203 4.48081 54.6271 4.2417 55.6687 4.2417C56.3411 4.2417 56.9755 4.3506 57.5721 4.5684C58.1735 4.78147 58.7038 5.11291 59.163 5.56272C59.6271 6.01253 59.9916 6.58545 60.2568 7.28147C60.5219 7.97276 60.6545 8.79662 60.6545 9.75306V10.5414H51.7128V8.80846H58.19C58.1853 8.31604 58.0788 7.87806 57.8704 7.49454C57.6621 7.10628 57.3709 6.80088 56.9968 6.57835C56.6275 6.35581 56.1967 6.24454 55.7042 6.24454C55.1787 6.24454 54.717 6.37238 54.3193 6.62806C53.9216 6.87901 53.6114 7.21045 53.3889 7.62238C53.1711 8.02958 53.0598 8.47702 53.0551 8.96471V10.4775C53.0551 11.112 53.1711 11.6565 53.4031 12.111C53.6351 12.5608 53.9594 12.9065 54.3761 13.1479C54.7928 13.3847 55.2805 13.5031 55.8392 13.5031C56.2132 13.5031 56.5518 13.451 56.8548 13.3468C57.1578 13.2379 57.4206 13.0793 57.6432 12.871C57.8657 12.6626 58.0338 12.4046 58.1474 12.0968L60.548 12.3667C60.3965 13.0012 60.1076 13.5551 59.6815 14.0286C59.2601 14.4974 58.7203 14.862 58.0622 15.1224C57.404 15.3781 56.6512 15.5059 55.8037 15.5059Z" fill="#365F6F"/>
<path d="M47.3303 0.747559V15.293H44.7593V0.747559H47.3303Z" fill="#365F6F"/>
<path d="M41.3748 4.38414V6.37278H35.1035V4.38414H41.3748ZM36.6518 1.77051H39.2228V12.012C39.2228 12.3576 39.2749 12.6228 39.3791 12.8074C39.488 12.9874 39.63 13.1105 39.8052 13.1768C39.9804 13.243 40.1745 13.2762 40.3876 13.2762C40.5486 13.2762 40.6954 13.2644 40.8279 13.2407C40.9653 13.217 41.0694 13.1957 41.1404 13.1768L41.5737 15.1867C41.4364 15.234 41.2399 15.2861 40.9842 15.343C40.7333 15.3998 40.4255 15.4329 40.0609 15.4424C39.417 15.4613 38.8369 15.3643 38.3208 15.1512C37.8047 14.9334 37.3952 14.5972 37.0922 14.1427C36.7939 13.6881 36.6471 13.1199 36.6518 12.4381V1.77051Z" fill="#365F6F"/>
<path d="M32.7772 4.38414V6.37278H26.5059V4.38414H32.7772ZM28.0542 1.77051H30.6252V12.012C30.6252 12.3576 30.6773 12.6228 30.7814 12.8074C30.8903 12.9874 31.0324 13.1105 31.2076 13.1768C31.3828 13.243 31.5769 13.2762 31.7899 13.2762C31.9509 13.2762 32.0977 13.2644 32.2303 13.2407C32.3676 13.217 32.4718 13.1957 32.5428 13.1768L32.976 15.1867C32.8387 15.234 32.6422 15.2861 32.3865 15.343C32.1356 15.3998 31.8278 15.4329 31.4632 15.4424C30.8193 15.4613 30.2393 15.3643 29.7232 15.1512C29.2071 14.9334 28.7975 14.5972 28.4945 14.1427C28.1962 13.6881 28.0494 13.1199 28.0542 12.4381V1.77051Z" fill="#365F6F"/>
<path d="M17.9846 15.513C17.2933 15.513 16.6706 15.3899 16.1167 15.1437C15.5674 14.8927 15.1318 14.5234 14.8098 14.0357C14.4926 13.548 14.334 12.9467 14.334 12.2318C14.334 11.6162 14.4476 11.1072 14.6749 10.7048C14.9022 10.3023 15.2123 9.98033 15.6053 9.73886C15.9983 9.49738 16.441 9.31509 16.9334 9.19198C17.4306 9.06414 17.9443 8.97181 18.4746 8.91499C19.1138 8.84871 19.6323 8.78952 20.03 8.73744C20.4277 8.68062 20.7166 8.59539 20.8965 8.48176C21.0811 8.36338 21.1735 8.18109 21.1735 7.93488V7.89227C21.1735 7.35723 21.0149 6.94293 20.6976 6.64937C20.3804 6.35581 19.9235 6.20903 19.3269 6.20903C18.6971 6.20903 18.1976 6.34634 17.8283 6.62096C17.4637 6.89558 17.2175 7.21992 17.0897 7.59397L14.6891 7.25306C14.8785 6.59018 15.191 6.03621 15.6266 5.59113C16.0622 5.14132 16.5949 4.80514 17.2246 4.58261C17.8543 4.35533 18.5504 4.2417 19.3127 4.2417C19.8382 4.2417 20.3614 4.30325 20.8823 4.42636C21.4031 4.54946 21.879 4.75306 22.3098 5.03715C22.7407 5.31651 23.0864 5.69766 23.3468 6.18062C23.6119 6.66357 23.7445 7.26727 23.7445 7.9917V15.2928H21.2729V13.7943H21.1877C21.0314 14.0973 20.8113 14.3814 20.5272 14.6465C20.2478 14.9069 19.8951 15.1176 19.4689 15.2786C19.0475 15.4349 18.5527 15.513 17.9846 15.513ZM18.6522 13.6238C19.1683 13.6238 19.6157 13.522 19.9945 13.3184C20.3733 13.1101 20.6645 12.8354 20.8681 12.4945C21.0764 12.1536 21.1806 11.7819 21.1806 11.3795V10.094C21.1001 10.1603 20.9628 10.2218 20.7686 10.2786C20.5792 10.3354 20.3662 10.3852 20.1294 10.4278C19.8927 10.4704 19.6583 10.5083 19.4263 10.5414C19.1943 10.5746 18.9931 10.603 18.8226 10.6266C18.4391 10.6787 18.0958 10.764 17.7928 10.8823C17.4898 11.0007 17.2507 11.1664 17.0755 11.3795C16.9003 11.5878 16.8127 11.8577 16.8127 12.1891C16.8127 12.6626 16.9855 13.0201 17.3311 13.2616C17.6768 13.5031 18.1171 13.6238 18.6522 13.6238Z" fill="#365F6F"/>
<path d="M0.814453 15.293V0.747559H6.38264C7.43377 0.747559 8.30735 0.913278 9.00337 1.24472C9.70413 1.57142 10.2273 2.01887 10.573 2.58705C10.9234 3.15523 11.0985 3.79917 11.0985 4.51887C11.0985 5.11072 10.9849 5.61735 10.7576 6.03875C10.5304 6.45542 10.225 6.79396 9.84144 7.05438C9.45792 7.31479 9.02942 7.50182 8.55593 7.61546V7.7575C9.07203 7.78591 9.56682 7.94453 10.0403 8.23335C10.5185 8.51745 10.9092 8.91991 11.2122 9.44074C11.5152 9.96157 11.6667 10.5913 11.6667 11.3299C11.6667 12.0828 11.4844 12.7599 11.1199 13.3612C10.7553 13.9578 10.206 14.4289 9.47212 14.7745C8.73822 15.1202 7.81493 15.293 6.70224 15.293H0.814453ZM3.4494 13.0913H6.2832C7.23964 13.0913 7.92856 12.909 8.34997 12.5444C8.7761 12.1751 8.98917 11.7016 8.98917 11.124C8.98917 10.6931 8.88264 10.3049 8.66957 9.95921C8.4565 9.60883 8.15347 9.33421 7.76048 9.13534C7.36748 8.93174 6.89873 8.82995 6.35423 8.82995H3.4494V13.0913ZM3.4494 6.93364H6.05593C6.51048 6.93364 6.92004 6.85078 7.28462 6.68506C7.64921 6.5146 7.93567 6.27549 8.144 5.96773C8.35707 5.65523 8.4636 5.28591 8.4636 4.85977C8.4636 4.29633 8.26474 3.83231 7.86701 3.46773C7.47402 3.10315 6.88926 2.92085 6.11275 2.92085H3.4494V6.93364Z" fill="#365F6F"/>
</svg>
