<svg width="174" height="17" viewBox="0 0 174 17" fill="none" xmlns="http://www.w3.org/2000/svg">
<path d="M167.577 16.0102C166.72 16.0102 165.953 15.79 165.276 15.3497C164.599 14.9093 164.064 14.2701 163.671 13.432C163.278 12.594 163.082 11.576 163.082 10.3781C163.082 9.16594 163.28 8.14321 163.678 7.30988C164.081 6.47181 164.623 5.83971 165.305 5.41357C165.986 4.9827 166.746 4.76727 167.584 4.76727C168.224 4.76727 168.749 4.87617 169.161 5.09397C169.573 5.30704 169.9 5.56509 170.141 5.86812C170.383 6.16642 170.57 6.44814 170.702 6.71329H170.809V1.27295H173.387V15.8184H170.859V14.0997H170.702C170.57 14.3648 170.378 14.6465 170.127 14.9448C169.876 15.2384 169.545 15.4893 169.133 15.6977C168.721 15.906 168.202 16.0102 167.577 16.0102ZM168.295 13.9008C168.839 13.9008 169.303 13.754 169.687 13.4605C170.07 13.1622 170.361 12.7479 170.56 12.2176C170.759 11.6872 170.859 11.0694 170.859 10.3639C170.859 9.65837 170.759 9.0452 170.56 8.52437C170.366 8.00354 170.077 7.59871 169.694 7.30988C169.315 7.02106 168.849 6.87664 168.295 6.87664C167.722 6.87664 167.243 7.02579 166.86 7.32409C166.476 7.62238 166.188 8.03431 165.993 8.55988C165.799 9.08545 165.702 9.68678 165.702 10.3639C165.702 11.0457 165.799 11.6541 165.993 12.1891C166.192 12.7194 166.484 13.1385 166.867 13.4462C167.255 13.7493 167.731 13.9008 168.295 13.9008Z" fill="#365F6F"/>
<path d="M155.503 16.0313C154.409 16.0313 153.465 15.804 152.669 15.3495C151.878 14.8902 151.27 14.2415 150.844 13.4035C150.418 12.5607 150.205 11.5687 150.205 10.4276C150.205 9.30544 150.418 8.32059 150.844 7.47305C151.275 6.62078 151.876 5.9579 152.648 5.48442C153.42 5.0062 154.326 4.76709 155.368 4.76709C156.04 4.76709 156.675 4.87599 157.271 5.09379C157.873 5.30686 158.403 5.6383 158.862 6.08811C159.326 6.53792 159.691 7.11084 159.956 7.80686C160.221 8.49815 160.354 9.32201 160.354 10.2785V11.0668H151.412V9.33385H157.889C157.885 8.84143 157.778 8.40345 157.57 8.01993C157.361 7.63167 157.07 7.32627 156.696 7.10374C156.327 6.8812 155.896 6.76993 155.403 6.76993C154.878 6.76993 154.416 6.89777 154.019 7.15345C153.621 7.4044 153.311 7.73584 153.088 8.14777C152.87 8.55497 152.759 9.00241 152.754 9.4901V11.0029C152.754 11.6374 152.87 12.1819 153.102 12.6364C153.334 13.0862 153.659 13.4319 154.075 13.6733C154.492 13.9101 154.98 14.0285 155.538 14.0285C155.912 14.0285 156.251 13.9764 156.554 13.8722C156.857 13.7633 157.12 13.6047 157.342 13.3964C157.565 13.188 157.733 12.93 157.847 12.6222L160.247 12.8921C160.096 13.5266 159.807 14.0805 159.381 14.554C158.959 15.0228 158.42 15.3874 157.761 15.6478C157.103 15.9035 156.35 16.0313 155.503 16.0313Z" fill="#365F6F"/>
<path d="M141.08 12.3951L141.072 9.29142H141.484L145.405 4.90931H148.409L143.587 10.2786H143.054L141.08 12.3951ZM138.736 15.8184V1.27295H141.307V15.8184H138.736ZM145.582 15.8184L142.031 10.8539L143.764 9.04284L148.658 15.8184H145.582Z" fill="#365F6F"/>
<path d="M135.092 1.27295V15.8184H132.521V1.27295H135.092Z" fill="#365F6F"/>
<path d="M123.176 16.0384C122.485 16.0384 121.862 15.9153 121.308 15.6691C120.759 15.4181 120.323 15.0488 120.001 14.5611C119.684 14.0734 119.525 13.4721 119.525 12.7571C119.525 12.1416 119.639 11.6326 119.866 11.2302C120.094 10.8277 120.404 10.5057 120.797 10.2642C121.19 10.0228 121.632 9.84048 122.125 9.71737C122.622 9.58953 123.136 9.4972 123.666 9.44038C124.305 9.3741 124.824 9.31491 125.221 9.26283C125.619 9.20601 125.908 9.12078 126.088 9.00715C126.273 8.88877 126.365 8.70648 126.365 8.46027V8.41766C126.365 7.88262 126.206 7.46832 125.889 7.17476C125.572 6.8812 125.115 6.73442 124.518 6.73442C123.889 6.73442 123.389 6.87173 123.02 7.14635C122.655 7.42097 122.409 7.74531 122.281 8.11936L119.881 7.77845C120.07 7.11557 120.382 6.5616 120.818 6.11652C121.254 5.66671 121.786 5.33054 122.416 5.108C123.046 4.88073 123.742 4.76709 124.504 4.76709C125.03 4.76709 125.553 4.82864 126.074 4.95175C126.595 5.07485 127.07 5.27845 127.501 5.56254C127.932 5.8419 128.278 6.22306 128.538 6.70601C128.803 7.18896 128.936 7.79266 128.936 8.51709V15.8182H126.464V14.3196H126.379C126.223 14.6227 126.003 14.9068 125.719 15.1719C125.439 15.4323 125.086 15.643 124.66 15.804C124.239 15.9603 123.744 16.0384 123.176 16.0384ZM123.844 14.1492C124.36 14.1492 124.807 14.0474 125.186 13.8438C125.565 13.6355 125.856 13.3608 126.059 13.0199C126.268 12.679 126.372 12.3073 126.372 11.9049V10.6194C126.291 10.6856 126.154 10.7472 125.96 10.804C125.771 10.8608 125.558 10.9106 125.321 10.9532C125.084 10.9958 124.85 11.0337 124.618 11.0668C124.386 11.0999 124.184 11.1284 124.014 11.152C123.631 11.2041 123.287 11.2893 122.984 11.4077C122.681 11.5261 122.442 11.6918 122.267 11.9049C122.092 12.1132 122.004 12.3831 122.004 12.7145C122.004 13.188 122.177 13.5455 122.523 13.787C122.868 14.0285 123.309 14.1492 123.844 14.1492Z" fill="#365F6F"/>
<path d="M103.188 15.8184L99.083 1.27295H101.917L104.538 11.9619H104.672L107.471 1.27295H110.049L112.854 11.969H112.982L115.603 1.27295H118.437L114.332 15.8184H111.732L108.82 5.61244H108.707L105.788 15.8184H103.188Z" fill="#365F6F"/>
<path d="M86.0263 16.0313C84.9326 16.0313 83.988 15.804 83.1925 15.3495C82.4018 14.8902 81.7934 14.2415 81.3672 13.4035C80.9411 12.5607 80.728 11.5687 80.728 10.4276C80.728 9.30544 80.9411 8.32059 81.3672 7.47305C81.7981 6.62078 82.3994 5.9579 83.1712 5.48442C83.943 5.0062 84.8497 4.76709 85.8914 4.76709C86.5637 4.76709 87.1982 4.87599 87.7948 5.09379C88.3961 5.30686 88.9264 5.6383 89.3857 6.08811C89.8497 6.53792 90.2143 7.11084 90.4794 7.80686C90.7446 8.49815 90.8772 9.32201 90.8772 10.2785V11.0668H81.9354V9.33385H88.4127C88.408 8.84143 88.3014 8.40345 88.0931 8.01993C87.8848 7.63167 87.5936 7.32627 87.2195 7.10374C86.8502 6.8812 86.4193 6.76993 85.9269 6.76993C85.4013 6.76993 84.9397 6.89777 84.5419 7.15345C84.1442 7.4044 83.8341 7.73584 83.6115 8.14777C83.3937 8.55497 83.2825 9.00241 83.2777 9.4901V11.0029C83.2777 11.6374 83.3937 12.1819 83.6258 12.6364C83.8578 13.0862 84.1821 13.4319 84.5988 13.6733C85.0154 13.9101 85.5031 14.0285 86.0618 14.0285C86.4359 14.0285 86.7744 13.9764 87.0775 13.8722C87.3805 13.7633 87.6433 13.6047 87.8658 13.3964C88.0884 13.188 88.2564 12.93 88.3701 12.6222L90.7706 12.8921C90.6191 13.5266 90.3303 14.0805 89.9042 14.554C89.4828 15.0228 88.943 15.3874 88.2848 15.6478C87.6267 15.9035 86.8739 16.0313 86.0263 16.0313Z" fill="#365F6F"/>
<path d="M73.4123 16.0313C72.3233 16.0313 71.3882 15.7922 70.6069 15.314C69.8304 14.8357 69.2315 14.1752 68.8101 13.3324C68.3934 12.4849 68.1851 11.5095 68.1851 10.4063C68.1851 9.29834 68.3981 8.32059 68.8243 7.47305C69.2504 6.62078 69.8517 5.9579 70.6282 5.48442C71.4095 5.0062 72.3328 4.76709 73.3981 4.76709C74.2835 4.76709 75.0672 4.93044 75.749 5.25715C76.4355 5.57912 76.9824 6.03603 77.3896 6.62788C77.7968 7.21501 78.0288 7.90156 78.0856 8.68754H75.6282C75.5288 8.16198 75.2921 7.724 74.918 7.37362C74.5487 7.01851 74.0539 6.84095 73.4336 6.84095C72.9081 6.84095 72.4464 6.983 72.0487 7.26709C71.651 7.54645 71.3408 7.94891 71.1183 8.47448C70.9005 9.00004 70.7916 9.62978 70.7916 10.3637C70.7916 11.1071 70.9005 11.7463 71.1183 12.2813C71.3361 12.8116 71.6415 13.2212 72.0345 13.51C72.4322 13.7941 72.8986 13.9361 73.4336 13.9361C73.8124 13.9361 74.151 13.8651 74.4493 13.7231C74.7523 13.5763 75.0056 13.3656 75.2092 13.091C75.4128 12.8163 75.5525 12.4825 75.6282 12.0895H78.0856C78.0241 12.8613 77.7968 13.5455 77.4038 14.1421C77.0108 14.7339 76.4758 15.198 75.7987 15.5341C75.1216 15.8656 74.3262 16.0313 73.4123 16.0313Z" fill="#365F6F"/>
<path d="M58.0373 9.42618V15.8182H55.4663V4.90913H57.9237V6.76283H58.0515C58.3025 6.15203 58.7026 5.66671 59.2518 5.30686C59.8058 4.94701 60.49 4.76709 61.3044 4.76709C62.0572 4.76709 62.713 4.92807 63.2717 5.25004C63.8352 5.57201 64.2708 6.0384 64.5785 6.64919C64.891 7.25999 65.0449 8.00099 65.0402 8.8722V15.8182H62.4692V9.26993C62.4692 8.54076 62.2798 7.97021 61.901 7.55828C61.5269 7.14635 61.0084 6.94038 60.3456 6.94038C59.8958 6.94038 59.4957 7.03982 59.1453 7.23868C58.7996 7.43281 58.5274 7.71453 58.3285 8.08385C58.1344 8.45317 58.0373 8.90061 58.0373 9.42618Z" fill="#365F6F"/>
<path d="M46.1213 16.0384C45.43 16.0384 44.8074 15.9153 44.2534 15.6691C43.7041 15.4181 43.2685 15.0488 42.9466 14.5611C42.6293 14.0734 42.4707 13.4721 42.4707 12.7571C42.4707 12.1416 42.5843 11.6326 42.8116 11.2302C43.0389 10.8277 43.349 10.5057 43.742 10.2642C44.135 10.0228 44.5777 9.84048 45.0701 9.71737C45.5673 9.58953 46.081 9.4972 46.6113 9.44038C47.2505 9.3741 47.769 9.31491 48.1667 9.26283C48.5645 9.20601 48.8533 9.12078 49.0332 9.00715C49.2179 8.88877 49.3102 8.70648 49.3102 8.46027V8.41766C49.3102 7.88262 49.1516 7.46832 48.8343 7.17476C48.5171 6.8812 48.0602 6.73442 47.4636 6.73442C46.8339 6.73442 46.3343 6.87173 45.965 7.14635C45.6004 7.42097 45.3542 7.74531 45.2264 8.11936L42.8258 7.77845C43.0152 7.11557 43.3277 6.5616 43.7633 6.11652C44.1989 5.66671 44.7316 5.33054 45.3613 5.108C45.9911 4.88073 46.6871 4.76709 47.4494 4.76709C47.975 4.76709 48.4982 4.82864 49.019 4.95175C49.5398 5.07485 50.0157 5.27845 50.4466 5.56254C50.8774 5.8419 51.2231 6.22306 51.4835 6.70601C51.7486 7.18896 51.8812 7.79266 51.8812 8.51709V15.8182H49.4096V14.3196H49.3244C49.1681 14.6227 48.948 14.9068 48.6639 15.1719C48.3845 15.4323 48.0318 15.643 47.6056 15.804C47.1842 15.9603 46.6895 16.0384 46.1213 16.0384ZM46.7889 14.1492C47.305 14.1492 47.7524 14.0474 48.1312 13.8438C48.51 13.6355 48.8012 13.3608 49.0048 13.0199C49.2131 12.679 49.3173 12.3073 49.3173 11.9049V10.6194C49.2368 10.6856 49.0995 10.7472 48.9054 10.804C48.716 10.8608 48.5029 10.9106 48.2662 10.9532C48.0294 10.9958 47.795 11.0337 47.563 11.0668C47.331 11.0999 47.1298 11.1284 46.9593 11.152C46.5758 11.2041 46.2325 11.2893 45.9295 11.4077C45.6265 11.5261 45.3874 11.6918 45.2122 11.9049C45.037 12.1132 44.9494 12.3831 44.9494 12.7145C44.9494 13.188 45.1222 13.5455 45.4679 13.787C45.8135 14.0285 46.2538 14.1492 46.7889 14.1492Z" fill="#365F6F"/>
<path d="M39.8319 4.90953V6.89817H33.5605V4.90953H39.8319ZM35.1088 2.2959H37.6799V12.5374C37.6799 12.883 37.732 13.1482 37.8361 13.3328C37.945 13.5128 38.0871 13.6359 38.2623 13.7021C38.4374 13.7684 38.6316 13.8016 38.8446 13.8016C39.0056 13.8016 39.1524 13.7897 39.285 13.7661C39.4223 13.7424 39.5265 13.7211 39.5975 13.7021L40.0307 15.7121C39.8934 15.7594 39.6969 15.8115 39.4412 15.8683C39.1903 15.9252 38.8825 15.9583 38.5179 15.9678C37.874 15.9867 37.294 15.8896 36.7779 15.6766C36.2618 15.4588 35.8522 15.1226 35.5492 14.6681C35.2509 14.2135 35.1041 13.6453 35.1088 12.9635V2.2959Z" fill="#365F6F"/>
<path d="M31.0299 7.79266L28.6862 8.04834C28.6199 7.8116 28.5039 7.58906 28.3382 7.38073C28.1772 7.17239 27.9594 7.00431 27.6847 6.87646C27.4101 6.74862 27.074 6.6847 26.6762 6.6847C26.1412 6.6847 25.6914 6.80071 25.3268 7.03271C24.9669 7.26472 24.7894 7.56538 24.7941 7.9347C24.7894 8.25194 24.9054 8.50999 25.1421 8.70885C25.3836 8.90771 25.7813 9.07107 26.3353 9.19891L28.1961 9.59663C29.2283 9.81917 29.9954 10.1719 30.4972 10.6549C31.0039 11.1378 31.2596 11.7699 31.2643 12.5512C31.2596 13.2377 31.0583 13.8438 30.6606 14.3694C30.2676 14.8902 29.7207 15.2974 29.02 15.591C28.3192 15.8845 27.5143 16.0313 26.6052 16.0313C25.27 16.0313 24.1952 15.7519 23.3808 15.1932C22.5664 14.6298 22.0811 13.8462 21.9248 12.8424L24.4319 12.6009C24.5455 13.0933 24.787 13.465 25.1563 13.716C25.5257 13.9669 26.0062 14.0924 26.5981 14.0924C27.2089 14.0924 27.699 13.9669 28.0683 13.716C28.4423 13.465 28.6294 13.1549 28.6294 12.7856C28.6294 12.4731 28.5086 12.215 28.2671 12.0114C28.0304 11.8078 27.6611 11.6516 27.1592 11.5427L25.2984 11.152C24.252 10.9342 23.4778 10.5673 22.9759 10.0512C22.474 9.53035 22.2255 8.8722 22.2302 8.07675C22.2255 7.4044 22.4078 6.82201 22.7771 6.32959C23.1511 5.83243 23.6696 5.44891 24.3325 5.17902C25.0001 4.9044 25.7695 4.76709 26.6407 4.76709C27.9191 4.76709 28.9253 5.03934 29.6592 5.58385C30.3978 6.12836 30.8547 6.86463 31.0299 7.79266Z" fill="#365F6F"/>
<path d="M16.193 15.8184V4.90931H18.764V15.8184H16.193ZM17.4856 3.36102C17.0784 3.36102 16.728 3.22607 16.4345 2.95619C16.1409 2.68157 15.9941 2.35249 15.9941 1.96897C15.9941 1.58071 16.1409 1.25164 16.4345 0.981755C16.728 0.707134 17.0784 0.569824 17.4856 0.569824C17.8975 0.569824 18.2479 0.707134 18.5368 0.981755C18.8303 1.25164 18.9771 1.58071 18.9771 1.96897C18.9771 2.35249 18.8303 2.68157 18.5368 2.95619C18.2479 3.22607 17.8975 3.36102 17.4856 3.36102Z" fill="#365F6F"/>
<path d="M5.74343 15.8184H0.814453V1.27295H5.84286C7.28699 1.27295 8.52752 1.56414 9.56445 2.14653C10.6061 2.72418 11.4063 3.55515 11.965 4.63943C12.5237 5.72371 12.8031 7.02106 12.8031 8.53147C12.8031 10.0466 12.5214 11.3487 11.9579 12.4377C11.3992 13.5267 10.5919 14.3624 9.53604 14.9448C8.48491 15.5272 7.2207 15.8184 5.74343 15.8184ZM3.4494 13.5386H5.61559C6.62885 13.5386 7.47402 13.3539 8.1511 12.9846C8.82818 12.6105 9.33718 12.0542 9.67809 11.3156C10.019 10.5722 10.1895 9.64416 10.1895 8.53147C10.1895 7.41878 10.019 6.49549 9.67809 5.76159C9.33718 5.02295 8.83292 4.47134 8.16531 4.10676C7.50243 3.73744 6.67856 3.55278 5.69371 3.55278H3.4494V13.5386Z" fill="#365F6F"/>
</svg>
