<svg width="87" height="9" viewBox="0 0 87 9" fill="none" xmlns="http://www.w3.org/2000/svg">
<path d="M84.703 2.66366C84.6699 2.35353 84.5302 2.11205 84.284 1.93923C84.0401 1.76641 83.7229 1.68 83.3323 1.68C83.0576 1.68 82.8221 1.72143 82.6256 1.80429C82.4291 1.88715 82.2788 1.9996 82.1746 2.14165C82.0704 2.28369 82.0172 2.44586 82.0148 2.62815C82.0148 2.77967 82.0491 2.91106 82.1178 3.02233C82.1888 3.1336 82.2847 3.22829 82.4054 3.30642C82.5261 3.38218 82.6599 3.4461 82.8067 3.49818C82.9535 3.55026 83.1014 3.59406 83.2506 3.62957L83.9324 3.80003C84.207 3.86395 84.471 3.95036 84.7243 4.05926C84.98 4.16816 85.2084 4.30547 85.4097 4.47119C85.6133 4.63691 85.7743 4.83696 85.8926 5.07133C86.011 5.30571 86.0702 5.58033 86.0702 5.8952C86.0702 6.32133 85.9613 6.69657 85.7435 7.02091C85.5257 7.34288 85.2108 7.59501 84.7989 7.7773C84.3893 7.95722 83.8933 8.04719 83.311 8.04719C82.7451 8.04719 82.2539 7.95959 81.8372 7.7844C81.4229 7.60921 81.0986 7.35353 80.8642 7.01736C80.6322 6.68118 80.5067 6.27162 80.4878 5.78866H81.784C81.8029 6.04198 81.881 6.25268 82.0183 6.42077C82.1556 6.58885 82.3344 6.71433 82.5546 6.79719C82.7771 6.88005 83.0257 6.92148 83.3003 6.92148C83.5868 6.92148 83.8377 6.87886 84.0531 6.79363C84.2709 6.70604 84.4414 6.5853 84.5645 6.43142C84.6876 6.27517 84.7503 6.09288 84.7527 5.88454C84.7503 5.69515 84.6947 5.5389 84.5858 5.41579C84.4769 5.29032 84.3242 5.18615 84.1277 5.10329C83.9336 5.01807 83.7063 4.94231 83.4459 4.87602L82.6185 4.66295C82.0195 4.50907 81.546 4.27588 81.198 3.96338C80.8524 3.64851 80.6796 3.23066 80.6796 2.70983C80.6796 2.28132 80.7956 1.90609 81.0276 1.58412C81.2619 1.26215 81.5804 1.01238 81.9828 0.834828C82.3853 0.654904 82.841 0.564941 83.35 0.564941C83.8661 0.564941 84.3183 0.654904 84.7065 0.834828C85.0972 1.01238 85.4038 1.25978 85.6263 1.57702C85.8488 1.89188 85.9636 2.2541 85.9707 2.66366H84.703Z" fill="black"/>
<path d="M77.7089 2.66366C77.6757 2.35353 77.536 2.11205 77.2898 1.93923C77.046 1.76641 76.7287 1.68 76.3381 1.68C76.0635 1.68 75.8279 1.72143 75.6314 1.80429C75.4349 1.88715 75.2846 1.9996 75.1804 2.14165C75.0763 2.28369 75.023 2.44586 75.0206 2.62815C75.0206 2.77967 75.055 2.91106 75.1236 3.02233C75.1946 3.1336 75.2905 3.22829 75.4113 3.30642C75.532 3.38218 75.6658 3.4461 75.8125 3.49818C75.9593 3.55026 76.1073 3.59406 76.2564 3.62957L76.9383 3.80003C77.2129 3.86395 77.4768 3.95036 77.7302 4.05926C77.9858 4.16816 78.2143 4.30547 78.4155 4.47119C78.6191 4.63691 78.7801 4.83696 78.8985 5.07133C79.0169 5.30571 79.076 5.58033 79.076 5.8952C79.076 6.32133 78.9671 6.69657 78.7493 7.02091C78.5315 7.34288 78.2167 7.59501 77.8047 7.7773C77.3952 7.95722 76.8992 8.04719 76.3168 8.04719C75.751 8.04719 75.2598 7.95959 74.8431 7.7844C74.4288 7.60921 74.1044 7.35353 73.8701 7.01736C73.6381 6.68118 73.5126 6.27162 73.4937 5.78866H74.7898C74.8088 6.04198 74.8869 6.25268 75.0242 6.42077C75.1615 6.58885 75.3402 6.71433 75.5604 6.79719C75.783 6.88005 76.0315 6.92148 76.3062 6.92148C76.5926 6.92148 76.8436 6.87886 77.059 6.79363C77.2768 6.70604 77.4473 6.5853 77.5704 6.43142C77.6935 6.27517 77.7562 6.09288 77.7586 5.88454C77.7562 5.69515 77.7006 5.5389 77.5917 5.41579C77.4828 5.29032 77.3301 5.18615 77.1336 5.10329C76.9394 5.01807 76.7122 4.94231 76.4518 4.87602L75.6243 4.66295C75.0254 4.50907 74.5519 4.27588 74.2039 3.96338C73.8582 3.64851 73.6854 3.23066 73.6854 2.70983C73.6854 2.28132 73.8014 1.90609 74.0334 1.58412C74.2678 1.26215 74.5862 1.01238 74.9887 0.834828C75.3911 0.654904 75.8469 0.564941 76.3559 0.564941C76.872 0.564941 77.3241 0.654904 77.7124 0.834828C78.103 1.01238 78.4096 1.25978 78.6321 1.57702C78.8547 1.89188 78.9695 2.2541 78.9766 2.66366H77.7089Z" fill="black"/>
<path d="M67.1821 7.93728V0.664551H71.9122V1.76895H68.4996V3.74339H71.6672V4.84779H68.4996V6.83287H71.9407V7.93728H67.1821Z" fill="black"/>
<path d="M60.1782 7.93728V0.664551H62.9055C63.4642 0.664551 63.933 0.761615 64.3117 0.955744C64.6929 1.14987 64.9805 1.42213 65.1747 1.77251C65.3712 2.12052 65.4694 2.52653 65.4694 2.99055C65.4694 3.45693 65.37 3.86176 65.1711 4.20503C64.9746 4.54594 64.6846 4.80991 64.3011 4.99694C63.9176 5.1816 63.4464 5.27393 62.8877 5.27393H60.9453V4.18018H62.7102C63.0369 4.18018 63.3044 4.13519 63.5127 4.04523C63.7211 3.9529 63.875 3.81914 63.9744 3.64395C64.0762 3.4664 64.1271 3.24859 64.1271 2.99055C64.1271 2.7325 64.0762 2.51233 63.9744 2.33003C63.8726 2.14537 63.7175 2.0057 63.5092 1.911C63.3009 1.81394 63.0322 1.7654 62.7031 1.7654H61.4957V7.93728H60.1782ZM63.9353 4.64182L65.7357 7.93728H64.2656L62.4971 4.64182H63.9353Z" fill="black"/>
<path d="M54.8966 7.93728H52.4321V0.664551H54.9463C55.6684 0.664551 56.2887 0.810147 56.8071 1.10134C57.328 1.39017 57.7281 1.80565 58.0074 2.34779C58.2868 2.88993 58.4264 3.5386 58.4264 4.29381C58.4264 5.05139 58.2856 5.70243 58.0039 6.24694C57.7245 6.79144 57.3209 7.2093 56.7929 7.50049C56.2674 7.79168 55.6353 7.93728 54.8966 7.93728ZM53.7496 6.79736H54.8327C55.3393 6.79736 55.7619 6.70503 56.1005 6.52037C56.439 6.33335 56.6935 6.05518 56.8639 5.68586C57.0344 5.31417 57.1196 4.85016 57.1196 4.29381C57.1196 3.73747 57.0344 3.27582 56.8639 2.90887C56.6935 2.53955 56.4414 2.26375 56.1076 2.08145C55.7761 1.8968 55.3642 1.80447 54.8718 1.80447H53.7496V6.79736Z" fill="black"/>
<path d="M47.1505 7.93728H44.686V0.664551H47.2002C47.9223 0.664551 48.5426 0.810147 49.061 1.10134C49.5819 1.39017 49.982 1.80565 50.2613 2.34779C50.5407 2.88993 50.6804 3.5386 50.6804 4.29381C50.6804 5.05139 50.5395 5.70243 50.2578 6.24694C49.9784 6.79144 49.5748 7.2093 49.0468 7.50049C48.5213 7.79168 47.8892 7.93728 47.1505 7.93728ZM46.0035 6.79736H47.0866C47.5932 6.79736 48.0158 6.70503 48.3544 6.52037C48.6929 6.33335 48.9474 6.05518 49.1179 5.68586C49.2883 5.31417 49.3735 4.85016 49.3735 4.29381C49.3735 3.73747 49.2883 3.27582 49.1179 2.90887C48.9474 2.53955 48.6953 2.26375 48.3615 2.08145C48.03 1.8968 47.6181 1.80447 47.1257 1.80447H46.0035V6.79736Z" fill="black"/>
<path d="M37.8838 7.93728H36.4775L39.0379 0.664551H40.6643L43.2282 7.93728H41.822L39.8795 2.15603H39.8227L37.8838 7.93728ZM37.93 5.08572H41.7652V6.14395H37.93V5.08572Z" fill="black"/>
<path d="M27.8052 7.93728V0.664551H29.1226V6.83287H32.3258V7.93728H27.8052Z" fill="black"/>
<path d="M25.8785 0.664551V7.93728H24.561V0.664551H25.8785Z" fill="black"/>
<path d="M17.7588 7.93728H16.3525L18.9129 0.664551H20.5393L23.1033 7.93728H21.697L19.7545 2.15603H19.6977L17.7588 7.93728ZM17.805 5.08572H21.6402V6.14395H17.805V5.08572Z" fill="black"/>
<path d="M7.26221 0.664551H8.87442L11.0335 5.93444H11.1187L13.2778 0.664551H14.89V7.93728H13.6258V2.94083H13.5584L11.5484 7.91597H10.6038L8.59388 2.93018H8.52641V7.93728H7.26221V0.664551Z" fill="black"/>
<path d="M0.687988 7.93728V0.664551H5.4181V1.76895H2.00546V3.74339H5.17307V4.84779H2.00546V6.83287H5.44651V7.93728H0.687988Z" fill="black"/>
</svg>
