<svg width="378" height="13" viewBox="0 0 378 13" fill="none" xmlns="http://www.w3.org/2000/svg">
<path d="M375.805 1.27344V4.18395H375.089V1.27344H375.805ZM377.803 1.27344V4.18395H377.088V1.27344H377.803Z" fill="black"/>
<path d="M374.074 10.0642C373.907 10.0642 373.762 10.0045 373.64 9.88521C373.52 9.76305 373.461 9.61816 373.461 9.45055C373.461 9.2801 373.52 9.13521 373.64 9.01589C373.762 8.89657 373.907 8.83691 374.074 8.83691C374.245 8.83691 374.39 8.89657 374.509 9.01589C374.628 9.13521 374.688 9.2801 374.688 9.45055C374.688 9.56135 374.66 9.66362 374.603 9.75737C374.549 9.85112 374.475 9.9264 374.381 9.98322C374.29 10.0372 374.188 10.0642 374.074 10.0642Z" fill="black"/>
<path d="M368.946 10.1371C368.409 10.1371 367.939 9.99503 367.536 9.71094C367.132 9.42685 366.817 9.03054 366.59 8.52202C366.365 8.01349 366.253 7.42116 366.253 6.74503C366.253 6.07173 366.365 5.48224 366.59 4.97656C366.817 4.46804 367.134 4.07315 367.54 3.7919C367.946 3.50781 368.419 3.36577 368.959 3.36577C369.357 3.36577 369.688 3.43679 369.952 3.57884C370.216 3.71804 370.428 3.89134 370.587 4.09872C370.746 4.30611 370.87 4.50781 370.958 4.70384H371.026V1.27344H371.789V10.0007H371.047V8.78622H370.958C370.87 8.98509 370.745 9.18963 370.583 9.39986C370.421 9.60724 370.206 9.78196 369.939 9.92401C369.675 10.0661 369.344 10.1371 368.946 10.1371ZM369.036 9.44247C369.459 9.44247 369.82 9.32742 370.118 9.0973C370.417 8.86435 370.644 8.54474 370.8 8.13849C370.959 7.7294 371.039 7.26065 371.039 6.73224C371.039 6.20952 370.961 5.74787 370.804 5.3473C370.648 4.94389 370.421 4.62855 370.122 4.40128C369.824 4.17116 369.462 4.05611 369.036 4.05611C368.598 4.05611 368.229 4.17543 367.928 4.41406C367.63 4.64986 367.402 4.96946 367.246 5.37287C367.093 5.77628 367.016 6.2294 367.016 6.73224C367.016 7.24077 367.094 7.69957 367.25 8.10867C367.407 8.51776 367.634 8.84304 367.932 9.08452C368.233 9.32315 368.601 9.44247 369.036 9.44247Z" fill="black"/>
<path d="M362.743 10.1365C362.133 10.1365 361.604 9.9945 361.158 9.7104C360.712 9.42347 360.367 9.02717 360.123 8.52148C359.881 8.01296 359.76 7.42773 359.76 6.7658C359.76 6.10671 359.881 5.52148 360.123 5.01012C360.367 4.49592 360.704 4.09393 361.133 3.80415C361.564 3.51154 362.063 3.36523 362.628 3.36523C362.984 3.36523 363.326 3.43057 363.655 3.56126C363.985 3.6891 364.28 3.88654 364.542 4.15359C364.806 4.41779 365.015 4.7516 365.168 5.15501C365.322 5.55558 365.398 6.03001 365.398 6.5783V6.9533H360.285V6.28427H364.623C364.623 5.86381 364.537 5.48597 364.367 5.15075C364.199 4.81268 363.965 4.54563 363.664 4.34961C363.366 4.15359 363.02 4.05557 362.628 4.05557C362.214 4.05557 361.849 4.16637 361.533 4.38796C361.218 4.60955 360.971 4.90217 360.792 5.2658C360.616 5.62944 360.526 6.02717 360.523 6.45898V6.85955C360.523 7.37944 360.613 7.83398 360.792 8.22319C360.974 8.60955 361.231 8.90927 361.563 9.12234C361.895 9.3354 362.289 9.44194 362.743 9.44194C363.053 9.44194 363.324 9.39364 363.557 9.29705C363.793 9.20046 363.991 9.0712 364.15 8.90927C364.312 8.7445 364.434 8.5641 364.516 8.36808L365.236 8.60245C365.137 8.87802 364.974 9.13228 364.746 9.36523C364.522 9.59819 364.241 9.78569 363.903 9.92773C363.567 10.0669 363.181 10.1365 362.743 10.1365Z" fill="black"/>
<path d="M355.574 10.1371C355.037 10.1371 354.567 9.99503 354.164 9.71094C353.761 9.42685 353.445 9.03054 353.218 8.52202C352.993 8.01349 352.881 7.42116 352.881 6.74503C352.881 6.07173 352.993 5.48224 353.218 4.97656C353.445 4.46804 353.762 4.07315 354.168 3.7919C354.574 3.50781 355.047 3.36577 355.587 3.36577C355.985 3.36577 356.316 3.43679 356.58 3.57884C356.844 3.71804 357.056 3.89134 357.215 4.09872C357.374 4.30611 357.498 4.50781 357.586 4.70384H357.654V1.27344H358.417V10.0007H357.675V8.78622H357.586C357.498 8.98509 357.373 9.18963 357.211 9.39986C357.049 9.60724 356.834 9.78196 356.567 9.92401C356.303 10.0661 355.972 10.1371 355.574 10.1371ZM355.664 9.44247C356.087 9.44247 356.448 9.32742 356.746 9.0973C357.045 8.86435 357.272 8.54474 357.428 8.13849C357.587 7.7294 357.667 7.26065 357.667 6.73224C357.667 6.20952 357.589 5.74787 357.432 5.3473C357.276 4.94389 357.049 4.62855 356.751 4.40128C356.452 4.17116 356.09 4.05611 355.664 4.05611C355.226 4.05611 354.857 4.17543 354.556 4.41406C354.258 4.64986 354.03 4.96946 353.874 5.37287C353.721 5.77628 353.644 6.2294 353.644 6.73224C353.644 7.24077 353.722 7.69957 353.878 8.10867C354.035 8.51776 354.262 8.84304 354.56 9.08452C354.861 9.32315 355.229 9.44247 355.664 9.44247Z" fill="black"/>
<path d="M347.507 5.90891V9.99982H346.749V3.45437H347.486V4.48136H347.554C347.707 4.14613 347.946 3.87766 348.27 3.67596C348.597 3.47141 349 3.36914 349.48 3.36914C349.921 3.36914 350.307 3.46147 350.639 3.64613C350.975 3.82795 351.234 4.09641 351.419 4.45153C351.607 4.80664 351.7 5.24272 351.7 5.75977V9.99982H350.942V5.80664C350.942 5.26971 350.791 4.84499 350.49 4.53249C350.192 4.21999 349.791 4.06374 349.288 4.06374C348.945 4.06374 348.639 4.13761 348.372 4.28533C348.105 4.43306 347.894 4.64613 347.737 4.92454C347.584 5.20011 347.507 5.52823 347.507 5.90891Z" fill="black"/>
<path d="M342.902 10.1365C342.291 10.1365 341.763 9.9945 341.317 9.7104C340.871 9.42347 340.526 9.02717 340.282 8.52148C340.04 8.01296 339.919 7.42773 339.919 6.7658C339.919 6.10671 340.04 5.52148 340.282 5.01012C340.526 4.49592 340.862 4.09393 341.291 3.80415C341.723 3.51154 342.222 3.36523 342.787 3.36523C343.142 3.36523 343.485 3.43057 343.814 3.56126C344.144 3.6891 344.439 3.88654 344.701 4.15359C344.965 4.41779 345.174 4.7516 345.327 5.15501C345.48 5.55558 345.557 6.03001 345.557 6.5783V6.9533H340.443V6.28427H344.782C344.782 5.86381 344.696 5.48597 344.526 5.15075C344.358 4.81268 344.124 4.54563 343.823 4.34961C343.524 4.15359 343.179 4.05557 342.787 4.05557C342.372 4.05557 342.007 4.16637 341.692 4.38796C341.377 4.60955 341.13 4.90217 340.951 5.2658C340.774 5.62944 340.685 6.02717 340.682 6.45898V6.85955C340.682 7.37944 340.772 7.83398 340.951 8.22319C341.132 8.60955 341.389 8.90927 341.722 9.12234C342.054 9.3354 342.448 9.44194 342.902 9.44194C343.212 9.44194 343.483 9.39364 343.716 9.29705C343.952 9.20046 344.149 9.0712 344.309 8.90927C344.47 8.7445 344.593 8.5641 344.675 8.36808L345.395 8.60245C345.296 8.87802 345.132 9.13228 344.905 9.36523C344.681 9.59819 344.399 9.78569 344.061 9.92773C343.726 10.0669 343.34 10.1365 342.902 10.1365Z" fill="black"/>
<path d="M339.084 3.4549V4.11541H335.96V3.4549H339.084ZM336.936 1.88672H337.699V8.29155C337.699 8.56428 337.746 8.77876 337.839 8.93501C337.933 9.08842 338.055 9.1978 338.206 9.26314C338.356 9.32564 338.517 9.35689 338.687 9.35689C338.787 9.35689 338.872 9.35121 338.943 9.33984C339.014 9.32564 339.077 9.31143 339.131 9.29723L339.292 9.98331C339.219 10.0117 339.128 10.0373 339.02 10.06C338.912 10.0856 338.778 10.0984 338.619 10.0984C338.341 10.0984 338.072 10.0373 337.814 9.91513C337.558 9.79297 337.348 9.61115 337.183 9.36967C337.018 9.1282 336.936 8.82848 336.936 8.47053V1.88672Z" fill="black"/>
<path d="M330.795 5.90891V9.99982H330.036V3.45437H330.773V4.48136H330.842C330.995 4.14613 331.234 3.87766 331.558 3.67596C331.884 3.47141 332.288 3.36914 332.768 3.36914C333.208 3.36914 333.594 3.46147 333.927 3.64613C334.262 3.82795 334.522 4.09641 334.707 4.45153C334.894 4.80664 334.988 5.24272 334.988 5.75977V9.99982H334.229V5.80664C334.229 5.26971 334.079 4.84499 333.778 4.53249C333.479 4.21999 333.079 4.06374 332.576 4.06374C332.232 4.06374 331.927 4.13761 331.66 4.28533C331.393 4.43306 331.181 4.64613 331.025 4.92454C330.871 5.20011 330.795 5.52823 330.795 5.90891Z" fill="black"/>
<path d="M327.747 10.0006V3.45517H328.51V10.0006H327.747ZM328.135 2.33017C327.979 2.33017 327.845 2.27761 327.735 2.1725C327.624 2.06454 327.568 1.93528 327.568 1.78471C327.568 1.63414 327.624 1.5063 327.735 1.40119C327.845 1.29324 327.979 1.23926 328.135 1.23926C328.292 1.23926 328.425 1.29324 328.536 1.40119C328.647 1.5063 328.702 1.63414 328.702 1.78471C328.702 1.93528 328.647 2.06454 328.536 2.1725C328.425 2.27761 328.292 2.33017 328.135 2.33017Z" fill="black"/>
<path d="M323.569 4.8908L322.875 5.08682C322.807 4.8908 322.71 4.71325 322.585 4.55415C322.46 4.39506 322.297 4.26864 322.095 4.17489C321.896 4.08114 321.649 4.03427 321.353 4.03427C320.91 4.03427 320.547 4.13938 320.262 4.34961C319.978 4.55984 319.836 4.83114 319.836 5.16353C319.836 5.44478 319.933 5.67347 320.126 5.84961C320.322 6.0229 320.623 6.16069 321.03 6.26296L322.018 6.50586C322.566 6.63938 322.977 6.85103 323.25 7.1408C323.525 7.43057 323.663 7.79421 323.663 8.23171C323.663 8.60103 323.561 8.92915 323.356 9.21609C323.152 9.50302 322.866 9.72887 322.5 9.89364C322.136 10.0556 321.714 10.1365 321.234 10.1365C320.595 10.1365 320.068 9.99308 319.653 9.70614C319.238 9.41637 318.973 8.99876 318.856 8.4533L319.585 8.27433C319.679 8.66353 319.862 8.95756 320.135 9.15643C320.41 9.35529 320.772 9.45472 321.221 9.45472C321.724 9.45472 322.126 9.34251 322.427 9.11808C322.728 8.8908 322.879 8.60671 322.879 8.2658C322.879 8.0016 322.791 7.78001 322.615 7.60103C322.439 7.41921 322.172 7.28569 321.814 7.20046L320.744 6.94478C320.176 6.80842 319.755 6.59251 319.483 6.29705C319.21 6.0016 319.074 5.63512 319.074 5.19762C319.074 4.83683 319.172 4.52006 319.368 4.24734C319.564 3.97177 319.833 3.75586 320.177 3.59961C320.521 3.44336 320.913 3.36523 321.353 3.36523C321.953 3.36523 322.432 3.5016 322.789 3.77432C323.15 4.04421 323.41 4.41637 323.569 4.8908Z" fill="black"/>
<path d="M316.883 10.0006V3.45517H317.646V10.0006H316.883ZM317.271 2.33017C317.114 2.33017 316.981 2.27761 316.87 2.1725C316.759 2.06454 316.704 1.93528 316.704 1.78471C316.704 1.63414 316.759 1.5063 316.87 1.40119C316.981 1.29324 317.114 1.23926 317.271 1.23926C317.427 1.23926 317.56 1.29324 317.671 1.40119C317.782 1.5063 317.837 1.63414 317.837 1.78471C317.837 1.93528 317.782 2.06454 317.671 2.1725C317.56 2.27761 317.427 2.33017 317.271 2.33017Z" fill="black"/>
<path d="M312.737 3.4549V4.11541H309.613V3.4549H312.737ZM310.589 1.88672H311.352V8.29155C311.352 8.56428 311.399 8.77876 311.492 8.93501C311.586 9.08842 311.708 9.1978 311.859 9.26314C312.009 9.32564 312.17 9.35689 312.34 9.35689C312.44 9.35689 312.525 9.35121 312.596 9.33984C312.667 9.32564 312.73 9.31143 312.784 9.29723L312.945 9.98331C312.872 10.0117 312.781 10.0373 312.673 10.06C312.565 10.0856 312.431 10.0984 312.272 10.0984C311.994 10.0984 311.725 10.0373 311.467 9.91513C311.211 9.79297 311.001 9.61115 310.836 9.36967C310.671 9.1282 310.589 8.82848 310.589 8.47053V1.88672Z" fill="black"/>
<path d="M304.448 5.90891V9.99982H303.689V3.45437H304.426V4.48136H304.495C304.648 4.14613 304.887 3.87766 305.211 3.67596C305.537 3.47141 305.941 3.36914 306.421 3.36914C306.861 3.36914 307.247 3.46147 307.58 3.64613C307.915 3.82795 308.175 4.09641 308.36 4.45153C308.547 4.80664 308.641 5.24272 308.641 5.75977V9.99982H307.882V5.80664C307.882 5.26971 307.732 4.84499 307.431 4.53249C307.132 4.21999 306.732 4.06374 306.229 4.06374C305.885 4.06374 305.58 4.13761 305.313 4.28533C305.046 4.43306 304.834 4.64613 304.678 4.92454C304.524 5.20011 304.448 5.52823 304.448 5.90891Z" fill="black"/>
<path d="M299.843 10.1365C299.232 10.1365 298.704 9.9945 298.258 9.7104C297.812 9.42347 297.467 9.02717 297.222 8.52148C296.981 8.01296 296.86 7.42773 296.86 6.7658C296.86 6.10671 296.981 5.52148 297.222 5.01012C297.467 4.49592 297.803 4.09393 298.232 3.80415C298.664 3.51154 299.163 3.36523 299.728 3.36523C300.083 3.36523 300.425 3.43057 300.755 3.56126C301.084 3.6891 301.38 3.88654 301.641 4.15359C301.905 4.41779 302.114 4.7516 302.268 5.15501C302.421 5.55558 302.498 6.03001 302.498 6.5783V6.9533H297.384V6.28427H301.722C301.722 5.86381 301.637 5.48597 301.467 5.15075C301.299 4.81268 301.065 4.54563 300.763 4.34961C300.465 4.15359 300.12 4.05557 299.728 4.05557C299.313 4.05557 298.948 4.16637 298.633 4.38796C298.317 4.60955 298.07 4.90217 297.891 5.2658C297.715 5.62944 297.626 6.02717 297.623 6.45898V6.85955C297.623 7.37944 297.712 7.83398 297.891 8.22319C298.073 8.60955 298.33 8.90927 298.663 9.12234C298.995 9.3354 299.388 9.44194 299.843 9.44194C300.153 9.44194 300.424 9.39364 300.657 9.29705C300.893 9.20046 301.09 9.0712 301.249 8.90927C301.411 8.7445 301.533 8.5641 301.616 8.36808L302.336 8.60245C302.236 8.87802 302.073 9.13228 301.846 9.36523C301.621 9.59819 301.34 9.78569 301.002 9.92773C300.667 10.0669 300.28 10.1365 299.843 10.1365Z" fill="black"/>
<path d="M287.376 9.99982V3.45437H288.113V4.46005H288.181C288.312 4.12198 288.529 3.85636 288.833 3.66317C289.14 3.46715 289.508 3.36914 289.937 3.36914C290.389 3.36914 290.759 3.47567 291.049 3.68874C291.342 3.89897 291.56 4.18874 291.705 4.55806H291.761C291.908 4.19442 292.149 3.90607 292.481 3.693C292.816 3.4771 293.222 3.36914 293.7 3.36914C294.308 3.36914 294.788 3.5609 295.14 3.94442C295.492 4.32511 295.668 4.88193 295.668 5.61488V9.99982H294.91V5.61488C294.91 5.09783 294.778 4.71005 294.514 4.45153C294.249 4.193 293.901 4.06374 293.47 4.06374C292.97 4.06374 292.585 4.21715 292.315 4.52397C292.045 4.83079 291.91 5.21999 291.91 5.69158V9.99982H291.134V5.5467C291.134 5.10352 291.011 4.74556 290.764 4.47283C290.516 4.20011 290.168 4.06374 289.72 4.06374C289.418 4.06374 289.147 4.13761 288.906 4.28533C288.667 4.43306 288.478 4.63903 288.339 4.90323C288.203 5.1646 288.134 5.46573 288.134 5.80664V9.99982H287.376Z" fill="black"/>
<path d="M283.529 10.1365C282.919 10.1365 282.39 9.9945 281.944 9.7104C281.498 9.42347 281.153 9.02717 280.909 8.52148C280.667 8.01296 280.547 7.42773 280.547 6.7658C280.547 6.10671 280.667 5.52148 280.909 5.01012C281.153 4.49592 281.49 4.09393 281.919 3.80415C282.35 3.51154 282.849 3.36523 283.414 3.36523C283.77 3.36523 284.112 3.43057 284.441 3.56126C284.771 3.6891 285.066 3.88654 285.328 4.15359C285.592 4.41779 285.801 4.7516 285.954 5.15501C286.108 5.55558 286.184 6.03001 286.184 6.5783V6.9533H281.071V6.28427H285.409C285.409 5.86381 285.324 5.48597 285.153 5.15075C284.985 4.81268 284.751 4.54563 284.45 4.34961C284.152 4.15359 283.806 4.05557 283.414 4.05557C283 4.05557 282.635 4.16637 282.319 4.38796C282.004 4.60955 281.757 4.90217 281.578 5.2658C281.402 5.62944 281.312 6.02717 281.309 6.45898V6.85955C281.309 7.37944 281.399 7.83398 281.578 8.22319C281.76 8.60955 282.017 8.90927 282.349 9.12234C282.681 9.3354 283.075 9.44194 283.529 9.44194C283.839 9.44194 284.11 9.39364 284.343 9.29705C284.579 9.20046 284.777 9.0712 284.936 8.90927C285.098 8.7445 285.22 8.5641 285.302 8.36808L286.022 8.60245C285.923 8.87802 285.76 9.13228 285.532 9.36523C285.308 9.59819 285.027 9.78569 284.689 9.92773C284.353 10.0669 283.967 10.1365 283.529 10.1365Z" fill="black"/>
<path d="M276.653 12.5911C276.207 12.5911 275.817 12.5328 275.481 12.4164C275.146 12.3027 274.864 12.1465 274.633 11.9476C274.403 11.7488 274.224 11.5257 274.096 11.2786L274.719 10.8695C274.812 11.0343 274.937 11.1962 275.094 11.3553C275.253 11.5144 275.459 11.6465 275.712 11.7516C275.967 11.8567 276.281 11.9093 276.653 11.9093C277.233 11.9093 277.7 11.7644 278.055 11.4746C278.413 11.1848 278.592 10.7346 278.592 10.1238V8.64933H278.524C278.436 8.84819 278.31 9.04705 278.145 9.24592C277.98 9.44194 277.764 9.60529 277.497 9.73597C277.233 9.86665 276.905 9.932 276.513 9.932C275.99 9.932 275.525 9.80273 275.119 9.54421C274.716 9.28569 274.398 8.91637 274.165 8.43626C273.935 7.9533 273.819 7.37802 273.819 6.7104C273.819 6.04847 273.932 5.46609 274.156 4.96325C274.383 4.4604 274.7 4.06836 275.106 3.78711C275.513 3.50586 275.986 3.36523 276.525 3.36523C276.926 3.36523 277.258 3.43626 277.523 3.5783C277.787 3.71751 277.998 3.8908 278.158 4.09819C278.319 4.30557 278.446 4.50728 278.537 4.7033H278.613V3.45472H279.355V10.1706C279.355 10.7246 279.237 11.1806 279.001 11.5385C278.765 11.8965 278.444 12.1607 278.038 12.3311C277.632 12.5044 277.17 12.5911 276.653 12.5911ZM276.602 9.23739C277.023 9.23739 277.382 9.13654 277.68 8.93484C277.979 8.73029 278.207 8.43768 278.366 8.057C278.525 7.67631 278.605 7.22319 278.605 6.69762C278.605 6.18626 278.527 5.73313 278.371 5.33825C278.214 4.94052 277.987 4.62802 277.689 4.40075C277.393 4.17063 277.031 4.05557 276.602 4.05557C276.165 4.05557 275.795 4.17347 275.494 4.40927C275.193 4.64506 274.966 4.96325 274.812 5.36381C274.659 5.76154 274.582 6.20614 274.582 6.69762C274.582 7.19762 274.66 7.63938 274.817 8.0229C274.973 8.40359 275.202 8.70188 275.503 8.91779C275.804 9.13086 276.17 9.23739 276.602 9.23739Z" fill="black"/>
<path d="M268.445 5.90891V9.99982H267.687V3.45437H268.424V4.48136H268.492C268.646 4.14613 268.884 3.87766 269.208 3.67596C269.535 3.47141 269.938 3.36914 270.418 3.36914C270.859 3.36914 271.245 3.46147 271.578 3.64613C271.913 3.82795 272.173 4.09641 272.357 4.45153C272.545 4.80664 272.639 5.24272 272.639 5.75977V9.99982H271.88V5.80664C271.88 5.26971 271.729 4.84499 271.428 4.53249C271.13 4.21999 270.729 4.06374 270.227 4.06374C269.883 4.06374 269.578 4.13761 269.31 4.28533C269.043 4.43306 268.832 4.64613 268.676 4.92454C268.522 5.20011 268.445 5.52823 268.445 5.90891Z" fill="black"/>
<path d="M265.398 10.0006V3.45517H266.161V10.0006H265.398ZM265.786 2.33017C265.63 2.33017 265.496 2.27761 265.385 2.1725C265.275 2.06454 265.219 1.93528 265.219 1.78471C265.219 1.63414 265.275 1.5063 265.385 1.40119C265.496 1.29324 265.63 1.23926 265.786 1.23926C265.942 1.23926 266.076 1.29324 266.186 1.40119C266.297 1.5063 266.353 1.63414 266.353 1.78471C266.353 1.93528 266.297 2.06454 266.186 2.1725C266.076 2.27761 265.942 2.33017 265.786 2.33017Z" fill="black"/>
<path d="M261.592 9.99991V3.45446H262.329V4.46014H262.385C262.515 4.13059 262.743 3.86497 263.067 3.66326C263.393 3.45872 263.763 3.35645 264.175 3.35645C264.237 3.35645 264.307 3.35787 264.383 3.36071C264.46 3.36355 264.524 3.36639 264.575 3.36923V4.14054C264.541 4.13485 264.481 4.12633 264.396 4.11497C264.311 4.1036 264.219 4.09792 264.119 4.09792C263.778 4.09792 263.474 4.17037 263.207 4.31525C262.943 4.4573 262.734 4.65474 262.581 4.90758C262.427 5.16042 262.351 5.44877 262.351 5.77264V9.99991H261.592Z" fill="black"/>
<path d="M260.558 3.45481V4.11532H257.341V3.45481H260.558ZM258.347 10.0003V2.49601C258.347 2.14373 258.428 1.84686 258.59 1.60538C258.754 1.3639 258.969 1.18066 259.233 1.05566C259.497 0.930664 259.777 0.868164 260.073 0.868164C260.271 0.868164 260.436 0.88521 260.567 0.919301C260.7 0.950551 260.806 0.981801 260.882 1.01305L260.661 1.67782C260.604 1.66078 260.534 1.64089 260.452 1.61816C260.369 1.59544 260.266 1.58407 260.141 1.58407C259.811 1.58407 259.557 1.6764 259.378 1.86106C259.199 2.04572 259.11 2.30993 259.11 2.65368L259.105 10.0003H258.347Z" fill="black"/>
<path d="M252.154 5.90891V9.99982H251.396V3.45437H252.133V4.48136H252.201C252.355 4.14613 252.593 3.87766 252.917 3.67596C253.244 3.47141 253.647 3.36914 254.127 3.36914C254.568 3.36914 254.954 3.46147 255.287 3.64613C255.622 3.82795 255.882 4.09641 256.066 4.45153C256.254 4.80664 256.348 5.24272 256.348 5.75977V9.99982H255.589V5.80664C255.589 5.26971 255.439 4.84499 255.137 4.53249C254.839 4.21999 254.439 4.06374 253.936 4.06374C253.592 4.06374 253.287 4.13761 253.02 4.28533C252.752 4.43306 252.541 4.64613 252.385 4.92454C252.231 5.20011 252.154 5.52823 252.154 5.90891Z" fill="black"/>
<path d="M249.107 10.0006V3.45517H249.87V10.0006H249.107ZM249.495 2.33017C249.339 2.33017 249.205 2.27761 249.094 2.1725C248.984 2.06454 248.928 1.93528 248.928 1.78471C248.928 1.63414 248.984 1.5063 249.094 1.40119C249.205 1.29324 249.339 1.23926 249.495 1.23926C249.651 1.23926 249.785 1.29324 249.895 1.40119C250.006 1.5063 250.062 1.63414 250.062 1.78471C250.062 1.93528 250.006 2.06454 249.895 2.1725C249.785 2.27761 249.651 2.33017 249.495 2.33017Z" fill="black"/>
<path d="M244.961 3.4549V4.11541H241.837V3.4549H244.961ZM242.813 1.88672H243.576V8.29155C243.576 8.56428 243.623 8.77876 243.717 8.93501C243.81 9.08842 243.933 9.1978 244.083 9.26314C244.234 9.32564 244.394 9.35689 244.565 9.35689C244.664 9.35689 244.749 9.35121 244.82 9.33984C244.891 9.32564 244.954 9.31143 245.008 9.29723L245.17 9.98331C245.096 10.0117 245.005 10.0373 244.897 10.06C244.789 10.0856 244.656 10.0984 244.496 10.0984C244.218 10.0984 243.95 10.0373 243.691 9.91513C243.435 9.79297 243.225 9.61115 243.06 9.36967C242.896 9.1282 242.813 8.82848 242.813 8.47053V1.88672Z" fill="black"/>
<path d="M236.625 5.9098V10.0007H235.867V1.27344H236.625V4.48224H236.693C236.847 4.14418 237.084 3.87429 237.405 3.67259C237.729 3.47088 238.138 3.37003 238.632 3.37003C239.076 3.37003 239.465 3.46094 239.8 3.64276C240.135 3.82457 240.397 4.09304 240.584 4.44815C240.772 4.80327 240.865 5.24077 240.865 5.76065V10.0007H240.102V5.80753C240.102 5.26776 239.952 4.84304 239.651 4.53338C239.352 4.22088 238.949 4.06463 238.441 4.06463C238.091 4.06463 237.78 4.13849 237.507 4.28622C237.235 4.43395 237.019 4.64702 236.86 4.92543C236.703 5.20099 236.625 5.52912 236.625 5.9098Z" fill="black"/>
<path d="M231.637 12.5911C231.191 12.5911 230.8 12.5328 230.465 12.4164C230.13 12.3027 229.847 12.1465 229.617 11.9476C229.387 11.7488 229.208 11.5257 229.08 11.2786L229.702 10.8695C229.796 11.0343 229.921 11.1962 230.077 11.3553C230.236 11.5144 230.442 11.6465 230.695 11.7516C230.951 11.8567 231.265 11.9093 231.637 11.9093C232.216 11.9093 232.684 11.7644 233.039 11.4746C233.397 11.1848 233.576 10.7346 233.576 10.1238V8.64933H233.508C233.42 8.84819 233.293 9.04705 233.128 9.24592C232.964 9.44194 232.748 9.60529 232.481 9.73597C232.216 9.86665 231.888 9.932 231.496 9.932C230.974 9.932 230.509 9.80273 230.103 9.54421C229.699 9.28569 229.381 8.91637 229.148 8.43626C228.918 7.9533 228.803 7.37802 228.803 6.7104C228.803 6.04847 228.915 5.46609 229.14 4.96325C229.367 4.4604 229.684 4.06836 230.09 3.78711C230.496 3.50586 230.969 3.36523 231.509 3.36523C231.91 3.36523 232.242 3.43626 232.506 3.5783C232.77 3.71751 232.982 3.8908 233.141 4.09819C233.303 4.30557 233.43 4.50728 233.52 4.7033H233.597V3.45472H234.339V10.1706C234.339 10.7246 234.221 11.1806 233.985 11.5385C233.749 11.8965 233.428 12.1607 233.022 12.3311C232.616 12.5044 232.154 12.5911 231.637 12.5911ZM231.586 9.23739C232.006 9.23739 232.366 9.13654 232.664 8.93484C232.962 8.73029 233.191 8.43768 233.35 8.057C233.509 7.67631 233.589 7.22319 233.589 6.69762C233.589 6.18626 233.51 5.73313 233.354 5.33825C233.198 4.94052 232.971 4.62802 232.672 4.40075C232.377 4.17063 232.015 4.05557 231.586 4.05557C231.148 4.05557 230.779 4.17347 230.478 4.40927C230.177 4.64506 229.949 4.96325 229.796 5.36381C229.643 5.76154 229.566 6.20614 229.566 6.69762C229.566 7.19762 229.644 7.63938 229.8 8.0229C229.956 8.40359 230.185 8.70188 230.486 8.91779C230.787 9.13086 231.154 9.23739 231.586 9.23739Z" fill="black"/>
<path d="M226.851 10.0006V3.45517H227.614V10.0006H226.851ZM227.239 2.33017C227.082 2.33017 226.949 2.27761 226.838 2.1725C226.727 2.06454 226.672 1.93528 226.672 1.78471C226.672 1.63414 226.727 1.5063 226.838 1.40119C226.949 1.29324 227.082 1.23926 227.239 1.23926C227.395 1.23926 227.528 1.29324 227.639 1.40119C227.75 1.5063 227.805 1.63414 227.805 1.78471C227.805 1.93528 227.75 2.06454 227.639 2.1725C227.528 2.27761 227.395 2.33017 227.239 2.33017Z" fill="black"/>
<path d="M223.045 9.99991V3.45446H223.782V4.46014H223.838C223.968 4.13059 224.196 3.86497 224.519 3.66326C224.846 3.45872 225.215 3.35645 225.627 3.35645C225.69 3.35645 225.76 3.35787 225.836 3.36071C225.913 3.36355 225.977 3.36639 226.028 3.36923V4.14054C225.994 4.13485 225.934 4.12633 225.849 4.11497C225.764 4.1036 225.671 4.09792 225.572 4.09792C225.231 4.09792 224.927 4.17037 224.66 4.31525C224.396 4.4573 224.187 4.65474 224.034 4.90758C223.88 5.16042 223.804 5.44877 223.804 5.77264V9.99991H223.045Z" fill="black"/>
<path d="M217.503 12.4551C217.352 12.4551 217.211 12.4409 217.081 12.4125C216.95 12.3841 216.846 12.3528 216.77 12.3187L216.974 11.6497C217.233 11.7292 217.463 11.7576 217.665 11.7349C217.866 11.715 218.045 11.6241 218.201 11.4622C218.358 11.3031 218.497 11.0588 218.619 10.7292L218.858 10.0645L216.45 3.45508H217.273L219.216 8.99911H219.275L221.219 3.45508H222.041L219.271 11.036C219.155 11.3514 219.011 11.6142 218.841 11.8244C218.67 12.0375 218.473 12.1951 218.248 12.2974C218.027 12.4025 217.778 12.4551 217.503 12.4551Z" fill="black"/>
<path d="M210.493 12.4547V3.45472H211.23V4.7033H211.32C211.411 4.50728 211.536 4.307 211.695 4.10245C211.854 3.89506 212.064 3.72035 212.326 3.5783C212.59 3.43626 212.922 3.36523 213.323 3.36523C213.863 3.36523 214.334 3.50728 214.738 3.79137C215.144 4.07262 215.459 4.46751 215.684 4.97603C215.911 5.48171 216.025 6.0712 216.025 6.7445C216.025 7.42063 215.911 8.01296 215.684 8.52148C215.459 9.03001 215.144 9.42631 214.738 9.7104C214.334 9.9945 213.865 10.1365 213.331 10.1365C212.936 10.1365 212.606 10.0655 212.338 9.92347C212.074 9.78143 211.86 9.60671 211.695 9.39933C211.533 9.1891 211.408 8.98455 211.32 8.78569H211.252V12.4547H210.493ZM211.243 6.73171C211.243 7.26012 211.321 7.72887 211.478 8.13796C211.637 8.54421 211.864 8.86381 212.159 9.09677C212.458 9.32688 212.819 9.44194 213.242 9.44194C213.677 9.44194 214.043 9.32262 214.341 9.08398C214.642 8.84251 214.871 8.51722 215.027 8.10813C215.186 7.69904 215.266 7.24023 215.266 6.73171C215.266 6.22887 215.188 5.77575 215.032 5.37234C214.878 4.96893 214.651 4.64932 214.35 4.41353C214.049 4.17489 213.679 4.05557 213.242 4.05557C212.816 4.05557 212.454 4.17063 212.155 4.40075C211.857 4.62802 211.63 4.94336 211.473 5.34677C211.32 5.74734 211.243 6.20898 211.243 6.73171Z" fill="black"/>
<path d="M206.427 10.1365C205.862 10.1365 205.362 9.99308 204.927 9.70614C204.496 9.41921 204.158 9.0229 203.913 8.51722C203.669 8.0087 203.547 7.42205 203.547 6.75728C203.547 6.08682 203.669 5.49734 203.913 4.98881C204.158 4.47745 204.496 4.07972 204.927 3.79563C205.362 3.5087 205.862 3.36523 206.427 3.36523C206.993 3.36523 207.491 3.5087 207.923 3.79563C208.355 4.08256 208.693 4.48029 208.937 4.98881C209.185 5.49734 209.308 6.08682 209.308 6.75728C209.308 7.42205 209.186 8.0087 208.942 8.51722C208.697 9.0229 208.358 9.41921 207.923 9.70614C207.491 9.99308 206.993 10.1365 206.427 10.1365ZM206.427 9.44194C206.882 9.44194 207.267 9.31978 207.582 9.07546C207.898 8.83114 208.136 8.50586 208.298 8.09961C208.463 7.69336 208.545 7.24592 208.545 6.75728C208.545 6.26864 208.463 5.81978 208.298 5.41069C208.136 5.0016 207.898 4.67347 207.582 4.42631C207.267 4.17915 206.882 4.05557 206.427 4.05557C205.976 4.05557 205.591 4.17915 205.273 4.42631C204.957 4.67347 204.717 5.0016 204.552 5.41069C204.391 5.81978 204.31 6.26864 204.31 6.75728C204.31 7.24592 204.391 7.69336 204.552 8.09961C204.717 8.50586 204.957 8.83114 205.273 9.07546C205.588 9.31978 205.973 9.44194 206.427 9.44194Z" fill="black"/>
<path d="M200.241 10.1365C199.655 10.1365 199.145 9.99023 198.711 9.69762C198.279 9.40501 197.944 9.00444 197.705 8.49592C197.466 7.98739 197.347 7.40785 197.347 6.75728C197.347 6.10103 197.468 5.51722 197.709 5.00586C197.954 4.4945 198.292 4.09393 198.724 3.80415C199.155 3.51154 199.657 3.36523 200.228 3.36523C200.665 3.36523 201.062 3.45046 201.417 3.62092C201.772 3.78853 202.064 4.02575 202.295 4.33256C202.527 4.63654 202.674 4.99165 202.733 5.3979H201.966C201.887 5.02859 201.695 4.71325 201.391 4.45188C201.09 4.18768 200.706 4.05557 200.241 4.05557C199.823 4.05557 199.454 4.16921 199.133 4.39648C198.812 4.62092 198.56 4.93484 198.378 5.33825C198.199 5.73881 198.11 6.2033 198.11 6.73171C198.11 7.26296 198.198 7.73313 198.374 8.14222C198.55 8.54847 198.797 8.86665 199.116 9.09677C199.437 9.32688 199.812 9.44194 200.241 9.44194C200.53 9.44194 200.795 9.38796 201.033 9.28001C201.275 9.16921 201.476 9.01296 201.638 8.81126C201.803 8.60955 201.914 8.3695 201.971 8.09109H202.738C202.681 8.48597 202.54 8.83825 202.316 9.1479C202.094 9.45472 201.806 9.6962 201.451 9.87234C201.099 10.0485 200.695 10.1365 200.241 10.1365Z" fill="black"/>
<path d="M190.723 10.1365C190.158 10.1365 189.658 9.99308 189.223 9.70614C188.791 9.41921 188.453 9.0229 188.209 8.51722C187.964 8.0087 187.842 7.42205 187.842 6.75728C187.842 6.08682 187.964 5.49734 188.209 4.98881C188.453 4.47745 188.791 4.07972 189.223 3.79563C189.658 3.5087 190.158 3.36523 190.723 3.36523C191.288 3.36523 191.787 3.5087 192.219 3.79563C192.651 4.08256 192.989 4.48029 193.233 4.98881C193.48 5.49734 193.604 6.08682 193.604 6.75728C193.604 7.42205 193.481 8.0087 193.237 8.51722C192.993 9.0229 192.653 9.41921 192.219 9.70614C191.787 9.99308 191.288 10.1365 190.723 10.1365ZM190.723 9.44194C191.178 9.44194 191.562 9.31978 191.878 9.07546C192.193 8.83114 192.432 8.50586 192.594 8.09961C192.758 7.69336 192.841 7.24592 192.841 6.75728C192.841 6.26864 192.758 5.81978 192.594 5.41069C192.432 5.0016 192.193 4.67347 191.878 4.42631C191.562 4.17915 191.178 4.05557 190.723 4.05557C190.271 4.05557 189.886 4.17915 189.568 4.42631C189.253 4.67347 189.013 5.0016 188.848 5.41069C188.686 5.81978 188.605 6.26864 188.605 6.75728C188.605 7.24592 188.686 7.69336 188.848 8.09961C189.013 8.50586 189.253 8.83114 189.568 9.07546C189.883 9.31978 190.268 9.44194 190.723 9.44194Z" fill="black"/>
<path d="M182.468 5.90891V9.99982H181.71V3.45437H182.447V4.48136H182.515C182.669 4.14613 182.907 3.87766 183.231 3.67596C183.558 3.47141 183.961 3.36914 184.441 3.36914C184.882 3.36914 185.268 3.46147 185.6 3.64613C185.936 3.82795 186.196 4.09641 186.38 4.45153C186.568 4.80664 186.661 5.24272 186.661 5.75977V9.99982H185.903V5.80664C185.903 5.26971 185.752 4.84499 185.451 4.53249C185.153 4.21999 184.752 4.06374 184.249 4.06374C183.906 4.06374 183.6 4.13761 183.333 4.28533C183.066 4.43306 182.855 4.64613 182.698 4.92454C182.545 5.20011 182.468 5.52823 182.468 5.90891Z" fill="black"/>
<path d="M174.292 10.1371C173.755 10.1371 173.285 9.99503 172.881 9.71094C172.478 9.42685 172.163 9.03054 171.935 8.52202C171.711 8.01349 171.599 7.42116 171.599 6.74503C171.599 6.07173 171.711 5.48224 171.935 4.97656C172.163 4.46804 172.479 4.07315 172.886 3.7919C173.292 3.50781 173.765 3.36577 174.305 3.36577C174.702 3.36577 175.033 3.43679 175.298 3.57884C175.562 3.71804 175.773 3.89134 175.932 4.09872C176.092 4.30611 176.215 4.50781 176.303 4.70384H176.371V1.27344H177.134V10.0007H176.393V8.78622H176.303C176.215 8.98509 176.09 9.18963 175.928 9.39986C175.766 9.60724 175.552 9.78196 175.285 9.92401C175.021 10.0661 174.69 10.1371 174.292 10.1371ZM174.381 9.44247C174.805 9.44247 175.165 9.32742 175.464 9.0973C175.762 8.86435 175.989 8.54474 176.146 8.13849C176.305 7.7294 176.384 7.26065 176.384 6.73224C176.384 6.20952 176.306 5.74787 176.15 5.3473C175.994 4.94389 175.766 4.62855 175.468 4.40128C175.17 4.17116 174.807 4.05611 174.381 4.05611C173.944 4.05611 173.575 4.17543 173.273 4.41406C172.975 4.64986 172.748 4.96946 172.592 5.37287C172.438 5.77628 172.361 6.2294 172.361 6.73224C172.361 7.24077 172.44 7.69957 172.596 8.10867C172.752 8.51776 172.979 8.84304 173.278 9.08452C173.579 9.32315 173.947 9.44247 174.381 9.44247Z" fill="black"/>
<path d="M166.225 5.90891V9.99982H165.466V3.45437H166.203V4.48136H166.272C166.425 4.14613 166.664 3.87766 166.987 3.67596C167.314 3.47141 167.718 3.36914 168.198 3.36914C168.638 3.36914 169.024 3.46147 169.357 3.64613C169.692 3.82795 169.952 4.09641 170.137 4.45153C170.324 4.80664 170.418 5.24272 170.418 5.75977V9.99982H169.659V5.80664C169.659 5.26971 169.509 4.84499 169.208 4.53249C168.909 4.21999 168.509 4.06374 168.006 4.06374C167.662 4.06374 167.357 4.13761 167.09 4.28533C166.823 4.43306 166.611 4.64613 166.455 4.92454C166.301 5.20011 166.225 5.52823 166.225 5.90891Z" fill="black"/>
<path d="M161.095 10.1493C160.7 10.1493 160.339 10.0726 160.012 9.91921C159.685 9.76296 159.426 9.53853 159.232 9.24592C159.039 8.95046 158.943 8.59251 158.943 8.17205C158.943 7.84819 159.004 7.57546 159.126 7.35387C159.248 7.13228 159.421 6.95046 159.646 6.80842C159.87 6.66637 160.136 6.55415 160.443 6.47177C160.749 6.38938 161.087 6.32546 161.457 6.28001C161.823 6.23455 162.133 6.19478 162.386 6.16069C162.641 6.1266 162.836 6.07262 162.97 5.99876C163.103 5.92489 163.17 5.80558 163.17 5.6408V5.48739C163.17 5.04137 163.036 4.69052 162.769 4.43484C162.505 4.17631 162.124 4.04705 161.627 4.04705C161.156 4.04705 160.771 4.15075 160.472 4.35813C160.177 4.56552 159.97 4.80984 159.85 5.09109L159.13 4.83114C159.278 4.47319 159.482 4.18768 159.744 3.97461C160.005 3.7587 160.298 3.60387 160.622 3.51012C160.945 3.41353 161.274 3.36523 161.606 3.36523C161.856 3.36523 162.116 3.3979 162.386 3.46325C162.658 3.52859 162.911 3.64222 163.144 3.80415C163.377 3.96325 163.566 4.18626 163.711 4.47319C163.856 4.75728 163.928 5.11807 163.928 5.55557V10.0002H163.17V8.96467H163.123C163.032 9.15785 162.897 9.34535 162.718 9.52717C162.539 9.70898 162.315 9.85813 162.045 9.97461C161.775 10.0911 161.458 10.1493 161.095 10.1493ZM161.197 9.45472C161.6 9.45472 161.95 9.36523 162.245 9.18626C162.541 9.00728 162.768 8.77006 162.927 8.47461C163.089 8.17631 163.17 7.84819 163.17 7.49023V6.54421C163.113 6.59819 163.018 6.64648 162.884 6.6891C162.754 6.73171 162.602 6.77006 162.428 6.80415C162.258 6.8354 162.087 6.86239 161.917 6.88512C161.747 6.90785 161.593 6.92773 161.457 6.94478C161.087 6.99023 160.772 7.06126 160.511 7.15785C160.249 7.25444 160.049 7.38796 159.91 7.55842C159.771 7.72603 159.701 7.94194 159.701 8.20614C159.701 8.60387 159.843 8.91211 160.127 9.13086C160.411 9.34677 160.768 9.45472 161.197 9.45472Z" fill="black"/>
<path d="M150.829 12.4551C150.678 12.4551 150.538 12.4409 150.407 12.4125C150.276 12.3841 150.173 12.3528 150.096 12.3187L150.301 11.6497C150.559 11.7292 150.789 11.7576 150.991 11.7349C151.193 11.715 151.372 11.6241 151.528 11.4622C151.684 11.3031 151.823 11.0588 151.946 10.7292L152.184 10.0645L149.776 3.45508H150.599L152.542 8.99911H152.602L154.545 3.45508H155.367L152.598 11.036C152.481 11.3514 152.338 11.6142 152.167 11.8244C151.997 12.0375 151.799 12.1951 151.575 12.2974C151.353 12.4025 151.105 12.4551 150.829 12.4551Z" fill="black"/>
<path d="M148.774 1.27344V10.0007H148.015V1.27344H148.774Z" fill="black"/>
<path d="M142.304 5.90891V9.99982H141.546V3.45437H142.283V4.48136H142.351C142.505 4.14613 142.743 3.87766 143.067 3.67596C143.394 3.47141 143.797 3.36914 144.277 3.36914C144.718 3.36914 145.104 3.46147 145.436 3.64613C145.772 3.82795 146.032 4.09641 146.216 4.45153C146.404 4.80664 146.497 5.24272 146.497 5.75977V9.99982H145.739V5.80664C145.739 5.26971 145.588 4.84499 145.287 4.53249C144.989 4.21999 144.588 4.06374 144.086 4.06374C143.742 4.06374 143.436 4.13761 143.169 4.28533C142.902 4.43306 142.691 4.64613 142.534 4.92454C142.381 5.20011 142.304 5.52823 142.304 5.90891Z" fill="black"/>
<path d="M137.48 10.1365C136.915 10.1365 136.415 9.99308 135.98 9.70614C135.548 9.41921 135.21 9.0229 134.966 8.51722C134.721 8.0087 134.599 7.42205 134.599 6.75728C134.599 6.08682 134.721 5.49734 134.966 4.98881C135.21 4.47745 135.548 4.07972 135.98 3.79563C136.415 3.5087 136.915 3.36523 137.48 3.36523C138.045 3.36523 138.544 3.5087 138.976 3.79563C139.408 4.08256 139.746 4.48029 139.99 4.98881C140.237 5.49734 140.361 6.08682 140.361 6.75728C140.361 7.42205 140.239 8.0087 139.994 8.51722C139.75 9.0229 139.41 9.41921 138.976 9.70614C138.544 9.99308 138.045 10.1365 137.48 10.1365ZM137.48 9.44194C137.935 9.44194 138.319 9.31978 138.635 9.07546C138.95 8.83114 139.189 8.50586 139.351 8.09961C139.515 7.69336 139.598 7.24592 139.598 6.75728C139.598 6.26864 139.515 5.81978 139.351 5.41069C139.189 5.0016 138.95 4.67347 138.635 4.42631C138.319 4.17915 137.935 4.05557 137.48 4.05557C137.028 4.05557 136.643 4.17915 136.325 4.42631C136.01 4.67347 135.77 5.0016 135.605 5.41069C135.443 5.81978 135.362 6.26864 135.362 6.75728C135.362 7.24592 135.443 7.69336 135.605 8.09961C135.77 8.50586 136.01 8.83114 136.325 9.07546C136.64 9.31978 137.025 9.44194 137.48 9.44194Z" fill="black"/>
<path d="M130.766 4.8908L130.072 5.08682C130.004 4.8908 129.907 4.71325 129.782 4.55415C129.657 4.39506 129.494 4.26864 129.292 4.17489C129.093 4.08114 128.846 4.03427 128.55 4.03427C128.107 4.03427 127.744 4.13938 127.46 4.34961C127.175 4.55984 127.033 4.83114 127.033 5.16353C127.033 5.44478 127.13 5.67347 127.323 5.84961C127.519 6.0229 127.82 6.16069 128.227 6.26296L129.215 6.50586C129.764 6.63938 130.174 6.85103 130.447 7.1408C130.722 7.43057 130.86 7.79421 130.86 8.23171C130.86 8.60103 130.758 8.92915 130.553 9.21609C130.349 9.50302 130.063 9.72887 129.697 9.89364C129.333 10.0556 128.911 10.1365 128.431 10.1365C127.792 10.1365 127.265 9.99308 126.85 9.70614C126.435 9.41637 126.17 8.99876 126.053 8.4533L126.782 8.27433C126.876 8.66353 127.059 8.95756 127.332 9.15643C127.607 9.35529 127.969 9.45472 128.418 9.45472C128.921 9.45472 129.323 9.34251 129.624 9.11808C129.925 8.8908 130.076 8.60671 130.076 8.2658C130.076 8.0016 129.988 7.78001 129.812 7.60103C129.636 7.41921 129.369 7.28569 129.011 7.20046L127.941 6.94478C127.373 6.80842 126.952 6.59251 126.68 6.29705C126.407 6.0016 126.271 5.63512 126.271 5.19762C126.271 4.83683 126.369 4.52006 126.565 4.24734C126.761 3.97177 127.031 3.75586 127.374 3.59961C127.718 3.44336 128.11 3.36523 128.55 3.36523C129.15 3.36523 129.629 3.5016 129.987 3.77432C130.347 4.04421 130.607 4.41637 130.766 4.8908Z" fill="black"/>
<path d="M122.522 10.1365C121.911 10.1365 121.383 9.9945 120.937 9.7104C120.491 9.42347 120.146 9.02717 119.902 8.52148C119.66 8.01296 119.539 7.42773 119.539 6.7658C119.539 6.10671 119.66 5.52148 119.902 5.01012C120.146 4.49592 120.482 4.09393 120.911 3.80415C121.343 3.51154 121.842 3.36523 122.407 3.36523C122.762 3.36523 123.105 3.43057 123.434 3.56126C123.764 3.6891 124.059 3.88654 124.321 4.15359C124.585 4.41779 124.794 4.7516 124.947 5.15501C125.1 5.55558 125.177 6.03001 125.177 6.5783V6.9533H120.063V6.28427H124.402C124.402 5.86381 124.316 5.48597 124.146 5.15075C123.978 4.81268 123.744 4.54563 123.443 4.34961C123.144 4.15359 122.799 4.05557 122.407 4.05557C121.992 4.05557 121.627 4.16637 121.312 4.38796C120.997 4.60955 120.75 4.90217 120.571 5.2658C120.394 5.62944 120.305 6.02717 120.302 6.45898V6.85955C120.302 7.37944 120.392 7.83398 120.571 8.22319C120.752 8.60955 121.009 8.90927 121.342 9.12234C121.674 9.3354 122.068 9.44194 122.522 9.44194C122.832 9.44194 123.103 9.39364 123.336 9.29705C123.572 9.20046 123.769 9.0712 123.929 8.90927C124.09 8.7445 124.213 8.5641 124.295 8.36808L125.015 8.60245C124.916 8.87802 124.752 9.13228 124.525 9.36523C124.301 9.59819 124.019 9.78569 123.681 9.92773C123.346 10.0669 122.96 10.1365 122.522 10.1365Z" fill="black"/>
<path d="M118.601 4.8908L117.907 5.08682C117.839 4.8908 117.742 4.71325 117.617 4.55415C117.492 4.39506 117.329 4.26864 117.127 4.17489C116.928 4.08114 116.681 4.03427 116.385 4.03427C115.942 4.03427 115.579 4.13938 115.295 4.34961C115.01 4.55984 114.868 4.83114 114.868 5.16353C114.868 5.44478 114.965 5.67347 115.158 5.84961C115.354 6.0229 115.655 6.16069 116.062 6.26296L117.05 6.50586C117.599 6.63938 118.009 6.85103 118.282 7.1408C118.557 7.43057 118.695 7.79421 118.695 8.23171C118.695 8.60103 118.593 8.92915 118.388 9.21609C118.184 9.50302 117.898 9.72887 117.532 9.89364C117.168 10.0556 116.746 10.1365 116.266 10.1365C115.627 10.1365 115.1 9.99308 114.685 9.70614C114.27 9.41637 114.005 8.99876 113.888 8.4533L114.617 8.27433C114.711 8.66353 114.894 8.95756 115.167 9.15643C115.442 9.35529 115.805 9.45472 116.253 9.45472C116.756 9.45472 117.158 9.34251 117.459 9.11808C117.76 8.8908 117.911 8.60671 117.911 8.2658C117.911 8.0016 117.823 7.78001 117.647 7.60103C117.471 7.41921 117.204 7.28569 116.846 7.20046L115.776 6.94478C115.208 6.80842 114.787 6.59251 114.515 6.29705C114.242 6.0016 114.106 5.63512 114.106 5.19762C114.106 4.83683 114.204 4.52006 114.4 4.24734C114.596 3.97177 114.866 3.75586 115.209 3.59961C115.553 3.44336 115.945 3.36523 116.385 3.36523C116.985 3.36523 117.464 3.5016 117.822 3.77432C118.182 4.04421 118.442 4.41637 118.601 4.8908Z" fill="black"/>
<path d="M110.138 10.1365C109.572 10.1365 109.072 9.99308 108.638 9.70614C108.206 9.41921 107.868 9.0229 107.624 8.51722C107.379 8.0087 107.257 7.42205 107.257 6.75728C107.257 6.08682 107.379 5.49734 107.624 4.98881C107.868 4.47745 108.206 4.07972 108.638 3.79563C109.072 3.5087 109.572 3.36523 110.138 3.36523C110.703 3.36523 111.202 3.5087 111.634 3.79563C112.065 4.08256 112.403 4.48029 112.648 4.98881C112.895 5.49734 113.019 6.08682 113.019 6.75728C113.019 7.42205 112.896 8.0087 112.652 8.51722C112.408 9.0229 112.068 9.41921 111.634 9.70614C111.202 9.99308 110.703 10.1365 110.138 10.1365ZM110.138 9.44194C110.592 9.44194 110.977 9.31978 111.293 9.07546C111.608 8.83114 111.847 8.50586 112.009 8.09961C112.173 7.69336 112.256 7.24592 112.256 6.75728C112.256 6.26864 112.173 5.81978 112.009 5.41069C111.847 5.0016 111.608 4.67347 111.293 4.42631C110.977 4.17915 110.592 4.05557 110.138 4.05557C109.686 4.05557 109.301 4.17915 108.983 4.42631C108.668 4.67347 108.428 5.0016 108.263 5.41069C108.101 5.81978 108.02 6.26864 108.02 6.75728C108.02 7.24592 108.101 7.69336 108.263 8.09961C108.428 8.50586 108.668 8.83114 108.983 9.07546C109.298 9.31978 109.683 9.44194 110.138 9.44194Z" fill="black"/>
<path d="M100.878 12.4547V3.45472H101.616V4.7033H101.705C101.796 4.50728 101.921 4.307 102.08 4.10245C102.239 3.89506 102.45 3.72035 102.711 3.5783C102.975 3.43626 103.307 3.36523 103.708 3.36523C104.248 3.36523 104.719 3.50728 105.123 3.79137C105.529 4.07262 105.844 4.46751 106.069 4.97603C106.296 5.48171 106.41 6.0712 106.41 6.7445C106.41 7.42063 106.296 8.01296 106.069 8.52148C105.844 9.03001 105.529 9.42631 105.123 9.7104C104.719 9.9945 104.251 10.1365 103.717 10.1365C103.322 10.1365 102.991 10.0655 102.724 9.92347C102.459 9.78143 102.245 9.60671 102.08 9.39933C101.918 9.1891 101.793 8.98455 101.705 8.78569H101.637V12.4547H100.878ZM101.628 6.73171C101.628 7.26012 101.707 7.72887 101.863 8.13796C102.022 8.54421 102.249 8.86381 102.545 9.09677C102.843 9.32688 103.204 9.44194 103.627 9.44194C104.062 9.44194 104.428 9.32262 104.726 9.08398C105.028 8.84251 105.256 8.51722 105.413 8.10813C105.572 7.69904 105.651 7.24023 105.651 6.73171C105.651 6.22887 105.573 5.77575 105.417 5.37234C105.263 4.96893 105.036 4.64932 104.735 4.41353C104.434 4.17489 104.065 4.05557 103.627 4.05557C103.201 4.05557 102.839 4.17063 102.54 4.40075C102.242 4.62802 102.015 4.94336 101.859 5.34677C101.705 5.74734 101.628 6.20898 101.628 6.73171Z" fill="black"/>
<path d="M97.0811 9.99991V3.45446H97.8183V4.46014H97.8737C98.0044 4.13059 98.2317 3.86497 98.5555 3.66326C98.8823 3.45872 99.2516 3.35645 99.6635 3.35645C99.726 3.35645 99.7956 3.35787 99.8723 3.36071C99.949 3.36355 100.013 3.36639 100.064 3.36923V4.14054C100.03 4.13485 99.9703 4.12633 99.8851 4.11497C99.7999 4.1036 99.7075 4.09792 99.6081 4.09792C99.2672 4.09792 98.9632 4.17037 98.6962 4.31525C98.432 4.4573 98.2232 4.65474 98.0698 4.90758C97.9163 5.16042 97.8396 5.44877 97.8396 5.77264V9.99991H97.0811Z" fill="black"/>
<path d="M94.7944 7.49911V3.45508H95.5529V10.0005H94.7944V8.91389H94.7347C94.5813 9.24911 94.3384 9.52894 94.0061 9.75337C93.6737 9.97497 93.2674 10.0858 92.7873 10.0858C92.3697 10.0858 91.999 9.99485 91.6751 9.81303C91.3512 9.62837 91.097 9.35849 90.9123 9.00337C90.7276 8.64826 90.6353 8.21218 90.6353 7.69514V3.45508H91.3938V7.64826C91.3938 8.15962 91.5444 8.57156 91.8455 8.88406C92.1467 9.19372 92.533 9.34854 93.0046 9.34854C93.3001 9.34854 93.5842 9.27752 93.8569 9.13548C94.1296 8.99343 94.3541 8.78604 94.5302 8.51332C94.7063 8.23775 94.7944 7.89968 94.7944 7.49911Z" fill="black"/>
<path d="M83.92 12.4547V3.45472H84.6573V4.7033H84.7467C84.8377 4.50728 84.9627 4.307 85.1217 4.10245C85.2808 3.89506 85.4911 3.72035 85.7524 3.5783C86.0166 3.43626 86.349 3.36523 86.7496 3.36523C87.2894 3.36523 87.761 3.50728 88.1644 3.79137C88.5706 4.07262 88.886 4.46751 89.1104 4.97603C89.3377 5.48171 89.4513 6.0712 89.4513 6.7445C89.4513 7.42063 89.3377 8.01296 89.1104 8.52148C88.886 9.03001 88.5706 9.42631 88.1644 9.7104C87.761 9.9945 87.2922 10.1365 86.7581 10.1365C86.3632 10.1365 86.0323 10.0655 85.7652 9.92347C85.501 9.78143 85.2865 9.60671 85.1217 9.39933C84.9598 9.1891 84.8348 8.98455 84.7467 8.78569H84.6786V12.4547H83.92ZM84.67 6.73171C84.67 7.26012 84.7482 7.72887 84.9044 8.13796C85.0635 8.54421 85.2908 8.86381 85.5862 9.09677C85.8845 9.32688 86.2453 9.44194 86.6686 9.44194C87.1033 9.44194 87.4698 9.32262 87.7681 9.08398C88.0692 8.84251 88.2979 8.51722 88.4541 8.10813C88.6132 7.69904 88.6928 7.24023 88.6928 6.73171C88.6928 6.22887 88.6146 5.77575 88.4584 5.37234C88.305 4.96893 88.0777 4.64932 87.7766 4.41353C87.4754 4.17489 87.1061 4.05557 86.6686 4.05557C86.2425 4.05557 85.8803 4.17063 85.582 4.40075C85.2837 4.62802 85.0564 4.94336 84.9002 5.34677C84.7468 5.74734 84.67 6.20898 84.67 6.73171Z" fill="black"/>
<path d="M79.4979 1.27344V10.0007H78.7394V1.27344H79.4979Z" fill="black"/>
<path d="M74.3678 10.1493C73.9729 10.1493 73.6121 10.0726 73.2854 9.91921C72.9587 9.76296 72.6988 9.53853 72.5056 9.24592C72.3124 8.95046 72.2158 8.59251 72.2158 8.17205C72.2158 7.84819 72.2769 7.57546 72.3991 7.35387C72.5212 7.13228 72.6945 6.95046 72.9189 6.80842C73.1434 6.66637 73.409 6.55415 73.7158 6.47177C74.0226 6.38938 74.3607 6.32546 74.73 6.28001C75.0965 6.23455 75.4062 6.19478 75.659 6.16069C75.9147 6.1266 76.1093 6.07262 76.2428 5.99876C76.3763 5.92489 76.4431 5.80558 76.4431 5.6408V5.48739C76.4431 5.04137 76.3096 4.69052 76.0425 4.43484C75.7783 4.17631 75.3976 4.04705 74.9005 4.04705C74.4289 4.04705 74.0439 4.15075 73.7457 4.35813C73.4502 4.56552 73.2428 4.80984 73.1235 5.09109L72.4033 4.83114C72.551 4.47319 72.7556 4.18768 73.017 3.97461C73.2783 3.7587 73.5709 3.60387 73.8948 3.51012C74.2187 3.41353 74.5468 3.36523 74.8792 3.36523C75.1292 3.36523 75.3891 3.3979 75.659 3.46325C75.9317 3.52859 76.1846 3.64222 76.4175 3.80415C76.6505 3.96325 76.8394 4.18626 76.9843 4.47319C77.1292 4.75728 77.2016 5.11807 77.2016 5.55557V10.0002H76.4431V8.96467H76.3962C76.3053 9.15785 76.1704 9.34535 75.9914 9.52717C75.8124 9.70898 75.588 9.85813 75.3181 9.97461C75.0482 10.0911 74.7314 10.1493 74.3678 10.1493ZM74.4701 9.45472C74.8735 9.45472 75.2229 9.36523 75.5184 9.18626C75.8138 9.00728 76.0411 8.77006 76.2002 8.47461C76.3621 8.17631 76.4431 7.84819 76.4431 7.49023V6.54421C76.3863 6.59819 76.2911 6.64648 76.1576 6.6891C76.0269 6.73171 75.8749 6.77006 75.7016 6.80415C75.5312 6.8354 75.3607 6.86239 75.1902 6.88512C75.0198 6.90785 74.8664 6.92773 74.73 6.94478C74.3607 6.99023 74.0454 7.06126 73.784 7.15785C73.5226 7.25444 73.3224 7.38796 73.1832 7.55842C73.0439 7.72603 72.9743 7.94194 72.9743 8.20614C72.9743 8.60387 73.1164 8.91211 73.4005 9.13086C73.6846 9.34677 74.0411 9.45472 74.4701 9.45472Z" fill="black"/>
<path d="M66.829 5.90891V9.99982H66.0705V3.45437H66.8077V4.48136H66.8759C67.0293 4.14613 67.2679 3.87766 67.5918 3.67596C67.9185 3.47141 68.3219 3.36914 68.802 3.36914C69.2424 3.36914 69.6287 3.46147 69.9611 3.64613C70.2963 3.82795 70.5563 4.09641 70.741 4.45153C70.9285 4.80664 71.0222 5.24272 71.0222 5.75977V9.99982H70.2637V5.80664C70.2637 5.26971 70.1131 4.84499 69.812 4.53249C69.5137 4.21999 69.1131 4.06374 68.6103 4.06374C68.2665 4.06374 67.9611 4.13761 67.6941 4.28533C67.427 4.43306 67.2154 4.64613 67.0591 4.92454C66.9057 5.20011 66.829 5.52823 66.829 5.90891Z" fill="black"/>
<path d="M62.0047 10.1365C61.4394 10.1365 60.9394 9.99308 60.5047 9.70614C60.0729 9.41921 59.7348 9.0229 59.4905 8.51722C59.2462 8.0087 59.124 7.42205 59.124 6.75728C59.124 6.08682 59.2462 5.49734 59.4905 4.98881C59.7348 4.47745 60.0729 4.07972 60.5047 3.79563C60.9394 3.5087 61.4394 3.36523 62.0047 3.36523C62.57 3.36523 63.0686 3.5087 63.5004 3.79563C63.9323 4.08256 64.2703 4.48029 64.5147 4.98881C64.7618 5.49734 64.8854 6.08682 64.8854 6.75728C64.8854 7.42205 64.7632 8.0087 64.5189 8.51722C64.2746 9.0229 63.9351 9.41921 63.5004 9.70614C63.0686 9.99308 62.57 10.1365 62.0047 10.1365ZM62.0047 9.44194C62.4593 9.44194 62.8442 9.31978 63.1595 9.07546C63.4749 8.83114 63.7135 8.50586 63.8754 8.09961C64.0402 7.69336 64.1226 7.24592 64.1226 6.75728C64.1226 6.26864 64.0402 5.81978 63.8754 5.41069C63.7135 5.0016 63.4749 4.67347 63.1595 4.42631C62.8442 4.17915 62.4593 4.05557 62.0047 4.05557C61.553 4.05557 61.1681 4.17915 60.8499 4.42631C60.5345 4.67347 60.2945 5.0016 60.1297 5.41069C59.9678 5.81978 59.8868 6.26864 59.8868 6.75728C59.8868 7.24592 59.9678 7.69336 60.1297 8.09961C60.2945 8.50586 60.5345 8.83114 60.8499 9.07546C61.1652 9.31978 61.5502 9.44194 62.0047 9.44194Z" fill="black"/>
<path d="M57.1718 10.0006V3.45517H57.9346V10.0006H57.1718ZM57.5596 2.33017C57.4034 2.33017 57.2698 2.27761 57.159 2.1725C57.0483 2.06454 56.9929 1.93528 56.9929 1.78471C56.9929 1.63414 57.0483 1.5063 57.159 1.40119C57.2698 1.29324 57.4034 1.23926 57.5596 1.23926C57.7159 1.23926 57.8494 1.29324 57.9602 1.40119C58.071 1.5063 58.1264 1.63414 58.1264 1.78471C58.1264 1.93528 58.071 2.06454 57.9602 2.1725C57.8494 2.27761 57.7159 2.33017 57.5596 2.33017Z" fill="black"/>
<path d="M55.9206 3.4549V4.11541H52.7971V3.4549H55.9206ZM53.7729 1.88672H54.5357V8.29155C54.5357 8.56428 54.5826 8.77876 54.6763 8.93501C54.7701 9.08842 54.8922 9.1978 55.0428 9.26314C55.1934 9.32564 55.3539 9.35689 55.5243 9.35689C55.6238 9.35689 55.709 9.35121 55.78 9.33984C55.851 9.32564 55.9135 9.31143 55.9675 9.29723L56.1294 9.98331C56.0556 10.0117 55.9647 10.0373 55.8567 10.06C55.7488 10.0856 55.6152 10.0984 55.4561 10.0984C55.1777 10.0984 54.9093 10.0373 54.6507 9.91513C54.3951 9.79297 54.1848 9.61115 54.0201 9.36967C53.8553 9.1282 53.7729 8.82848 53.7729 8.47053V1.88672Z" fill="black"/>
<path d="M48.971 10.1493C48.5761 10.1493 48.2153 10.0726 47.8886 9.91921C47.5619 9.76296 47.3019 9.53853 47.1087 9.24592C46.9156 8.95046 46.819 8.59251 46.819 8.17205C46.819 7.84819 46.88 7.57546 47.0022 7.35387C47.1244 7.13228 47.2977 6.95046 47.5221 6.80842C47.7465 6.66637 48.0122 6.55415 48.319 6.47177C48.6258 6.38938 48.9639 6.32546 49.3332 6.28001C49.6997 6.23455 50.0093 6.19478 50.2622 6.16069C50.5178 6.1266 50.7124 6.07262 50.846 5.99876C50.9795 5.92489 51.0462 5.80558 51.0462 5.6408V5.48739C51.0462 5.04137 50.9127 4.69052 50.6457 4.43484C50.3815 4.17631 50.0008 4.04705 49.5036 4.04705C49.032 4.04705 48.6471 4.15075 48.3488 4.35813C48.0533 4.56552 47.846 4.80984 47.7266 5.09109L47.0065 4.83114C47.1542 4.47319 47.3587 4.18768 47.6201 3.97461C47.8815 3.7587 48.1741 3.60387 48.4979 3.51012C48.8218 3.41353 49.1499 3.36523 49.4823 3.36523C49.7323 3.36523 49.9923 3.3979 50.2622 3.46325C50.5349 3.52859 50.7877 3.64222 51.0207 3.80415C51.2536 3.96325 51.4426 4.18626 51.5874 4.47319C51.7323 4.75728 51.8048 5.11807 51.8048 5.55557V10.0002H51.0462V8.96467H50.9994C50.9085 9.15785 50.7735 9.34535 50.5945 9.52717C50.4156 9.70898 50.1911 9.85813 49.9212 9.97461C49.6514 10.0911 49.3346 10.1493 48.971 10.1493ZM49.0732 9.45472C49.4766 9.45472 49.8261 9.36523 50.1215 9.18626C50.417 9.00728 50.6443 8.77006 50.8033 8.47461C50.9653 8.17631 51.0462 7.84819 51.0462 7.49023V6.54421C50.9894 6.59819 50.8943 6.64648 50.7607 6.6891C50.6301 6.73171 50.4781 6.77006 50.3048 6.80415C50.1343 6.8354 49.9639 6.86239 49.7934 6.88512C49.6229 6.90785 49.4695 6.92773 49.3332 6.94478C48.9639 6.99023 48.6485 7.06126 48.3872 7.15785C48.1258 7.25444 47.9255 7.38796 47.7863 7.55842C47.6471 7.72603 47.5775 7.94194 47.5775 8.20614C47.5775 8.60387 47.7195 8.91211 48.0036 9.13086C48.2877 9.34677 48.6443 9.45472 49.0732 9.45472Z" fill="black"/>
<path d="M43.5 10.1365C42.9147 10.1365 42.4048 9.99023 41.9701 9.69762C41.5383 9.40501 41.2031 9.00444 40.9645 8.49592C40.7258 7.98739 40.6065 7.40785 40.6065 6.75728C40.6065 6.10103 40.7272 5.51722 40.9687 5.00586C41.213 4.4945 41.5511 4.09393 41.9829 3.80415C42.4147 3.51154 42.9162 3.36523 43.4872 3.36523C43.9247 3.36523 44.321 3.45046 44.6761 3.62092C45.0312 3.78853 45.3238 4.02575 45.554 4.33256C45.7869 4.63654 45.9332 4.99165 45.9929 5.3979H45.2258C45.1463 5.02859 44.9545 4.71325 44.6505 4.45188C44.3494 4.18768 43.9659 4.05557 43.5 4.05557C43.0824 4.05557 42.713 4.16921 42.392 4.39648C42.071 4.62092 41.8196 4.93484 41.6378 5.33825C41.4588 5.73881 41.3693 6.2033 41.3693 6.73171C41.3693 7.26296 41.4574 7.73313 41.6335 8.14222C41.8096 8.54847 42.0568 8.86665 42.375 9.09677C42.696 9.32688 43.071 9.44194 43.5 9.44194C43.7897 9.44194 44.054 9.38796 44.2926 9.28001C44.5341 9.16921 44.7358 9.01296 44.8977 8.81126C45.0625 8.60955 45.1733 8.3695 45.2301 8.09109H45.9971C45.9403 8.48597 45.7997 8.83825 45.5753 9.1479C45.3537 9.45472 45.0653 9.6962 44.7102 9.87234C44.3579 10.0485 43.9545 10.1365 43.5 10.1365Z" fill="black"/>
<path d="M38.6565 7.49911V3.45508H39.415V10.0005H38.6565V8.91389H38.5968C38.4434 9.24911 38.2005 9.52894 37.8681 9.75337C37.5357 9.97497 37.1295 10.0858 36.6494 10.0858C36.2318 10.0858 35.861 9.99485 35.5372 9.81303C35.2133 9.62837 34.959 9.35849 34.7744 9.00337C34.5897 8.64826 34.4974 8.21218 34.4974 7.69514V3.45508H35.2559V7.64826C35.2559 8.15962 35.4065 8.57156 35.7076 8.88406C36.0087 9.19372 36.3951 9.34854 36.8667 9.34854C37.1621 9.34854 37.4462 9.27752 37.719 9.13548C37.9917 8.99343 38.2161 8.78604 38.3923 8.51332C38.5684 8.23775 38.6565 7.89968 38.6565 7.49911Z" fill="black"/>
<path d="M29.9745 10.1371C29.4376 10.1371 28.9674 9.99503 28.564 9.71094C28.1606 9.42685 27.8452 9.03054 27.618 8.52202C27.3935 8.01349 27.2813 7.42116 27.2813 6.74503C27.2813 6.07173 27.3935 5.48224 27.618 4.97656C27.8452 4.46804 28.162 4.07315 28.5682 3.7919C28.9745 3.50781 29.4475 3.36577 29.9873 3.36577C30.385 3.36577 30.716 3.43679 30.9802 3.57884C31.2444 3.71804 31.456 3.89134 31.6151 4.09872C31.7742 4.30611 31.8978 4.50781 31.9859 4.70384H32.054V1.27344H32.8168V10.0007H32.0753V8.78622H31.9859C31.8978 8.98509 31.7728 9.18963 31.6109 9.39986C31.4489 9.60724 31.2344 9.78196 30.9674 9.92401C30.7032 10.0661 30.3722 10.1371 29.9745 10.1371ZM30.064 9.44247C30.4873 9.44247 30.8481 9.32742 31.1464 9.0973C31.4447 8.86435 31.6719 8.54474 31.8282 8.13849C31.9873 7.7294 32.0668 7.26065 32.0668 6.73224C32.0668 6.20952 31.9887 5.74787 31.8324 5.3473C31.6762 4.94389 31.4489 4.62855 31.1506 4.40128C30.8523 4.17116 30.4901 4.05611 30.064 4.05611C29.6265 4.05611 29.2572 4.17543 28.956 4.41406C28.6577 4.64986 28.4305 4.96946 28.2742 5.37287C28.1208 5.77628 28.0441 6.2294 28.0441 6.73224C28.0441 7.24077 28.1222 7.69957 28.2785 8.10867C28.4347 8.51776 28.662 8.84304 28.9603 9.08452C29.2614 9.32315 29.6293 9.44247 30.064 9.44247Z" fill="black"/>
<path d="M23.7717 10.1365C23.1609 10.1365 22.6324 9.9945 22.1864 9.7104C21.7404 9.42347 21.3952 9.02717 21.1509 8.52148C20.9094 8.01296 20.7887 7.42773 20.7887 6.7658C20.7887 6.10671 20.9094 5.52148 21.1509 5.01012C21.3952 4.49592 21.7319 4.09393 22.1609 3.80415C22.5927 3.51154 23.0913 3.36523 23.6566 3.36523C24.0117 3.36523 24.354 3.43057 24.6836 3.56126C25.0131 3.6891 25.3086 3.88654 25.5699 4.15359C25.8342 4.41779 26.043 4.7516 26.1964 5.15501C26.3498 5.55558 26.4265 6.03001 26.4265 6.5783V6.9533H21.3128V6.28427H25.6509C25.6509 5.86381 25.5657 5.48597 25.3952 5.15075C25.2276 4.81268 24.9932 4.54563 24.6921 4.34961C24.3938 4.15359 24.0486 4.05557 23.6566 4.05557C23.2418 4.05557 22.8768 4.16637 22.5614 4.38796C22.2461 4.60955 21.9989 4.90217 21.8199 5.2658C21.6438 5.62944 21.5543 6.02717 21.5515 6.45898V6.85955C21.5515 7.37944 21.641 7.83398 21.8199 8.22319C22.0018 8.60955 22.2589 8.90927 22.5913 9.12234C22.9236 9.3354 23.3171 9.44194 23.7717 9.44194C24.0813 9.44194 24.3526 9.39364 24.5856 9.29705C24.8214 9.20046 25.0188 9.0712 25.1779 8.90927C25.3398 8.7445 25.462 8.5641 25.5444 8.36808L26.2645 8.60245C26.1651 8.87802 26.0018 9.13228 25.7745 9.36523C25.5501 9.59819 25.2688 9.78569 24.9307 9.92773C24.5955 10.0669 24.2092 10.1365 23.7717 10.1365Z" fill="black"/>
<path d="M14.433 9.99991V3.45446H15.1702V4.46014H15.2256C15.3563 4.13059 15.5836 3.86497 15.9074 3.66326C16.2341 3.45872 16.6034 3.35645 17.0154 3.35645C17.0779 3.35645 17.1475 3.35787 17.2242 3.36071C17.3009 3.36355 17.3648 3.36639 17.4159 3.36923V4.14054C17.3818 4.13485 17.3222 4.12633 17.237 4.11497C17.1517 4.1036 17.0594 4.09792 16.96 4.09792C16.6191 4.09792 16.3151 4.17037 16.048 4.31525C15.7838 4.4573 15.575 4.65474 15.4216 4.90758C15.2682 5.16042 15.1915 5.44877 15.1915 5.77264V9.99991H14.433Z" fill="black"/>
<path d="M10.3672 10.1365C9.80185 10.1365 9.30185 9.99308 8.86719 9.70614C8.43538 9.41921 8.09731 9.0229 7.85299 8.51722C7.60867 8.0087 7.48651 7.42205 7.48651 6.75728C7.48651 6.08682 7.60867 5.49734 7.85299 4.98881C8.09731 4.47745 8.43538 4.07972 8.86719 3.79563C9.30185 3.5087 9.80185 3.36523 10.3672 3.36523C10.9325 3.36523 11.4311 3.5087 11.8629 3.79563C12.2947 4.08256 12.6328 4.48029 12.8771 4.98881C13.1243 5.49734 13.2479 6.08682 13.2479 6.75728C13.2479 7.42205 13.1257 8.0087 12.8814 8.51722C12.6371 9.0229 12.2976 9.41921 11.8629 9.70614C11.4311 9.99308 10.9325 10.1365 10.3672 10.1365ZM10.3672 9.44194C10.8217 9.44194 11.2067 9.31978 11.522 9.07546C11.8374 8.83114 12.076 8.50586 12.2379 8.09961C12.4027 7.69336 12.4851 7.24592 12.4851 6.75728C12.4851 6.26864 12.4027 5.81978 12.2379 5.41069C12.076 5.0016 11.8374 4.67347 11.522 4.42631C11.2067 4.17915 10.8217 4.05557 10.3672 4.05557C9.91549 4.05557 9.53055 4.17915 9.21236 4.42631C8.89702 4.67347 8.65697 5.0016 8.49219 5.41069C8.33026 5.81978 8.2493 6.26864 8.2493 6.75728C8.2493 7.24592 8.33026 7.69336 8.49219 8.09961C8.65697 8.50586 8.89702 8.83114 9.21236 9.07546C9.5277 9.31978 9.91265 9.44194 10.3672 9.44194Z" fill="black"/>
<path d="M7.05882 3.45481V4.11532H3.84149V3.45481H7.05882ZM4.84717 10.0003V2.49601C4.84717 2.14373 4.92814 1.84686 5.09007 1.60538C5.25484 1.3639 5.46933 1.18066 5.73354 1.05566C5.99774 0.930664 6.27757 0.868164 6.57303 0.868164C6.77189 0.868164 6.93666 0.88521 7.06734 0.919301C7.20087 0.950551 7.30598 0.981801 7.38268 1.01305L7.16109 1.67782C7.10428 1.66078 7.03467 1.64089 6.95229 1.61816C6.8699 1.59544 6.76621 1.58407 6.64121 1.58407C6.31166 1.58407 6.0574 1.6764 5.87842 1.86106C5.69945 2.04572 5.60996 2.30993 5.60996 2.65368L5.6057 10.0003H4.84717Z" fill="black"/>
<path d="M0.899625 1.27344V4.18395H0.183716V1.27344H0.899625ZM2.8982 1.27344V4.18395H2.1823V1.27344H2.8982Z" fill="black"/>
</svg>
