<svg width="124" height="27" viewBox="0 0 124 27" fill="none" xmlns="http://www.w3.org/2000/svg">
<path d="M109.807 24.4863C109.444 24.1465 109.368 23.8301 109.579 23.5371L110.37 22.4297C110.628 22.0781 111.009 22.0957 111.512 22.4824C112.204 23.0098 112.971 23.4316 113.815 23.748C114.671 24.0645 115.643 24.2227 116.733 24.2227C117.378 24.2227 117.952 24.1465 118.456 23.9941C118.96 23.8301 119.399 23.5312 119.774 23.0977C120.161 22.6641 120.354 22.084 120.354 21.3574C120.354 20.9355 120.261 20.5371 120.073 20.1621C119.897 19.7871 119.616 19.4883 119.229 19.2656C118.854 19.0312 118.485 18.8496 118.122 18.7207C117.524 18.498 116.927 18.3164 116.329 18.1758C115.743 18.0234 114.97 17.7949 114.009 17.4902C113.364 17.291 112.755 17.0098 112.18 16.6465C111.606 16.2715 111.102 15.7676 110.669 15.1348C110.247 14.502 110.036 13.6289 110.036 12.5156C110.036 11.3789 110.382 10.4004 111.073 9.58008C111.764 8.75977 112.632 8.20312 113.675 7.91016C114.718 7.60547 115.731 7.45312 116.716 7.45312C118.169 7.45312 119.335 7.62305 120.214 7.96289C121.104 8.29102 121.872 8.68359 122.516 9.14062C122.891 9.41016 122.944 9.7207 122.675 10.0723L121.884 11.127C121.637 11.4668 121.257 11.4551 120.741 11.0918C120.307 10.7871 119.692 10.5 118.895 10.2305C118.098 9.96094 117.401 9.82617 116.803 9.82617C116.065 9.82617 115.432 9.9082 114.905 10.0723C114.378 10.2363 113.95 10.5176 113.622 10.916C113.294 11.3145 113.13 11.7832 113.13 12.3223C113.13 12.7324 113.194 13.1016 113.323 13.4297C113.452 13.7461 113.692 14.0391 114.044 14.3086C114.395 14.5781 114.887 14.7949 115.52 14.959C116.505 15.2168 117.401 15.4512 118.21 15.6621C119.03 15.873 119.768 16.1309 120.425 16.4355C121.28 16.834 121.936 17.2734 122.393 17.7539C122.862 18.2344 123.184 18.7559 123.36 19.3184C123.536 19.8691 123.624 20.4844 123.624 21.1641C123.624 22.418 123.249 23.4785 122.499 24.3457C121.761 25.2129 120.934 25.793 120.02 26.0859C119.106 26.3672 118.005 26.5078 116.716 26.5078C114.97 26.5078 113.47 26.2617 112.216 25.7695C110.973 25.2656 110.171 24.8379 109.807 24.4863Z" fill="#C5B3B3"/>
<path d="M88.0386 16.9805C88.0386 14.4609 88.6479 12.2461 89.8667 10.3359C91.0854 8.41406 92.8667 7.45312 95.2104 7.45312C96.5581 7.45312 97.6362 7.67578 98.4448 8.12109C99.2534 8.56641 99.98 9.17578 100.625 9.94922H100.66C100.636 9.59766 100.625 9.24023 100.625 8.87695V1.05469C100.625 0.527344 100.888 0.263672 101.416 0.263672H102.927C103.455 0.263672 103.718 0.527344 103.718 1.05469V25.418C103.718 25.9453 103.455 26.209 102.927 26.209H101.451C101.029 26.209 100.8 25.9453 100.765 25.418L100.66 24.0117H100.625C99.98 24.7852 99.2534 25.3945 98.4448 25.8398C97.6362 26.2852 96.5581 26.5078 95.2104 26.5078C92.8667 26.5078 91.0854 25.5527 89.8667 23.6426C88.6479 21.7207 88.0386 19.5 88.0386 16.9805ZM91.3081 16.9805C91.3081 19.1367 91.6772 20.8828 92.4155 22.2188C93.1655 23.5547 94.4312 24.2227 96.2124 24.2227C97.478 24.2227 98.5269 23.7949 99.3589 22.9395C100.203 22.0723 100.625 20.7598 100.625 19.002V14.959C100.625 13.2012 100.203 11.8945 99.3589 11.0391C98.5269 10.1719 97.478 9.73828 96.2124 9.73828C94.4312 9.73828 93.1655 10.4062 92.4155 11.7422C91.6772 13.0781 91.3081 14.8242 91.3081 16.9805Z" fill="#C5B3B3"/>
<path d="M68.2034 26.209C67.676 26.209 67.4124 25.9453 67.4124 25.418V8.54297C67.4124 8.01562 67.676 7.75195 68.2034 7.75195H69.6799C70.2073 7.75195 70.4709 8.01562 70.4709 8.54297V9.94922H70.5413C71.303 9.10547 72.1233 8.47852 73.0022 8.06836C73.8811 7.6582 74.9768 7.45312 76.2893 7.45312C78.4221 7.45312 79.9514 8.05664 80.8772 9.26367C81.8147 10.459 82.2834 12.0996 82.2834 14.1855V25.418C82.2834 25.9453 82.0198 26.209 81.4924 26.209H79.9807C79.4534 26.209 79.1897 25.9453 79.1897 25.418V15.0293C79.1897 12.7324 78.8088 11.2793 78.0471 10.6699C77.2854 10.0488 76.3186 9.73828 75.1467 9.73828C73.6233 9.73828 72.469 10.1953 71.6838 11.1094C70.8987 12.0117 70.5061 13.5645 70.5061 15.7676V25.418C70.5061 25.9453 70.2424 26.209 69.7151 26.209H68.2034Z" fill="#C5B3B3"/>
<path d="M45.3096 16.9805C45.3096 14.0742 46.0361 11.7598 47.4893 10.0371C48.9424 8.31445 51.0225 7.45312 53.7295 7.45312C55.9795 7.45312 57.8428 8.24414 59.3193 9.82617C60.8076 11.3965 61.5518 13.9102 61.5518 17.3672C61.5518 17.8945 61.3115 18.1582 60.8311 18.1582H48.5791C48.7783 20.4199 49.3877 21.9961 50.4072 22.8867C51.4268 23.7656 52.5811 24.2051 53.8701 24.2051C55.2295 24.2051 56.2725 23.9766 56.999 23.5195C57.7256 23.0625 58.2588 22.6113 58.5986 22.166C58.9736 21.6738 59.3369 21.5801 59.6885 21.8848L60.7256 22.7812C60.9951 23.0156 60.9951 23.3379 60.7256 23.748C60.5029 24.0879 59.8643 24.6328 58.8096 25.3828C57.7666 26.1328 56.1201 26.5078 53.8701 26.5078C50.9404 26.5078 48.7783 25.6465 47.3838 23.9238C46.001 22.2012 45.3096 19.8867 45.3096 16.9805ZM48.5088 15.873H58.4404C58.3936 14.2324 57.9717 12.7969 57.1748 11.5664C56.3779 10.3242 55.2061 9.70312 53.6592 9.70312C52.2998 9.70312 51.1455 10.1602 50.1963 11.0742C49.2471 11.9766 48.6846 13.5762 48.5088 15.873Z" fill="#C5B3B3"/>
<path d="M37.2168 26.209C36.6895 26.209 36.4258 25.9453 36.4258 25.418V8.54297C36.4258 8.01562 36.6895 7.75195 37.2168 7.75195H38.7285C39.2559 7.75195 39.5195 8.01562 39.5195 8.54297V25.418C39.5195 25.9453 39.2559 26.209 38.7285 26.209H37.2168ZM37.2168 4.41211C36.6895 4.41211 36.4258 4.14844 36.4258 3.62109V2.10938C36.4258 1.58203 36.6895 1.31836 37.2168 1.31836H38.7285C39.2559 1.31836 39.5195 1.58203 39.5195 2.10938V3.62109C39.5195 4.14844 39.2559 4.41211 38.7285 4.41211H37.2168Z" fill="#C5B3B3"/>
<path d="M22.7253 26.209C22.198 26.209 21.9343 25.9453 21.9343 25.418V8.54297C21.9343 8.01562 22.198 7.75195 22.7253 7.75195H24.2019C24.7292 7.75195 24.9929 8.01562 24.9929 8.54297V10.6523H25.0632C25.6257 9.59766 26.2878 8.80078 27.0496 8.26172C27.8113 7.72266 28.7605 7.45312 29.8972 7.45312C30.6472 7.45312 31.1746 7.51758 31.4792 7.64648C31.7488 7.75195 31.8484 7.92773 31.7781 8.17383L31.3738 9.61523C31.3152 9.82617 31.1628 9.9082 30.9167 9.86133C30.5066 9.7793 30.1199 9.73828 29.7566 9.73828C28.3855 9.73828 27.2546 10.3594 26.364 11.6016C25.4734 12.832 25.0281 14.5137 25.0281 16.6465V25.418C25.0281 25.9453 24.7644 26.209 24.2371 26.209H22.7253Z" fill="#C5B3B3"/>
<path d="M1.00928 26.209C0.42334 26.209 0.130371 25.8867 0.130371 25.2422V1.96875C0.130371 1.32422 0.42334 1.00195 1.00928 1.00195H15.3354C15.98 1.00195 16.3022 1.26562 16.3022 1.79297V3.09375C16.3022 3.62109 15.98 3.88477 15.3354 3.88477H3.50537V12.2168H13.8237C14.4683 12.2168 14.7905 12.4805 14.7905 13.0078V14.3086C14.7905 14.8359 14.4683 15.0996 13.8237 15.0996H3.50537V25.2422C3.50537 25.8867 3.2124 26.209 2.62646 26.209H1.00928Z" fill="#C5B3B3"/>
</svg>
