<svg width="66" height="9" viewBox="0 0 66 9" fill="none" xmlns="http://www.w3.org/2000/svg">
<path d="M60.3555 8.24099V0.968262H65.0856V2.07267H61.6729V4.0471H64.8406V5.1515H61.6729V7.13659H65.114V8.24099H60.3555Z" fill="black"/>
<path d="M50.793 0.968262H52.4052L54.5643 6.23815H54.6495L56.8086 0.968262H58.4208V8.24099H57.1566V3.24454H57.0891L55.0792 8.21968H54.1346L52.1246 3.23389H52.0572V8.24099H50.793V0.968262Z" fill="black"/>
<path d="M43.9907 8.24099H42.5845L45.1448 0.968262H46.7713L49.3352 8.24099H47.9289L45.9865 2.45974H45.9296L43.9907 8.24099ZM44.0369 5.38943H47.8721V6.44767H44.0369V5.38943Z" fill="black"/>
<path d="M41.1211 0.968262V8.24099H39.9492L36.5224 3.28715H36.462V8.24099H35.1445V0.968262H36.3235L39.7468 5.92565H39.8107V0.968262H41.1211Z" fill="black"/>
<path d="M25.5898 8.24099V0.968262H30.32V2.07267H26.9073V4.0471H30.0749V5.1515H26.9073V7.13659H30.3484V8.24099H25.5898Z" fill="black"/>
<path d="M16.0273 0.968262H17.6396L19.7987 6.23815H19.8839L22.043 0.968262H23.6552V8.24099H22.391V3.24454H22.3235L20.3136 8.21968H19.369L17.359 3.23389H17.2915V8.24099H16.0273V0.968262Z" fill="black"/>
<path d="M9.2251 8.24099H7.81885L10.3792 0.968262H12.0056L14.5696 8.24099H13.1633L11.2208 2.45974H11.164L9.2251 8.24099ZM9.27126 5.38943H13.1065V6.44767H9.27126V5.38943Z" fill="black"/>
<path d="M5.33905 3.29053C5.27986 3.09877 5.19818 2.92713 5.09402 2.77561C4.99222 2.62173 4.86911 2.49034 4.7247 2.38144C4.58265 2.27254 4.4193 2.19086 4.23464 2.13641C4.04998 2.07959 3.84875 2.05118 3.63095 2.05118C3.24032 2.05118 2.89231 2.14943 2.58691 2.34593C2.28152 2.54242 2.04122 2.83125 1.86603 3.2124C1.69321 3.59119 1.6068 4.05284 1.6068 4.59735C1.6068 5.14659 1.69321 5.61179 1.86603 5.99294C2.03886 6.3741 2.27915 6.66411 2.58691 6.86297C2.89468 7.05947 3.25216 7.15772 3.65936 7.15772C4.02868 7.15772 4.34828 7.08669 4.61816 6.94465C4.89042 6.8026 5.09994 6.60137 5.24672 6.34095C5.3935 6.07817 5.46689 5.7704 5.46689 5.41766L5.76518 5.46382H3.79075V4.43399H6.74174V5.30757C6.74174 5.93021 6.60917 6.46879 6.34402 6.92334C6.07887 7.37789 5.71428 7.72826 5.25027 7.97448C4.78625 8.21832 4.25358 8.34024 3.65226 8.34024C2.98227 8.34024 2.39397 8.18991 1.88734 7.88925C1.38308 7.58622 0.988903 7.15653 0.704812 6.60019C0.423088 6.04147 0.282227 5.3786 0.282227 4.61155C0.282227 4.02443 0.365086 3.50004 0.530806 3.0384C0.698893 2.57675 0.933268 2.18494 1.23393 1.86297C1.53459 1.53863 1.88734 1.29242 2.29217 1.12433C2.697 0.95388 3.13734 0.868652 3.61319 0.868652C4.01565 0.868652 4.39089 0.927838 4.7389 1.04621C5.08691 1.16221 5.39586 1.32793 5.66575 1.54337C5.938 1.7588 6.16172 2.01449 6.33691 2.31041C6.5121 2.60634 6.62692 2.93305 6.68137 3.29053H5.33905Z" fill="black"/>
</svg>
