<svg width="1210" height="16" viewBox="0 0 1210 16" fill="none" xmlns="http://www.w3.org/2000/svg">
<path d="M1208.02 4.09109C1207.93 3.37139 1207.59 2.81268 1206.98 2.41495C1206.38 2.01722 1205.63 1.81836 1204.75 1.81836C1204.11 1.81836 1203.54 1.92253 1203.06 2.13086C1202.58 2.33919 1202.21 2.62565 1201.94 2.99023C1201.67 3.35482 1201.54 3.76912 1201.54 4.23313C1201.54 4.62139 1201.63 4.9552 1201.82 5.23455C1202.01 5.50917 1202.25 5.73881 1202.54 5.92347C1202.84 6.1034 1203.14 6.25255 1203.47 6.37092C1203.79 6.48455 1204.08 6.57688 1204.35 6.64791L1205.83 7.04563C1206.21 7.14506 1206.63 7.28237 1207.1 7.45756C1207.56 7.63275 1208.01 7.87186 1208.44 8.17489C1208.87 8.47319 1209.22 8.85671 1209.5 9.32546C1209.78 9.79421 1209.92 10.3695 1209.92 11.0513C1209.92 11.8373 1209.72 12.5475 1209.3 13.182C1208.9 13.8165 1208.3 14.3207 1207.51 14.6948C1206.73 15.0688 1205.78 15.2559 1204.67 15.2559C1203.62 15.2559 1202.72 15.0878 1201.96 14.7516C1201.2 14.4154 1200.61 13.9467 1200.17 13.3453C1199.74 12.744 1199.5 12.0456 1199.44 11.2502H1201.26C1201.3 11.7994 1201.49 12.254 1201.81 12.6138C1202.14 12.9689 1202.55 13.2341 1203.05 13.4093C1203.55 13.5797 1204.09 13.665 1204.67 13.665C1205.34 13.665 1205.94 13.556 1206.48 13.3382C1207.01 13.1157 1207.44 12.8079 1207.75 12.415C1208.06 12.0172 1208.22 11.5532 1208.22 11.0229C1208.22 10.54 1208.08 10.147 1207.81 9.84393C1207.54 9.5409 1207.19 9.29469 1206.75 9.10529C1206.31 8.9159 1205.83 8.75018 1205.32 8.60813L1203.53 8.09677C1202.39 7.77006 1201.49 7.30368 1200.83 6.69762C1200.17 6.09156 1199.84 5.29847 1199.84 4.31836C1199.84 3.50397 1200.06 2.79374 1200.5 2.18768C1200.94 1.57688 1201.54 1.1034 1202.29 0.767223C1203.04 0.426314 1203.88 0.255859 1204.81 0.255859C1205.75 0.255859 1206.58 0.423947 1207.31 0.760121C1208.04 1.09156 1208.62 1.54611 1209.04 2.12376C1209.47 2.70141 1209.7 3.35719 1209.72 4.09109H1208.02Z" fill="black"/>
<path d="M1194.79 0.455078H1196.55V10.0858C1196.55 11.0801 1196.31 11.9679 1195.84 12.7491C1195.38 13.5256 1194.72 14.1388 1193.88 14.5886C1193.03 15.0337 1192.03 15.2562 1190.89 15.2562C1189.75 15.2562 1188.76 15.0337 1187.91 14.5886C1187.06 14.1388 1186.4 13.5256 1185.94 12.7491C1185.47 11.9679 1185.24 11.0801 1185.24 10.0858V0.455078H1187V9.94372C1187 10.6539 1187.16 11.286 1187.47 11.84C1187.78 12.3893 1188.23 12.8225 1188.81 13.1397C1189.39 13.4522 1190.08 13.6085 1190.89 13.6085C1191.7 13.6085 1192.4 13.4522 1192.98 13.1397C1193.56 12.8225 1194.01 12.3893 1194.32 11.84C1194.63 11.286 1194.79 10.6539 1194.79 9.94372V0.455078Z" fill="black"/>
<path d="M1171.61 2.01758V0.455078H1182.52V2.01758H1177.95V15.0005H1176.19V2.01758H1171.61Z" fill="black"/>
<path d="M1161.19 15.0005H1159.34L1164.68 0.455078H1166.5L1171.84 15.0005H1169.99L1165.65 2.75621H1165.53L1161.19 15.0005ZM1161.87 9.31872H1169.31V10.8812H1161.87V9.31872Z" fill="black"/>
<path d="M1148.66 2.01758V0.455078H1159.57V2.01758H1155V15.0005H1153.24V2.01758H1148.66Z" fill="black"/>
<path d="M1144.66 4.09109C1144.57 3.37139 1144.23 2.81268 1143.62 2.41495C1143.02 2.01722 1142.27 1.81836 1141.39 1.81836C1140.75 1.81836 1140.18 1.92253 1139.7 2.13086C1139.22 2.33919 1138.85 2.62565 1138.58 2.99023C1138.31 3.35482 1138.18 3.76912 1138.18 4.23313C1138.18 4.62139 1138.27 4.9552 1138.46 5.23455C1138.65 5.50917 1138.89 5.73881 1139.18 5.92347C1139.48 6.1034 1139.78 6.25255 1140.11 6.37092C1140.43 6.48455 1140.72 6.57688 1140.99 6.64791L1142.47 7.04563C1142.85 7.14506 1143.27 7.28237 1143.74 7.45756C1144.2 7.63275 1144.65 7.87186 1145.08 8.17489C1145.51 8.47319 1145.86 8.85671 1146.14 9.32546C1146.42 9.79421 1146.56 10.3695 1146.56 11.0513C1146.56 11.8373 1146.36 12.5475 1145.94 13.182C1145.54 13.8165 1144.94 14.3207 1144.15 14.6948C1143.37 15.0688 1142.42 15.2559 1141.31 15.2559C1140.27 15.2559 1139.36 15.0878 1138.6 14.7516C1137.84 14.4154 1137.25 13.9467 1136.81 13.3453C1136.38 12.744 1136.14 12.0456 1136.08 11.2502H1137.9C1137.95 11.7994 1138.13 12.254 1138.45 12.6138C1138.78 12.9689 1139.19 13.2341 1139.69 13.4093C1140.19 13.5797 1140.73 13.665 1141.31 13.665C1141.98 13.665 1142.58 13.556 1143.12 13.3382C1143.65 13.1157 1144.08 12.8079 1144.39 12.415C1144.7 12.0172 1144.86 11.5532 1144.86 11.0229C1144.86 10.54 1144.72 10.147 1144.45 9.84393C1144.18 9.5409 1143.83 9.29469 1143.39 9.10529C1142.95 8.9159 1142.47 8.75018 1141.96 8.60813L1140.17 8.09677C1139.03 7.77006 1138.13 7.30368 1137.47 6.69762C1136.81 6.09156 1136.48 5.29847 1136.48 4.31836C1136.48 3.50397 1136.7 2.79374 1137.14 2.18768C1137.58 1.57688 1138.18 1.1034 1138.93 0.767223C1139.68 0.426314 1140.52 0.255859 1141.45 0.255859C1142.39 0.255859 1143.22 0.423947 1143.95 0.760121C1144.68 1.09156 1145.26 1.54611 1145.68 2.12376C1146.11 2.70141 1146.34 3.35719 1146.36 4.09109H1144.66Z" fill="black"/>
<path d="M982.904 0.455078H985.006L989.949 12.5289H990.12L995.063 0.455078H997.165V15.0005H995.517V3.9494H995.375L990.83 15.0005H989.239L984.694 3.9494H984.552V15.0005H982.904V0.455078Z" fill="black"/>
<path d="M970.951 15.0005V0.455078H979.729V2.01758H972.712V6.93235H979.275V8.49485H972.712V13.438H979.843V15.0005H970.951Z" fill="black"/>
<path d="M957.323 2.01758V0.455078H968.232V2.01758H963.658V15.0005H961.897V2.01758H957.323Z" fill="black"/>
<path d="M954.587 0.455078V15.0005H952.826V0.455078H954.587Z" fill="black"/>
<path d="M512.763 2.01758V0.455078H523.672V2.01758H519.098V15.0005H517.337V2.01758H512.763Z" fill="black"/>
<path d="M510.034 0.455078V15.0005H508.329L500.403 3.58008H500.261V15.0005H498.5V0.455078H500.204L508.159 11.9039H508.301V0.455078H510.034Z" fill="black"/>
<path d="M493.221 0.455078H494.982V10.0858C494.982 11.0801 494.748 11.9679 494.279 12.7491C493.815 13.5256 493.159 14.1388 492.312 14.5886C491.464 15.0337 490.47 15.2562 489.329 15.2562C488.188 15.2562 487.193 15.0337 486.346 14.5886C485.498 14.1388 484.84 13.5256 484.371 12.7491C483.907 11.9679 483.675 11.0801 483.675 10.0858V0.455078H485.437V9.94372C485.437 10.6539 485.593 11.286 485.905 11.84C486.218 12.3893 486.663 12.8225 487.241 13.1397C487.823 13.4522 488.519 13.6085 489.329 13.6085C490.138 13.6085 490.834 13.4522 491.417 13.1397C491.999 12.8225 492.444 12.3893 492.752 11.84C493.064 11.286 493.221 10.6539 493.221 9.94372V0.455078Z" fill="black"/>
<path d="M480.714 7.72745C480.714 9.26154 480.437 10.5873 479.883 11.7047C479.329 12.8221 478.569 13.6839 477.603 14.29C476.637 14.896 475.534 15.199 474.293 15.199C473.053 15.199 471.95 14.896 470.984 14.29C470.018 13.6839 469.258 12.8221 468.704 11.7047C468.15 10.5873 467.873 9.26154 467.873 7.72745C467.873 6.19336 468.15 4.8676 468.704 3.75018C469.258 2.63275 470.018 1.77101 470.984 1.16495C471.95 0.55889 473.053 0.255859 474.293 0.255859C475.534 0.255859 476.637 0.55889 477.603 1.16495C478.569 1.77101 479.329 2.63275 479.883 3.75018C480.437 4.8676 480.714 6.19336 480.714 7.72745ZM479.009 7.72745C479.009 6.46798 478.798 5.40501 478.377 4.53853C477.96 3.67205 477.395 3.01628 476.68 2.5712C475.969 2.12612 475.174 1.90359 474.293 1.90359C473.413 1.90359 472.615 2.12612 471.9 2.5712C471.19 3.01628 470.624 3.67205 470.202 4.53853C469.786 5.40501 469.577 6.46798 469.577 7.72745C469.577 8.98692 469.786 10.0499 470.202 10.9164C470.624 11.7828 471.19 12.4386 471.9 12.8837C472.615 13.3288 473.413 13.5513 474.293 13.5513C475.174 13.5513 475.969 13.3288 476.68 12.8837C477.395 12.4386 477.96 11.7828 478.377 10.9164C478.798 10.0499 479.009 8.98692 479.009 7.72745Z" fill="black"/>
<path d="M450.648 0.455078H452.75L457.693 12.5289H457.864L462.807 0.455078H464.909V15.0005H463.262V3.9494H463.12L458.574 15.0005H456.983L452.438 3.9494H452.296V15.0005H450.648V0.455078Z" fill="black"/>
<path d="M437.729 15.0005H435.882L441.223 0.455078H443.041L448.382 15.0005H446.536L442.189 2.75621H442.076L437.729 15.0005ZM438.411 9.31872H445.854V10.8812H438.411V9.31872Z" fill="black"/>
<path d="M805.398 15.0005H800.91V0.455078H805.597C807.008 0.455078 808.216 0.746271 809.219 1.32866C810.223 1.90631 810.993 2.73727 811.528 3.82156C812.063 4.9011 812.33 6.19371 812.33 7.6994C812.33 9.21455 812.06 10.519 811.52 11.6127C810.981 12.7018 810.195 13.5398 809.163 14.127C808.13 14.7093 806.876 15.0005 805.398 15.0005ZM802.671 13.438H805.285C806.487 13.438 807.484 13.206 808.275 12.742C809.065 12.278 809.655 11.6175 810.043 10.7605C810.431 9.90347 810.626 8.88311 810.626 7.6994C810.626 6.52515 810.434 5.51426 810.05 4.66673C809.667 3.81445 809.094 3.16104 808.332 2.7065C807.569 2.24722 806.62 2.01758 805.484 2.01758H802.671V13.438Z" fill="black"/>
<path d="M797.378 0.455078V15.0005H795.617V0.455078H797.378Z" fill="black"/>
<path d="M786.467 0.455078V15.0005H784.763L776.837 3.58008H776.694V15.0005H774.933V0.455078H776.638L784.592 11.9039H784.734V0.455078H786.467Z" fill="black"/>
<path d="M771.972 7.72745C771.972 9.26154 771.695 10.5873 771.141 11.7047C770.587 12.8221 769.827 13.6839 768.861 14.29C767.895 14.896 766.792 15.199 765.551 15.199C764.311 15.199 763.207 14.896 762.241 14.29C761.275 13.6839 760.516 12.8221 759.962 11.7047C759.408 10.5873 759.131 9.26154 759.131 7.72745C759.131 6.19336 759.408 4.8676 759.962 3.75018C760.516 2.63275 761.275 1.77101 762.241 1.16495C763.207 0.55889 764.311 0.255859 765.551 0.255859C766.792 0.255859 767.895 0.55889 768.861 1.16495C769.827 1.77101 770.587 2.63275 771.141 3.75018C771.695 4.8676 771.972 6.19336 771.972 7.72745ZM770.267 7.72745C770.267 6.46798 770.056 5.40501 769.635 4.53853C769.218 3.67205 768.652 3.01628 767.937 2.5712C767.227 2.12612 766.432 1.90359 765.551 1.90359C764.67 1.90359 763.873 2.12612 763.158 2.5712C762.447 3.01628 761.882 3.67205 761.46 4.53853C761.043 5.40501 760.835 6.46798 760.835 7.72745C760.835 8.98692 761.043 10.0499 761.46 10.9164C761.882 11.7828 762.447 12.4386 763.158 12.8837C763.873 13.3288 764.67 13.5513 765.551 13.5513C766.432 13.5513 767.227 13.3288 767.937 12.8837C768.652 12.4386 769.218 11.7828 769.635 10.9164C770.056 10.0499 770.267 8.98692 770.267 7.72745Z" fill="black"/>
<path d="M756.167 0.455078V15.0005H754.406V0.455078H756.167Z" fill="black"/>
<path d="M740.778 2.01758V0.455078H751.687V2.01758H747.114V15.0005H745.352V2.01758H740.778Z" fill="black"/>
<path d="M738.728 5.00018H736.966C736.862 4.49355 736.68 4.04847 736.419 3.66495C736.164 3.28143 735.851 2.95946 735.482 2.69904C735.117 2.43389 734.712 2.23503 734.267 2.10245C733.822 1.96987 733.358 1.90359 732.875 1.90359C731.995 1.90359 731.197 2.12612 730.482 2.5712C729.772 3.01628 729.206 3.67205 728.784 4.53853C728.368 5.40501 728.159 6.46798 728.159 7.72745C728.159 8.98692 728.368 10.0499 728.784 10.9164C729.206 11.7828 729.772 12.4386 730.482 12.8837C731.197 13.3288 731.995 13.5513 732.875 13.5513C733.358 13.5513 733.822 13.485 734.267 13.3525C734.712 13.2199 735.117 13.0234 735.482 12.763C735.851 12.4978 736.164 12.1735 736.419 11.79C736.68 11.4017 736.862 10.9566 736.966 10.4547H738.728C738.595 11.1981 738.354 11.8633 738.003 12.4505C737.653 13.0376 737.217 13.5371 736.696 13.949C736.175 14.3562 735.591 14.6664 734.942 14.8794C734.298 15.0925 733.609 15.199 732.875 15.199C731.635 15.199 730.532 14.896 729.566 14.29C728.6 13.6839 727.84 12.8221 727.286 11.7047C726.732 10.5873 726.455 9.26154 726.455 7.72745C726.455 6.19336 726.732 4.8676 727.286 3.75018C727.84 2.63275 728.6 1.77101 729.566 1.16495C730.532 0.55889 731.635 0.255859 732.875 0.255859C733.609 0.255859 734.298 0.362394 734.942 0.575462C735.591 0.788531 736.175 1.10103 736.696 1.51296C737.217 1.92016 737.653 2.41732 738.003 3.00444C738.354 3.58683 738.595 4.25207 738.728 5.00018Z" fill="black"/>
<path d="M714.788 15.0005H712.941L718.282 0.455078H720.1L725.441 15.0005H723.594L719.248 2.75621H719.134L714.788 15.0005ZM715.469 9.31872H722.913V10.8812H715.469V9.31872Z" fill="black"/>
<path d="M709.392 4.09109C709.306 3.37139 708.961 2.81268 708.355 2.41495C707.749 2.01722 707.005 1.81836 706.125 1.81836C705.481 1.81836 704.917 1.92253 704.434 2.13086C703.956 2.33919 703.582 2.62565 703.312 2.99023C703.047 3.35482 702.914 3.76912 702.914 4.23313C702.914 4.62139 703.007 4.9552 703.191 5.23455C703.381 5.50917 703.622 5.73881 703.916 5.92347C704.209 6.1034 704.517 6.25255 704.839 6.37092C705.161 6.48455 705.457 6.57688 705.727 6.64791L707.204 7.04563C707.583 7.14506 708.004 7.28237 708.468 7.45756C708.937 7.63275 709.384 7.87186 709.811 8.17489C710.241 8.47319 710.597 8.85671 710.876 9.32546C711.155 9.79421 711.295 10.3695 711.295 11.0513C711.295 11.8373 711.089 12.5475 710.677 13.182C710.27 13.8165 709.673 14.3207 708.887 14.6948C708.106 15.0688 707.157 15.2559 706.039 15.2559C704.998 15.2559 704.096 15.0878 703.333 14.7516C702.576 14.4154 701.979 13.9467 701.544 13.3453C701.113 12.744 700.869 12.0456 700.812 11.2502H702.63C702.678 11.7994 702.862 12.254 703.184 12.6138C703.511 12.9689 703.923 13.2341 704.42 13.4093C704.922 13.5797 705.462 13.665 706.039 13.665C706.712 13.665 707.315 13.556 707.85 13.3382C708.385 13.1157 708.809 12.8079 709.122 12.415C709.434 12.0172 709.59 11.5532 709.59 11.0229C709.59 10.54 709.455 10.147 709.186 9.84393C708.916 9.5409 708.561 9.29469 708.12 9.10529C707.68 8.9159 707.204 8.75018 706.693 8.60813L704.903 8.09677C703.767 7.77006 702.867 7.30368 702.204 6.69762C701.541 6.09156 701.21 5.29847 701.21 4.31836C701.21 3.50397 701.43 2.79374 701.87 2.18768C702.315 1.57688 702.912 1.1034 703.66 0.767223C704.413 0.426314 705.253 0.255859 706.181 0.255859C707.119 0.255859 707.952 0.423947 708.681 0.760121C709.411 1.09156 709.988 1.54611 710.414 2.12376C710.845 2.70141 711.072 3.35719 711.096 4.09109H709.392Z" fill="black"/>
<path d="M697.913 0.455078V15.0005H696.208L688.282 3.58008H688.14V15.0005H686.378V0.455078H688.083L696.038 11.9039H696.18V0.455078H697.913Z" fill="black"/>
<path d="M673.459 15.0005H671.613L676.954 0.455078H678.772L684.113 15.0005H682.266L677.92 2.75621H677.806L673.459 15.0005ZM674.141 9.31872H681.584V10.8812H674.141V9.31872Z" fill="black"/>
<path d="M660.07 15.0005V0.455078H664.985C666.121 0.455078 667.054 0.649207 667.783 1.03746C668.512 1.42099 669.052 1.94892 669.402 2.62127C669.753 3.29362 669.928 4.0583 669.928 4.91531C669.928 5.77231 669.753 6.53226 669.402 7.19514C669.052 7.85801 668.514 8.37885 667.79 8.75764C667.066 9.13169 666.14 9.31872 665.013 9.31872H661.036V7.72781H664.956C665.733 7.72781 666.358 7.61417 666.831 7.3869C667.309 7.15962 667.655 6.83765 667.868 6.42099C668.086 5.99959 668.195 5.49769 668.195 4.91531C668.195 4.33292 668.086 3.82392 667.868 3.38832C667.65 2.95271 667.302 2.61654 666.824 2.37979C666.346 2.13832 665.714 2.01758 664.928 2.01758H661.831V15.0005H660.07ZM666.916 8.46644L670.496 15.0005H668.451L664.928 8.46644H666.916Z" fill="black"/>
<path d="M646.442 2.01758V0.455078H657.351V2.01758H652.778V15.0005H651.016V2.01758H646.442Z" fill="black"/>
<path d="M274.955 15.0005V0.455078H283.733V2.01758H276.716V6.93235H283.278V8.49485H276.716V13.438H283.847V15.0005H274.955Z" fill="black"/>
<path d="M261.327 2.01758V0.455078H272.236V2.01758H267.662V15.0005H265.901V2.01758H261.327Z" fill="black"/>
<path d="M250.903 15.0005H249.056L254.397 0.455078H256.215L261.556 15.0005H259.71L255.363 2.75621H255.249L250.903 15.0005ZM251.585 9.31872H259.028V10.8812H251.585V9.31872Z" fill="black"/>
<path d="M241.103 15.0005H236.615V0.455078H241.302C242.713 0.455078 243.921 0.746271 244.924 1.32866C245.928 1.90631 246.698 2.73727 247.233 3.82156C247.768 4.9011 248.035 6.19371 248.035 7.6994C248.035 9.21455 247.765 10.519 247.226 11.6127C246.686 12.7018 245.9 13.5398 244.868 14.127C243.835 14.7093 242.581 15.0005 241.103 15.0005ZM238.376 13.438H240.99C242.192 13.438 243.189 13.206 243.98 12.742C244.771 12.278 245.36 11.6175 245.748 10.7605C246.137 9.90347 246.331 8.88311 246.331 7.6994C246.331 6.52515 246.139 5.51426 245.755 4.66673C245.372 3.81445 244.799 3.16104 244.037 2.7065C243.274 2.24722 242.325 2.01758 241.189 2.01758H238.376V13.438Z" fill="black"/>
<path d="M69.7866 15.0005V0.455078H78.565V2.01758H71.548V6.93235H78.1105V8.49485H71.548V13.438H78.6787V15.0005H69.7866Z" fill="black"/>
<path d="M58.5366 15.0005V0.455078H60.298V13.438H67.0593V15.0005H58.5366Z" fill="black"/>
<path d="M55.005 0.455078V15.0005H53.2437V0.455078H55.005Z" fill="black"/>
<path d="M41.5054 15.0005V0.455078H50.227V2.01758H43.2667V6.93235H49.5736V8.49485H43.2667V15.0005H41.5054Z" fill="black"/>
<path d="M38.5438 7.72745C38.5438 9.26154 38.2668 10.5873 37.7128 11.7047C37.1588 12.8221 36.3989 13.6839 35.433 14.29C34.4671 14.896 33.3639 15.199 32.1233 15.199C30.8828 15.199 29.7796 14.896 28.8137 14.29C27.8478 13.6839 27.0878 12.8221 26.5338 11.7047C25.9799 10.5873 25.7029 9.26154 25.7029 7.72745C25.7029 6.19336 25.9799 4.8676 26.5338 3.75018C27.0878 2.63275 27.8478 1.77101 28.8137 1.16495C29.7796 0.55889 30.8828 0.255859 32.1233 0.255859C33.3639 0.255859 34.4671 0.55889 35.433 1.16495C36.3989 1.77101 37.1588 2.63275 37.7128 3.75018C38.2668 4.8676 38.5438 6.19336 38.5438 7.72745ZM36.8392 7.72745C36.8392 6.46798 36.6285 5.40501 36.2071 4.53853C35.7905 3.67205 35.2247 3.01628 34.5097 2.5712C33.7995 2.12612 33.004 1.90359 32.1233 1.90359C31.2427 1.90359 30.4448 2.12612 29.7299 2.5712C29.0196 3.01628 28.4538 3.67205 28.0324 4.53853C27.6158 5.40501 27.4074 6.46798 27.4074 7.72745C27.4074 8.98692 27.6158 10.0499 28.0324 10.9164C28.4538 11.7828 29.0196 12.4386 29.7299 12.8837C30.4448 13.3288 31.2427 13.5513 32.1233 13.5513C33.004 13.5513 33.7995 13.3288 34.5097 12.8837C35.2247 12.4386 35.7905 11.7828 36.2071 10.9164C36.6285 10.0499 36.8392 8.98692 36.8392 7.72745Z" fill="black"/>
<path d="M13.4781 15.0005V0.455078H18.3929C19.5293 0.455078 20.4621 0.649207 21.1912 1.03746C21.9204 1.42099 22.4602 1.94892 22.8105 2.62127C23.1609 3.29362 23.3361 4.0583 23.3361 4.91531C23.3361 5.77231 23.1609 6.53226 22.8105 7.19514C22.4602 7.85801 21.9228 8.37885 21.1983 8.75764C20.4739 9.13169 19.5482 9.31872 18.4213 9.31872H14.4441V7.72781H18.3645C19.141 7.72781 19.766 7.61417 20.2395 7.3869C20.7177 7.15962 21.0634 6.83765 21.2764 6.42099C21.4942 5.99959 21.6031 5.49769 21.6031 4.91531C21.6031 4.33292 21.4942 3.82392 21.2764 3.38832C21.0586 2.95271 20.7106 2.61654 20.2324 2.37979C19.7542 2.13832 19.1221 2.01758 18.3361 2.01758H15.2395V15.0005H13.4781ZM20.3247 8.46644L23.9043 15.0005H21.8588L18.3361 8.46644H20.3247Z" fill="black"/>
<path d="M0.782837 15.0005V0.455078H5.69761C6.83871 0.455078 7.77147 0.661044 8.4959 1.07298C9.22507 1.48017 9.76484 2.03178 10.1152 2.72781C10.4656 3.42383 10.6408 4.20034 10.6408 5.05735C10.6408 5.91436 10.4656 6.69324 10.1152 7.394C9.76958 8.09476 9.23454 8.65347 8.51011 9.07014C7.78568 9.48207 6.85765 9.68803 5.72602 9.68803H2.20329V8.12553H5.6692C6.45045 8.12553 7.07782 7.99059 7.5513 7.7207C8.02479 7.45082 8.36806 7.08623 8.58113 6.62695C8.79894 6.16294 8.90784 5.63974 8.90784 5.05735C8.90784 4.47497 8.79894 3.95413 8.58113 3.49485C8.36806 3.03557 8.02242 2.67572 7.5442 2.41531C7.06598 2.15015 6.43151 2.01758 5.64079 2.01758H2.5442V15.0005H0.782837Z" fill="black"/>
</svg>
