<svg width="76" height="26" viewBox="0 0 76 26" fill="none" xmlns="http://www.w3.org/2000/svg">
<path d="M0.144531 13.0061C0.144531 6.12346 5.72404 0.543945 12.6067 0.543945H63.3786C70.2613 0.543945 75.8408 6.12346 75.8408 13.0061C75.8408 19.8888 70.2613 25.4683 63.3786 25.4683H12.6067C5.72404 25.4683 0.144531 19.8888 0.144531 13.0061Z" fill="#E9E9E9"/>
<path d="M47.7177 10.9533V11.9476H44.582V10.9533H47.7177ZM45.3562 9.64648H46.6417V14.7672C46.6417 14.94 46.6677 15.0726 46.7198 15.165C46.7743 15.2549 46.8453 15.3165 46.9329 15.3496C47.0205 15.3828 47.1175 15.3993 47.2241 15.3993C47.3046 15.3993 47.378 15.3934 47.4442 15.3816C47.5129 15.3697 47.565 15.3591 47.6005 15.3496L47.8171 16.3546C47.7485 16.3783 47.6502 16.4043 47.5224 16.4327C47.3969 16.4611 47.243 16.4777 47.0607 16.4824C46.7388 16.4919 46.4487 16.4434 46.1907 16.3368C45.9326 16.2279 45.7279 16.0598 45.5763 15.8326C45.4272 15.6053 45.3538 15.3212 45.3562 14.9803V9.64648Z" fill="#888888"/>
<path d="M41.8865 16.408V10.9534H43.1721V16.408H41.8865ZM42.5328 10.1793C42.3292 10.1793 42.1541 10.1118 42.0073 9.97687C41.8605 9.83956 41.7871 9.67503 41.7871 9.48327C41.7871 9.28914 41.8605 9.1246 42.0073 8.98966C42.1541 8.85235 42.3292 8.78369 42.5328 8.78369C42.7388 8.78369 42.914 8.85235 43.0584 8.98966C43.2052 9.1246 43.2786 9.28914 43.2786 9.48327C43.2786 9.67503 43.2052 9.83956 43.0584 9.97687C42.914 10.1118 42.7388 10.1793 42.5328 10.1793Z" fill="#888888"/>
<path d="M37.1116 16.5039C36.6831 16.5039 36.2996 16.3938 35.9611 16.1736C35.6225 15.9534 35.355 15.6338 35.1585 15.2148C34.962 14.7958 34.8638 14.2868 34.8638 13.6878C34.8638 13.0818 34.9632 12.5704 35.1621 12.1537C35.3633 11.7347 35.6344 11.4186 35.9753 11.2056C36.3162 10.9901 36.6962 10.8824 37.1152 10.8824C37.4348 10.8824 37.6976 10.9369 37.9035 11.0458C38.1095 11.1523 38.2729 11.2813 38.3936 11.4328C38.5143 11.582 38.6079 11.7228 38.6741 11.8554H38.7274V9.13525H40.0165V16.408H38.7523V15.5486H38.6741C38.6079 15.6812 38.512 15.822 38.3865 15.9712C38.261 16.118 38.0953 16.2434 37.8893 16.3476C37.6834 16.4518 37.4241 16.5039 37.1116 16.5039ZM37.4703 15.4492C37.7426 15.4492 37.9746 15.3758 38.1663 15.229C38.3581 15.0799 38.5037 14.8727 38.6031 14.6076C38.7025 14.3424 38.7523 14.0335 38.7523 13.6807C38.7523 13.328 38.7025 13.0214 38.6031 12.761C38.5061 12.5005 38.3616 12.2981 38.1699 12.1537C37.9805 12.0093 37.7473 11.9371 37.4703 11.9371C37.1838 11.9371 36.9447 12.0117 36.753 12.1608C36.5612 12.31 36.4168 12.5159 36.3197 12.7787C36.2227 13.0415 36.1741 13.3422 36.1741 13.6807C36.1741 14.0216 36.2227 14.3258 36.3197 14.5934C36.4192 14.8585 36.5648 15.068 36.7565 15.2219C36.9507 15.3734 37.1886 15.4492 37.4703 15.4492Z" fill="#888888"/>
<path d="M28.5703 16.408V9.13525H33.3004V10.2397H29.8878V12.2141H33.0554V13.3185H29.8878V15.3036H33.3288V16.408H28.5703Z" fill="#888888"/>
</svg>
