<svg width="432" height="68" viewBox="0 0 432 68" fill="none" xmlns="http://www.w3.org/2000/svg">
<path d="M423.941 63.1813C422.537 63.1813 421.333 62.8262 420.327 62.116C419.327 61.4001 418.557 60.3688 418.017 59.0222C417.483 57.67 417.216 56.0421 417.216 54.1387C417.222 52.2353 417.492 50.616 418.026 49.2808C418.566 47.9399 419.336 46.9171 420.336 46.2126C421.341 45.508 422.543 45.1558 423.941 45.1558C425.338 45.1558 426.54 45.508 427.546 46.2126C428.552 46.9171 429.321 47.9399 429.856 49.2808C430.395 50.6217 430.665 52.241 430.665 54.1387C430.665 56.0478 430.395 57.6785 429.856 59.0308C429.321 60.3774 428.552 61.4058 427.546 62.116C426.546 62.8262 425.344 63.1813 423.941 63.1813ZM423.941 60.5137C425.032 60.5137 425.892 59.9768 426.523 58.9029C427.159 57.8234 427.478 56.2353 427.478 54.1387C427.478 52.7524 427.333 51.5876 427.043 50.6444C426.753 49.7012 426.344 48.991 425.816 48.5137C425.287 48.0308 424.662 47.7893 423.941 47.7893C422.856 47.7893 421.998 48.3291 421.367 49.4086C420.736 50.4825 420.418 52.0592 420.412 54.1387C420.407 55.5308 420.546 56.7012 420.83 57.6501C421.12 58.5989 421.529 59.3149 422.057 59.7978C422.586 60.2751 423.213 60.5137 423.941 60.5137Z" fill="#34E5D8"/>
<path d="M406.733 63.1813C405.329 63.1813 404.125 62.8262 403.119 62.116C402.119 61.4001 401.349 60.3688 400.809 59.0222C400.275 57.67 400.008 56.0421 400.008 54.1387C400.014 52.2353 400.284 50.616 400.818 49.2808C401.358 47.9399 402.128 46.9171 403.128 46.2126C404.133 45.508 405.335 45.1558 406.733 45.1558C408.13 45.1558 409.332 45.508 410.338 46.2126C411.344 46.9171 412.113 47.9399 412.648 49.2808C413.187 50.6217 413.457 52.241 413.457 54.1387C413.457 56.0478 413.187 57.6785 412.648 59.0308C412.113 60.3774 411.344 61.4058 410.338 62.116C409.338 62.8262 408.136 63.1813 406.733 63.1813ZM406.733 60.5137C407.824 60.5137 408.684 59.9768 409.315 58.9029C409.951 57.8234 410.27 56.2353 410.27 54.1387C410.27 52.7524 410.125 51.5876 409.835 50.6444C409.545 49.7012 409.136 48.991 408.608 48.5137C408.079 48.0308 407.454 47.7893 406.733 47.7893C405.647 47.7893 404.79 48.3291 404.159 49.4086C403.528 50.4825 403.21 52.0592 403.204 54.1387C403.199 55.5308 403.338 56.7012 403.622 57.6501C403.912 58.5989 404.321 59.3149 404.849 59.7978C405.378 60.2751 406.005 60.5137 406.733 60.5137Z" fill="#34E5D8"/>
<path d="M389.525 63.1813C388.122 63.1813 386.917 62.8262 385.912 62.116C384.912 61.4001 384.142 60.3688 383.602 59.0222C383.068 57.67 382.801 56.0421 382.801 54.1387C382.806 52.2353 383.076 50.616 383.61 49.2808C384.15 47.9399 384.92 46.9171 385.92 46.2126C386.926 45.508 388.127 45.1558 389.525 45.1558C390.923 45.1558 392.125 45.508 393.13 46.2126C394.136 46.9171 394.906 47.9399 395.44 49.2808C395.98 50.6217 396.25 52.241 396.25 54.1387C396.25 56.0478 395.98 57.6785 395.44 59.0308C394.906 60.3774 394.136 61.4058 393.13 62.116C392.13 62.8262 390.929 63.1813 389.525 63.1813ZM389.525 60.5137C390.616 60.5137 391.477 59.9768 392.108 58.9029C392.744 57.8234 393.062 56.2353 393.062 54.1387C393.062 52.7524 392.917 51.5876 392.627 50.6444C392.338 49.7012 391.929 48.991 391.4 48.5137C390.872 48.0308 390.247 47.7893 389.525 47.7893C388.44 47.7893 387.582 48.3291 386.951 49.4086C386.321 50.4825 386.002 52.0592 385.997 54.1387C385.991 55.5308 386.13 56.7012 386.414 57.6501C386.704 58.5989 387.113 59.3149 387.642 59.7978C388.17 60.2751 388.798 60.5137 389.525 60.5137Z" fill="#34E5D8"/>
<path d="M379.131 60.4624L379.02 61.3999C378.941 62.1158 378.799 62.8431 378.594 63.5817C378.395 64.326 378.185 65.0107 377.964 65.6357C377.742 66.2607 377.563 66.7522 377.427 67.1101H375.347C375.427 66.7635 375.535 66.2919 375.671 65.6954C375.813 65.0988 375.949 64.4283 376.08 63.684C376.211 62.9397 376.299 62.184 376.344 61.4169L376.404 60.4624H379.131Z" fill="#34E5D8"/>
<path d="M359.369 62.8489V60.5649L365.429 54.6245C366.008 54.0393 366.491 53.5194 366.877 53.0649C367.264 52.6103 367.554 52.17 367.747 51.7438C367.94 51.3177 368.036 50.8631 368.036 50.3802C368.036 49.8291 367.911 49.3575 367.661 48.9654C367.411 48.5677 367.068 48.2609 366.63 48.045C366.193 47.8291 365.696 47.7211 365.139 47.7211C364.565 47.7211 364.062 47.8404 363.63 48.0791C363.198 48.312 362.863 48.6444 362.625 49.0762C362.392 49.508 362.275 50.0222 362.275 50.6188H359.267C359.267 49.5109 359.519 48.5478 360.025 47.7296C360.531 46.9114 361.227 46.2779 362.113 45.8291C363.005 45.3802 364.028 45.1558 365.181 45.1558C366.352 45.1558 367.38 45.3745 368.267 45.812C369.153 46.2495 369.84 46.8489 370.329 47.6103C370.823 48.3717 371.071 49.241 371.071 50.2183C371.071 50.8717 370.946 51.5137 370.696 52.1444C370.446 52.7751 370.005 53.4739 369.375 54.241C368.75 55.008 367.872 55.937 366.741 57.0279L363.733 60.0876V60.2069H371.335V62.8489H359.369Z" fill="#34E5D8"/>
<path d="M349.081 44.5762L343.456 65.4739H340.754L346.379 44.5762H349.081Z" fill="#34E5D8"/>
<path d="M331.166 63.1813C329.762 63.1813 328.558 62.8262 327.552 62.116C326.552 61.4001 325.782 60.3688 325.243 59.0222C324.708 57.67 324.441 56.0421 324.441 54.1387C324.447 52.2353 324.717 50.616 325.251 49.2808C325.791 47.9399 326.561 46.9171 327.561 46.2126C328.566 45.508 329.768 45.1558 331.166 45.1558C332.564 45.1558 333.765 45.508 334.771 46.2126C335.777 46.9171 336.547 47.9399 337.081 49.2808C337.62 50.6217 337.89 52.241 337.89 54.1387C337.89 56.0478 337.62 57.6785 337.081 59.0308C336.547 60.3774 335.777 61.4058 334.771 62.116C333.771 62.8262 332.569 63.1813 331.166 63.1813ZM331.166 60.5137C332.257 60.5137 333.118 59.9768 333.748 58.9029C334.385 57.8234 334.703 56.2353 334.703 54.1387C334.703 52.7524 334.558 51.5876 334.268 50.6444C333.978 49.7012 333.569 48.991 333.041 48.5137C332.512 48.0308 331.887 47.7893 331.166 47.7893C330.081 47.7893 329.223 48.3291 328.592 49.4086C327.961 50.4825 327.643 52.0592 327.637 54.1387C327.632 55.5308 327.771 56.7012 328.055 57.6501C328.345 58.5989 328.754 59.3149 329.282 59.7978C329.811 60.2751 330.439 60.5137 331.166 60.5137Z" fill="black"/>
<path d="M313.958 63.1813C312.554 63.1813 311.35 62.8262 310.344 62.116C309.344 61.4001 308.574 60.3688 308.035 59.0222C307.5 57.67 307.233 56.0421 307.233 54.1387C307.239 52.2353 307.509 50.616 308.043 49.2808C308.583 47.9399 309.353 46.9171 310.353 46.2126C311.358 45.508 312.56 45.1558 313.958 45.1558C315.356 45.1558 316.557 45.508 317.563 46.2126C318.569 46.9171 319.339 47.9399 319.873 49.2808C320.412 50.6217 320.682 52.241 320.682 54.1387C320.682 56.0478 320.412 57.6785 319.873 59.0308C319.339 60.3774 318.569 61.4058 317.563 62.116C316.563 62.8262 315.361 63.1813 313.958 63.1813ZM313.958 60.5137C315.049 60.5137 315.91 59.9768 316.54 58.9029C317.177 57.8234 317.495 56.2353 317.495 54.1387C317.495 52.7524 317.35 51.5876 317.06 50.6444C316.77 49.7012 316.361 48.991 315.833 48.5137C315.304 48.0308 314.679 47.7893 313.958 47.7893C312.873 47.7893 312.015 48.3291 311.384 49.4086C310.753 50.4825 310.435 52.0592 310.429 54.1387C310.424 55.5308 310.563 56.7012 310.847 57.6501C311.137 58.5989 311.546 59.3149 312.074 59.7978C312.603 60.2751 313.231 60.5137 313.958 60.5137Z" fill="black"/>
<path d="M301.874 45.3945V62.8491H298.712V48.4712H298.61L294.528 51.0792V48.1815L298.866 45.3945H301.874Z" fill="black"/>
<path d="M75.6191 27.848C75.6191 25.2989 77.6856 23.2324 80.2348 23.2324H427.33C429.879 23.2324 431.945 25.2989 431.945 27.848C431.945 30.3972 429.879 32.4637 427.33 32.4637H80.2348C77.6856 32.4637 75.6191 30.3972 75.6191 27.848Z" fill="#D9D9D9"/>
<path d="M75.6191 27.848C75.6191 25.2989 77.6856 23.2324 80.2348 23.2324H100.544C103.093 23.2324 105.159 25.2989 105.159 27.848C105.159 30.3972 103.093 32.4637 100.544 32.4637H80.2348C77.6856 32.4637 75.6191 30.3972 75.6191 27.848Z" fill="#34E5D8"/>
<path d="M54.5903 60V45.4546H57.2253V57.7912H63.6315V60H54.5903Z" fill="#34E5D8"/>
<path d="M41.4419 60V45.4546H50.9021V47.6634H44.0768V51.6123H50.4121V53.8211H44.0768V57.7912H50.9589V60H41.4419Z" fill="#34E5D8"/>
<path d="M27.915 45.4546L31.7006 56.9035H31.8497L35.6281 45.4546H38.5258L33.398 60H30.1452L25.0244 45.4546H27.915Z" fill="#34E5D8"/>
<path d="M12.8208 60V45.4546H22.281V47.6634H15.4557V51.6123H21.791V53.8211H15.4557V57.7912H22.3378V60H12.8208Z" fill="#34E5D8"/>
<path d="M0.492676 60V45.4546H3.12762V57.7912H9.53387V60H0.492676Z" fill="#34E5D8"/>
<path d="M37.1748 36.0001V31.4319L49.2941 19.5513C50.4532 18.3808 51.4191 17.341 52.1918 16.432C52.9645 15.5229 53.5441 14.6422 53.9304 13.7899C54.3168 12.9376 54.51 12.0285 54.51 11.0626C54.51 9.96036 54.26 9.01718 53.76 8.23309C53.26 7.43763 52.5725 6.824 51.6975 6.39218C50.8225 5.96036 49.8282 5.74445 48.7145 5.74445C47.5668 5.74445 46.5611 5.98309 45.6975 6.46036C44.8339 6.92627 44.1634 7.59104 43.6861 8.45468C43.2202 9.31832 42.9873 10.3467 42.9873 11.5399H36.9702C36.9702 9.324 37.4759 7.39786 38.4873 5.7615C39.4986 4.12513 40.8907 2.85809 42.6634 1.96036C44.4475 1.06263 46.4929 0.61377 48.7998 0.61377C51.1407 0.61377 53.1975 1.05127 54.9702 1.92627C56.7429 2.80127 58.1179 4.00013 59.0952 5.52286C60.0839 7.04559 60.5782 8.78422 60.5782 10.7388C60.5782 12.0456 60.3282 13.3297 59.8282 14.591C59.3282 15.8524 58.4475 17.2501 57.1861 18.7842C55.9361 20.3183 54.1804 22.1763 51.9191 24.3581L45.902 30.4774V30.716H61.1066V36.0001H37.1748Z" fill="#34E5D8"/>
<path d="M15.6627 36.6649C12.8559 36.6649 10.4468 35.9547 8.43546 34.5342C6.43546 33.1024 4.89569 31.0399 3.81614 28.3467C2.74796 25.6422 2.21387 22.3865 2.21387 18.5797C2.22523 14.7729 2.765 11.5342 3.83319 8.86377C4.91273 6.18195 6.4525 4.1365 8.4525 2.72741C10.4639 1.31832 12.8673 0.61377 15.6627 0.61377C18.4582 0.61377 20.8616 1.31832 22.873 2.72741C24.8843 4.1365 26.4241 6.18195 27.4923 8.86377C28.5718 11.5456 29.1116 14.7842 29.1116 18.5797C29.1116 22.3979 28.5718 25.6592 27.4923 28.3638C26.4241 31.057 24.8843 33.1138 22.873 34.5342C20.873 35.9547 18.4695 36.6649 15.6627 36.6649ZM15.6627 31.3297C17.8445 31.3297 19.5661 30.2558 20.8275 28.1081C22.1002 25.949 22.7366 22.7729 22.7366 18.5797C22.7366 15.807 22.4468 13.4774 21.8673 11.591C21.2877 9.70468 20.4695 8.28422 19.4127 7.32968C18.3559 6.36377 17.1059 5.88082 15.6627 5.88082C13.4923 5.88082 11.7764 6.96036 10.515 9.11945C9.25364 11.2672 8.61728 14.4206 8.60591 18.5797C8.59455 21.3638 8.87296 23.7047 9.44114 25.6024C10.0207 27.5001 10.8389 28.932 11.8957 29.8979C12.9525 30.8524 14.2082 31.3297 15.6627 31.3297Z" fill="#34E5D8"/>
</svg>
