<svg width="170" height="47" viewBox="0 0 170 47" fill="none" xmlns="http://www.w3.org/2000/svg">
<path d="M141.636 30.7669V24.9544L156.21 1.99414H161.221V10.0396H158.255L149.068 24.5794V24.8521H169.778V30.7669H141.636ZM158.391 36.9032V28.9941L158.528 26.4203V1.99414H165.448V36.9032H158.391Z" fill="black"/>
<path d="M131.467 1.99414V36.9032H124.087V8.99982H123.882L115.888 14.0112V7.46573L124.53 1.99414H131.467Z" fill="black"/>
<path d="M100.87 36.9034V10.7216H108.131V36.9034H100.87ZM104.518 7.34659C103.438 7.34659 102.512 6.98864 101.739 6.27273C100.978 5.54545 100.597 4.67614 100.597 3.66477C100.597 2.66477 100.978 1.80682 101.739 1.09091C102.512 0.363637 103.438 0 104.518 0C105.597 0 106.518 0.363637 107.279 1.09091C108.052 1.80682 108.438 2.66477 108.438 3.66477C108.438 4.67614 108.052 5.54545 107.279 6.27273C106.518 6.98864 105.597 7.34659 104.518 7.34659Z" fill="black"/>
<path d="M85.3918 36.9034V10.7216H92.6531V36.9034H85.3918ZM89.0395 7.34659C87.96 7.34659 87.0338 6.98864 86.2611 6.27273C85.4997 5.54545 85.119 4.67614 85.119 3.66477C85.119 2.66477 85.4997 1.80682 86.2611 1.09091C87.0338 0.363637 87.96 0 89.0395 0C90.1191 0 91.0395 0.363637 91.8009 1.09091C92.5736 1.80682 92.96 2.66477 92.96 3.66477C92.96 4.67614 92.5736 5.54545 91.8009 6.27273C91.0395 6.98864 90.1191 7.34659 89.0395 7.34659Z" fill="black"/>
<path d="M69.9136 10.7216H77.175V38.1989C77.175 40.2216 76.7772 41.858 75.9818 43.108C75.1863 44.358 74.0443 45.2727 72.5556 45.8523C71.0784 46.4318 69.3113 46.7216 67.2545 46.7216C67.0045 46.7216 66.7659 46.7159 66.5386 46.7045C66.3 46.7045 66.05 46.6989 65.7886 46.6875V41.0114C65.9818 41.0227 66.1522 41.0284 66.3 41.0284C66.4363 41.0398 66.5841 41.0455 66.7431 41.0455C67.9136 41.0455 68.7318 40.7955 69.1977 40.2955C69.675 39.8068 69.9136 39.0682 69.9136 38.0795V10.7216ZM73.5272 7.34659C72.4591 7.34659 71.5386 6.98864 70.7659 6.27273C69.9931 5.54545 69.6068 4.67614 69.6068 3.66477C69.6068 2.66477 69.9931 1.80682 70.7659 1.09091C71.5386 0.363637 72.4591 0 73.5272 0C74.6181 0 75.5443 0.363637 76.3056 1.09091C77.0784 1.80682 77.4647 2.66477 77.4647 3.66477C77.4647 4.67614 77.0784 5.54545 76.3056 6.27273C75.5443 6.98864 74.6181 7.34659 73.5272 7.34659Z" fill="black"/>
<path d="M49.9057 37.415C47.258 37.415 44.9682 36.8525 43.0364 35.7275C41.1159 34.5911 39.633 33.0115 38.5875 30.9888C37.542 28.9547 37.0193 26.5968 37.0193 23.915C37.0193 21.2104 37.542 18.8468 38.5875 16.824C39.633 14.79 41.1159 13.2104 43.0364 12.0854C44.9682 10.949 47.258 10.3809 49.9057 10.3809C52.5534 10.3809 54.8375 10.949 56.758 12.0854C58.6898 13.2104 60.1784 14.79 61.2239 16.824C62.2693 18.8468 62.792 21.2104 62.792 23.915C62.792 26.5968 62.2693 28.9547 61.2239 30.9888C60.1784 33.0115 58.6898 34.5911 56.758 35.7275C54.8375 36.8525 52.5534 37.415 49.9057 37.415ZM49.9398 31.79C51.1443 31.79 52.15 31.449 52.9568 30.7672C53.7636 30.074 54.3716 29.1309 54.7807 27.9377C55.2011 26.7445 55.4114 25.3865 55.4114 23.8638C55.4114 22.3411 55.2011 20.9831 54.7807 19.79C54.3716 18.5968 53.7636 17.6536 52.9568 16.9604C52.15 16.2672 51.1443 15.9206 49.9398 15.9206C48.7239 15.9206 47.7011 16.2672 46.8716 16.9604C46.0534 17.6536 45.4341 18.5968 45.0136 19.79C44.6045 20.9831 44.4 22.3411 44.4 23.8638C44.4 25.3865 44.6045 26.7445 45.0136 27.9377C45.4341 29.1309 46.0534 30.074 46.8716 30.7672C47.7011 31.449 48.7239 31.79 49.9398 31.79Z" fill="black"/>
<path d="M0 36.9032V1.99414H7.38068V16.3976H22.3636V1.99414H29.7273V36.9032H22.3636V22.4828H7.38068V36.9032H0Z" fill="black"/>
</svg>
