<svg width="60" height="9" viewBox="0 0 60 9" fill="none" xmlns="http://www.w3.org/2000/svg">
<path d="M53.4849 8.25759V0.984863H56.2121C56.7708 0.984863 57.2396 1.08193 57.6184 1.27606C57.9995 1.47019 58.2872 1.74244 58.4813 2.09282C58.6778 2.44083 58.7761 2.84684 58.7761 3.31086C58.7761 3.77724 58.6766 4.18207 58.4778 4.52535C58.2813 4.86626 57.9913 5.13022 57.6077 5.31725C57.2242 5.50191 56.7531 5.59424 56.1944 5.59424H54.2519V4.50049H56.0168C56.3435 4.50049 56.611 4.45551 56.8194 4.36555C57.0277 4.27322 57.1816 4.13946 57.281 3.96427C57.3828 3.78671 57.4337 3.56891 57.4337 3.31086C57.4337 3.05281 57.3828 2.83264 57.281 2.65035C57.1792 2.46569 57.0242 2.32601 56.8158 2.23131C56.6075 2.13425 56.3388 2.08572 56.0097 2.08572H54.8023V8.25759H53.4849ZM57.242 4.96214L59.0424 8.25759H57.5722L55.8038 4.96214H57.242Z" fill="black"/>
<path d="M46.9106 8.25759V0.984863H51.6408V2.08927H48.2281V4.0637H51.3957V5.1681H48.2281V7.15319H51.6692V8.25759H46.9106Z" fill="black"/>
<path d="M39.8384 8.25759V0.984863H42.6225C43.148 0.984863 43.5848 1.06772 43.9328 1.23344C44.2832 1.3968 44.5448 1.62052 44.7176 1.90461C44.8928 2.1887 44.9804 2.51067 44.9804 2.87052C44.9804 3.16645 44.9236 3.41976 44.81 3.63046C44.6963 3.83879 44.5436 4.00806 44.3519 4.13827C44.1601 4.26848 43.9459 4.36199 43.7091 4.41881V4.48983C43.9672 4.50404 44.2146 4.58335 44.4513 4.72776C44.6904 4.86981 44.8857 5.07104 45.0372 5.33145C45.1888 5.59187 45.2645 5.90674 45.2645 6.27606C45.2645 6.65248 45.1734 6.99102 44.9911 7.29168C44.8088 7.58998 44.5342 7.82554 44.1672 7.99836C43.8003 8.17118 43.3386 8.25759 42.7823 8.25759H39.8384ZM41.1558 7.15674H42.5728C43.051 7.15674 43.3954 7.06559 43.6061 6.8833C43.8192 6.69864 43.9257 6.4619 43.9257 6.17307C43.9257 5.95764 43.8725 5.76351 43.7659 5.59069C43.6594 5.4155 43.5079 5.27819 43.3114 5.17876C43.1149 5.07696 42.8805 5.02606 42.6083 5.02606H41.1558V7.15674ZM41.1558 4.0779H42.4591C42.6864 4.0779 42.8912 4.03647 43.0735 3.95361C43.2558 3.86839 43.399 3.74883 43.5032 3.59495C43.6097 3.4387 43.663 3.25404 43.663 3.04097C43.663 2.75925 43.5635 2.52724 43.3647 2.34495C43.1682 2.16266 42.8758 2.07151 42.4875 2.07151H41.1558V4.0779Z" fill="black"/>
<path d="M30.2759 0.984863H31.8881L34.0472 6.25475H34.1324L36.2915 0.984863H37.9037V8.25759H36.6395V3.26114H36.572L34.5621 8.23628H33.6175L31.6076 3.25049H31.5401V8.25759H30.2759V0.984863Z" fill="black"/>
<path d="M27.0264 0.984863H28.3439V5.73628C28.3439 6.25712 28.2208 6.71521 27.9746 7.11057C27.7307 7.50593 27.3874 7.81488 26.9447 8.03742C26.502 8.25759 25.9847 8.36768 25.3929 8.36768C24.7987 8.36768 24.2802 8.25759 23.8375 8.03742C23.3948 7.81488 23.0515 7.50593 22.8077 7.11057C22.5638 6.71521 22.4419 6.25712 22.4419 5.73628V0.984863H23.7594V5.6262C23.7594 5.92923 23.8257 6.19912 23.9582 6.43586C24.0932 6.6726 24.2826 6.85844 24.5264 6.99339C24.7703 7.12596 25.0591 7.19225 25.3929 7.19225C25.7267 7.19225 26.0155 7.12596 26.2594 6.99339C26.5056 6.85844 26.695 6.6726 26.8275 6.43586C26.9601 6.19912 27.0264 5.92923 27.0264 5.6262V0.984863Z" fill="black"/>
<path d="M20.5063 0.984863V8.25759H19.3345L15.9076 3.30376H15.8473V8.25759H14.5298V0.984863H15.7088L19.1321 5.94225H19.196V0.984863H20.5063Z" fill="black"/>
<path d="M6.26771 8.25759H3.80322V0.984863H6.31743C7.03949 0.984863 7.65976 1.13046 8.17822 1.42165C8.69906 1.71048 9.09915 2.12596 9.37851 2.6681C9.65786 3.21024 9.79754 3.85892 9.79754 4.61412C9.79754 5.3717 9.65668 6.02274 9.37496 6.56725C9.0956 7.11176 8.69195 7.52961 8.16402 7.8208C7.63845 8.11199 7.00635 8.25759 6.26771 8.25759ZM5.12069 7.11768H6.20379C6.71042 7.11768 7.133 7.02535 7.47155 6.84069C7.81009 6.65366 8.06459 6.37549 8.23504 6.00617C8.4055 5.63448 8.49072 5.17047 8.49072 4.61412C8.49072 4.05778 8.4055 3.59613 8.23504 3.22918C8.06459 2.85986 7.81246 2.58406 7.47865 2.40177C7.14721 2.21711 6.73528 2.12478 6.24285 2.12478H5.12069V7.11768Z" fill="black"/>
<path d="M1.87655 0.984863V8.25759H0.559082V0.984863H1.87655Z" fill="black"/>
</svg>
