<svg width="256" height="21" viewBox="0 0 256 21" fill="none" xmlns="http://www.w3.org/2000/svg">
<path d="M248.31 9.60782V15.9999H245.739V5.09078H248.196V6.94447H248.324C248.575 6.33367 248.975 5.84835 249.524 5.4885C250.078 5.12865 250.762 4.94873 251.577 4.94873C252.33 4.94873 252.985 5.10972 253.544 5.43168C254.108 5.75365 254.543 6.22004 254.851 6.83083C255.163 7.44163 255.317 8.18263 255.313 9.05384V15.9999H252.742V9.45157C252.742 8.7224 252.552 8.15185 252.173 7.73992C251.799 7.32799 251.281 7.12203 250.618 7.12203C250.168 7.12203 249.768 7.22146 249.418 7.42032C249.072 7.61445 248.8 7.89617 248.601 8.26549C248.407 8.63481 248.31 9.08225 248.31 9.60782Z" fill="black"/>
<path d="M237.329 16.2129C236.264 16.2129 235.341 15.9786 234.559 15.5098C233.778 15.0411 233.172 14.3853 232.741 13.5425C232.315 12.6997 232.102 11.7148 232.102 10.5879C232.102 9.46104 232.315 8.47382 232.741 7.62629C233.172 6.77875 233.778 6.12061 234.559 5.65186C235.341 5.18311 236.264 4.94873 237.329 4.94873C238.395 4.94873 239.318 5.18311 240.099 5.65186C240.88 6.12061 241.484 6.77875 241.91 7.62629C242.341 8.47382 242.557 9.46104 242.557 10.5879C242.557 11.7148 242.341 12.6997 241.91 13.5425C241.484 14.3853 240.88 15.0411 240.099 15.5098C239.318 15.9786 238.395 16.2129 237.329 16.2129ZM237.344 14.1533C237.921 14.1533 238.404 13.9947 238.792 13.6774C239.181 13.3555 239.469 12.9246 239.659 12.3848C239.853 11.845 239.95 11.2437 239.95 10.5808C239.95 9.91322 239.853 9.30953 239.659 8.76975C239.469 8.22524 239.181 7.79201 238.792 7.47004C238.404 7.14807 237.921 6.98708 237.344 6.98708C236.752 6.98708 236.259 7.14807 235.866 7.47004C235.478 7.79201 235.187 8.22524 234.993 8.76975C234.803 9.30953 234.709 9.91322 234.709 10.5808C234.709 11.2437 234.803 11.845 234.993 12.3848C235.187 12.9246 235.478 13.3555 235.866 13.6774C236.259 13.9947 236.752 14.1533 237.344 14.1533Z" fill="black"/>
<path d="M226.356 16V5.09095H228.927V16H226.356ZM227.649 3.54266C227.241 3.54266 226.891 3.40772 226.598 3.13783C226.304 2.86321 226.157 2.53413 226.157 2.15061C226.157 1.76235 226.304 1.43328 226.598 1.1634C226.891 0.888775 227.241 0.751465 227.649 0.751465C228.061 0.751465 228.411 0.888775 228.7 1.1634C228.993 1.43328 229.14 1.76235 229.14 2.15061C229.14 2.53413 228.993 2.86321 228.7 3.13783C228.411 3.40772 228.061 3.54266 227.649 3.54266Z" fill="black"/>
<path d="M223.206 5.09118V7.07981H216.935V5.09118H223.206ZM218.483 2.47754H221.054V12.719C221.054 13.0647 221.106 13.3298 221.21 13.5145C221.319 13.6944 221.461 13.8175 221.636 13.8838C221.811 13.9501 222.006 13.9832 222.219 13.9832C222.38 13.9832 222.526 13.9714 222.659 13.9477C222.796 13.924 222.9 13.9027 222.971 13.8838L223.405 15.8937C223.267 15.9411 223.071 15.9932 222.815 16.05C222.564 16.1068 222.257 16.1399 221.892 16.1494C221.248 16.1684 220.668 16.0713 220.152 15.8582C219.636 15.6404 219.226 15.3042 218.923 14.8497C218.625 14.3952 218.478 13.827 218.483 13.1452V2.47754Z" fill="black"/>
<path d="M208.413 16.22C207.722 16.22 207.099 16.0969 206.545 15.8507C205.996 15.5998 205.561 15.2305 205.239 14.7428C204.921 14.2551 204.763 13.6537 204.763 12.9388C204.763 12.3233 204.876 11.8143 205.104 11.4118C205.331 11.0093 205.641 10.6874 206.034 10.4459C206.427 10.2044 206.87 10.0221 207.362 9.89901C207.859 9.77117 208.373 9.67884 208.903 9.62203C209.543 9.55574 210.061 9.49655 210.459 9.44447C210.856 9.38765 211.145 9.30242 211.325 9.18879C211.51 9.07042 211.602 8.88812 211.602 8.64191V8.5993C211.602 8.06426 211.444 7.64996 211.126 7.3564C210.809 7.06284 210.352 6.91606 209.756 6.91606C209.126 6.91606 208.626 7.05337 208.257 7.32799C207.892 7.60261 207.646 7.92695 207.518 8.301L205.118 7.96009C205.307 7.29721 205.62 6.74324 206.055 6.29816C206.491 5.84835 207.024 5.51218 207.653 5.28964C208.283 5.06237 208.979 4.94873 209.741 4.94873C210.267 4.94873 210.79 5.01028 211.311 5.13339C211.832 5.25649 212.308 5.46009 212.739 5.74418C213.169 6.02354 213.515 6.4047 213.775 6.88765C214.041 7.3706 214.173 7.9743 214.173 8.69873V15.9999H211.702V14.5013H211.616C211.46 14.8043 211.24 15.0884 210.956 15.3536C210.677 15.614 210.324 15.8247 209.898 15.9857C209.476 16.1419 208.981 16.22 208.413 16.22ZM209.081 14.3308C209.597 14.3308 210.044 14.229 210.423 14.0254C210.802 13.8171 211.093 13.5425 211.297 13.2016C211.505 12.8607 211.609 12.489 211.609 12.0865V10.801C211.529 10.8673 211.391 10.9288 211.197 10.9857C211.008 11.0425 210.795 11.0922 210.558 11.1348C210.321 11.1774 210.087 11.2153 209.855 11.2484C209.623 11.2816 209.422 11.31 209.251 11.3337C208.868 11.3858 208.525 11.471 208.221 11.5894C207.918 11.7077 207.679 11.8734 207.504 12.0865C207.329 12.2948 207.241 12.5647 207.241 12.8962C207.241 13.3697 207.414 13.7271 207.76 13.9686C208.106 14.2101 208.546 14.3308 209.081 14.3308Z" fill="black"/>
<path d="M186.325 15.9999V5.09078H188.782V6.94447H188.91C189.137 6.31947 189.514 5.83178 190.039 5.4814C190.565 5.12629 191.192 4.94873 191.921 4.94873C192.66 4.94873 193.283 5.12865 193.789 5.4885C194.301 5.84362 194.66 6.32894 194.869 6.94447H194.982C195.224 6.33841 195.631 5.85545 196.204 5.49561C196.782 5.13102 197.466 4.94873 198.257 4.94873C199.26 4.94873 200.079 5.26597 200.714 5.90043C201.348 6.5349 201.666 7.46057 201.666 8.67742V15.9999H199.087V9.07515C199.087 8.39807 198.908 7.90328 198.548 7.59078C198.188 7.27354 197.748 7.11492 197.227 7.11492C196.606 7.11492 196.121 7.30905 195.771 7.69731C195.425 8.08083 195.252 8.58036 195.252 9.19589V15.9999H192.731V8.96862C192.731 8.40517 192.56 7.95536 192.22 7.61918C191.883 7.28301 191.443 7.11492 190.899 7.11492C190.529 7.11492 190.193 7.20962 189.89 7.39901C189.587 7.58367 189.346 7.84646 189.166 8.18737C188.986 8.52354 188.896 8.91653 188.896 9.36634V15.9999H186.325Z" fill="black"/>
<path d="M177.395 15.9999V5.09082H179.888V6.909H180.002C180.2 6.27927 180.541 5.79395 181.024 5.45304C181.512 5.10739 182.068 4.93457 182.693 4.93457C182.835 4.93457 182.994 4.94167 183.169 4.95588C183.349 4.96535 183.498 4.98192 183.617 5.00559V7.37065C183.508 7.33277 183.335 7.29963 183.098 7.27122C182.866 7.23807 182.641 7.2215 182.423 7.2215C181.955 7.2215 181.533 7.3233 181.159 7.5269C180.79 7.72576 180.499 8.00275 180.286 8.35787C180.073 8.71298 179.966 9.12254 179.966 9.58656V15.9999H177.395Z" fill="black"/>
<path d="M168.986 16.2129C167.92 16.2129 166.997 15.9786 166.216 15.5098C165.434 15.0411 164.828 14.3853 164.397 13.5425C163.971 12.6997 163.758 11.7148 163.758 10.5879C163.758 9.46104 163.971 8.47382 164.397 7.62629C164.828 6.77875 165.434 6.12061 166.216 5.65186C166.997 5.18311 167.92 4.94873 168.986 4.94873C170.051 4.94873 170.974 5.18311 171.755 5.65186C172.537 6.12061 173.14 6.77875 173.567 7.62629C173.997 8.47382 174.213 9.46104 174.213 10.5879C174.213 11.7148 173.997 12.6997 173.567 13.5425C173.14 14.3853 172.537 15.0411 171.755 15.5098C170.974 15.9786 170.051 16.2129 168.986 16.2129ZM169 14.1533C169.577 14.1533 170.06 13.9947 170.449 13.6774C170.837 13.3555 171.126 12.9246 171.315 12.3848C171.509 11.845 171.606 11.2437 171.606 10.5808C171.606 9.91322 171.509 9.30953 171.315 8.76975C171.126 8.22524 170.837 7.79201 170.449 7.47004C170.06 7.14807 169.577 6.98708 169 6.98708C168.408 6.98708 167.915 7.14807 167.522 7.47004C167.134 7.79201 166.843 8.22524 166.649 8.76975C166.46 9.30953 166.365 9.91322 166.365 10.5808C166.365 11.2437 166.46 11.845 166.649 12.3848C166.843 12.9246 167.134 13.3555 167.522 13.6774C167.915 13.9947 168.408 14.1533 169 14.1533Z" fill="black"/>
<path d="M161.624 5.09113V7.07977H155.175V5.09113H161.624ZM156.787 16.0002V4.0613C156.787 3.3274 156.939 2.7166 157.242 2.22892C157.549 1.74123 157.961 1.37664 158.477 1.13517C158.993 0.893688 159.566 0.772949 160.196 0.772949C160.641 0.772949 161.037 0.808461 161.382 0.879484C161.728 0.950507 161.984 1.01443 162.149 1.07125L161.638 3.05988C161.529 3.02674 161.392 2.99359 161.226 2.96045C161.06 2.92257 160.876 2.90363 160.672 2.90363C160.194 2.90363 159.855 3.01964 159.656 3.25164C159.462 3.47892 159.365 3.80562 159.365 4.23176V16.0002H156.787Z" fill="black"/>
<path d="M145.482 9.60782V15.9999H142.911V5.09078H145.368V6.94447H145.496C145.747 6.33367 146.147 5.84835 146.696 5.4885C147.25 5.12865 147.934 4.94873 148.749 4.94873C149.502 4.94873 150.157 5.10972 150.716 5.43168C151.279 5.75365 151.715 6.22004 152.023 6.83083C152.335 7.44163 152.489 8.18263 152.484 9.05384V15.9999H149.913V9.45157C149.913 8.7224 149.724 8.15185 149.345 7.73992C148.971 7.32799 148.453 7.12203 147.79 7.12203C147.34 7.12203 146.94 7.22146 146.59 7.42032C146.244 7.61445 145.972 7.89617 145.773 8.26549C145.579 8.63481 145.482 9.08225 145.482 9.60782Z" fill="black"/>
<path d="M139.171 1.45459V16H136.536V1.45459H139.171Z" fill="black"/>
<path d="M126.818 1.45459V16H124.247V1.45459H126.818Z" fill="black"/>
<path d="M114.902 16.22C114.21 16.22 113.588 16.0969 113.034 15.8507C112.484 15.5998 112.049 15.2305 111.727 14.7428C111.41 14.2551 111.251 13.6537 111.251 12.9388C111.251 12.3233 111.365 11.8143 111.592 11.4118C111.819 11.0093 112.129 10.6874 112.522 10.4459C112.915 10.2044 113.358 10.0221 113.85 9.89901C114.348 9.77117 114.861 9.67884 115.392 9.62203C116.031 9.55574 116.549 9.49655 116.947 9.44447C117.345 9.38765 117.634 9.30242 117.813 9.18879C117.998 9.07042 118.09 8.88812 118.09 8.64191V8.5993C118.09 8.06426 117.932 7.64996 117.615 7.3564C117.297 7.06284 116.84 6.91606 116.244 6.91606C115.614 6.91606 115.115 7.05337 114.745 7.32799C114.381 7.60261 114.134 7.92695 114.007 8.301L111.606 7.96009C111.795 7.29721 112.108 6.74324 112.544 6.29816C112.979 5.84835 113.512 5.51218 114.142 5.28964C114.771 5.06237 115.467 4.94873 116.23 4.94873C116.755 4.94873 117.278 5.01028 117.799 5.13339C118.32 5.25649 118.796 5.46009 119.227 5.74418C119.658 6.02354 120.003 6.4047 120.264 6.88765C120.529 7.3706 120.661 7.9743 120.661 8.69873V15.9999H118.19V14.5013H118.105C117.948 14.8043 117.728 15.0884 117.444 15.3536C117.165 15.614 116.812 15.8247 116.386 15.9857C115.965 16.1419 115.47 16.22 114.902 16.22ZM115.569 14.3308C116.085 14.3308 116.533 14.229 116.911 14.0254C117.29 13.8171 117.581 13.5425 117.785 13.2016C117.993 12.8607 118.098 12.489 118.098 12.0865V10.801C118.017 10.8673 117.88 10.9288 117.686 10.9857C117.496 11.0425 117.283 11.0922 117.046 11.1348C116.81 11.1774 116.575 11.2153 116.343 11.2484C116.111 11.2816 115.91 11.31 115.74 11.3337C115.356 11.3858 115.013 11.471 114.71 11.5894C114.407 11.7077 114.168 11.8734 113.992 12.0865C113.817 12.2948 113.73 12.5647 113.73 12.8962C113.73 13.3697 113.902 13.7271 114.248 13.9686C114.594 14.2101 115.034 14.3308 115.569 14.3308Z" fill="black"/>
<path d="M101.146 9.60782V15.9999H98.5747V5.09078H101.032V6.94447H101.16C101.411 6.33367 101.811 5.84835 102.36 5.4885C102.914 5.12865 103.598 4.94873 104.413 4.94873C105.166 4.94873 105.821 5.10972 106.38 5.43168C106.944 5.75365 107.379 6.22004 107.687 6.83083C107.999 7.44163 108.153 8.18263 108.149 9.05384V15.9999H105.578V9.45157C105.578 8.7224 105.388 8.15185 105.009 7.73992C104.635 7.32799 104.117 7.12203 103.454 7.12203C103.004 7.12203 102.604 7.22146 102.254 7.42032C101.908 7.61445 101.636 7.89617 101.437 8.26549C101.243 8.63481 101.146 9.08225 101.146 9.60782Z" fill="black"/>
<path d="M90.1653 16.2129C89.0999 16.2129 88.1766 15.9786 87.3954 15.5098C86.6141 15.0411 86.0081 14.3853 85.5772 13.5425C85.1511 12.6997 84.938 11.7148 84.938 10.5879C84.938 9.46104 85.1511 8.47382 85.5772 7.62629C86.0081 6.77875 86.6141 6.12061 87.3954 5.65186C88.1766 5.18311 89.0999 4.94873 90.1653 4.94873C91.2306 4.94873 92.1539 5.18311 92.9352 5.65186C93.7164 6.12061 94.3201 6.77875 94.7462 7.62629C95.1771 8.47382 95.3925 9.46104 95.3925 10.5879C95.3925 11.7148 95.1771 12.6997 94.7462 13.5425C94.3201 14.3853 93.7164 15.0411 92.9352 15.5098C92.1539 15.9786 91.2306 16.2129 90.1653 16.2129ZM90.1795 14.1533C90.7571 14.1533 91.2401 13.9947 91.6283 13.6774C92.0166 13.3555 92.3054 12.9246 92.4948 12.3848C92.6889 11.845 92.786 11.2437 92.786 10.5808C92.786 9.91322 92.6889 9.30953 92.4948 8.76975C92.3054 8.22524 92.0166 7.79201 91.6283 7.47004C91.2401 7.14807 90.7571 6.98708 90.1795 6.98708C89.5876 6.98708 89.0952 7.14807 88.7022 7.47004C88.3139 7.79201 88.0227 8.22524 87.8286 8.76975C87.6392 9.30953 87.5445 9.91322 87.5445 10.5808C87.5445 11.2437 87.6392 11.845 87.8286 12.3848C88.0227 12.9246 88.3139 13.3555 88.7022 13.6774C89.0952 13.9947 89.5876 14.1533 90.1795 14.1533Z" fill="black"/>
<path d="M82.0524 7.9743L79.7086 8.22998C79.6423 7.99324 79.5263 7.7707 79.3606 7.56237C79.1996 7.35403 78.9818 7.18595 78.7072 7.0581C78.4326 6.93026 78.0964 6.86634 77.6987 6.86634C77.1636 6.86634 76.7138 6.98235 76.3493 7.21435C75.9894 7.44636 75.8119 7.74703 75.8166 8.11634C75.8119 8.43358 75.9279 8.69163 76.1646 8.89049C76.4061 9.08935 76.8038 9.25271 77.3578 9.38055L79.2186 9.77828C80.2508 10.0008 81.0178 10.3536 81.5197 10.8365C82.0263 11.3195 82.282 11.9516 82.2868 12.7328C82.282 13.4194 82.0808 14.0254 81.6831 14.551C81.2901 15.0718 80.7432 15.479 80.0424 15.7726C79.3417 16.0662 78.5368 16.2129 77.6277 16.2129C76.2924 16.2129 75.2176 15.9336 74.4032 15.3749C73.5888 14.8114 73.1035 14.0278 72.9473 13.024L75.4544 12.7825C75.568 13.275 75.8095 13.6466 76.1788 13.8976C76.5481 14.1485 77.0287 14.274 77.6206 14.274C78.2314 14.274 78.7214 14.1485 79.0907 13.8976C79.4648 13.6466 79.6518 13.3365 79.6518 12.9672C79.6518 12.6547 79.5311 12.3966 79.2896 12.193C79.0529 11.9894 78.6835 11.8332 78.1816 11.7243L76.3208 11.3337C75.2744 11.1159 74.5003 10.7489 73.9984 10.2328C73.4965 9.71199 73.2479 9.05384 73.2527 8.25839C73.2479 7.58604 73.4302 7.00365 73.7995 6.51123C74.1736 6.01407 74.6921 5.63055 75.3549 5.36066C76.0225 5.08604 76.792 4.94873 77.6632 4.94873C78.9416 4.94873 79.9477 5.22098 80.6816 5.76549C81.4203 6.31 81.8772 7.04627 82.0524 7.9743Z" fill="black"/>
<path d="M64.5005 15.9999V5.09082H66.9934V6.909H67.107C67.3059 6.27927 67.6468 5.79395 68.1298 5.45304C68.6174 5.10739 69.1738 4.93457 69.7988 4.93457C69.9408 4.93457 70.0994 4.94167 70.2746 4.95588C70.4546 4.96535 70.6037 4.98192 70.7221 5.00559V7.37065C70.6132 7.33277 70.4404 7.29963 70.2036 7.27122C69.9716 7.23807 69.7467 7.2215 69.5289 7.2215C69.0602 7.2215 68.6387 7.3233 68.2647 7.5269C67.8954 7.72576 67.6042 8.00275 67.3911 8.35787C67.178 8.71298 67.0715 9.12254 67.0715 9.58656V15.9999H64.5005Z" fill="black"/>
<path d="M56.4746 16.2129C55.3808 16.2129 54.4362 15.9857 53.6408 15.5311C52.85 15.0718 52.2416 14.4232 51.8155 13.5851C51.3893 12.7423 51.1763 11.7503 51.1763 10.6092C51.1763 9.48708 51.3893 8.50223 51.8155 7.6547C52.2463 6.80242 52.8477 6.13954 53.6195 5.66606C54.3912 5.18784 55.298 4.94873 56.3396 4.94873C57.012 4.94873 57.6464 5.05763 58.243 5.27543C58.8444 5.4885 59.3747 5.81994 59.8339 6.26975C60.298 6.71956 60.6625 7.29248 60.9277 7.9885C61.1928 8.67979 61.3254 9.50365 61.3254 10.4601V11.2484H52.3837V9.51549H58.8609C58.8562 9.02307 58.7497 8.58509 58.5413 8.20157C58.333 7.81331 58.0418 7.50792 57.6677 7.28538C57.2984 7.06284 56.8676 6.95157 56.3751 6.95157C55.8496 6.95157 55.3879 7.07941 54.9902 7.33509C54.5925 7.58604 54.2823 7.91748 54.0598 8.32941C53.842 8.73661 53.7307 9.18405 53.726 9.67174V11.1845C53.726 11.819 53.842 12.3635 54.074 12.818C54.306 13.2679 54.6303 13.6135 55.047 13.855C55.4637 14.0917 55.9514 14.2101 56.5101 14.2101C56.8841 14.2101 57.2227 14.158 57.5257 14.0538C57.8287 13.9449 58.0915 13.7863 58.3141 13.578C58.5366 13.3697 58.7047 13.1116 58.8183 12.8038L61.2189 13.0737C61.0674 13.7082 60.7785 14.2622 60.3524 14.7357C59.931 15.2044 59.3912 15.569 58.7331 15.8294C58.0749 16.0851 57.3221 16.2129 56.4746 16.2129Z" fill="black"/>
<path d="M38.0439 16V1.45459H43.4985C44.6159 1.45459 45.5534 1.66292 46.311 2.07959C47.0733 2.49626 47.6486 3.06917 48.0368 3.79834C48.4298 4.52277 48.6263 5.34664 48.6263 6.26993C48.6263 7.2027 48.4298 8.03129 48.0368 8.75573C47.6439 9.48016 47.0638 10.0507 46.2968 10.4674C45.5297 10.8793 44.5851 11.0853 43.463 11.0853H39.8479V8.91908H43.1079C43.7613 8.91908 44.2963 8.80544 44.713 8.57817C45.1296 8.3509 45.4374 8.0384 45.6363 7.64067C45.8399 7.24294 45.9417 6.78603 45.9417 6.26993C45.9417 5.75383 45.8399 5.29929 45.6363 4.90629C45.4374 4.5133 45.1273 4.2079 44.7059 3.9901C44.2892 3.76756 43.7518 3.65629 43.0937 3.65629H40.6789V16H38.0439Z" fill="black"/>
<path d="M21.0441 20.0908C20.6937 20.0908 20.3694 20.0624 20.0711 20.0056C19.7775 19.9535 19.5431 19.892 19.3679 19.8209L19.9645 17.8181C20.3386 17.927 20.6724 17.9791 20.966 17.9743C21.2595 17.9696 21.5176 17.8773 21.7401 17.6974C21.9674 17.5222 22.1591 17.2286 22.3154 16.8167L22.5356 16.2272L18.5796 5.09082H21.3069L23.8211 13.3295H23.9347L26.456 5.09082H29.1904L24.8225 17.3209C24.6189 17.8986 24.349 18.3934 24.0128 18.8053C23.6767 19.222 23.2647 19.5392 22.777 19.757C22.2941 19.9796 21.7164 20.0908 21.0441 20.0908Z" fill="black"/>
<path d="M0.43457 1.45459H3.659L7.97718 11.9944H8.14764L12.4658 1.45459H15.6903V16H13.1618V6.00715H13.0269L9.00701 15.9574H7.11781L3.09792 5.98584H2.96298V16H0.43457V1.45459Z" fill="black"/>
</svg>
