<svg width="60" height="9" viewBox="0 0 60 9" fill="none" xmlns="http://www.w3.org/2000/svg">
<path d="M56.3107 8.17116H53.8462V0.898438H56.3604C57.0825 0.898438 57.7027 1.04403 58.2212 1.33523C58.742 1.62405 59.1421 2.03954 59.4215 2.58168C59.7008 3.12382 59.8405 3.77249 59.8405 4.5277C59.8405 5.28527 59.6996 5.93632 59.4179 6.48082C59.1386 7.02533 58.7349 7.44318 58.207 7.73438C57.6814 8.02557 57.0493 8.17116 56.3107 8.17116ZM55.1637 7.03125H56.2468C56.7534 7.03125 57.176 6.93892 57.5145 6.75426C57.8531 6.56723 58.1076 6.28906 58.278 5.91974C58.4485 5.54806 58.5337 5.08404 58.5337 4.5277C58.5337 3.97135 58.4485 3.50971 58.278 3.14276C58.1076 2.77344 57.8554 2.49763 57.5216 2.31534C57.1902 2.13068 56.7782 2.03835 56.2858 2.03835H55.1637V7.03125Z" fill="black"/>
<path d="M46.8423 8.17116V0.898438H49.5696C50.1283 0.898438 50.597 0.995502 50.9758 1.18963C51.357 1.38376 51.6446 1.65601 51.8387 2.00639C52.0352 2.3544 52.1335 2.76042 52.1335 3.22443C52.1335 3.69081 52.034 4.09564 51.8352 4.43892C51.6387 4.77983 51.3487 5.0438 50.9652 5.23082C50.5816 5.41548 50.1105 5.50781 49.5518 5.50781H47.6093V4.41406H49.3742C49.7009 4.41406 49.9685 4.36908 50.1768 4.27912C50.3851 4.18679 50.539 4.05303 50.6384 3.87784C50.7402 3.70028 50.7911 3.48248 50.7911 3.22443C50.7911 2.96638 50.7402 2.74621 50.6384 2.56392C50.5366 2.37926 50.3816 2.23958 50.1732 2.14489C49.9649 2.04782 49.6962 1.99929 49.3671 1.99929H48.1598V8.17116H46.8423ZM50.5994 4.87571L52.3998 8.17116H50.9296L49.1612 4.87571H50.5994Z" fill="black"/>
<path d="M45.0968 4.53462C45.0968 5.31824 44.95 5.98941 44.6565 6.54812C44.3653 7.10446 43.9676 7.5306 43.4633 7.82653C42.9614 8.12246 42.392 8.27042 41.7552 8.27042C41.1184 8.27042 40.5478 8.12246 40.0435 7.82653C39.5417 7.52823 39.1439 7.10091 38.8504 6.54457C38.5592 5.98586 38.4136 5.31587 38.4136 4.53462C38.4136 3.75101 38.5592 3.08103 38.8504 2.52468C39.1439 1.96597 39.5417 1.53865 40.0435 1.24272C40.5478 0.946792 41.1184 0.798828 41.7552 0.798828C42.392 0.798828 42.9614 0.946792 43.4633 1.24272C43.9676 1.53865 44.3653 1.96597 44.6565 2.52468C44.95 3.08103 45.0968 3.75101 45.0968 4.53462ZM43.7722 4.53462C43.7722 3.98301 43.6858 3.51782 43.513 3.13903C43.3426 2.75787 43.1058 2.47023 42.8028 2.2761C42.4998 2.07961 42.1506 1.98136 41.7552 1.98136C41.3598 1.98136 41.0106 2.07961 40.7076 2.2761C40.4046 2.47023 40.1667 2.75787 39.9938 3.13903C39.8234 3.51782 39.7381 3.98301 39.7381 4.53462C39.7381 5.08623 39.8234 5.55262 39.9938 5.93377C40.1667 6.31256 40.4046 6.6002 40.7076 6.7967C41.0106 6.99083 41.3598 7.08789 41.7552 7.08789C42.1506 7.08789 42.4998 6.99083 42.8028 6.7967C43.1058 6.6002 43.3426 6.31256 43.513 5.93377C43.6858 5.55262 43.7722 5.08623 43.7722 4.53462Z" fill="black"/>
<path d="M29.951 8.17116L27.8984 0.898438H29.3153L30.6257 6.2429H30.6932L32.0923 0.898438H33.3814L34.7841 6.24645H34.848L36.1584 0.898438H37.5753L35.5227 8.17116H34.223L32.767 3.06818H32.7102L31.2507 8.17116H29.951Z" fill="black"/>
<path d="M25.3788 2.89755C25.3456 2.58742 25.2059 2.34594 24.9597 2.17312C24.7159 2.0003 24.3987 1.91389 24.008 1.91389C23.7334 1.91389 23.4979 1.95532 23.3014 2.03818C23.1049 2.12103 22.9545 2.23349 22.8504 2.37553C22.7462 2.51758 22.6929 2.67975 22.6906 2.86204C22.6906 3.01355 22.7249 3.14495 22.7935 3.25621C22.8646 3.36748 22.9604 3.46218 23.0812 3.54031C23.2019 3.61606 23.3357 3.67998 23.4825 3.73207C23.6292 3.78415 23.7772 3.82795 23.9264 3.86346L24.6082 4.03391C24.8828 4.09783 25.1468 4.18424 25.4001 4.29315C25.6558 4.40205 25.8842 4.53936 26.0854 4.70508C26.289 4.8708 26.45 5.07085 26.5684 5.30522C26.6868 5.5396 26.746 5.81422 26.746 6.12908C26.746 6.55522 26.6371 6.93046 26.4193 7.25479C26.2015 7.57676 25.8866 7.82889 25.4747 8.01119C25.0651 8.19111 24.5691 8.28107 23.9867 8.28107C23.4209 8.28107 22.9297 8.19348 22.513 8.01829C22.0987 7.8431 21.7744 7.58742 21.54 7.25124C21.308 6.91507 21.1825 6.5055 21.1636 6.02255H22.4597C22.4787 6.27586 22.5568 6.48657 22.6941 6.65465C22.8314 6.82274 23.0102 6.94821 23.2303 7.03107C23.4529 7.11393 23.7015 7.15536 23.9761 7.15536C24.2625 7.15536 24.5135 7.11275 24.7289 7.02752C24.9467 6.93993 25.1172 6.81919 25.2403 6.66531C25.3634 6.50906 25.4261 6.32676 25.4285 6.11843C25.4261 5.92904 25.3705 5.77279 25.2616 5.64968C25.1527 5.52421 25 5.42004 24.8035 5.33718C24.6094 5.25195 24.3821 5.1762 24.1217 5.10991L23.2943 4.89684C22.6953 4.74296 22.2218 4.50977 21.8738 4.19727C21.5282 3.8824 21.3553 3.46455 21.3553 2.94371C21.3553 2.51521 21.4713 2.13997 21.7033 1.818C21.9377 1.49603 22.2561 1.24627 22.6586 1.06871C23.0611 0.88879 23.5168 0.798828 24.0258 0.798828C24.5419 0.798828 24.9941 0.88879 25.3823 1.06871C25.7729 1.24627 26.0795 1.49367 26.3021 1.8109C26.5246 2.12577 26.6394 2.48799 26.6465 2.89755H25.3788Z" fill="black"/>
<path d="M18.3846 2.89755C18.3515 2.58742 18.2118 2.34594 17.9656 2.17312C17.7218 2.0003 17.4045 1.91389 17.0139 1.91389C16.7393 1.91389 16.5037 1.95532 16.3072 2.03818C16.1107 2.12103 15.9604 2.23349 15.8562 2.37553C15.7521 2.51758 15.6988 2.67975 15.6964 2.86204C15.6964 3.01355 15.7308 3.14495 15.7994 3.25621C15.8704 3.36748 15.9663 3.46218 16.087 3.54031C16.2078 3.61606 16.3415 3.67998 16.4883 3.73207C16.6351 3.78415 16.7831 3.82795 16.9322 3.86346L17.614 4.03391C17.8887 4.09783 18.1526 4.18424 18.4059 4.29315C18.6616 4.40205 18.8901 4.53936 19.0913 4.70508C19.2949 4.8708 19.4559 5.07085 19.5743 5.30522C19.6926 5.5396 19.7518 5.81422 19.7518 6.12908C19.7518 6.55522 19.6429 6.93046 19.4251 7.25479C19.2073 7.57676 18.8924 7.82889 18.4805 8.01119C18.0709 8.19111 17.575 8.28107 16.9926 8.28107C16.4268 8.28107 15.9355 8.19348 15.5189 8.01829C15.1046 7.8431 14.7802 7.58742 14.5459 7.25124C14.3138 6.91507 14.1884 6.5055 14.1694 6.02255H15.4656C15.4845 6.27586 15.5627 6.48657 15.7 6.65465C15.8373 6.82274 16.016 6.94821 16.2362 7.03107C16.4587 7.11393 16.7073 7.15536 16.9819 7.15536C17.2684 7.15536 17.5193 7.11275 17.7348 7.02752C17.9526 6.93993 18.123 6.81919 18.2461 6.66531C18.3692 6.50906 18.432 6.32676 18.4343 6.11843C18.432 5.92904 18.3763 5.77279 18.2674 5.64968C18.1585 5.52421 18.0058 5.42004 17.8093 5.33718C17.6152 5.25195 17.3879 5.1762 17.1275 5.10991L16.3001 4.89684C15.7012 4.74296 15.2277 4.50977 14.8797 4.19727C14.534 3.8824 14.3612 3.46455 14.3612 2.94371C14.3612 2.51521 14.4772 2.13997 14.7092 1.818C14.9436 1.49603 15.262 1.24627 15.6645 1.06871C16.0669 0.88879 16.5227 0.798828 17.0316 0.798828C17.5477 0.798828 17.9999 0.88879 18.3882 1.06871C18.7788 1.24627 19.0854 1.49367 19.3079 1.8109C19.5305 2.12577 19.6453 2.48799 19.6524 2.89755H18.3846Z" fill="black"/>
<path d="M7.74707 8.17116H6.34082L8.90119 0.898438H10.5276L13.0915 8.17116H11.6853L9.74281 2.38991H9.68599L7.74707 8.17116ZM7.79324 5.3196H11.6285V6.37784H7.79324V5.3196Z" fill="black"/>
<path d="M0.687988 8.17116V0.898438H3.41526C3.97397 0.898438 4.44272 1.0026 4.82151 1.21094C5.20267 1.41927 5.49031 1.70573 5.68444 2.07031C5.88093 2.43253 5.97918 2.84446 5.97918 3.30611C5.97918 3.77249 5.88093 4.18679 5.68444 4.54901C5.48794 4.91122 5.19793 5.1965 4.81441 5.40483C4.43089 5.6108 3.95858 5.71378 3.39751 5.71378H1.58998V4.63068H3.21995C3.54665 4.63068 3.81417 4.57386 4.02251 4.46023C4.23084 4.34659 4.38472 4.19034 4.48415 3.99148C4.58595 3.79261 4.63685 3.56416 4.63685 3.30611C4.63685 3.04806 4.58595 2.82079 4.48415 2.62429C4.38472 2.42779 4.22966 2.27509 4.01895 2.16619C3.81062 2.05492 3.54192 1.99929 3.21285 1.99929H2.00546V8.17116H0.687988Z" fill="black"/>
</svg>
