<svg width="106" height="13" viewBox="0 0 106 13" fill="none" xmlns="http://www.w3.org/2000/svg">
<path d="M101.043 12.5504C100.127 12.5468 99.3389 12.3213 98.6784 11.8739C98.0214 11.4264 97.5154 10.7784 97.1603 9.92964C96.8087 9.08092 96.6347 8.05997 96.6382 6.86679C96.6382 5.67716 96.814 4.66331 97.1656 3.82524C97.5207 2.98717 98.0267 2.34974 98.6837 1.91295C99.3442 1.47261 100.131 1.25244 101.043 1.25244C101.956 1.25244 102.741 1.47261 103.398 1.91295C104.058 2.35329 104.566 2.9925 104.921 3.83057C105.276 4.66508 105.452 5.67716 105.449 6.86679C105.449 8.06352 105.271 9.08625 104.916 9.93497C104.564 10.7837 104.06 11.4318 103.403 11.8792C102.746 12.3267 101.96 12.5504 101.043 12.5504ZM101.043 10.6381C101.668 10.6381 102.167 10.3238 102.54 9.69527C102.913 9.06672 103.098 8.12389 103.094 6.86679C103.094 6.03937 103.009 5.35045 102.839 4.80003C102.672 4.2496 102.434 3.83589 102.125 3.5589C101.819 3.28192 101.459 3.14342 101.043 3.14342C100.422 3.14342 99.9248 3.45415 99.5519 4.07559C99.1791 4.69704 98.9909 5.62744 98.9873 6.86679C98.9873 7.70486 99.0708 8.40443 99.2377 8.96551C99.4081 9.52304 99.6478 9.94207 99.9568 10.2226C100.266 10.4996 100.628 10.6381 101.043 10.6381Z" fill="#416460"/>
<path d="M88.6744 11.0426C88.3228 11.0426 88.021 10.9183 87.7689 10.6697C87.5203 10.4212 87.396 10.1193 87.396 9.76421C87.396 9.41619 87.5203 9.1179 87.7689 8.86932C88.021 8.62074 88.3228 8.49645 88.6744 8.49645C89.0153 8.49645 89.3136 8.62074 89.5693 8.86932C89.825 9.1179 89.9528 9.41619 89.9528 9.76421C89.9528 9.99858 89.8924 10.2134 89.7717 10.4087C89.6545 10.6005 89.5 10.755 89.3083 10.8722C89.1165 10.9858 88.9052 11.0426 88.6744 11.0426ZM88.6744 5.68928C88.3228 5.68928 88.021 5.56499 87.7689 5.31641C87.5203 5.06783 87.396 4.76598 87.396 4.41087C87.396 4.06286 87.5203 3.76634 87.7689 3.52131C88.021 3.27273 88.3228 3.14844 88.6744 3.14844C89.0153 3.14844 89.3136 3.27273 89.5693 3.52131C89.825 3.76634 89.9528 4.06286 89.9528 4.41087C89.9528 4.64879 89.8924 4.86541 89.7717 5.06072C89.6545 5.25249 89.5 5.40518 89.3083 5.51882C89.1165 5.63246 88.9052 5.68928 88.6744 5.68928Z" fill="#416460"/>
<path d="M80.761 6.4616L78.6836 6.58944C78.6481 6.41189 78.5718 6.25209 78.4546 6.11004C78.3374 5.96444 78.1829 5.84903 77.9912 5.7638C77.803 5.67503 77.5775 5.63064 77.3147 5.63064C76.9631 5.63064 76.6666 5.70521 76.4251 5.85436C76.1836 5.99996 76.0629 6.19527 76.0629 6.4403C76.0629 6.63561 76.141 6.80074 76.2973 6.93568C76.4535 7.07062 76.7216 7.17893 77.1016 7.26061L78.5824 7.5589C79.3779 7.72226 79.9709 7.98504 80.3615 8.34726C80.7522 8.70947 80.9475 9.18532 80.9475 9.77481C80.9475 10.311 80.7895 10.7816 80.4734 11.1864C80.1609 11.5912 79.7312 11.9073 79.1843 12.1345C78.641 12.3583 78.0142 12.4701 77.304 12.4701C76.2209 12.4701 75.358 12.2446 74.7152 11.7936C74.076 11.3391 73.7014 10.7212 73.5913 9.93994L75.8232 9.82275C75.8907 10.153 76.054 10.4051 76.3132 10.5791C76.5725 10.7496 76.9045 10.8348 77.3093 10.8348C77.7071 10.8348 78.0267 10.7585 78.2682 10.6058C78.5132 10.4495 78.6375 10.2489 78.641 10.0039C78.6375 9.7979 78.5505 9.62922 78.38 9.49782C78.2096 9.36288 77.9468 9.2599 77.5917 9.18888L76.1748 8.90656C75.3758 8.74676 74.7809 8.46977 74.3903 8.07559C74.0032 7.68142 73.8097 7.17893 73.8097 6.56814C73.8097 6.04257 73.9517 5.5898 74.2358 5.20983C74.5235 4.82986 74.9265 4.53689 75.445 4.33092C75.967 4.12496 76.5778 4.02197 77.2774 4.02197C78.3108 4.02197 79.124 4.24037 79.717 4.67716C80.3136 5.11395 80.6616 5.70876 80.761 6.4616Z" fill="#416460"/>
<path d="M66.1417 7.58021V12.3103H63.8726V4.12851H66.0352V5.57204H66.1311C66.3122 5.09619 66.6158 4.71977 67.0419 4.44278C67.4681 4.16224 67.9848 4.02197 68.592 4.02197C69.1602 4.02197 69.6556 4.14626 70.0782 4.39484C70.5008 4.64342 70.8292 4.99853 71.0636 5.46018C71.298 5.91828 71.4152 6.46515 71.4152 7.10081V12.3103H69.146V7.50564C69.1495 7.00493 69.0217 6.6143 68.7625 6.33376C68.5032 6.04967 68.1463 5.90763 67.6918 5.90763C67.3864 5.90763 67.1165 5.97332 66.8821 6.10471C66.6513 6.23611 66.4702 6.42787 66.3388 6.68C66.211 6.92858 66.1453 7.22865 66.1417 7.58021Z" fill="#416460"/>
<path d="M59.0354 12.3106V4.12882H61.3046V12.3106H59.0354ZM60.1753 3.07413C59.838 3.07413 59.5486 2.96227 59.3071 2.73855C59.0692 2.51128 58.9502 2.23961 58.9502 1.92356C58.9502 1.61106 59.0692 1.34295 59.3071 1.11923C59.5486 0.891957 59.838 0.77832 60.1753 0.77832C60.5127 0.77832 60.8003 0.891957 61.0383 1.11923C61.2797 1.34295 61.4005 1.61106 61.4005 1.92356C61.4005 2.23961 61.2797 2.51128 61.0383 2.73855C60.8003 2.96227 60.5127 3.07413 60.1753 3.07413Z" fill="#416460"/>
<path d="M52.7828 12.4701C51.9554 12.4701 51.2399 12.2943 50.6362 11.9428C50.036 11.5877 49.5726 11.0941 49.2459 10.462C48.9192 9.8263 48.7559 9.08944 48.7559 8.25138C48.7559 7.40621 48.9192 6.66757 49.2459 6.03547C49.5726 5.39981 50.036 4.9062 50.6362 4.55464C51.2399 4.19953 51.9554 4.02197 52.7828 4.02197C53.6103 4.02197 54.324 4.19953 54.9242 4.55464C55.5279 4.9062 55.9931 5.39981 56.3198 6.03547C56.6465 6.66757 56.8098 7.40621 56.8098 8.25138C56.8098 9.08944 56.6465 9.8263 56.3198 10.462C55.9931 11.0941 55.5279 11.5877 54.9242 11.9428C54.324 12.2943 53.6103 12.4701 52.7828 12.4701ZM52.7935 10.7123C53.1699 10.7123 53.4842 10.6058 53.7363 10.3927C53.9885 10.1761 54.1784 9.88135 54.3063 9.50848C54.4377 9.13561 54.5034 8.71125 54.5034 8.2354C54.5034 7.75954 54.4377 7.33518 54.3063 6.96231C54.1784 6.58944 53.9885 6.2947 53.7363 6.07808C53.4842 5.86146 53.1699 5.75315 52.7935 5.75315C52.4135 5.75315 52.0939 5.86146 51.8347 6.07808C51.579 6.2947 51.3855 6.58944 51.2541 6.96231C51.1262 7.33518 51.0623 7.75954 51.0623 8.2354C51.0623 8.71125 51.1262 9.13561 51.2541 9.50848C51.3855 9.88135 51.579 10.1761 51.8347 10.3927C52.0939 10.6058 52.4135 10.7123 52.7935 10.7123Z" fill="#416460"/>
<path d="M43.2291 12.4701C42.3911 12.4701 41.6702 12.2926 41.0665 11.9375C40.4664 11.5788 40.0047 11.0816 39.6816 10.446C39.362 9.81032 39.2021 9.07879 39.2021 8.25138C39.2021 7.41331 39.3637 6.67822 39.6869 6.04612C40.0136 5.41047 40.477 4.91508 41.0771 4.55997C41.6773 4.2013 42.3911 4.02197 43.2185 4.02197C43.9323 4.02197 44.5573 4.15159 45.0935 4.41082C45.6297 4.67005 46.0541 5.03405 46.3666 5.5028C46.6791 5.97155 46.8513 6.52197 46.8833 7.15407H44.7419C44.6816 6.74569 44.5218 6.41721 44.2625 6.16863C44.0068 5.9165 43.6713 5.79044 43.2558 5.79044C42.9042 5.79044 42.597 5.88632 42.3343 6.07808C42.075 6.26629 41.8726 6.5415 41.727 6.90372C41.5814 7.26594 41.5086 7.7045 41.5086 8.21942C41.5086 8.74143 41.5796 9.18532 41.7217 9.55109C41.8673 9.91686 42.0715 10.1956 42.3343 10.3874C42.597 10.5791 42.9042 10.675 43.2558 10.675C43.515 10.675 43.7476 10.6218 43.9536 10.5152C44.1631 10.4087 44.3353 10.2542 44.4703 10.0518C44.6088 9.84584 44.6993 9.59903 44.7419 9.31139H46.8833C46.8477 9.93639 46.6773 10.4868 46.3719 10.9627C46.07 11.435 45.6528 11.8043 45.1201 12.0706C44.5874 12.337 43.9571 12.4701 43.2291 12.4701Z" fill="#416460"/>
<path d="M33.5463 12.4703C32.7046 12.4703 31.9802 12.2999 31.373 11.959C30.7693 11.6145 30.3041 11.128 29.9774 10.4995C29.6507 9.86736 29.4873 9.11985 29.4873 8.25692C29.4873 7.41531 29.6507 6.67667 29.9774 6.04102C30.3041 5.40536 30.7639 4.90998 31.357 4.55486C31.9536 4.19975 32.6531 4.02219 33.4557 4.02219C33.9955 4.02219 34.498 4.1092 34.9632 4.2832C35.4319 4.45366 35.8403 4.71111 36.1883 5.05558C36.5399 5.40004 36.8133 5.83327 37.0086 6.35529C37.2039 6.87376 37.3016 7.481 37.3016 8.17702V8.80025H30.3928V7.394H35.1656C35.1656 7.06729 35.0945 6.77788 34.9525 6.52575C34.8105 6.27361 34.6134 6.07653 34.3612 5.93448C34.1127 5.78889 33.8232 5.71609 33.493 5.71609C33.1485 5.71609 32.8431 5.79599 32.5768 5.95579C32.314 6.11204 32.108 6.32333 31.9589 6.58967C31.8097 6.85245 31.7334 7.14542 31.7298 7.46857V8.80558C31.7298 9.21041 31.8044 9.56019 31.9536 9.85494C32.1063 10.1497 32.3211 10.377 32.5981 10.5368C32.8751 10.6966 33.2036 10.7765 33.5835 10.7765C33.8357 10.7765 34.0665 10.7409 34.276 10.6699C34.4855 10.5989 34.6649 10.4924 34.814 10.3503C34.9632 10.2083 35.0768 10.0343 35.1549 9.8283L37.2536 9.9668C37.1471 10.4711 36.9287 10.9114 36.5985 11.2878C36.2718 11.6607 35.8492 11.9519 35.3307 12.1614C34.8158 12.3674 34.221 12.4703 33.5463 12.4703ZM32.5874 3.07404L33.7167 0.650391H35.8154L34.1908 3.07404H32.5874Z" fill="#416460"/>
<path d="M22.7304 9.95605L22.7358 7.23411H23.066L25.6867 4.12864H28.2915L24.7706 8.24086H24.2326L22.7304 9.95605ZM20.6743 12.3105V1.40137H22.9435V12.3105H20.6743ZM25.788 12.3105L23.3803 8.74689L24.8931 7.14355L28.446 12.3105H25.788Z" fill="#416460"/>
<path d="M14.4215 12.4701C13.5941 12.4701 12.8786 12.2943 12.2749 11.9428C11.6747 11.5877 11.2113 11.0941 10.8846 10.462C10.5579 9.8263 10.3945 9.08944 10.3945 8.25138C10.3945 7.40621 10.5579 6.66757 10.8846 6.03547C11.2113 5.39981 11.6747 4.9062 12.2749 4.55464C12.8786 4.19953 13.5941 4.02197 14.4215 4.02197C15.2489 4.02197 15.9627 4.19953 16.5629 4.55464C17.1665 4.9062 17.6317 5.39981 17.9585 6.03547C18.2852 6.66757 18.4485 7.40621 18.4485 8.25138C18.4485 9.08944 18.2852 9.8263 17.9585 10.462C17.6317 11.0941 17.1665 11.5877 16.5629 11.9428C15.9627 12.2943 15.2489 12.4701 14.4215 12.4701ZM14.4322 10.7123C14.8086 10.7123 15.1229 10.6058 15.375 10.3927C15.6271 10.1761 15.8171 9.88135 15.945 9.50848C16.0763 9.13561 16.142 8.71125 16.142 8.2354C16.142 7.75954 16.0763 7.33518 15.945 6.96231C15.8171 6.58944 15.6271 6.2947 15.375 6.07808C15.1229 5.86146 14.8086 5.75315 14.4322 5.75315C14.0522 5.75315 13.7326 5.86146 13.4734 6.07808C13.2177 6.2947 13.0241 6.58944 12.8928 6.96231C12.7649 7.33518 12.701 7.75954 12.701 8.2354C12.701 8.71125 12.7649 9.13561 12.8928 9.50848C13.0241 9.88135 13.2177 10.1761 13.4734 10.3927C13.7326 10.6058 14.0522 10.7123 14.4322 10.7123Z" fill="#416460"/>
<path d="M0.4375 12.3105V1.40137H4.74148C5.56889 1.40137 6.27379 1.55939 6.85618 1.87544C7.43857 2.18794 7.88246 2.62296 8.18785 3.18049C8.4968 3.73446 8.65128 4.37367 8.65128 5.0981C8.65128 5.82253 8.49503 6.46174 8.18253 7.01571C7.87003 7.56969 7.41726 8.00115 6.82422 8.3101C6.23473 8.61905 5.52095 8.77353 4.68288 8.77353H1.93963V6.92516H4.31001C4.75391 6.92516 5.11967 6.84881 5.40732 6.69611C5.69851 6.53986 5.91513 6.32502 6.05717 6.05158C6.20277 5.77459 6.27557 5.45677 6.27557 5.0981C6.27557 4.73588 6.20277 4.41983 6.05717 4.14995C5.91513 3.87651 5.69851 3.66522 5.40732 3.51607C5.11612 3.36337 4.7468 3.28702 4.29936 3.28702H2.74396V12.3105H0.4375Z" fill="#416460"/>
</svg>
