<svg width="178" height="20" viewBox="0 0 178 20" fill="none" xmlns="http://www.w3.org/2000/svg">
<path d="M177.371 4.77623V6.76487H171.1V4.77623H177.371ZM172.648 2.1626H175.219V12.4041C175.219 12.7497 175.271 13.0149 175.375 13.1995C175.484 13.3795 175.626 13.5026 175.801 13.5688C175.977 13.6351 176.171 13.6683 176.384 13.6683C176.545 13.6683 176.691 13.6564 176.824 13.6328C176.961 13.6091 177.066 13.5878 177.137 13.5688L177.57 15.5788C177.432 15.6261 177.236 15.6782 176.98 15.735C176.729 15.7919 176.422 15.825 176.057 15.8345C175.413 15.8534 174.833 15.7563 174.317 15.5433C173.801 15.3255 173.391 14.9893 173.088 14.5348C172.79 14.0802 172.643 13.512 172.648 12.8302V2.1626Z" fill="#365F6F"/>
<path d="M161.229 9.29306V15.6851H158.658V1.13965H161.172V6.62971H161.3C161.555 6.01417 161.951 5.52885 162.486 5.17374C163.026 4.81389 163.712 4.63397 164.545 4.63397C165.303 4.63397 165.964 4.79258 166.527 5.10982C167.09 5.42705 167.526 5.89107 167.834 6.50186C168.146 7.11266 168.303 7.8584 168.303 8.73908V15.6851H165.732V9.13681C165.732 8.40291 165.542 7.83236 165.163 7.42516C164.789 7.01323 164.264 6.80726 163.587 6.80726C163.132 6.80726 162.725 6.90669 162.365 7.10556C162.01 7.29969 161.731 7.58141 161.527 7.95073C161.328 8.32005 161.229 8.76749 161.229 9.29306Z" fill="#365F6F"/>
<path d="M149.902 20.0036C148.979 20.0036 148.186 19.8781 147.523 19.6272C146.86 19.381 146.327 19.0495 145.925 18.6329C145.522 18.2162 145.243 17.7545 145.087 17.2479L147.402 16.6868C147.506 16.8999 147.658 17.1106 147.857 17.3189C148.056 17.532 148.323 17.7072 148.659 17.8445C149 17.9865 149.429 18.0576 149.945 18.0576C150.674 18.0576 151.278 17.88 151.756 17.5249C152.234 17.1745 152.473 16.5969 152.473 15.7919V13.7252H152.345C152.213 13.9903 152.019 14.2626 151.763 14.5419C151.512 14.8213 151.178 15.0557 150.762 15.2451C150.35 15.4345 149.831 15.5292 149.206 15.5292C148.368 15.5292 147.608 15.3327 146.926 14.9397C146.249 14.5419 145.709 13.9501 145.307 13.1641C144.909 12.3734 144.71 11.3838 144.71 10.1954C144.71 8.99744 144.909 7.98655 145.307 7.16269C145.709 6.33409 146.252 5.70672 146.933 5.28058C147.615 4.84971 148.375 4.63428 149.213 4.63428C149.852 4.63428 150.378 4.74318 150.79 4.96098C151.207 5.17405 151.538 5.4321 151.784 5.73513C152.031 6.03342 152.218 6.31515 152.345 6.5803H152.487V4.77632H155.023V15.863C155.023 16.7957 154.8 17.5675 154.355 18.1783C153.91 18.7891 153.302 19.246 152.53 19.549C151.758 19.8521 150.882 20.0036 149.902 20.0036ZM149.924 13.5121C150.468 13.5121 150.932 13.3795 151.316 13.1144C151.699 12.8492 151.99 12.4681 152.189 11.9709C152.388 11.4738 152.487 10.8772 152.487 10.1812C152.487 9.4946 152.388 8.89327 152.189 8.37717C151.995 7.86108 151.706 7.46098 151.323 7.17689C150.944 6.88806 150.477 6.74365 149.924 6.74365C149.351 6.74365 148.872 6.8928 148.489 7.19109C148.105 7.48939 147.817 7.89896 147.622 8.41979C147.428 8.93589 147.331 9.52301 147.331 10.1812C147.331 10.8488 147.428 11.4335 147.622 11.9354C147.821 12.4326 148.112 12.8208 148.496 13.1002C148.884 13.3748 149.36 13.5121 149.924 13.5121Z" fill="#365F6F"/>
<path d="M138.943 11.0969V4.77588H141.514V15.685H139.021V13.746H138.907C138.661 14.3568 138.256 14.8564 137.693 15.2446C137.134 15.6329 136.445 15.827 135.626 15.827C134.911 15.827 134.279 15.6684 133.73 15.3512C133.185 15.0292 132.759 14.5628 132.451 13.952C132.144 13.3365 131.99 12.5931 131.99 11.7219V4.77588H134.561V11.3242C134.561 12.0155 134.75 12.5647 135.129 12.9719C135.508 13.3791 136.005 13.5827 136.62 13.5827C136.999 13.5827 137.366 13.4904 137.721 13.3057C138.076 13.121 138.368 12.8464 138.595 12.4818C138.827 12.1125 138.943 11.6509 138.943 11.0969Z" fill="#365F6F"/>
<path d="M122.645 15.9056C121.953 15.9056 121.331 15.7825 120.777 15.5363C120.228 15.2853 119.792 14.916 119.47 14.4283C119.153 13.9406 118.994 13.3393 118.994 12.6243C118.994 12.0088 119.108 11.4998 119.335 11.0973C119.562 10.6949 119.872 10.3729 120.265 10.1314C120.658 9.88996 121.101 9.70767 121.594 9.58456C122.091 9.45672 122.604 9.36439 123.135 9.30757C123.774 9.24128 124.292 9.1821 124.69 9.13002C125.088 9.0732 125.377 8.98797 125.557 8.87433C125.741 8.75596 125.834 8.57367 125.834 8.32746V8.28485C125.834 7.74981 125.675 7.33551 125.358 7.04195C125.041 6.74839 124.584 6.60161 123.987 6.60161C123.357 6.60161 122.858 6.73892 122.488 7.01354C122.124 7.28816 121.878 7.6125 121.75 7.98655L119.349 7.64564C119.539 6.98276 119.851 6.42878 120.287 5.98371C120.722 5.5339 121.255 5.19772 121.885 4.97519C122.515 4.74791 123.211 4.63428 123.973 4.63428C124.498 4.63428 125.022 4.69583 125.542 4.81894C126.063 4.94204 126.539 5.14564 126.97 5.42973C127.401 5.70909 127.747 6.09024 128.007 6.5732C128.272 7.05615 128.405 7.65984 128.405 8.38428V15.6854H125.933V14.1868H125.848C125.692 14.4899 125.471 14.774 125.187 15.0391C124.908 15.2995 124.555 15.5102 124.129 15.6712C123.708 15.8275 123.213 15.9056 122.645 15.9056ZM123.312 14.0164C123.828 14.0164 124.276 13.9146 124.655 13.711C125.033 13.5026 125.325 13.228 125.528 12.8871C125.737 12.5462 125.841 12.1745 125.841 11.7721V10.4865C125.76 10.5528 125.623 10.6144 125.429 10.6712C125.239 10.728 125.026 10.7777 124.79 10.8204C124.553 10.863 124.318 10.9008 124.086 10.934C123.854 10.9671 123.653 10.9955 123.483 11.0192C123.099 11.0713 122.756 11.1565 122.453 11.2749C122.15 11.3933 121.911 11.559 121.736 11.7721C121.56 11.9804 121.473 12.2503 121.473 12.5817C121.473 13.0552 121.646 13.4127 121.991 13.6542C122.337 13.8956 122.777 14.0164 123.312 14.0164Z" fill="#365F6F"/>
<path d="M116.206 6.04745H113.55C113.474 5.61185 113.335 5.22596 113.131 4.88978C112.927 4.54887 112.674 4.26005 112.371 4.0233C112.068 3.78656 111.722 3.60901 111.334 3.49063C110.951 3.36753 110.536 3.30598 110.091 3.30598C109.301 3.30598 108.6 3.50484 107.989 3.90257C107.378 4.29556 106.9 4.87321 106.554 5.63552C106.209 6.3931 106.036 7.31876 106.036 8.41251C106.036 9.5252 106.209 10.4627 106.554 11.225C106.905 11.9826 107.383 12.5555 107.989 12.9438C108.6 13.3273 109.298 13.519 110.084 13.519C110.52 13.519 110.927 13.4622 111.306 13.3486C111.689 13.2302 112.033 13.0574 112.336 12.8301C112.643 12.6028 112.901 12.3235 113.11 11.9921C113.323 11.6606 113.47 11.2818 113.55 10.8557L116.206 10.8699C116.107 11.5612 115.891 12.2099 115.56 12.8159C115.233 13.422 114.805 13.957 114.275 14.421C113.744 14.8803 113.124 15.2402 112.414 15.5006C111.703 15.7563 110.915 15.8841 110.049 15.8841C108.77 15.8841 107.629 15.5882 106.625 14.9963C105.622 14.4045 104.831 13.5498 104.253 12.4324C103.676 11.315 103.387 9.97501 103.387 8.41251C103.387 6.84527 103.678 5.50531 104.26 4.39262C104.843 3.2752 105.636 2.42056 106.64 1.8287C107.643 1.23685 108.78 0.940918 110.049 0.940918C110.858 0.940918 111.611 1.05455 112.307 1.28183C113.003 1.5091 113.623 1.84291 114.168 2.28325C114.712 2.71885 115.16 3.25389 115.51 3.88836C115.865 4.5181 116.097 5.23779 116.206 6.04745Z" fill="#365F6F"/>
<path d="M87.0647 9.29337V15.6854H84.4937V4.77632H86.951V6.63002H87.0789C87.3298 6.01922 87.7299 5.5339 88.2792 5.17405C88.8331 4.8142 89.5173 4.63428 90.3317 4.63428C91.0846 4.63428 91.7403 4.79526 92.299 5.11723C92.8625 5.4392 93.2981 5.90558 93.6059 6.51638C93.9184 7.12717 94.0723 7.86818 94.0675 8.73939V15.6854H91.4965V9.13712C91.4965 8.40795 91.3071 7.8374 90.9283 7.42547C90.5543 7.01354 90.0358 6.80757 89.3729 6.80757C88.9231 6.80757 88.523 6.907 88.1726 7.10587C87.827 7.3 87.5547 7.58172 87.3559 7.95104C87.1617 8.32036 87.0647 8.7678 87.0647 9.29337Z" fill="#365F6F"/>
<path d="M76.0842 15.8985C75.0189 15.8985 74.0956 15.6641 73.3143 15.1954C72.5331 14.7266 71.927 14.0708 71.4961 13.228C71.07 12.3852 70.8569 11.4004 70.8569 10.2735C70.8569 9.14659 71.07 8.15937 71.4961 7.31183C71.927 6.4643 72.5331 5.80615 73.3143 5.3374C74.0956 4.86865 75.0189 4.63428 76.0842 4.63428C77.1495 4.63428 78.0728 4.86865 78.8541 5.3374C79.6353 5.80615 80.239 6.4643 80.6652 7.31183C81.096 8.15937 81.3115 9.14659 81.3115 10.2735C81.3115 11.4004 81.096 12.3852 80.6652 13.228C80.239 14.0708 79.6353 14.7266 78.8541 15.1954C78.0728 15.6641 77.1495 15.8985 76.0842 15.8985ZM76.0984 13.8388C76.6761 13.8388 77.159 13.6802 77.5473 13.363C77.9355 13.041 78.2244 12.6101 78.4137 12.0704C78.6079 11.5306 78.7049 10.9293 78.7049 10.2664C78.7049 9.59877 78.6079 8.99507 78.4137 8.4553C78.2244 7.91079 77.9355 7.47755 77.5473 7.15558C77.159 6.83361 76.6761 6.67263 76.0984 6.67263C75.5066 6.67263 75.0141 6.83361 74.6211 7.15558C74.2329 7.47755 73.9417 7.91079 73.7476 8.4553C73.5582 8.99507 73.4635 9.59877 73.4635 10.2664C73.4635 10.9293 73.5582 11.5306 73.7476 12.0704C73.9417 12.6101 74.2329 13.041 74.6211 13.363C75.0141 13.6802 75.5066 13.8388 76.0984 13.8388Z" fill="#365F6F"/>
<path d="M52.3765 15.6854V4.77632H54.8339V6.63002H54.9617C55.189 6.00502 55.5654 5.51733 56.091 5.16695C56.6165 4.81183 57.2439 4.63428 57.9731 4.63428C58.7117 4.63428 59.3343 4.8142 59.841 5.17405C60.3523 5.52916 60.7122 6.01448 60.9205 6.63002H61.0341C61.2756 6.02395 61.6828 5.541 62.2557 5.18115C62.8334 4.81657 63.5176 4.63428 64.3083 4.63428C65.3121 4.63428 66.1312 4.95151 66.7657 5.58598C67.4001 6.22045 67.7174 7.14611 67.7174 8.36297V15.6854H65.1393V8.7607C65.1393 8.08361 64.9593 7.58882 64.5995 7.27632C64.2396 6.95909 63.7993 6.80047 63.2785 6.80047C62.6582 6.80047 62.1729 6.9946 61.8225 7.38286C61.4768 7.76638 61.304 8.2659 61.304 8.88144V15.6854H58.7827V8.65416C58.7827 8.09072 58.6123 7.64091 58.2714 7.30473C57.9352 6.96856 57.4948 6.80047 56.9503 6.80047C56.581 6.80047 56.2448 6.89517 55.9418 7.08456C55.6388 7.26922 55.3973 7.532 55.2174 7.87291C55.0374 8.20909 54.9475 8.60208 54.9475 9.05189V15.6854H52.3765Z" fill="#365F6F"/>
<path d="M44.3505 15.8983C43.2568 15.8983 42.3122 15.671 41.5167 15.2164C40.726 14.7572 40.1176 14.1085 39.6915 13.2704C39.2653 12.4276 39.0522 11.4357 39.0522 10.2946C39.0522 9.17241 39.2653 8.18756 39.6915 7.34002C40.1223 6.48775 40.7236 5.82487 41.4954 5.35139C42.2672 4.87317 43.1739 4.63406 44.2156 4.63406C44.8879 4.63406 45.5224 4.74296 46.119 4.96076C46.7203 5.17383 47.2506 5.50527 47.7099 5.95508C48.1739 6.40489 48.5385 6.97781 48.8037 7.67383C49.0688 8.36512 49.2014 9.18898 49.2014 10.1454V10.9338H40.2596V9.20082H46.7369C46.7322 8.70839 46.6256 8.27042 46.4173 7.8869C46.209 7.49864 45.9178 7.19324 45.5437 6.9707C45.1744 6.74817 44.7435 6.6369 44.2511 6.6369C43.7255 6.6369 43.2639 6.76474 42.8662 7.02042C42.4684 7.27137 42.1583 7.60281 41.9358 8.01474C41.718 8.42193 41.6067 8.86938 41.602 9.35707V10.8699C41.602 11.5043 41.718 12.0488 41.95 12.5034C42.182 12.9532 42.5063 13.2988 42.923 13.5403C43.3397 13.777 43.8273 13.8954 44.3861 13.8954C44.7601 13.8954 45.0986 13.8433 45.4017 13.7392C45.7047 13.6303 45.9675 13.4717 46.19 13.2633C46.4126 13.055 46.5807 12.7969 46.6943 12.4892L49.0949 12.7591C48.9433 13.3935 48.6545 13.9475 48.2284 14.421C47.807 14.8897 47.2672 15.2543 46.6091 15.5147C45.9509 15.7704 45.1981 15.8983 44.3505 15.8983ZM43.1574 3.34144L44.7483 0.0957031H47.2625L45.0821 3.34144H43.1574Z" fill="#365F6F"/>
<path d="M29.9272 12.2618L29.9201 9.15811H30.3321L34.2525 4.77601H37.2568L32.4343 10.1453H31.9017L29.9272 12.2618ZM27.5835 15.6851V1.13965H30.1545V15.6851H27.5835ZM34.4301 15.6851L30.879 10.7206L32.6119 8.90954L37.5054 15.6851H34.4301Z" fill="#365F6F"/>
<path d="M19.1741 15.8985C18.1087 15.8985 17.1854 15.6641 16.4042 15.1954C15.6229 14.7266 15.0169 14.0708 14.586 13.228C14.1598 12.3852 13.9468 11.4004 13.9468 10.2735C13.9468 9.14659 14.1598 8.15937 14.586 7.31183C15.0169 6.4643 15.6229 5.80615 16.4042 5.3374C17.1854 4.86865 18.1087 4.63428 19.1741 4.63428C20.2394 4.63428 21.1627 4.86865 21.9439 5.3374C22.7252 5.80615 23.3289 6.4643 23.755 7.31183C24.1859 8.15937 24.4013 9.14659 24.4013 10.2735C24.4013 11.4004 24.1859 12.3852 23.755 13.228C23.3289 14.0708 22.7252 14.7266 21.9439 15.1954C21.1627 15.6641 20.2394 15.8985 19.1741 15.8985ZM19.1883 13.8388C19.7659 13.8388 20.2489 13.6802 20.6371 13.363C21.0254 13.041 21.3142 12.6101 21.5036 12.0704C21.6977 11.5306 21.7948 10.9293 21.7948 10.2664C21.7948 9.59877 21.6977 8.99507 21.5036 8.4553C21.3142 7.91079 21.0254 7.47755 20.6371 7.15558C20.2489 6.83361 19.7659 6.67263 19.1883 6.67263C18.5964 6.67263 18.104 6.83361 17.711 7.15558C17.3227 7.47755 17.0315 7.91079 16.8374 8.4553C16.648 8.99507 16.5533 9.59877 16.5533 10.2664C16.5533 10.9293 16.648 11.5306 16.8374 12.0704C17.0315 12.6101 17.3227 13.041 17.711 13.363C18.104 13.6802 18.5964 13.8388 19.1883 13.8388Z" fill="#365F6F"/>
<path d="M0.814453 15.6851V1.13965H6.269C7.38642 1.13965 8.32392 1.34798 9.0815 1.76465C9.84381 2.18132 10.4191 2.75423 10.8074 3.4834C11.2003 4.20783 11.3968 5.03169 11.3968 5.95499C11.3968 6.88775 11.2003 7.71635 10.8074 8.44079C10.4144 9.16522 9.83434 9.73577 9.06729 10.1524C8.30025 10.5644 7.35565 10.7703 6.23349 10.7703H2.61843V8.60414H5.87837C6.53178 8.60414 7.06682 8.4905 7.48349 8.26323C7.90015 8.03596 8.20792 7.72346 8.40678 7.32573C8.61038 6.928 8.71218 6.47109 8.71218 5.95499C8.71218 5.43889 8.61038 4.98435 8.40678 4.59135C8.20792 4.19836 7.89779 3.89296 7.47639 3.67516C7.05972 3.45262 6.52231 3.34135 5.86417 3.34135H3.4494V15.6851H0.814453Z" fill="#365F6F"/>
</svg>
