<svg width="198" height="20" viewBox="0 0 198 20" fill="none" xmlns="http://www.w3.org/2000/svg">
<path d="M195.847 15.7492C195.416 15.7492 195.047 15.5976 194.739 15.2946C194.432 14.9916 194.28 14.6223 194.285 14.1867C194.28 13.7605 194.432 13.3959 194.739 13.0929C195.047 12.7899 195.416 12.6384 195.847 12.6384C196.264 12.6384 196.626 12.7899 196.934 13.0929C197.246 13.3959 197.405 13.7605 197.41 14.1867C197.405 14.4755 197.329 14.7383 197.182 14.975C197.04 15.2118 196.851 15.4011 196.614 15.5432C196.382 15.6805 196.127 15.7492 195.847 15.7492ZM195.847 7.96507C195.416 7.96507 195.047 7.81355 194.739 7.51052C194.432 7.20275 194.28 6.83344 194.285 6.40257C194.28 5.97643 194.432 5.61185 194.739 5.30882C195.047 5.00105 195.416 4.84717 195.847 4.84717C196.264 4.84717 196.626 5.00105 196.934 5.30882C197.246 5.61185 197.405 5.97643 197.41 6.40257C197.405 6.68666 197.329 6.94707 197.182 7.18382C197.04 7.42056 196.851 7.60995 196.614 7.752C196.382 7.89404 196.127 7.96507 195.847 7.96507Z" fill="#365F6F"/>
<path d="M184.714 15.7846C183.857 15.7846 183.09 15.5644 182.413 15.1241C181.736 14.6837 181.201 14.0445 180.808 13.2065C180.415 12.3684 180.218 11.3504 180.218 10.1525C180.218 8.94036 180.417 7.91763 180.815 7.0843C181.217 6.24623 181.759 5.61412 182.441 5.18799C183.123 4.75712 183.883 4.54168 184.721 4.54168C185.36 4.54168 185.886 4.65058 186.298 4.86839C186.71 5.08145 187.036 5.3395 187.278 5.64253C187.519 5.94083 187.706 6.22255 187.839 6.4877H187.946V1.04736H190.524V15.5928H187.995V13.8741H187.839C187.706 14.1392 187.515 14.4209 187.264 14.7192C187.013 15.0128 186.681 15.2637 186.269 15.4721C185.857 15.6804 185.339 15.7846 184.714 15.7846ZM185.431 13.6752C185.976 13.6752 186.44 13.5284 186.823 13.2349C187.207 12.9366 187.498 12.5223 187.697 11.992C187.896 11.4617 187.995 10.8438 187.995 10.1383C187.995 9.43278 187.896 8.81962 187.697 8.29878C187.503 7.77795 187.214 7.37312 186.83 7.0843C186.452 6.79547 185.985 6.65106 185.431 6.65106C184.858 6.65106 184.38 6.8002 183.997 7.0985C183.613 7.3968 183.324 7.80873 183.13 8.3343C182.936 8.85986 182.839 9.46119 182.839 10.1383C182.839 10.8201 182.936 11.4285 183.13 11.9636C183.329 12.4939 183.62 12.9129 184.004 13.2207C184.392 13.5237 184.868 13.6752 185.431 13.6752Z" fill="#365F6F"/>
<path d="M172.64 15.8062C171.546 15.8062 170.601 15.5789 169.806 15.1244C169.015 14.6651 168.407 14.0164 167.98 13.1784C167.554 12.3356 167.341 11.3436 167.341 10.2025C167.341 9.08034 167.554 8.0955 167.98 7.24796C168.411 6.39568 169.013 5.73281 169.784 5.25932C170.556 4.7811 171.463 4.54199 172.505 4.54199C173.177 4.54199 173.811 4.65089 174.408 4.8687C175.009 5.08176 175.54 5.4132 175.999 5.86301C176.463 6.31282 176.828 6.88574 177.093 7.58176C177.358 8.27305 177.49 9.09692 177.49 10.0534V10.8417H168.549V9.10875H175.026C175.021 8.61633 174.915 8.17835 174.706 7.79483C174.498 7.40657 174.207 7.10118 173.833 6.87864C173.463 6.6561 173.033 6.54483 172.54 6.54483C172.015 6.54483 171.553 6.67267 171.155 6.92836C170.758 7.1793 170.447 7.51074 170.225 7.92267C170.007 8.32987 169.896 8.77731 169.891 9.265V10.7778C169.891 11.4123 170.007 11.9568 170.239 12.4113C170.471 12.8611 170.795 13.2068 171.212 13.4482C171.629 13.685 172.116 13.8034 172.675 13.8034C173.049 13.8034 173.388 13.7513 173.691 13.6471C173.994 13.5382 174.257 13.3796 174.479 13.1713C174.702 12.9629 174.87 12.7049 174.983 12.3971L177.384 12.667C177.232 13.3015 176.944 13.8554 176.517 14.3289C176.096 14.7977 175.556 15.1623 174.898 15.4227C174.24 15.6784 173.487 15.8062 172.64 15.8062Z" fill="#365F6F"/>
<path d="M164.777 4.68395V6.67259H158.506V4.68395H164.777ZM160.054 2.07031H162.625V12.3118C162.625 12.6574 162.677 12.9226 162.781 13.1072C162.89 13.2872 163.032 13.4103 163.208 13.4766C163.383 13.5429 163.577 13.576 163.79 13.576C163.951 13.576 164.098 13.5642 164.23 13.5405C164.368 13.5168 164.472 13.4955 164.543 13.4766L164.976 15.4865C164.839 15.5339 164.642 15.5859 164.387 15.6428C164.136 15.6996 163.828 15.7327 163.463 15.7422C162.819 15.7611 162.239 15.6641 161.723 15.451C161.207 15.2332 160.798 14.897 160.494 14.4425C160.196 13.9879 160.049 13.4197 160.054 12.7379V2.07031Z" fill="#365F6F"/>
<path d="M153.115 15.5928V4.68373H155.686V15.5928H153.115ZM154.407 3.13543C154 3.13543 153.65 3.00049 153.356 2.7306C153.063 2.45598 152.916 2.12691 152.916 1.74339C152.916 1.35513 153.063 1.02606 153.356 0.756169C153.65 0.481548 154 0.344238 154.407 0.344238C154.819 0.344238 155.17 0.481548 155.459 0.756169C155.752 1.02606 155.899 1.35513 155.899 1.74339C155.899 2.12691 155.752 2.45598 155.459 2.7306C155.17 3.00049 154.819 3.13543 154.407 3.13543Z" fill="#365F6F"/>
<path d="M149.76 7.56756L147.417 7.82324C147.35 7.5865 147.234 7.36396 147.069 7.15563C146.908 6.94729 146.69 6.77921 146.415 6.65137C146.141 6.52353 145.804 6.45961 145.407 6.45961C144.872 6.45961 144.422 6.57561 144.057 6.80762C143.697 7.03962 143.52 7.34029 143.525 7.70961C143.52 8.02684 143.636 8.28489 143.873 8.48375C144.114 8.68262 144.512 8.84597 145.066 8.97381L146.927 9.37154C147.959 9.59408 148.726 9.94682 149.228 10.4298C149.734 10.9127 149.99 11.5448 149.995 12.3261C149.99 13.0126 149.789 13.6187 149.391 14.1443C148.998 14.6651 148.451 15.0723 147.75 15.3659C147.05 15.6594 146.245 15.8062 145.336 15.8062C144 15.8062 142.926 15.5268 142.111 14.9681C141.297 14.4047 140.812 13.6211 140.655 12.6173L143.162 12.3758C143.276 12.8682 143.517 13.2399 143.887 13.4909C144.256 13.7418 144.737 13.8673 145.329 13.8673C145.939 13.8673 146.429 13.7418 146.799 13.4909C147.173 13.2399 147.36 12.9298 147.36 12.5605C147.36 12.248 147.239 11.9899 146.998 11.7863C146.761 11.5827 146.392 11.4265 145.89 11.3176L144.029 10.9269C142.982 10.7091 142.208 10.3422 141.706 9.82608C141.205 9.30525 140.956 8.6471 140.961 7.85165C140.956 7.1793 141.138 6.59692 141.508 6.10449C141.882 5.60733 142.4 5.22381 143.063 4.95392C143.731 4.6793 144.5 4.54199 145.371 4.54199C146.65 4.54199 147.656 4.81425 148.39 5.35875C149.128 5.90326 149.585 6.63953 149.76 7.56756Z" fill="#365F6F"/>
<path d="M134.923 15.5928V4.68373H137.494V15.5928H134.923ZM136.216 3.13543C135.809 3.13543 135.459 3.00049 135.165 2.7306C134.871 2.45598 134.725 2.12691 134.725 1.74339C134.725 1.35513 134.871 1.02606 135.165 0.756169C135.459 0.481548 135.809 0.344238 136.216 0.344238C136.628 0.344238 136.978 0.481548 137.267 0.756169C137.561 1.02606 137.708 1.35513 137.708 1.74339C137.708 2.12691 137.561 2.45598 137.267 2.7306C136.978 3.00049 136.628 3.13543 136.216 3.13543Z" fill="#365F6F"/>
<path d="M121.51 1.04736L125.296 12.4962H125.445L129.223 1.04736H132.121L126.993 15.5928H123.74L118.62 1.04736H121.51Z" fill="#365F6F"/>
<path d="M110.135 7.56756L107.792 7.82324C107.725 7.5865 107.609 7.36396 107.444 7.15563C107.283 6.94729 107.065 6.77921 106.79 6.65137C106.516 6.52353 106.179 6.45961 105.782 6.45961C105.247 6.45961 104.797 6.57561 104.432 6.80762C104.072 7.03962 103.895 7.34029 103.9 7.70961C103.895 8.02684 104.011 8.28489 104.248 8.48375C104.489 8.68262 104.887 8.84597 105.441 8.97381L107.302 9.37154C108.334 9.59408 109.101 9.94682 109.603 10.4298C110.109 10.9127 110.365 11.5448 110.37 12.3261C110.365 13.0126 110.164 13.6187 109.766 14.1443C109.373 14.6651 108.826 15.0723 108.125 15.3659C107.425 15.6594 106.62 15.8062 105.711 15.8062C104.375 15.8062 103.301 15.5268 102.486 14.9681C101.672 14.4047 101.187 13.6211 101.03 12.6173L103.537 12.3758C103.651 12.8682 103.892 13.2399 104.262 13.4909C104.631 13.7418 105.112 13.8673 105.704 13.8673C106.314 13.8673 106.804 13.7418 107.174 13.4909C107.548 13.2399 107.735 12.9298 107.735 12.5605C107.735 12.248 107.614 11.9899 107.373 11.7863C107.136 11.5827 106.767 11.4265 106.265 11.3176L104.404 10.9269C103.357 10.7091 102.583 10.3422 102.081 9.82608C101.58 9.30525 101.331 8.6471 101.336 7.85165C101.331 7.1793 101.513 6.59692 101.883 6.10449C102.257 5.60733 102.775 5.22381 103.438 4.95392C104.106 4.6793 104.875 4.54199 105.746 4.54199C107.025 4.54199 108.031 4.81425 108.765 5.35875C109.503 5.90326 109.96 6.63953 110.135 7.56756Z" fill="#365F6F"/>
<path d="M88.0132 19.684V4.68404H90.5416V6.48801H90.6907C90.8233 6.22286 91.0103 5.94114 91.2518 5.64284C91.4933 5.33981 91.82 5.08176 92.2319 4.8687C92.6439 4.65089 93.1694 4.54199 93.8086 4.54199C94.6514 4.54199 95.4114 4.75743 96.0885 5.1883C96.7703 5.61443 97.3101 6.24654 97.7078 7.08461C98.1102 7.91794 98.3115 8.94067 98.3115 10.1528C98.3115 11.3507 98.115 12.3687 97.722 13.2068C97.329 14.0448 96.794 14.684 96.1169 15.1244C95.4398 15.5647 94.6727 15.7849 93.8157 15.7849C93.1907 15.7849 92.6723 15.6807 92.2603 15.4724C91.8484 15.2641 91.517 15.0131 91.266 14.7195C91.0198 14.4213 90.8281 14.1395 90.6907 13.8744H90.5842V19.684H88.0132ZM90.5345 10.1386C90.5345 10.8441 90.6339 11.462 90.8328 11.9923C91.0364 12.5226 91.3276 12.9369 91.7064 13.2352C92.0899 13.5287 92.5539 13.6755 93.0984 13.6755C93.6666 13.6755 94.1424 13.524 94.526 13.221C94.9095 12.9132 95.1983 12.4942 95.3924 11.9639C95.5913 11.4288 95.6907 10.8204 95.6907 10.1386C95.6907 9.4615 95.5937 8.86017 95.3996 8.33461C95.2054 7.80904 94.9166 7.3971 94.5331 7.09881C94.1496 6.80051 93.6713 6.65137 93.0984 6.65137C92.5492 6.65137 92.0828 6.79578 91.6993 7.08461C91.3157 7.37343 91.0245 7.77826 90.8257 8.29909C90.6316 8.81993 90.5345 9.43309 90.5345 10.1386Z" fill="#365F6F"/>
<path d="M79.6037 15.8062C78.5384 15.8062 77.6151 15.5718 76.8339 15.1031C76.0526 14.6343 75.4465 13.9785 75.0157 13.1357C74.5895 12.2929 74.3765 11.3081 74.3765 10.1812C74.3765 9.0543 74.5895 8.06709 75.0157 7.21955C75.4465 6.37201 76.0526 5.71387 76.8339 5.24512C77.6151 4.77637 78.5384 4.54199 79.6037 4.54199C80.6691 4.54199 81.5924 4.77637 82.3736 5.24512C83.1549 5.71387 83.7586 6.37201 84.1847 7.21955C84.6156 8.06709 84.831 9.0543 84.831 10.1812C84.831 11.3081 84.6156 12.2929 84.1847 13.1357C83.7586 13.9785 83.1549 14.6343 82.3736 15.1031C81.5924 15.5718 80.6691 15.8062 79.6037 15.8062ZM79.6179 13.7465C80.1956 13.7465 80.6785 13.5879 81.0668 13.2707C81.4551 12.9487 81.7439 12.5178 81.9333 11.9781C82.1274 11.4383 82.2245 10.837 82.2245 10.1741C82.2245 9.50648 82.1274 8.90279 81.9333 8.36301C81.7439 7.81851 81.4551 7.38527 81.0668 7.0633C80.6785 6.74133 80.1956 6.58034 79.6179 6.58034C79.0261 6.58034 78.5337 6.74133 78.1407 7.0633C77.7524 7.38527 77.4612 7.81851 77.2671 8.36301C77.0777 8.90279 76.983 9.50648 76.983 10.1741C76.983 10.837 77.0777 11.4383 77.2671 11.9781C77.4612 12.5178 77.7524 12.9487 78.1407 13.2707C78.5337 13.5879 79.0261 13.7465 79.6179 13.7465Z" fill="#365F6F"/>
<path d="M71.8123 4.68395V6.67259H65.541V4.68395H71.8123ZM67.0893 2.07031H69.6603V12.3118C69.6603 12.6574 69.7124 12.9226 69.8166 13.1072C69.9255 13.2872 70.0675 13.4103 70.2427 13.4766C70.4179 13.5429 70.612 13.576 70.8251 13.576C70.9861 13.576 71.1329 13.5642 71.2654 13.5405C71.4028 13.5168 71.5069 13.4955 71.5779 13.4766L72.0112 15.4865C71.8739 15.5339 71.6774 15.5859 71.4217 15.6428C71.1707 15.6996 70.863 15.7327 70.4984 15.7422C69.8545 15.7611 69.2744 15.6641 68.7583 15.451C68.2422 15.2332 67.8327 14.897 67.5296 14.4425C67.2314 13.9879 67.0846 13.4197 67.0893 12.7379V2.07031Z" fill="#365F6F"/>
<path d="M60.3952 5.04608C60.329 4.42581 60.0496 3.94286 59.5572 3.59721C59.0695 3.25157 58.435 3.07875 57.6538 3.07875C57.1045 3.07875 56.6334 3.16161 56.2404 3.32733C55.8474 3.49305 55.5468 3.71795 55.3384 4.00204C55.1301 4.28613 55.0236 4.61047 55.0188 4.97505C55.0188 5.27808 55.0875 5.54087 55.2248 5.76341C55.3668 5.98594 55.5586 6.17534 55.8001 6.33159C56.0415 6.4831 56.3091 6.61094 56.6026 6.71511C56.8962 6.81928 57.1921 6.90687 57.4904 6.97789L58.854 7.3188C59.4033 7.44664 59.9312 7.61947 60.4379 7.83727C60.9492 8.05507 61.4061 8.32969 61.8086 8.66113C62.2158 8.99257 62.5378 9.39267 62.7745 9.86142C63.0112 10.3302 63.1296 10.8794 63.1296 11.5091C63.1296 12.3614 62.9118 13.1119 62.4762 13.7606C62.0406 14.4045 61.4109 14.9088 60.587 15.2733C59.7679 15.6332 58.7759 15.8131 57.6111 15.8131C56.4795 15.8131 55.497 15.6379 54.6637 15.2876C53.8351 14.9372 53.1864 14.4258 52.7177 13.7535C52.2537 13.0811 52.0027 12.262 51.9648 11.2961H54.5572C54.595 11.8027 54.7513 12.2241 55.0259 12.5603C55.3005 12.8965 55.658 13.1474 56.0984 13.3131C56.5434 13.4788 57.0406 13.5617 57.5898 13.5617C58.1628 13.5617 58.6647 13.4765 59.0955 13.306C59.5311 13.1308 59.872 12.8894 60.1183 12.5816C60.3645 12.2691 60.4899 11.9045 60.4947 11.4878C60.4899 11.109 60.3787 10.7965 60.1609 10.5503C59.9431 10.2994 59.6377 10.0911 59.2447 9.92534C58.8564 9.75488 58.4019 9.60337 57.881 9.47079L56.2262 9.04466C55.0283 8.73689 54.0813 8.27051 53.3853 7.64551C52.694 7.01577 52.3484 6.18007 52.3484 5.13841C52.3484 4.2814 52.5804 3.53093 53.0444 2.88699C53.5131 2.24305 54.15 1.74352 54.9549 1.38841C55.7598 1.02856 56.6713 0.848633 57.6893 0.848633C58.7215 0.848633 59.6258 1.02856 60.4023 1.38841C61.1836 1.74352 61.7968 2.23831 62.2418 2.87278C62.6869 3.50252 62.9165 4.22695 62.9308 5.04608H60.3952Z" fill="#365F6F"/>
<path d="M44.3505 15.806C43.2568 15.806 42.3122 15.5787 41.5167 15.1242C40.726 14.6649 40.1176 14.0162 39.6915 13.1781C39.2653 12.3353 39.0522 11.3434 39.0522 10.2023C39.0522 9.08012 39.2653 8.09527 39.6915 7.24774C40.1223 6.39546 40.7236 5.73258 41.4954 5.2591C42.2672 4.78088 43.1739 4.54177 44.2156 4.54177C44.8879 4.54177 45.5224 4.65067 46.119 4.86847C46.7203 5.08154 47.2506 5.41298 47.7099 5.86279C48.1739 6.3126 48.5385 6.88552 48.8037 7.58154C49.0688 8.27283 49.2014 9.09669 49.2014 10.0531V10.8415H40.2596V9.10853H46.7369C46.7322 8.61611 46.6256 8.17813 46.4173 7.79461C46.209 7.40635 45.9178 7.10096 45.5437 6.87842C45.1744 6.65588 44.7435 6.54461 44.2511 6.54461C43.7255 6.54461 43.2639 6.67245 42.8662 6.92813C42.4684 7.17908 42.1583 7.51052 41.9358 7.92245C41.718 8.32965 41.6067 8.77709 41.602 9.26478V10.7776C41.602 11.412 41.718 11.9565 41.95 12.4111C42.182 12.8609 42.5063 13.2065 42.923 13.448C43.3397 13.6848 43.8273 13.8031 44.3861 13.8031C44.7601 13.8031 45.0986 13.7511 45.4017 13.6469C45.7047 13.538 45.9675 13.3794 46.19 13.171C46.4126 12.9627 46.5807 12.7046 46.6943 12.3969L49.0949 12.6668C48.9433 13.3012 48.6545 13.8552 48.2284 14.3287C47.807 14.7975 47.2672 15.162 46.6091 15.4225C45.9509 15.6781 45.1981 15.806 44.3505 15.806ZM43.1574 3.24916L44.7483 0.00341797H47.2625L45.0821 3.24916H43.1574Z" fill="#365F6F"/>
<path d="M29.9272 12.1695L29.9201 9.06583H30.3321L34.2525 4.68373H37.2568L32.4343 10.053H31.9017L29.9272 12.1695ZM27.5835 15.5928V1.04736H30.1545V15.5928H27.5835ZM34.4301 15.5928L30.879 10.6283L32.6119 8.81725L37.5054 15.5928H34.4301Z" fill="#365F6F"/>
<path d="M19.1741 15.8062C18.1087 15.8062 17.1854 15.5718 16.4042 15.1031C15.6229 14.6343 15.0169 13.9785 14.586 13.1357C14.1598 12.2929 13.9468 11.3081 13.9468 10.1812C13.9468 9.0543 14.1598 8.06709 14.586 7.21955C15.0169 6.37201 15.6229 5.71387 16.4042 5.24512C17.1854 4.77637 18.1087 4.54199 19.1741 4.54199C20.2394 4.54199 21.1627 4.77637 21.9439 5.24512C22.7252 5.71387 23.3289 6.37201 23.755 7.21955C24.1859 8.06709 24.4013 9.0543 24.4013 10.1812C24.4013 11.3081 24.1859 12.2929 23.755 13.1357C23.3289 13.9785 22.7252 14.6343 21.9439 15.1031C21.1627 15.5718 20.2394 15.8062 19.1741 15.8062ZM19.1883 13.7465C19.7659 13.7465 20.2489 13.5879 20.6371 13.2707C21.0254 12.9487 21.3142 12.5178 21.5036 11.9781C21.6977 11.4383 21.7948 10.837 21.7948 10.1741C21.7948 9.50648 21.6977 8.90279 21.5036 8.36301C21.3142 7.81851 21.0254 7.38527 20.6371 7.0633C20.2489 6.74133 19.7659 6.58034 19.1883 6.58034C18.5964 6.58034 18.104 6.74133 17.711 7.0633C17.3227 7.38527 17.0315 7.81851 16.8374 8.36301C16.648 8.90279 16.5533 9.50648 16.5533 10.1741C16.5533 10.837 16.648 11.4383 16.8374 11.9781C17.0315 12.5178 17.3227 12.9487 17.711 13.2707C18.104 13.5879 18.5964 13.7465 19.1883 13.7465Z" fill="#365F6F"/>
<path d="M0.814453 15.5928V1.04736H6.269C7.38642 1.04736 8.32392 1.2557 9.0815 1.67236C9.84381 2.08903 10.4191 2.66195 10.8074 3.39111C11.2003 4.11555 11.3968 4.93941 11.3968 5.8627C11.3968 6.79547 11.2003 7.62407 10.8074 8.3485C10.4144 9.07293 9.83434 9.64348 9.06729 10.0601C8.30025 10.4721 7.35565 10.678 6.23349 10.678H2.61843V8.51185H5.87837C6.53178 8.51185 7.06682 8.39822 7.48349 8.17094C7.90015 7.94367 8.20792 7.63117 8.40678 7.23344C8.61038 6.83572 8.71218 6.3788 8.71218 5.8627C8.71218 5.34661 8.61038 4.89206 8.40678 4.49907C8.20792 4.10608 7.89779 3.80068 7.47639 3.58287C7.05972 3.36034 6.52231 3.24907 5.86417 3.24907H3.4494V15.5928H0.814453Z" fill="#365F6F"/>
</svg>
