<svg width="55" height="13" viewBox="0 0 55 13" fill="none" xmlns="http://www.w3.org/2000/svg">
<path d="M50.1635 12.5162C49.2658 12.5162 48.4931 12.3344 47.8453 11.9708C47.2014 11.6034 46.7052 11.0844 46.3567 10.414C46.0082 9.73973 45.834 8.94238 45.834 8.02193C45.834 7.1242 46.0082 6.33632 46.3567 5.65829C46.7052 4.98026 47.1957 4.45185 47.8283 4.07306C48.4647 3.69428 49.2109 3.50488 50.0669 3.50488C50.6427 3.50488 51.1787 3.59769 51.6749 3.78329C52.1749 3.96511 52.6105 4.23973 52.9817 4.60716C53.3567 4.97458 53.6484 5.4367 53.8567 5.99352C54.065 6.54655 54.1692 7.19428 54.1692 7.9367V8.60147H46.7999V7.10147H51.8908C51.8908 6.75299 51.815 6.44428 51.6635 6.17534C51.512 5.9064 51.3018 5.69617 51.0328 5.54466C50.7677 5.38935 50.459 5.3117 50.1067 5.3117C49.7393 5.3117 49.4135 5.39693 49.1294 5.56738C48.8491 5.73405 48.6294 5.95943 48.4703 6.24352C48.3113 6.52382 48.2298 6.83632 48.226 7.18102V8.60716C48.226 9.03897 48.3056 9.41208 48.4647 9.72647C48.6275 10.0409 48.8567 10.2833 49.1522 10.4537C49.4476 10.6242 49.798 10.7094 50.2033 10.7094C50.4722 10.7094 50.7185 10.6715 50.9419 10.5958C51.1654 10.52 51.3567 10.4064 51.5158 10.2549C51.6749 10.1034 51.7961 9.91776 51.8794 9.69806L54.1181 9.84579C54.0044 10.3837 53.7715 10.8534 53.4192 11.2549C53.0707 11.6526 52.62 11.9632 52.0669 12.1867C51.5177 12.4064 50.8832 12.5162 50.1635 12.5162Z" fill="white"/>
<path d="M43.4473 0.709961V12.3463H41.0269V0.709961H43.4473Z" fill="white"/>
<path d="M35.8675 12.3461V3.61879H38.288V12.3461H35.8675ZM37.0834 2.49379C36.7236 2.49379 36.4149 2.37447 36.1573 2.13583C35.9035 1.89341 35.7766 1.60363 35.7766 1.26651C35.7766 0.933179 35.9035 0.647195 36.1573 0.408559C36.4149 0.166134 36.7236 0.0449219 37.0834 0.0449219C37.4433 0.0449219 37.7501 0.166134 38.0039 0.408559C38.2615 0.647195 38.3902 0.933179 38.3902 1.26651C38.3902 1.60363 38.2615 1.89341 38.0039 2.13583C37.7501 2.37447 37.4433 2.49379 37.0834 2.49379Z" fill="white"/>
<path d="M33.5888 3.61861V5.43679H28.2024V3.61861H33.5888ZM29.4353 12.3459V2.98793C29.4353 2.35535 29.5585 1.83073 29.8047 1.41406C30.0547 0.997396 30.3956 0.684896 30.8274 0.476562C31.2592 0.268229 31.7497 0.164062 32.299 0.164062C32.6702 0.164062 33.0092 0.192472 33.316 0.24929C33.6266 0.306108 33.8577 0.357245 34.0092 0.402699L33.5774 2.22088C33.4827 2.19058 33.3653 2.16217 33.2251 2.13565C33.0888 2.10914 32.9486 2.09588 32.8047 2.09588C32.4486 2.09588 32.2005 2.17921 32.0603 2.34588C31.9202 2.50876 31.8501 2.73793 31.8501 3.03338V12.3459H29.4353Z" fill="white"/>
<path d="M22.2262 12.5162C21.3437 12.5162 20.5804 12.3287 19.9365 11.9537C19.2963 11.575 18.802 11.0484 18.4535 10.3742C18.105 9.69617 17.9308 8.91019 17.9308 8.01625C17.9308 7.11473 18.105 6.32685 18.4535 5.65261C18.802 4.97458 19.2963 4.44806 19.9365 4.07306C20.5804 3.69428 21.3437 3.50488 22.2262 3.50488C23.1088 3.50488 23.8702 3.69428 24.5103 4.07306C25.1543 4.44806 25.6505 4.97458 25.999 5.65261C26.3475 6.32685 26.5217 7.11473 26.5217 8.01625C26.5217 8.91019 26.3475 9.69617 25.999 10.3742C25.6505 11.0484 25.1543 11.575 24.5103 11.9537C23.8702 12.3287 23.1088 12.5162 22.2262 12.5162ZM22.2376 10.6412C22.6391 10.6412 22.9743 10.5276 23.2433 10.3003C23.5122 10.0693 23.7149 9.75488 23.8512 9.35716C23.9914 8.95943 24.0615 8.50678 24.0615 7.9992C24.0615 7.49163 23.9914 7.03897 23.8512 6.64125C23.7149 6.24352 23.5122 5.92912 23.2433 5.69806C22.9743 5.467 22.6391 5.35147 22.2376 5.35147C21.8323 5.35147 21.4914 5.467 21.2149 5.69806C20.9422 5.92912 20.7357 6.24352 20.5956 6.64125C20.4592 7.03897 20.391 7.49163 20.391 7.9992C20.391 8.50678 20.4592 8.95943 20.5956 9.35716C20.7357 9.75488 20.9422 10.0693 21.2149 10.3003C21.4914 10.5276 21.8323 10.6412 22.2376 10.6412Z" fill="white"/>
<path d="M11.3425 12.3464V3.61914H13.6891V5.14187H13.78C13.9391 4.6002 14.2062 4.19111 14.5812 3.9146C14.9562 3.63429 15.388 3.49414 15.8766 3.49414C15.9978 3.49414 16.1285 3.50172 16.2687 3.51687C16.4088 3.53202 16.5319 3.55285 16.638 3.57937V5.7271C16.5243 5.693 16.3672 5.6627 16.1664 5.63619C15.9656 5.60967 15.7819 5.59641 15.6153 5.59641C15.2592 5.59641 14.941 5.67406 14.6607 5.82937C14.3842 5.98088 14.1645 6.193 14.0016 6.46573C13.8425 6.73846 13.763 7.05285 13.763 7.40891V12.3464H11.3425Z" fill="white"/>
<path d="M0.228516 12.3463V0.709961H4.81943C5.702 0.709961 6.45389 0.878522 7.07511 1.21564C7.69632 1.54898 8.1698 2.01299 8.49556 2.60769C8.82511 3.1986 8.98988 3.88042 8.98988 4.65314C8.98988 5.42587 8.82321 6.10769 8.48988 6.6986C8.15655 7.28951 7.67359 7.74973 7.04102 8.07928C6.41223 8.40882 5.65086 8.5736 4.75693 8.5736H1.83079V6.60201H4.3592C4.83268 6.60201 5.22283 6.52057 5.52965 6.35769C5.84026 6.19102 6.07132 5.96186 6.22283 5.67019C6.37814 5.37473 6.45579 5.03572 6.45579 4.65314C6.45579 4.26678 6.37814 3.92966 6.22283 3.64178C6.07132 3.35011 5.84026 3.12473 5.52965 2.96564C5.21905 2.80276 4.82511 2.72132 4.34783 2.72132H2.68874V12.3463H0.228516Z" fill="white"/>
</svg>
