<svg width="70" height="13" viewBox="0 0 70 13" fill="none" xmlns="http://www.w3.org/2000/svg">
<path d="M59.9332 11.9996V0.363281H62.3935V5.16442H67.3878V0.363281H69.8423V11.9996H67.3878V7.19283H62.3935V11.9996H59.9332Z" fill="#004AAD"/>
<path d="M57.369 4.43706H54.8804C54.835 4.11509 54.7422 3.8291 54.602 3.5791C54.4619 3.32531 54.2819 3.1094 54.0622 2.93137C53.8425 2.75334 53.5887 2.61698 53.3009 2.52228C53.0168 2.42759 52.7081 2.38024 52.3747 2.38024C51.7725 2.38024 51.2478 2.52986 50.8009 2.8291C50.3539 3.12456 50.0073 3.55637 49.7611 4.12456C49.5149 4.68895 49.3918 5.37456 49.3918 6.18137C49.3918 7.01092 49.5149 7.70789 49.7611 8.27228C50.0111 8.83668 50.3596 9.26281 50.8065 9.55069C51.2535 9.83857 51.7706 9.98251 52.3577 9.98251C52.6872 9.98251 52.9922 9.93895 53.2725 9.85183C53.5566 9.76471 53.8084 9.63781 54.0281 9.47115C54.2478 9.30069 54.4297 9.09425 54.5736 8.85183C54.7213 8.60941 54.8236 8.33289 54.8804 8.02228L57.369 8.03365C57.3047 8.56774 57.1437 9.08289 56.8861 9.5791C56.6323 10.0715 56.2895 10.5128 55.8577 10.903C55.4297 11.2893 54.9183 11.5961 54.3236 11.8234C53.7327 12.0469 53.0641 12.1586 52.3179 12.1586C51.28 12.1586 50.352 11.9238 49.5338 11.4541C48.7194 10.9844 48.0755 10.3045 47.602 9.41433C47.1323 8.52418 46.8975 7.44653 46.8975 6.18137C46.8975 4.91244 47.1361 3.83289 47.6134 2.94274C48.0906 2.05259 48.7384 1.37456 49.5565 0.908648C50.3747 0.43895 51.2952 0.204102 52.3179 0.204102C52.9922 0.204102 53.6172 0.298799 54.1929 0.488193C54.7725 0.677587 55.2857 0.954102 55.7327 1.31774C56.1797 1.67759 56.5433 2.11887 56.8236 2.6416C57.1077 3.16433 57.2895 3.76281 57.369 4.43706Z" fill="#004AAD"/>
<path d="M35.802 11.9996V0.363281H40.3929C41.2717 0.363281 42.0217 0.520478 42.6429 0.834872C43.2679 1.14548 43.7433 1.58677 44.069 2.15874C44.3986 2.72692 44.5634 3.39548 44.5634 4.16442C44.5634 4.93715 44.3967 5.60192 44.0634 6.15874C43.73 6.71177 43.2471 7.13601 42.6145 7.43146C41.9857 7.72692 41.2243 7.87465 40.3304 7.87465H37.2565V5.89737H39.9327C40.4024 5.89737 40.7925 5.83298 41.1031 5.70419C41.4137 5.5754 41.6448 5.38222 41.7963 5.12465C41.9516 4.86707 42.0293 4.54699 42.0293 4.16442C42.0293 3.77805 41.9516 3.4523 41.7963 3.18715C41.6448 2.92199 41.4119 2.72124 41.0975 2.58487C40.7869 2.44472 40.3948 2.37465 39.9213 2.37465H38.2622V11.9996H35.802ZM42.0861 6.70419L44.9781 11.9996H42.2622L39.4327 6.70419H42.0861Z" fill="#004AAD"/>
<path d="M25.0389 11.9996H22.4025L26.4196 0.363281H29.59L33.6014 11.9996H30.965L28.0503 3.02237H27.9593L25.0389 11.9996ZM24.8741 7.42578H31.1014V9.34624H24.8741V7.42578Z" fill="#004AAD"/>
<path d="M12.4363 11.9996V0.363281H20.2772V2.39169H14.8966V5.16442H19.8738V7.19283H14.8966V9.97124H20.3V11.9996H12.4363Z" fill="#004AAD"/>
<path d="M7.46448 3.70978C7.41902 3.25145 7.22395 2.89539 6.87925 2.6416C6.53455 2.38781 6.06675 2.26092 5.47584 2.26092C5.07433 2.26092 4.73531 2.31774 4.4588 2.43137C4.18228 2.54122 3.97016 2.69463 3.82243 2.8916C3.67849 3.08857 3.60652 3.31206 3.60652 3.56206C3.59895 3.77039 3.64251 3.95221 3.73721 4.10751C3.83569 4.26281 3.97016 4.39728 4.14061 4.51092C4.31107 4.62077 4.50804 4.71736 4.73152 4.80069C4.95501 4.88024 5.19364 4.94842 5.44743 5.00524L6.49289 5.25524C7.00046 5.36888 7.46637 5.52039 7.89061 5.70978C8.31486 5.89918 8.68228 6.13213 8.99289 6.40865C9.30349 6.68516 9.54402 7.01092 9.71448 7.38592C9.88872 7.76092 9.97774 8.19084 9.98152 8.67569C9.97774 9.38781 9.79592 10.0052 9.43607 10.528C9.08001 11.0469 8.56486 11.4503 7.89061 11.7382C7.22016 12.0223 6.41145 12.1643 5.46448 12.1643C4.52508 12.1643 3.7069 12.0204 3.00993 11.7325C2.31675 11.4446 1.77508 11.0185 1.38493 10.4541C0.998568 9.88592 0.795917 9.18327 0.776978 8.34615H3.15766C3.18418 8.7363 3.29592 9.06206 3.49289 9.32342C3.69364 9.581 3.96069 9.77607 4.29402 9.90865C4.63114 10.0374 5.01183 10.1018 5.43607 10.1018C5.85273 10.1018 6.21448 10.0412 6.5213 9.92001C6.8319 9.7988 7.07243 9.63024 7.24289 9.41433C7.41334 9.19842 7.49857 8.95031 7.49857 8.67001C7.49857 8.40865 7.42092 8.18895 7.26561 8.01092C7.1141 7.83289 6.89061 7.68137 6.59516 7.55637C6.30349 7.43137 5.94554 7.31774 5.5213 7.21547L4.25425 6.89728C3.27319 6.65865 2.49857 6.28554 1.93039 5.77797C1.36221 5.27039 1.08001 4.58668 1.0838 3.72683C1.08001 3.02228 1.26751 2.40675 1.6463 1.88024C2.02887 1.35372 2.55349 0.942738 3.22016 0.647284C3.88683 0.351829 4.6444 0.204102 5.49289 0.204102C6.35652 0.204102 7.11031 0.351829 7.75425 0.647284C8.40198 0.942738 8.90577 1.35372 9.26561 1.88024C9.62546 2.40675 9.81107 3.0166 9.82243 3.70978H7.46448Z" fill="#004AAD"/>
</svg>
