<svg width="558" height="25" viewBox="0 0 558 25" fill="none" xmlns="http://www.w3.org/2000/svg">
<path d="M551.703 19.8041C550.389 19.8041 549.255 19.5141 548.303 18.934C547.356 18.3481 546.625 17.5313 546.11 16.4838C545.601 15.4302 545.346 14.2051 545.346 12.8083C545.346 11.4115 545.601 10.1805 546.11 9.11514C546.625 8.04389 547.341 7.20937 548.258 6.61159C549.181 6.0079 550.259 5.70605 551.49 5.70605C552.2 5.70605 552.901 5.82443 553.594 6.06117C554.286 6.29791 554.917 6.68262 555.485 7.21529C556.053 7.74204 556.506 8.44043 556.843 9.31046C557.18 10.1805 557.349 11.2517 557.349 12.5242V13.412H546.838V11.6009H555.218C555.218 10.8315 555.064 10.145 554.757 9.54128C554.455 8.93759 554.023 8.46114 553.461 8.11195C552.904 7.76275 552.247 7.58816 551.49 7.58816C550.655 7.58816 549.933 7.79531 549.323 8.20961C548.72 8.61799 548.255 9.15066 547.93 9.80762C547.604 10.4646 547.441 11.1689 547.441 11.9205V13.1279C547.441 14.1578 547.619 15.0307 547.974 15.7469C548.335 16.4571 548.835 16.9987 549.474 17.3715C550.114 17.7385 550.856 17.922 551.703 17.922C552.253 17.922 552.75 17.845 553.194 17.6911C553.644 17.5313 554.032 17.2946 554.357 16.9809C554.683 16.6613 554.934 16.2648 555.112 15.7913L557.136 16.3595C556.923 17.046 556.565 17.6497 556.062 18.1705C555.559 18.6855 554.937 19.0879 554.197 19.3779C553.458 19.662 552.626 19.8041 551.703 19.8041Z" fill="black"/>
<path d="M523.007 19.52V5.88361H525.031V8.01429H525.209C525.493 7.28631 525.951 6.72109 526.585 6.31862C527.218 5.91024 527.978 5.70605 528.866 5.70605C529.766 5.70605 530.515 5.91024 531.112 6.31862C531.716 6.72109 532.187 7.28631 532.524 8.01429H532.666C533.015 7.30998 533.539 6.75068 534.237 6.33638C534.936 5.91616 535.773 5.70605 536.75 5.70605C537.969 5.70605 538.966 6.0878 539.742 6.8513C540.517 7.60887 540.905 8.78962 540.905 10.3936V19.52H538.809V10.3936C538.809 9.3874 538.534 8.66829 537.984 8.23624C537.433 7.80418 536.785 7.58816 536.039 7.58816C535.081 7.58816 534.338 7.87817 533.811 8.45819C533.284 9.03229 533.021 9.76027 533.021 10.6421V19.52H530.89V10.1805C530.89 9.40515 530.639 8.78075 530.136 8.30726C529.633 7.82786 528.985 7.58816 528.192 7.58816C527.647 7.58816 527.138 7.73316 526.664 8.02317C526.197 8.31318 525.818 8.71564 525.528 9.23056C525.244 9.73955 525.102 10.3285 525.102 10.9972V19.52H523.007Z" fill="black"/>
<path d="M511.683 19.8396C510.819 19.8396 510.034 19.6768 509.33 19.3513C508.626 19.0199 508.067 18.5434 507.652 17.922C507.238 17.2946 507.031 16.537 507.031 15.6492C507.031 14.868 507.185 14.2347 507.492 13.7494C507.8 13.2581 508.212 12.8734 508.726 12.5953C509.241 12.3171 509.81 12.1099 510.431 11.9738C511.058 11.8318 511.689 11.7193 512.322 11.6365C513.151 11.5299 513.822 11.45 514.337 11.3967C514.858 11.3376 515.237 11.2399 515.474 11.1038C515.716 10.9677 515.838 10.7309 515.838 10.3936V10.3225C515.838 9.44658 515.598 8.76595 515.119 8.28063C514.645 7.79531 513.926 7.55264 512.961 7.55264C511.961 7.55264 511.177 7.77163 510.609 8.20961C510.04 8.64758 509.641 9.11514 509.41 9.6123L507.421 8.90208C507.777 8.07348 508.25 7.42835 508.842 6.96671C509.44 6.49914 510.091 6.17362 510.795 5.99014C511.505 5.80075 512.204 5.70605 512.89 5.70605C513.328 5.70605 513.831 5.75932 514.399 5.86585C514.974 5.96647 515.527 6.17658 516.06 6.49618C516.598 6.81578 517.045 7.29815 517.4 7.94327C517.755 8.58839 517.933 9.4525 517.933 10.5356V19.52H515.838V17.6734H515.731C515.589 17.9693 515.352 18.286 515.021 18.6233C514.689 18.9607 514.248 19.2477 513.698 19.4845C513.148 19.7212 512.476 19.8396 511.683 19.8396ZM512.002 17.9575C512.831 17.9575 513.529 17.7947 514.098 17.4692C514.672 17.1437 515.104 16.7235 515.394 16.2085C515.69 15.6936 515.838 15.1521 515.838 14.5839V12.6663C515.749 12.7728 515.553 12.8705 515.252 12.9593C514.956 13.0421 514.612 13.1161 514.222 13.1812C513.837 13.2404 513.461 13.2936 513.094 13.341C512.733 13.3824 512.44 13.4179 512.215 13.4475C511.671 13.5186 511.162 13.634 510.688 13.7938C510.221 13.9476 509.842 14.1814 509.552 14.4951C509.268 14.8029 509.126 15.2231 509.126 15.7558C509.126 16.4838 509.395 17.0342 509.934 17.407C510.478 17.774 511.168 17.9575 512.002 17.9575Z" fill="black"/>
<path d="M496.69 24.9177C495.678 24.9177 494.808 24.7875 494.08 24.5271C493.352 24.2726 492.745 23.9352 492.26 23.515C491.78 23.1007 491.399 22.6568 491.115 22.1833L492.784 21.0115C492.973 21.26 493.213 21.5441 493.503 21.8637C493.793 22.1892 494.189 22.4704 494.692 22.7071C495.201 22.9498 495.867 23.0711 496.69 23.0711C497.791 23.0711 498.699 22.8048 499.415 22.2721C500.132 21.7394 500.49 20.9049 500.49 19.7686V16.9987H500.312C500.158 17.2472 499.939 17.555 499.655 17.922C499.377 18.283 498.974 18.6056 498.448 18.8896C497.927 19.1678 497.223 19.3069 496.335 19.3069C495.234 19.3069 494.246 19.0465 493.37 18.5257C492.5 18.0048 491.81 17.2472 491.301 16.2529C490.798 15.2586 490.546 14.0512 490.546 12.6308C490.546 11.234 490.792 10.0177 491.283 8.98198C491.775 7.94031 492.458 7.13539 493.334 6.5672C494.21 5.9931 495.222 5.70605 496.37 5.70605C497.258 5.70605 497.962 5.85402 498.483 6.14995C499.01 6.43996 499.412 6.7714 499.691 7.14426C499.975 7.51122 500.194 7.81306 500.348 8.0498H500.561V5.88361H502.585V19.9106C502.585 21.0825 502.318 22.0354 501.786 22.7693C501.259 23.5091 500.549 24.0506 499.655 24.3939C498.767 24.7431 497.779 24.9177 496.69 24.9177ZM496.619 17.4248C497.459 17.4248 498.169 17.2325 498.75 16.8477C499.33 16.463 499.77 15.9097 500.072 15.1876C500.374 14.4655 500.525 13.6014 500.525 12.5953C500.525 11.6128 500.377 10.7457 500.081 9.99405C499.785 9.24239 499.347 8.6535 498.767 8.22736C498.187 7.80122 497.471 7.58816 496.619 7.58816C495.731 7.58816 494.991 7.81306 494.399 8.26287C493.813 8.71268 493.373 9.31638 493.077 10.074C492.787 10.8315 492.642 11.672 492.642 12.5953C492.642 13.5422 492.79 14.3797 493.085 15.1077C493.387 15.8298 493.831 16.3979 494.417 16.8122C495.009 17.2206 495.743 17.4248 496.619 17.4248Z" fill="black"/>
<path d="M472.821 19.8041C471.507 19.8041 470.374 19.5141 469.421 18.934C468.474 18.3481 467.743 17.5313 467.228 16.4838C466.719 15.4302 466.464 14.2051 466.464 12.8083C466.464 11.4115 466.719 10.1805 467.228 9.11514C467.743 8.04389 468.459 7.20937 469.376 6.61159C470.3 6.0079 471.377 5.70605 472.608 5.70605C473.318 5.70605 474.019 5.82443 474.712 6.06117C475.404 6.29791 476.035 6.68262 476.603 7.21529C477.171 7.74204 477.624 8.44043 477.961 9.31046C478.299 10.1805 478.467 11.2517 478.467 12.5242V13.412H467.956V11.6009H476.337C476.337 10.8315 476.183 10.145 475.875 9.54128C475.573 8.93759 475.141 8.46114 474.579 8.11195C474.022 7.76275 473.365 7.58816 472.608 7.58816C471.773 7.58816 471.051 7.79531 470.442 8.20961C469.838 8.61799 469.373 9.15066 469.048 9.80762C468.722 10.4646 468.56 11.1689 468.56 11.9205V13.1279C468.56 14.1578 468.737 15.0307 469.092 15.7469C469.453 16.4571 469.953 16.9987 470.593 17.3715C471.232 17.7385 471.975 17.922 472.821 17.922C473.371 17.922 473.868 17.845 474.312 17.6911C474.762 17.5313 475.15 17.2946 475.475 16.9809C475.801 16.6613 476.052 16.2648 476.23 15.7913L478.254 16.3595C478.041 17.046 477.683 17.6497 477.18 18.1705C476.677 18.6855 476.055 19.0879 475.316 19.3779C474.576 19.662 473.744 19.8041 472.821 19.8041Z" fill="black"/>
<path d="M453.178 11.3166V19.5197H451.083V1.33789H453.178V8.01403H453.356C453.675 7.30972 454.155 6.75041 454.794 6.33612C455.439 5.9159 456.297 5.70579 457.369 5.70579C458.298 5.70579 459.112 5.89222 459.81 6.26509C460.508 6.63204 461.05 7.19727 461.435 7.96076C461.825 8.71834 462.021 9.68306 462.021 10.8549V19.5197H459.925V10.997C459.925 9.91389 459.644 9.07641 459.082 8.48455C458.526 7.88678 457.753 7.58789 456.765 7.58789C456.078 7.58789 455.463 7.7329 454.918 8.02291C454.38 8.31292 453.954 8.73609 453.64 9.29244C453.332 9.84878 453.178 10.5235 453.178 11.3166Z" fill="black"/>
<path d="M446.389 5.88326V7.65882H439.322V5.88326H446.389ZM441.381 2.61621H443.477V15.6134C443.477 16.2052 443.562 16.6491 443.734 16.945C443.912 17.2351 444.137 17.4304 444.409 17.531C444.687 17.6257 444.98 17.673 445.288 17.673C445.519 17.673 445.708 17.6612 445.856 17.6375C446.004 17.6079 446.122 17.5843 446.211 17.5665L446.637 19.4486C446.495 19.5019 446.297 19.5551 446.042 19.6084C445.788 19.6676 445.465 19.6972 445.075 19.6972C444.483 19.6972 443.903 19.5699 443.335 19.3154C442.772 19.0609 442.305 18.6733 441.932 18.1524C441.565 17.6316 441.381 16.9746 441.381 16.1816V2.61621Z" fill="black"/>
<path d="M418.398 11.3168V19.52H416.303V5.88361H418.327V8.01429H418.504C418.824 7.32182 419.309 6.76548 419.96 6.34526C420.611 5.91912 421.452 5.70605 422.482 5.70605C423.405 5.70605 424.213 5.89545 424.905 6.27424C425.598 6.64711 426.136 7.21529 426.521 7.97878C426.906 8.73636 427.098 9.69516 427.098 10.8552V19.52H425.003V10.9972C425.003 9.92599 424.725 9.09147 424.169 8.4937C423.612 7.89 422.849 7.58816 421.878 7.58816C421.209 7.58816 420.611 7.73316 420.085 8.02317C419.564 8.31318 419.153 8.73636 418.851 9.2927C418.549 9.84905 418.398 10.5238 418.398 11.3168Z" fill="black"/>
<path d="M409.12 19.5195V5.88317H411.215V19.5195H409.12ZM410.185 3.61044C409.777 3.61044 409.425 3.47135 409.129 3.19318C408.839 2.91501 408.694 2.58061 408.694 2.18999C408.694 1.79936 408.839 1.46496 409.129 1.18679C409.425 0.908617 409.777 0.769531 410.185 0.769531C410.594 0.769531 410.943 0.908617 411.233 1.18679C411.529 1.46496 411.677 1.79936 411.677 2.18999C411.677 2.58061 411.529 2.91501 411.233 3.19318C410.943 3.47135 410.594 3.61044 410.185 3.61044Z" fill="black"/>
<path d="M389.211 19.8038C388.074 19.8038 387.071 19.5168 386.201 18.9426C385.331 18.3626 384.65 17.5459 384.159 16.4924C383.668 15.4329 383.422 14.1812 383.422 12.737C383.422 11.3047 383.668 10.0618 384.159 9.00835C384.65 7.95484 385.334 7.14104 386.21 6.56694C387.086 5.99284 388.098 5.70579 389.246 5.70579C390.134 5.70579 390.835 5.85375 391.35 6.14968C391.871 6.43969 392.268 6.77113 392.54 7.144C392.818 7.51095 393.034 7.8128 393.188 8.04954H393.366V1.33789H395.461V19.5197H393.437V17.4245H393.188C393.034 17.6731 392.815 17.9868 392.531 18.3656C392.247 18.7385 391.842 19.0729 391.315 19.3688C390.788 19.6588 390.087 19.8038 389.211 19.8038ZM389.495 17.9217C390.335 17.9217 391.045 17.7027 391.625 17.2647C392.206 16.8208 392.646 16.2083 392.948 15.427C393.25 14.6399 393.401 13.7314 393.401 12.7015C393.401 11.6835 393.253 10.7928 392.957 10.0293C392.661 9.25988 392.223 8.66211 391.643 8.23597C391.063 7.80392 390.347 7.58789 389.495 7.58789C388.607 7.58789 387.867 7.81576 387.275 8.27148C386.689 8.7213 386.248 9.33387 385.953 10.1092C385.663 10.8786 385.518 11.7427 385.518 12.7015C385.518 13.6722 385.665 14.554 385.961 15.3471C386.263 16.1343 386.707 16.7617 387.293 17.2292C387.885 17.6909 388.619 17.9217 389.495 17.9217Z" fill="black"/>
<path d="M373.978 19.8041C372.664 19.8041 371.531 19.5141 370.578 18.934C369.631 18.3481 368.9 17.5313 368.385 16.4838C367.876 15.4302 367.622 14.2051 367.622 12.8083C367.622 11.4115 367.876 10.1805 368.385 9.11514C368.9 8.04389 369.616 7.20937 370.534 6.61159C371.457 6.0079 372.534 5.70605 373.765 5.70605C374.475 5.70605 375.177 5.82443 375.869 6.06117C376.562 6.29791 377.192 6.68262 377.76 7.21529C378.328 7.74204 378.781 8.44043 379.118 9.31046C379.456 10.1805 379.624 11.2517 379.624 12.5242V13.412H369.113V11.6009H377.494C377.494 10.8315 377.34 10.145 377.032 9.54128C376.73 8.93759 376.298 8.46114 375.736 8.11195C375.18 7.76275 374.523 7.58816 373.765 7.58816C372.931 7.58816 372.208 7.79531 371.599 8.20961C370.995 8.61799 370.531 9.15066 370.205 9.80762C369.879 10.4646 369.717 11.1689 369.717 11.9205V13.1279C369.717 14.1578 369.894 15.0307 370.249 15.7469C370.61 16.4571 371.111 16.9987 371.75 17.3715C372.389 17.7385 373.132 17.922 373.978 17.922C374.529 17.922 375.026 17.845 375.47 17.6911C375.919 17.5313 376.307 17.2946 376.633 16.9809C376.958 16.6613 377.21 16.2648 377.387 15.7913L379.411 16.3595C379.198 17.046 378.84 17.6497 378.337 18.1705C377.834 18.6855 377.213 19.0879 376.473 19.3779C375.733 19.662 374.901 19.8041 373.978 19.8041Z" fill="black"/>
<path d="M363.608 8.93759L361.726 9.47026C361.608 9.15657 361.433 8.85177 361.203 8.55584C360.978 8.25399 360.67 8.00541 360.279 7.8101C359.889 7.61479 359.389 7.51713 358.779 7.51713C357.944 7.51713 357.249 7.70949 356.693 8.09419C356.142 8.47298 355.867 8.95534 355.867 9.54128C355.867 10.0621 356.056 10.4735 356.435 10.7753C356.814 11.0771 357.406 11.3287 358.211 11.5299L360.235 12.0271C361.454 12.323 362.363 12.7758 362.96 13.3854C363.558 13.9891 363.857 14.7674 363.857 15.7203C363.857 16.5015 363.632 17.1999 363.182 17.8154C362.738 18.431 362.117 18.9163 361.318 19.2714C360.519 19.6265 359.59 19.8041 358.53 19.8041C357.139 19.8041 355.988 19.5022 355.077 18.8985C354.165 18.2948 353.588 17.413 353.346 16.2529L355.334 15.7558C355.524 16.4897 355.882 17.0401 356.409 17.407C356.941 17.774 357.637 17.9575 358.495 17.9575C359.471 17.9575 360.247 17.7503 360.821 17.336C361.401 16.9158 361.691 16.4127 361.691 15.8268C361.691 15.3533 361.525 14.9568 361.194 14.6372C360.862 14.3116 360.353 14.069 359.667 13.9092L357.394 13.3765C356.145 13.0806 355.228 12.6219 354.642 12.0004C354.062 11.3731 353.772 10.5889 353.772 9.64782C353.772 8.8784 353.988 8.19777 354.42 7.60591C354.858 7.01406 355.453 6.54945 356.204 6.21209C356.962 5.87473 357.82 5.70605 358.779 5.70605C360.128 5.70605 361.188 6.00198 361.957 6.59384C362.733 7.18569 363.283 7.96694 363.608 8.93759Z" fill="black"/>
<path d="M346.767 13.9439V5.88281H348.862V19.5192H346.767V17.2109H346.625C346.305 17.9034 345.808 18.4923 345.133 18.9776C344.458 19.457 343.606 19.6967 342.576 19.6967C341.724 19.6967 340.966 19.5103 340.304 19.1374C339.641 18.7586 339.12 18.1905 338.741 17.4329C338.362 16.6694 338.173 15.7076 338.173 14.5476V5.88281H340.268V14.4055C340.268 15.3999 340.546 16.1929 341.103 16.7848C341.665 17.3767 342.381 17.6726 343.251 17.6726C343.772 17.6726 344.302 17.5394 344.84 17.2731C345.385 17.0067 345.84 16.5984 346.207 16.0479C346.58 15.4975 346.767 14.7962 346.767 13.9439Z" fill="black"/>
<path d="M325.49 5.88326V7.65882H318.423V5.88326H325.49ZM320.483 2.61621H322.578V15.6134C322.578 16.2052 322.664 16.6491 322.836 16.945C323.013 17.2351 323.238 17.4304 323.51 17.531C323.789 17.6257 324.081 17.673 324.389 17.673C324.62 17.673 324.809 17.6612 324.957 17.6375C325.105 17.6079 325.224 17.5843 325.313 17.5665L325.739 19.4486C325.597 19.5019 325.398 19.5551 325.144 19.6084C324.889 19.6676 324.567 19.6972 324.176 19.6972C323.584 19.6972 323.004 19.5699 322.436 19.3154C321.874 19.0609 321.406 18.6733 321.033 18.1524C320.666 17.6316 320.483 16.9746 320.483 16.1816V2.61621Z" fill="black"/>
<path d="M305.781 11.3168V19.52H303.686V5.88361H305.71V8.01429H305.887C306.207 7.32182 306.692 6.76548 307.343 6.34526C307.994 5.91912 308.835 5.70605 309.865 5.70605C310.788 5.70605 311.596 5.89545 312.288 6.27424C312.981 6.64711 313.519 7.21529 313.904 7.97878C314.289 8.73636 314.481 9.69516 314.481 10.8552V19.52H312.386V10.9972C312.386 9.92599 312.108 9.09147 311.551 8.4937C310.995 7.89 310.231 7.58816 309.261 7.58816C308.592 7.58816 307.994 7.73316 307.468 8.02317C306.947 8.31318 306.535 8.73636 306.233 9.2927C305.932 9.84905 305.781 10.5238 305.781 11.3168Z" fill="black"/>
<path d="M296.503 13.9439V5.88281H298.598V19.5192H296.503V17.2109H296.361C296.041 17.9034 295.544 18.4923 294.869 18.9776C294.195 19.457 293.342 19.6967 292.313 19.6967C291.46 19.6967 290.703 19.5103 290.04 19.1374C289.377 18.7586 288.856 18.1905 288.477 17.4329C288.099 16.6694 287.909 15.7076 287.909 14.5476V5.88281H290.004V14.4055C290.004 15.3999 290.283 16.1929 290.839 16.7848C291.401 17.3767 292.117 17.6726 292.987 17.6726C293.508 17.6726 294.038 17.5394 294.576 17.2731C295.121 17.0067 295.577 16.5984 295.944 16.0479C296.317 15.4975 296.503 14.7962 296.503 13.9439Z" fill="black"/>
<path d="M277.282 19.8041C276.051 19.8041 274.971 19.5111 274.042 18.9252C273.118 18.3392 272.396 17.5195 271.875 16.466C271.36 15.4125 271.103 14.1814 271.103 12.7728C271.103 11.3524 271.36 10.1124 271.875 9.053C272.396 7.99358 273.118 7.1709 274.042 6.58496C274.971 5.99902 276.051 5.70605 277.282 5.70605C278.513 5.70605 279.59 5.99902 280.514 6.58496C281.443 7.1709 282.165 7.99358 282.68 9.053C283.201 10.1124 283.461 11.3524 283.461 12.7728C283.461 14.1814 283.201 15.4125 282.68 16.466C282.165 17.5195 281.443 18.3392 280.514 18.9252C279.59 19.5111 278.513 19.8041 277.282 19.8041ZM277.282 17.922C278.217 17.922 278.987 17.6823 279.59 17.2029C280.194 16.7235 280.641 16.0931 280.931 15.3119C281.221 14.5306 281.366 13.6843 281.366 12.7728C281.366 11.8614 281.221 11.012 280.931 10.2249C280.641 9.43771 280.194 8.80146 279.59 8.31614C278.987 7.83082 278.217 7.58816 277.282 7.58816C276.347 7.58816 275.577 7.83082 274.974 8.31614C274.37 8.80146 273.923 9.43771 273.633 10.2249C273.343 11.012 273.198 11.8614 273.198 12.7728C273.198 13.6843 273.343 14.5306 273.633 15.3119C273.923 16.0931 274.37 16.7235 274.974 17.2029C275.577 17.6823 276.347 17.922 277.282 17.922Z" fill="black"/>
<path d="M262.067 19.8041C260.789 19.8041 259.688 19.5022 258.765 18.8985C257.841 18.2948 257.131 17.4633 256.634 16.4039C256.137 15.3444 255.888 14.1341 255.888 12.7728C255.888 11.3879 256.143 10.1657 256.652 9.10627C257.167 8.04093 257.883 7.20937 258.8 6.61159C259.723 6.0079 260.801 5.70605 262.032 5.70605C262.99 5.70605 263.855 5.88361 264.624 6.23872C265.393 6.59384 266.024 7.091 266.515 7.7302C267.006 8.36941 267.311 9.11514 267.429 9.96742H265.334C265.174 9.34597 264.819 8.79554 264.269 8.31614C263.724 7.83082 262.99 7.58816 262.067 7.58816C261.25 7.58816 260.534 7.80122 259.919 8.22736C259.309 8.64758 258.833 9.24239 258.489 10.0118C258.152 10.7753 257.983 11.672 257.983 12.7018C257.983 13.7553 258.149 14.6727 258.48 15.4539C258.818 16.2352 259.291 16.8418 259.901 17.2739C260.517 17.7059 261.239 17.922 262.067 17.922C262.612 17.922 263.106 17.8273 263.55 17.6379C263.994 17.4485 264.369 17.1762 264.677 16.8211C264.985 16.466 265.204 16.0399 265.334 15.5427H267.429C267.311 16.3476 267.018 17.0726 266.55 17.7178C266.089 18.357 265.476 18.866 264.713 19.2448C263.955 19.6176 263.073 19.8041 262.067 19.8041Z" fill="black"/>
<path d="M246.852 19.8041C245.574 19.8041 244.473 19.5022 243.55 18.8985C242.626 18.2948 241.916 17.4633 241.419 16.4039C240.922 15.3444 240.673 14.1341 240.673 12.7728C240.673 11.3879 240.928 10.1657 241.437 9.10627C241.952 8.04093 242.668 7.20937 243.585 6.61159C244.509 6.0079 245.586 5.70605 246.817 5.70605C247.776 5.70605 248.64 5.88361 249.409 6.23872C250.179 6.59384 250.809 7.091 251.3 7.7302C251.791 8.36941 252.096 9.11514 252.215 9.96742H250.119C249.96 9.34597 249.604 8.79554 249.054 8.31614C248.51 7.83082 247.776 7.58816 246.852 7.58816C246.036 7.58816 245.319 7.80122 244.704 8.22736C244.094 8.64758 243.618 9.24239 243.275 10.0118C242.937 10.7753 242.768 11.672 242.768 12.7018C242.768 13.7553 242.934 14.6727 243.266 15.4539C243.603 16.2352 244.077 16.8418 244.686 17.2739C245.302 17.7059 246.024 17.922 246.852 17.922C247.397 17.922 247.891 17.8273 248.335 17.6379C248.779 17.4485 249.155 17.1762 249.462 16.8211C249.77 16.466 249.989 16.0399 250.119 15.5427H252.215C252.096 16.3476 251.803 17.0726 251.336 17.7178C250.874 18.357 250.261 18.866 249.498 19.2448C248.74 19.6176 247.858 19.8041 246.852 19.8041Z" fill="black"/>
<path d="M229.988 19.8396C229.124 19.8396 228.34 19.6768 227.636 19.3513C226.931 19.0199 226.372 18.5434 225.958 17.922C225.544 17.2946 225.336 16.537 225.336 15.6492C225.336 14.868 225.49 14.2347 225.798 13.7494C226.106 13.2581 226.517 12.8734 227.032 12.5953C227.547 12.3171 228.115 12.1099 228.737 11.9738C229.364 11.8318 229.994 11.7193 230.628 11.6365C231.456 11.5299 232.128 11.45 232.643 11.3967C233.164 11.3376 233.542 11.2399 233.779 11.1038C234.022 10.9677 234.143 10.7309 234.143 10.3936V10.3225C234.143 9.44658 233.904 8.76595 233.424 8.28063C232.951 7.79531 232.232 7.55264 231.267 7.55264C230.267 7.55264 229.482 7.77163 228.914 8.20961C228.346 8.64758 227.947 9.11514 227.716 9.6123L225.727 8.90208C226.082 8.07348 226.556 7.42835 227.148 6.96671C227.745 6.49914 228.396 6.17362 229.101 5.99014C229.811 5.80075 230.509 5.70605 231.196 5.70605C231.634 5.70605 232.137 5.75932 232.705 5.86585C233.279 5.96647 233.833 6.17658 234.365 6.49618C234.904 6.81578 235.351 7.29815 235.706 7.94327C236.061 8.58839 236.238 9.4525 236.238 10.5356V19.52H234.143V17.6734H234.037C233.895 17.9693 233.658 18.286 233.326 18.6233C232.995 18.9607 232.554 19.2477 232.004 19.4845C231.453 19.7212 230.782 19.8396 229.988 19.8396ZM230.308 17.9575C231.137 17.9575 231.835 17.7947 232.403 17.4692C232.977 17.1437 233.409 16.7235 233.699 16.2085C233.995 15.6936 234.143 15.1521 234.143 14.5839V12.6663C234.054 12.7728 233.859 12.8705 233.557 12.9593C233.261 13.0421 232.918 13.1161 232.527 13.1812C232.143 13.2404 231.767 13.2936 231.4 13.341C231.039 13.3824 230.746 13.4179 230.521 13.4475C229.977 13.5186 229.468 13.634 228.994 13.7938C228.527 13.9476 228.148 14.1814 227.858 14.4951C227.574 14.8029 227.432 15.2231 227.432 15.7558C227.432 16.4838 227.701 17.0342 228.239 17.407C228.784 17.774 229.473 17.9575 230.308 17.9575Z" fill="black"/>
<path d="M207.143 19.5194V5.88299H209.167V7.94265H209.309C209.557 7.26793 210.007 6.72047 210.658 6.30025C211.309 5.88003 212.043 5.66992 212.86 5.66992C213.014 5.66992 213.206 5.67288 213.437 5.6788C213.668 5.68472 213.842 5.6936 213.961 5.70543V7.83612C213.89 7.81836 213.727 7.79173 213.472 7.75622C213.224 7.71479 212.961 7.69407 212.682 7.69407C212.019 7.69407 211.428 7.83316 210.907 8.11133C210.392 8.38358 209.983 8.76237 209.682 9.24769C209.386 9.7271 209.238 10.2746 209.238 10.8901V19.5194H207.143Z" fill="black"/>
<path d="M199.96 13.9439V5.88281H202.055V19.5192H199.96V17.2109H199.818C199.498 17.9034 199.001 18.4923 198.326 18.9776C197.652 19.457 196.799 19.6967 195.77 19.6967C194.917 19.6967 194.16 19.5103 193.497 19.1374C192.834 18.7586 192.313 18.1905 191.934 17.4329C191.556 16.6694 191.366 15.7076 191.366 14.5476V5.88281H193.461V14.4055C193.461 15.3999 193.74 16.1929 194.296 16.7848C194.858 17.3767 195.574 17.6726 196.444 17.6726C196.965 17.6726 197.495 17.5394 198.033 17.2731C198.578 17.0067 199.034 16.5984 199.401 16.0479C199.774 15.4975 199.96 14.7962 199.96 13.9439Z" fill="black"/>
<path d="M180.739 19.8041C179.508 19.8041 178.428 19.5111 177.499 18.9252C176.575 18.3392 175.853 17.5195 175.332 16.466C174.818 15.4125 174.56 14.1814 174.56 12.7728C174.56 11.3524 174.818 10.1124 175.332 9.053C175.853 7.99358 176.575 7.1709 177.499 6.58496C178.428 5.99902 179.508 5.70605 180.739 5.70605C181.97 5.70605 183.047 5.99902 183.971 6.58496C184.9 7.1709 185.622 7.99358 186.137 9.053C186.658 10.1124 186.918 11.3524 186.918 12.7728C186.918 14.1814 186.658 15.4125 186.137 16.466C185.622 17.5195 184.9 18.3392 183.971 18.9252C183.047 19.5111 181.97 19.8041 180.739 19.8041ZM180.739 17.922C181.674 17.922 182.444 17.6823 183.047 17.2029C183.651 16.7235 184.098 16.0931 184.388 15.3119C184.678 14.5306 184.823 13.6843 184.823 12.7728C184.823 11.8614 184.678 11.012 184.388 10.2249C184.098 9.43771 183.651 8.80146 183.047 8.31614C182.444 7.83082 181.674 7.58816 180.739 7.58816C179.804 7.58816 179.034 7.83082 178.431 8.31614C177.827 8.80146 177.38 9.43771 177.09 10.2249C176.8 11.012 176.655 11.8614 176.655 12.7728C176.655 13.6843 176.8 14.5306 177.09 15.3119C177.38 16.0931 177.827 16.7235 178.431 17.2029C179.034 17.6823 179.804 17.922 180.739 17.922Z" fill="black"/>
<path d="M161.871 24.6328C161.516 24.6328 161.199 24.6032 160.921 24.544C160.643 24.4908 160.45 24.4375 160.344 24.3842L160.876 22.5376C161.385 22.6679 161.835 22.7152 162.226 22.6797C162.617 22.6442 162.963 22.4696 163.265 22.1559C163.572 21.8481 163.854 21.348 164.108 20.6555L164.499 19.5902L159.456 5.88281H161.729L165.493 16.7493H165.635L169.399 5.88281H171.672L165.884 21.5078C165.623 22.2121 165.301 22.7951 164.916 23.2567C164.531 23.7243 164.084 24.0706 163.575 24.2955C163.072 24.5204 162.504 24.6328 161.871 24.6328Z" fill="black"/>
<path d="M138.315 11.3166V19.5197H136.22V1.33789H138.315V8.01403H138.492C138.812 7.30972 139.291 6.75041 139.931 6.33612C140.576 5.9159 141.434 5.70579 142.505 5.70579C143.434 5.70579 144.248 5.89222 144.947 6.26509C145.645 6.63204 146.187 7.19727 146.571 7.96076C146.962 8.71834 147.157 9.68306 147.157 10.8549V19.5197H145.062V10.997C145.062 9.91389 144.781 9.07641 144.219 8.48455C143.662 7.88678 142.89 7.58789 141.902 7.58789C141.215 7.58789 140.599 7.7329 140.055 8.02291C139.516 8.31292 139.09 8.73609 138.777 9.29244C138.469 9.84878 138.315 10.5235 138.315 11.3166Z" fill="black"/>
<path d="M131.525 5.88326V7.65882H124.458V5.88326H131.525ZM126.518 2.61621H128.613V15.6134C128.613 16.2052 128.699 16.6491 128.871 16.945C129.048 17.2351 129.273 17.4304 129.546 17.531C129.824 17.6257 130.117 17.673 130.424 17.673C130.655 17.673 130.845 17.6612 130.993 17.6375C131.141 17.6079 131.259 17.5843 131.348 17.5665L131.774 19.4486C131.632 19.5019 131.434 19.5551 131.179 19.6084C130.925 19.6676 130.602 19.6972 130.211 19.6972C129.619 19.6972 129.039 19.5699 128.471 19.3154C127.909 19.0609 127.441 18.6733 127.069 18.1524C126.702 17.6316 126.518 16.9746 126.518 16.1816V2.61621Z" fill="black"/>
<path d="M118.412 19.5195V5.88317H120.507V19.5195H118.412ZM119.477 3.61044C119.069 3.61044 118.717 3.47135 118.421 3.19318C118.131 2.91501 117.986 2.58061 117.986 2.18999C117.986 1.79936 118.131 1.46496 118.421 1.18679C118.717 0.908617 119.069 0.769531 119.477 0.769531C119.886 0.769531 120.235 0.908617 120.525 1.18679C120.821 1.46496 120.969 1.79936 120.969 2.18999C120.969 2.58061 120.821 2.91501 120.525 3.19318C120.235 3.47135 119.886 3.61044 119.477 3.61044Z" fill="black"/>
<path d="M99.939 19.5192L95.7842 5.88281H97.9859L100.933 16.3232H101.075L103.987 5.88281H106.225L109.101 16.2876H109.243L112.19 5.88281H114.392L110.237 19.5192H108.178L105.195 9.04332H104.982L101.999 19.5192H99.939Z" fill="black"/>
<path d="M74.7895 11.3168V19.52H72.6943V5.88361H74.7185V8.01429H74.896C75.2156 7.32182 75.701 6.76548 76.352 6.34526C77.0031 5.91912 77.8435 5.70605 78.8733 5.70605C79.7966 5.70605 80.6045 5.89545 81.297 6.27424C81.9894 6.64711 82.528 7.21529 82.9127 7.97878C83.2974 8.73636 83.4898 9.69516 83.4898 10.8552V19.52H81.3946V10.9972C81.3946 9.92599 81.1164 9.09147 80.5601 8.4937C80.0038 7.89 79.2403 7.58816 78.2696 7.58816C77.6008 7.58816 77.0031 7.73316 76.4763 8.02317C75.9555 8.31318 75.5441 8.73636 75.2423 9.2927C74.9404 9.84905 74.7895 10.5238 74.7895 11.3168Z" fill="black"/>
<path d="M65.5116 19.5195V5.88317H67.6068V19.5195H65.5116ZM66.5769 3.61044C66.1685 3.61044 65.8164 3.47135 65.5205 3.19318C65.2305 2.91501 65.0854 2.58061 65.0854 2.18999C65.0854 1.79936 65.2305 1.46496 65.5205 1.18679C65.8164 0.908617 66.1685 0.769531 66.5769 0.769531C66.9853 0.769531 67.3345 0.908617 67.6245 1.18679C67.9204 1.46496 68.0684 1.79936 68.0684 2.18999C68.0684 2.58061 67.9204 2.91501 67.6245 3.19318C67.3345 3.47135 66.9853 3.61044 66.5769 3.61044Z" fill="black"/>
<path d="M43.4516 11.3168V19.52H41.3564V5.88361H43.3806V8.01429H43.5582C43.8778 7.32182 44.3631 6.76548 45.0141 6.34526C45.6652 5.91912 46.5056 5.70605 47.5354 5.70605C48.4587 5.70605 49.2666 5.89545 49.9591 6.27424C50.6515 6.64711 51.1901 7.21529 51.5748 7.97878C51.9596 8.73636 52.1519 9.69516 52.1519 10.8552V19.52H50.0567V10.9972C50.0567 9.92599 49.7786 9.09147 49.2222 8.4937C48.6659 7.89 47.9024 7.58816 46.9317 7.58816C46.2629 7.58816 45.6652 7.73316 45.1384 8.02317C44.6176 8.31318 44.2062 8.73636 43.9044 9.2927C43.6025 9.84905 43.4516 10.5238 43.4516 11.3168Z" fill="black"/>
<path d="M30.3764 24.9177C29.3643 24.9177 28.4943 24.7875 27.7663 24.5271C27.0383 24.2726 26.4317 23.9352 25.9463 23.515C25.4669 23.1007 25.0852 22.6568 24.8011 22.1833L26.4701 21.0115C26.6595 21.26 26.8992 21.5441 27.1892 21.8637C27.4792 22.1892 27.8758 22.4704 28.3789 22.7071C28.8879 22.9498 29.5537 23.0711 30.3764 23.0711C31.4772 23.0711 32.3857 22.8048 33.1019 22.2721C33.818 21.7394 34.1761 20.9049 34.1761 19.7686V16.9987H33.9985C33.8447 17.2472 33.6257 17.555 33.3416 17.922C33.0634 18.283 32.6609 18.6056 32.1342 18.8896C31.6134 19.1678 30.909 19.3069 30.0213 19.3069C28.9204 19.3069 27.932 19.0465 27.0561 18.5257C26.186 18.0048 25.4965 17.2472 24.9875 16.2529C24.4844 15.2586 24.2329 14.0512 24.2329 12.6308C24.2329 11.234 24.4785 10.0177 24.9698 8.98198C25.461 7.94031 26.1446 7.13539 27.0206 6.5672C27.8965 5.9931 28.9086 5.70605 30.0568 5.70605C30.9446 5.70605 31.6489 5.85402 32.1697 6.14995C32.6965 6.43996 33.0989 6.7714 33.3771 7.14426C33.6612 7.51122 33.8802 7.81306 34.034 8.0498H34.2471V5.88361H36.2713V19.9106C36.2713 21.0825 36.0049 22.0354 35.4723 22.7693C34.9455 23.5091 34.2353 24.0506 33.3416 24.3939C32.4538 24.7431 31.4654 24.9177 30.3764 24.9177ZM30.3054 17.4248C31.1458 17.4248 31.856 17.2325 32.436 16.8477C33.0161 16.463 33.457 15.9097 33.7588 15.1876C34.0607 14.4655 34.2116 13.6014 34.2116 12.5953C34.2116 11.6128 34.0636 10.7457 33.7677 9.99405C33.4718 9.24239 33.0338 8.6535 32.4538 8.22736C31.8738 7.80122 31.1576 7.58816 30.3054 7.58816C29.4176 7.58816 28.6778 7.81306 28.0859 8.26287C27.5 8.71268 27.059 9.31638 26.7631 10.074C26.4731 10.8315 26.3281 11.672 26.3281 12.5953C26.3281 13.5422 26.476 14.3797 26.772 15.1077C27.0738 15.8298 27.5177 16.3979 28.1036 16.8122C28.6955 17.2206 29.4294 17.4248 30.3054 17.4248Z" fill="black"/>
<path d="M17.6893 19.5195V5.88317H19.7845V19.5195H17.6893ZM18.7547 3.61044C18.3463 3.61044 17.9941 3.47135 17.6982 3.19318C17.4082 2.91501 17.2632 2.58061 17.2632 2.18999C17.2632 1.79936 17.4082 1.46496 17.6982 1.18679C17.9941 0.908617 18.3463 0.769531 18.7547 0.769531C19.163 0.769531 19.5122 0.908617 19.8022 1.18679C20.0982 1.46496 20.2461 1.79936 20.2461 2.18999C20.2461 2.58061 20.0982 2.91501 19.8022 3.19318C19.5122 3.47135 19.163 3.61044 18.7547 3.61044Z" fill="black"/>
<path d="M10.7244 5.8829C10.6179 4.98328 10.1858 4.28489 9.42827 3.78773C8.67069 3.29057 7.74148 3.04199 6.64063 3.04199C5.8357 3.04199 5.13139 3.1722 4.5277 3.43262C3.92993 3.69303 3.46236 4.05111 3.125 4.50684C2.79356 4.96257 2.62784 5.48044 2.62784 6.06046C2.62784 6.54578 2.74325 6.96304 2.97408 7.31223C3.21082 7.65551 3.51267 7.94256 3.87962 8.17338C4.24657 8.39829 4.63128 8.58472 5.03374 8.73269C5.4362 8.87473 5.80611 8.99015 6.14347 9.07892L7.99006 9.57608C8.46354 9.70037 8.9903 9.87201 9.57031 10.091C10.1563 10.31 10.7156 10.6089 11.2482 10.9877C11.7868 11.3605 12.2307 11.8399 12.5799 12.4259C12.9291 13.0118 13.1037 13.7309 13.1037 14.5832C13.1037 15.5657 12.8462 16.4535 12.3313 17.2465C11.8223 18.0396 11.0766 18.67 10.0941 19.1375C9.11754 19.6051 7.93087 19.8389 6.53409 19.8389C5.23201 19.8389 4.10452 19.6288 3.15163 19.2085C2.20466 18.7883 1.45893 18.2024 0.914419 17.4507C0.37583 16.6991 0.0710227 15.8261 0 14.8318H2.27273C2.33191 15.5183 2.56274 16.0865 2.9652 16.5363C3.37358 16.9802 3.8885 17.3116 4.50994 17.5306C5.13731 17.7437 5.81203 17.8502 6.53409 17.8502C7.37453 17.8502 8.12914 17.7141 8.79794 17.4419C9.46674 17.1637 9.99645 16.779 10.3871 16.2877C10.7777 15.7906 10.973 15.2106 10.973 14.5477C10.973 13.944 10.8043 13.4527 10.467 13.074C10.1296 12.6952 9.68572 12.3874 9.1353 12.1507C8.58487 11.9139 7.99006 11.7068 7.35085 11.5292L5.11364 10.89C3.69318 10.4816 2.56866 9.89865 1.74006 9.14107C0.911459 8.38349 0.49716 7.39213 0.49716 6.16699C0.49716 5.149 0.772373 4.26122 1.3228 3.50364C1.87914 2.74015 2.62488 2.14829 3.56001 1.72807C4.50107 1.30194 5.55161 1.08887 6.71165 1.08887C7.88352 1.08887 8.92519 1.29898 9.83665 1.71919C10.7481 2.13349 11.4702 2.70167 12.0028 3.42374C12.5414 4.1458 12.8255 4.96552 12.8551 5.8829H10.7244Z" fill="black"/>
</svg>
