<svg width="384" height="25" viewBox="0 0 384 25" fill="none" xmlns="http://www.w3.org/2000/svg">
<path d="M383.228 8.93753L381.346 9.4702C381.228 9.15651 381.053 8.85171 380.822 8.55578C380.598 8.25393 380.29 8.00535 379.899 7.81004C379.509 7.61473 379.008 7.51707 378.399 7.51707C377.564 7.51707 376.869 7.70943 376.312 8.09413C375.762 8.47292 375.487 8.95528 375.487 9.54122C375.487 10.0621 375.676 10.4734 376.055 10.7752C376.434 11.0771 377.026 11.3286 377.831 11.5299L379.855 12.027C381.074 12.3229 381.982 12.7757 382.58 13.3853C383.178 13.989 383.477 14.7673 383.477 15.7202C383.477 16.5014 383.252 17.1998 382.802 17.8154C382.358 18.4309 381.737 18.9162 380.938 19.2713C380.139 19.6264 379.21 19.804 378.15 19.804C376.759 19.804 375.608 19.5022 374.697 18.8985C373.785 18.2948 373.208 17.4129 372.966 16.2529L374.954 15.7557C375.144 16.4896 375.502 17.04 376.028 17.407C376.561 17.7739 377.257 17.9574 378.115 17.9574C379.091 17.9574 379.867 17.7503 380.441 17.336C381.021 16.9157 381.311 16.4127 381.311 15.8267C381.311 15.3532 381.145 14.9567 380.814 14.6371C380.482 14.3116 379.973 14.0689 379.287 13.9091L377.014 13.3764C375.765 13.0805 374.848 12.6218 374.262 12.0004C373.682 11.373 373.392 10.5888 373.392 9.64775C373.392 8.87834 373.608 8.19771 374.04 7.60585C374.478 7.01399 375.073 6.54939 375.824 6.21203C376.582 5.87467 377.44 5.70599 378.399 5.70599C379.748 5.70599 380.808 6.00192 381.577 6.59378C382.352 7.18563 382.903 7.96688 383.228 8.93753Z" fill="black"/>
<path d="M368.482 1.33807V19.5199H366.386V1.33807H368.482Z" fill="black"/>
<path d="M355.062 19.8395C354.198 19.8395 353.414 19.6768 352.71 19.3512C352.005 19.0198 351.446 18.5434 351.032 17.9219C350.618 17.2945 350.41 16.537 350.41 15.6492C350.41 14.8679 350.564 14.2346 350.872 13.7493C351.18 13.2581 351.591 12.8734 352.106 12.5952C352.621 12.317 353.189 12.1099 353.811 11.9737C354.438 11.8317 355.068 11.7193 355.702 11.6364C356.53 11.5299 357.202 11.45 357.717 11.3967C358.238 11.3375 358.616 11.2398 358.853 11.1037C359.096 10.9676 359.217 10.7309 359.217 10.3935V10.3225C359.217 9.44652 358.978 8.76589 358.498 8.28057C358.025 7.79525 357.306 7.55258 356.341 7.55258C355.341 7.55258 354.556 7.77157 353.988 8.20954C353.42 8.64752 353.02 9.11508 352.79 9.61224L350.801 8.90202C351.156 8.07342 351.63 7.42829 352.221 6.96665C352.819 6.49908 353.47 6.17356 354.175 5.99008C354.885 5.80069 355.583 5.70599 356.27 5.70599C356.708 5.70599 357.211 5.75926 357.779 5.86579C358.353 5.96641 358.906 6.17652 359.439 6.49612C359.978 6.81572 360.425 7.29809 360.78 7.94321C361.135 8.58833 361.312 9.45244 361.312 10.5355V19.5199H359.217V17.6733H359.111C358.969 17.9692 358.732 18.2859 358.4 18.6233C358.069 18.9606 357.628 19.2477 357.078 19.4844C356.527 19.7211 355.855 19.8395 355.062 19.8395ZM355.382 17.9574C356.211 17.9574 356.909 17.7947 357.477 17.4691C358.051 17.1436 358.483 16.7234 358.773 16.2085C359.069 15.6936 359.217 15.152 359.217 14.5838V12.6662C359.128 12.7728 358.933 12.8704 358.631 12.9592C358.335 13.042 357.992 13.116 357.601 13.1811C357.217 13.2403 356.841 13.2936 356.474 13.3409C356.113 13.3824 355.82 13.4179 355.595 13.4475C355.051 13.5185 354.542 13.6339 354.068 13.7937C353.6 13.9476 353.222 14.1814 352.932 14.4951C352.648 14.8028 352.506 15.223 352.506 15.7557C352.506 16.4837 352.775 17.0341 353.313 17.407C353.858 17.7739 354.547 17.9574 355.382 17.9574Z" fill="black"/>
<path d="M343.867 19.5199V5.88353H345.962V19.5199H343.867ZM344.932 3.61081C344.524 3.61081 344.172 3.47172 343.876 3.19355C343.586 2.91538 343.441 2.58098 343.441 2.19035C343.441 1.79973 343.586 1.46533 343.876 1.18716C344.172 0.908983 344.524 0.769897 344.932 0.769897C345.341 0.769897 345.69 0.908983 345.98 1.18716C346.276 1.46533 346.424 1.79973 346.424 2.19035C346.424 2.58098 346.276 2.91538 345.98 3.19355C345.69 3.47172 345.341 3.61081 344.932 3.61081Z" fill="black"/>
<path d="M339.465 5.8835V7.65907H332.399V5.8835H339.465ZM334.458 2.61646H336.553V15.6136C336.553 16.2055 336.639 16.6494 336.811 16.9453C336.989 17.2353 337.213 17.4306 337.486 17.5312C337.764 17.6259 338.057 17.6733 338.365 17.6733C338.595 17.6733 338.785 17.6614 338.933 17.6378C339.081 17.6082 339.199 17.5845 339.288 17.5667L339.714 19.4488C339.572 19.5021 339.374 19.5554 339.119 19.6086C338.865 19.6678 338.542 19.6974 338.152 19.6974C337.56 19.6974 336.98 19.5702 336.411 19.3157C335.849 19.0612 335.382 18.6735 335.009 18.1527C334.642 17.6318 334.458 16.9749 334.458 16.1818V2.61646Z" fill="black"/>
<path d="M319.756 11.3168V19.5199H317.661V5.88355H319.685V8.01423H319.863C320.182 7.32176 320.668 6.76542 321.319 6.3452C321.97 5.91906 322.81 5.70599 323.84 5.70599C324.763 5.70599 325.571 5.89539 326.264 6.27417C326.956 6.64704 327.495 7.21523 327.879 7.97872C328.264 8.7363 328.456 9.6951 328.456 10.8551V19.5199H326.361V10.9972C326.361 9.92593 326.083 9.09141 325.527 8.49364C324.97 7.88994 324.207 7.58809 323.236 7.58809C322.567 7.58809 321.97 7.7331 321.443 8.02311C320.922 8.31312 320.511 8.7363 320.209 9.29264C319.907 9.84899 319.756 10.5237 319.756 11.3168Z" fill="black"/>
<path d="M307.577 19.804C306.264 19.804 305.13 19.514 304.177 18.934C303.23 18.348 302.499 17.5313 301.984 16.4837C301.475 15.4302 301.221 14.205 301.221 12.8083C301.221 11.4115 301.475 10.1804 301.984 9.11508C302.499 8.04382 303.215 7.20931 304.133 6.61153C305.056 6.00784 306.133 5.70599 307.364 5.70599C308.075 5.70599 308.776 5.82436 309.468 6.06111C310.161 6.29785 310.791 6.68256 311.359 7.21523C311.928 7.74198 312.38 8.44037 312.718 9.3104C313.055 10.1804 313.224 11.2517 313.224 12.5242V13.412H302.712V11.6009H311.093C311.093 10.8315 310.939 10.1449 310.631 9.54122C310.33 8.93753 309.898 8.46108 309.335 8.11189C308.779 7.76269 308.122 7.58809 307.364 7.58809C306.53 7.58809 305.808 7.79524 305.198 8.20954C304.595 8.61792 304.13 9.1506 303.804 9.80756C303.479 10.4645 303.316 11.1688 303.316 11.9205V13.1279C303.316 14.1577 303.494 15.0307 303.849 15.7468C304.21 16.4571 304.71 16.9986 305.349 17.3715C305.988 17.7384 306.731 17.9219 307.577 17.9219C308.128 17.9219 308.625 17.845 309.069 17.6911C309.519 17.5313 309.906 17.2945 310.232 16.9809C310.557 16.6612 310.809 16.2647 310.987 15.7912L313.011 16.3594C312.798 17.046 312.44 17.6496 311.936 18.1705C311.433 18.6854 310.812 19.0879 310.072 19.3779C309.332 19.662 308.501 19.804 307.577 19.804Z" fill="black"/>
<path d="M290.232 19.804C289.096 19.804 288.092 19.5169 287.222 18.9428C286.352 18.3628 285.672 17.5461 285.18 16.4925C284.689 15.4331 284.444 14.1814 284.444 12.7372C284.444 11.3049 284.689 10.062 285.18 9.00853C285.672 7.95503 286.355 7.14122 287.231 6.56712C288.107 5.99302 289.119 5.70597 290.267 5.70597C291.155 5.70597 291.857 5.85394 292.372 6.14986C292.892 6.43987 293.289 6.77131 293.561 7.14418C293.839 7.51113 294.055 7.81298 294.209 8.04972H294.387V1.33807H296.482V19.5199H294.458V17.4247H294.209C294.055 17.6733 293.836 17.987 293.552 18.3658C293.268 18.7386 292.863 19.073 292.336 19.369C291.809 19.659 291.108 19.804 290.232 19.804ZM290.516 17.9219C291.356 17.9219 292.067 17.7029 292.647 17.2649C293.227 16.821 293.668 16.2085 293.97 15.4272C294.271 14.64 294.422 13.7315 294.422 12.7017C294.422 11.6837 294.274 10.793 293.978 10.0295C293.682 9.26007 293.245 8.66229 292.664 8.23616C292.084 7.8041 291.368 7.58807 290.516 7.58807C289.628 7.58807 288.888 7.81594 288.297 8.27167C287.711 8.72148 287.27 9.33405 286.974 10.1094C286.684 10.8788 286.539 11.7429 286.539 12.7017C286.539 13.6724 286.687 14.5542 286.983 15.3473C287.285 16.1345 287.728 16.7618 288.314 17.2294C288.906 17.6911 289.64 17.9219 290.516 17.9219Z" fill="black"/>
<path d="M274.999 19.804C273.685 19.804 272.552 19.514 271.599 18.934C270.652 18.348 269.921 17.5313 269.406 16.4837C268.897 15.4302 268.643 14.205 268.643 12.8083C268.643 11.4115 268.897 10.1804 269.406 9.11508C269.921 8.04382 270.637 7.20931 271.555 6.61153C272.478 6.00784 273.555 5.70599 274.786 5.70599C275.497 5.70599 276.198 5.82436 276.89 6.06111C277.583 6.29785 278.213 6.68256 278.781 7.21523C279.349 7.74198 279.802 8.44037 280.14 9.3104C280.477 10.1804 280.646 11.2517 280.646 12.5242V13.412H270.134V11.6009H278.515C278.515 10.8315 278.361 10.1449 278.053 9.54122C277.751 8.93753 277.319 8.46108 276.757 8.11189C276.201 7.76269 275.544 7.58809 274.786 7.58809C273.952 7.58809 273.23 7.79524 272.62 8.20954C272.016 8.61792 271.552 9.1506 271.226 9.80756C270.901 10.4645 270.738 11.1688 270.738 11.9205V13.1279C270.738 14.1577 270.916 15.0307 271.271 15.7468C271.632 16.4571 272.132 16.9986 272.771 17.3715C273.41 17.7384 274.153 17.9219 274.999 17.9219C275.55 17.9219 276.047 17.845 276.491 17.6911C276.941 17.5313 277.328 17.2945 277.654 16.9809C277.979 16.6612 278.231 16.2647 278.408 15.7912L280.433 16.3594C280.22 17.046 279.861 17.6496 279.358 18.1705C278.855 18.6854 278.234 19.0879 277.494 19.3779C276.754 19.662 275.923 19.804 274.999 19.804Z" fill="black"/>
<path d="M259.145 19.5199V5.88354H261.169V7.9432H261.311C261.56 7.26848 262.01 6.72102 262.661 6.3008C263.312 5.88058 264.046 5.67047 264.863 5.67047C265.016 5.67047 265.209 5.67343 265.44 5.67935C265.67 5.68527 265.845 5.69415 265.963 5.70598V7.83667C265.892 7.81891 265.73 7.79228 265.475 7.75676C265.227 7.71533 264.963 7.69462 264.685 7.69462C264.022 7.69462 263.43 7.83371 262.909 8.11188C262.395 8.38413 261.986 8.76292 261.684 9.24824C261.388 9.72765 261.24 10.2751 261.24 10.8906V19.5199H259.145Z" fill="black"/>
<path d="M254.622 7.01988H252.42C252.29 6.38659 252.062 5.83025 251.736 5.35084C251.417 4.87144 251.026 4.46898 250.564 4.14346C250.109 3.81202 249.603 3.56344 249.046 3.39772C248.49 3.232 247.91 3.14914 247.306 3.14914C246.205 3.14914 245.208 3.42731 244.314 3.98365C243.427 4.54 242.719 5.35972 242.193 6.44282C241.672 7.52591 241.411 8.85463 241.411 10.429C241.411 12.0033 241.672 13.332 242.193 14.4151C242.719 15.4982 243.427 16.3179 244.314 16.8743C245.208 17.4306 246.205 17.7088 247.306 17.7088C247.91 17.7088 248.49 17.6259 249.046 17.4602C249.603 17.2945 250.109 17.0489 250.564 16.7234C251.026 16.3919 251.417 15.9865 251.736 15.5071C252.062 15.0218 252.29 14.4654 252.42 13.8381H254.622C254.456 14.7673 254.154 15.5988 253.716 16.3327C253.278 17.0666 252.734 17.691 252.083 18.206C251.432 18.715 250.701 19.1026 249.89 19.369C249.085 19.6353 248.224 19.7685 247.306 19.7685C245.756 19.7685 244.377 19.3897 243.169 18.6321C241.962 17.8745 241.012 16.7973 240.319 15.4006C239.627 14.0038 239.281 12.3466 239.281 10.429C239.281 8.51135 239.627 6.85416 240.319 5.45738C241.012 4.0606 241.962 2.98342 243.169 2.22584C244.377 1.46827 245.756 1.08948 247.306 1.08948C248.224 1.08948 249.085 1.22265 249.89 1.48898C250.701 1.75532 251.432 2.14594 252.083 2.66086C252.734 3.16985 253.278 3.7913 253.716 4.5252C254.154 5.25318 254.456 6.08474 254.622 7.01988Z" fill="black"/>
<path d="M220.874 19.5199V5.88354H222.898V7.9432H223.04C223.289 7.26848 223.738 6.72102 224.39 6.3008C225.041 5.88058 225.774 5.67047 226.591 5.67047C226.745 5.67047 226.937 5.67343 227.168 5.67935C227.399 5.68527 227.574 5.69415 227.692 5.70598V7.83667C227.621 7.81891 227.458 7.79228 227.204 7.75676C226.955 7.71533 226.692 7.69462 226.414 7.69462C225.751 7.69462 225.159 7.83371 224.638 8.11188C224.123 8.38413 223.715 8.76292 223.413 9.24824C223.117 9.72765 222.969 10.2751 222.969 10.8906V19.5199H220.874Z" fill="black"/>
<path d="M213.691 13.9446V5.88354H215.786V19.5199H213.691V17.2117H213.549C213.23 17.9041 212.732 18.493 212.058 18.9784C211.383 19.4578 210.531 19.6975 209.501 19.6975C208.649 19.6975 207.891 19.511 207.228 19.1382C206.565 18.7594 206.045 18.1912 205.666 17.4336C205.287 16.6701 205.098 15.7084 205.098 14.5483V5.88354H207.193V14.4063C207.193 15.4006 207.471 16.1937 208.027 16.7855C208.589 17.3774 209.306 17.6733 210.176 17.6733C210.696 17.6733 211.226 17.5402 211.765 17.2738C212.309 17.0075 212.765 16.5991 213.132 16.0487C213.505 15.4982 213.691 14.7969 213.691 13.9446Z" fill="black"/>
<path d="M194.47 19.804C193.239 19.804 192.159 19.511 191.23 18.9251C190.307 18.3392 189.584 17.5194 189.064 16.4659C188.549 15.4124 188.291 14.1814 188.291 12.7728C188.291 11.3523 188.549 10.1124 189.064 9.05294C189.584 7.99352 190.307 7.17084 191.23 6.5849C192.159 5.99896 193.239 5.70599 194.47 5.70599C195.701 5.70599 196.778 5.99896 197.702 6.5849C198.631 7.17084 199.353 7.99352 199.868 9.05294C200.389 10.1124 200.649 11.3523 200.649 12.7728C200.649 14.1814 200.389 15.4124 199.868 16.4659C199.353 17.5194 198.631 18.3392 197.702 18.9251C196.778 19.511 195.701 19.804 194.47 19.804ZM194.47 17.9219C195.405 17.9219 196.175 17.6822 196.778 17.2028C197.382 16.7234 197.829 16.0931 198.119 15.3118C198.409 14.5306 198.554 13.6842 198.554 12.7728C198.554 11.8613 198.409 11.012 198.119 10.2248C197.829 9.43765 197.382 8.8014 196.778 8.31608C196.175 7.83076 195.405 7.58809 194.47 7.58809C193.535 7.58809 192.766 7.83076 192.162 8.31608C191.558 8.8014 191.111 9.43765 190.821 10.2248C190.531 11.012 190.386 11.8613 190.386 12.7728C190.386 13.6842 190.531 14.5306 190.821 15.3118C191.111 16.0931 191.558 16.7234 192.162 17.2028C192.766 17.6822 193.535 17.9219 194.47 17.9219Z" fill="black"/>
<path d="M175.602 24.6335C175.247 24.6335 174.93 24.604 174.652 24.5448C174.374 24.4915 174.182 24.4382 174.075 24.385L174.608 22.5384C175.117 22.6686 175.567 22.7159 175.957 22.6804C176.348 22.6449 176.694 22.4703 176.996 22.1566C177.304 21.8489 177.585 21.3487 177.839 20.6563L178.23 19.5909L173.187 5.88354H175.46L179.224 16.75H179.366L183.131 5.88354H185.403L179.615 21.5085C179.355 22.2129 179.032 22.7958 178.647 23.2575C178.263 23.725 177.816 24.0713 177.307 24.2962C176.804 24.5211 176.235 24.6335 175.602 24.6335Z" fill="black"/>
<path d="M152.046 11.3168V19.5199H149.951V1.33807H152.046V8.01421H152.224C152.543 7.3099 153.023 6.7506 153.662 6.3363C154.307 5.91608 155.165 5.70597 156.237 5.70597C157.166 5.70597 157.98 5.89241 158.678 6.26528C159.376 6.63223 159.918 7.19745 160.303 7.96094C160.693 8.71852 160.889 9.68324 160.889 10.8551V19.5199H158.793V10.9972C158.793 9.91407 158.512 9.07659 157.95 8.48474C157.394 7.88696 156.621 7.58807 155.633 7.58807C154.946 7.58807 154.331 7.73308 153.786 8.02309C153.248 8.3131 152.822 8.73628 152.508 9.29262C152.2 9.84896 152.046 10.5237 152.046 11.3168Z" fill="black"/>
<path d="M145.256 5.8835V7.65907H138.19V5.8835H145.256ZM140.249 2.61646H142.345V15.6136C142.345 16.2055 142.43 16.6494 142.602 16.9453C142.78 17.2353 143.004 17.4306 143.277 17.5312C143.555 17.6259 143.848 17.6733 144.156 17.6733C144.386 17.6733 144.576 17.6614 144.724 17.6378C144.872 17.6082 144.99 17.5845 145.079 17.5667L145.505 19.4488C145.363 19.5021 145.165 19.5554 144.91 19.6086C144.656 19.6678 144.333 19.6974 143.943 19.6974C143.351 19.6974 142.771 19.5702 142.202 19.3157C141.64 19.0612 141.173 18.6735 140.8 18.1527C140.433 17.6318 140.249 16.9749 140.249 16.1818V2.61646Z" fill="black"/>
<path d="M132.143 19.5199V5.88353H134.239V19.5199H132.143ZM133.209 3.61081C132.8 3.61081 132.448 3.47172 132.152 3.19355C131.862 2.91538 131.717 2.58098 131.717 2.19035C131.717 1.79973 131.862 1.46533 132.152 1.18716C132.448 0.908983 132.8 0.769897 133.209 0.769897C133.617 0.769897 133.966 0.908983 134.256 1.18716C134.552 1.46533 134.7 1.79973 134.7 2.19035C134.7 2.58098 134.552 2.91538 134.256 3.19355C133.966 3.47172 133.617 3.61081 133.209 3.61081Z" fill="black"/>
<path d="M113.67 19.5199L109.516 5.88354H111.717L114.665 16.3239H114.807L117.719 5.88354H119.956L122.832 16.2884H122.974L125.922 5.88354H128.124L123.969 19.5199H121.909L118.926 9.04406H118.713L115.73 19.5199H113.67Z" fill="black"/>
<path d="M85.8153 24.6335V5.88355H87.8394V8.04974H88.088C88.2419 7.813 88.455 7.51115 88.7272 7.1442C89.0054 6.77133 89.402 6.43989 89.9169 6.14989C90.4377 5.85396 91.142 5.70599 92.0298 5.70599C93.178 5.70599 94.1901 5.99304 95.066 6.56714C95.942 7.14124 96.6255 7.95505 97.1168 9.00855C97.608 10.0621 97.8537 11.305 97.8537 12.7372C97.8537 14.1814 97.608 15.4331 97.1168 16.4926C96.6255 17.5461 95.9449 18.3628 95.0749 18.9429C94.2049 19.517 93.2017 19.804 92.0653 19.804C91.1894 19.804 90.488 19.659 89.9613 19.369C89.4345 19.0731 89.0291 18.7387 88.745 18.3658C88.4609 17.987 88.2419 17.6733 88.088 17.4247H87.9105V24.6335H85.8153ZM87.875 12.7017C87.875 13.7316 88.0259 14.6401 88.3277 15.4272C88.6296 16.2085 89.0705 16.821 89.6505 17.2649C90.2305 17.7029 90.9408 17.9219 91.7812 17.9219C92.6572 17.9219 93.3881 17.6911 93.974 17.2294C94.5659 16.7619 95.0098 16.1345 95.3057 15.3473C95.6076 14.5542 95.7585 13.6724 95.7585 12.7017C95.7585 11.7429 95.6105 10.8788 95.3146 10.1094C95.0246 9.33407 94.5836 8.7215 93.9918 8.27169C93.4059 7.81596 92.669 7.58809 91.7812 7.58809C90.9289 7.58809 90.2128 7.80412 89.6328 8.23618C89.0528 8.66231 88.6148 9.26009 88.3188 10.0295C88.0229 10.793 87.875 11.6837 87.875 12.7017Z" fill="black"/>
<path d="M78.2509 1.33807H80.4526V13.3764C80.4526 14.6193 80.1597 15.7291 79.5737 16.7056C78.9937 17.6763 78.174 18.4427 77.1145 19.005C76.0551 19.5613 74.8122 19.8395 73.3858 19.8395C71.9595 19.8395 70.7166 19.5613 69.6572 19.005C68.5977 18.4427 67.7751 17.6763 67.1891 16.7056C66.6091 15.7291 66.3191 14.6193 66.3191 13.3764V1.33807H68.5208V13.1989C68.5208 14.0867 68.7161 14.8768 69.1067 15.5693C69.4974 16.2558 70.0537 16.7974 70.7758 17.1939C71.5038 17.5845 72.3738 17.7798 73.3858 17.7798C74.3979 17.7798 75.268 17.5845 75.9959 17.1939C76.7239 16.7974 77.2803 16.2558 77.665 15.5693C78.0556 14.8768 78.2509 14.0867 78.2509 13.1989V1.33807Z" fill="black"/>
<path d="M43.9749 11.3168V19.5199H41.8798V5.88355H43.9039V8.01423H44.0815C44.4011 7.32176 44.8864 6.76542 45.5374 6.3452C46.1885 5.91906 47.0289 5.70599 48.0587 5.70599C48.982 5.70599 49.7899 5.89539 50.4824 6.27417C51.1749 6.64704 51.7134 7.21523 52.0981 7.97872C52.4829 8.7363 52.6752 9.6951 52.6752 10.8551V19.5199H50.58V10.9972C50.58 9.92593 50.3019 9.09141 49.7455 8.49364C49.1892 7.88994 48.4257 7.58809 47.455 7.58809C46.7863 7.58809 46.1885 7.7331 45.6617 8.02311C45.1409 8.31312 44.7296 8.7363 44.4277 9.29264C44.1259 9.84899 43.9749 10.5237 43.9749 11.3168Z" fill="black"/>
<path d="M30.8996 24.9176C29.8875 24.9176 29.0175 24.7874 28.2895 24.527C27.5615 24.2725 26.9549 23.9352 26.4695 23.5149C25.9901 23.1006 25.6084 22.6568 25.3243 22.1833L26.9933 21.0114C27.1827 21.26 27.4224 21.5441 27.7124 21.8637C28.0024 22.1892 28.399 22.4703 28.9021 22.7071C29.4111 22.9497 30.0769 23.071 30.8996 23.071C32.0004 23.071 32.9089 22.8047 33.6251 22.272C34.3412 21.7394 34.6993 20.9049 34.6993 19.7685V16.9986H34.5217C34.3678 17.2472 34.1489 17.555 33.8648 17.9219C33.5866 18.2829 33.1841 18.6055 32.6574 18.8896C32.1365 19.1678 31.4322 19.3068 30.5444 19.3068C29.4436 19.3068 28.4552 19.0464 27.5793 18.5256C26.7092 18.0048 26.0197 17.2472 25.5107 16.2529C25.0076 15.2585 24.7561 14.0512 24.7561 12.6307C24.7561 11.2339 25.0017 10.0177 25.493 8.98192C25.9842 7.94025 26.6678 7.13533 27.5437 6.56714C28.4197 5.99304 29.4318 5.70599 30.58 5.70599C31.4678 5.70599 32.1721 5.85396 32.6929 6.14989C33.2196 6.43989 33.6221 6.77133 33.9003 7.1442C34.1844 7.51115 34.4034 7.813 34.5572 8.04974H34.7703V5.88355H36.7944V19.9105C36.7944 21.0824 36.5281 22.0353 35.9955 22.7692C35.4687 23.509 34.7585 24.0506 33.8648 24.3938C32.977 24.743 31.9886 24.9176 30.8996 24.9176ZM30.8285 17.4247C31.669 17.4247 32.3792 17.2324 32.9592 16.8477C33.5392 16.463 33.9802 15.9096 34.282 15.1875C34.5839 14.4655 34.7348 13.6014 34.7348 12.5952C34.7348 11.6127 34.5868 10.7456 34.2909 9.99399C33.995 9.24233 33.557 8.65344 32.977 8.2273C32.397 7.80116 31.6808 7.58809 30.8285 7.58809C29.9408 7.58809 29.2009 7.813 28.6091 8.26281C28.0231 8.71262 27.5822 9.31631 27.2863 10.0739C26.9963 10.8315 26.8513 11.6719 26.8513 12.5952C26.8513 13.5422 26.9992 14.3796 27.2952 15.1076C27.597 15.8297 28.0409 16.3979 28.6268 16.8122C29.2187 17.2206 29.9526 17.4247 30.8285 17.4247Z" fill="black"/>
<path d="M18.2128 19.5199V5.88353H20.3079V19.5199H18.2128ZM19.2781 3.61081C18.8697 3.61081 18.5176 3.47172 18.2216 3.19355C17.9316 2.91538 17.7866 2.58098 17.7866 2.19035C17.7866 1.79973 17.9316 1.46533 18.2216 1.18716C18.5176 0.908983 18.8697 0.769897 19.2781 0.769897C19.6865 0.769897 20.0357 0.908983 20.3257 1.18716C20.6216 1.46533 20.7696 1.79973 20.7696 2.19035C20.7696 2.58098 20.6216 2.91538 20.3257 3.19355C20.0357 3.47172 19.6865 3.61081 19.2781 3.61081Z" fill="black"/>
<path d="M11.2476 5.88351C11.1411 4.98389 10.709 4.2855 9.95146 3.78834C9.19389 3.29118 8.26467 3.0426 7.16382 3.0426C6.35889 3.0426 5.65458 3.17281 5.05089 3.43323C4.45311 3.69364 3.98555 4.05172 3.64819 4.50745C3.31675 4.96318 3.15103 5.48105 3.15103 6.06107C3.15103 6.54639 3.26644 6.96365 3.49727 7.31284C3.73401 7.65612 4.03586 7.94317 4.40281 8.17399C4.76976 8.3989 5.15447 8.58533 5.55693 8.7333C5.95939 8.87534 6.3293 8.99076 6.66666 9.07954L8.51325 9.57669C8.98674 9.70098 9.51349 9.87262 10.0935 10.0916C10.6794 10.3106 11.2387 10.6095 11.7714 10.9883C12.31 11.3611 12.7539 11.8405 13.1031 12.4265C13.4523 13.0124 13.6269 13.7315 13.6269 14.5838C13.6269 15.5663 13.3694 16.4541 12.8545 17.2471C12.3455 18.0402 11.5998 18.6706 10.6173 19.1381C9.64073 19.6057 8.45406 19.8395 7.05728 19.8395C5.7552 19.8395 4.62772 19.6294 3.67483 19.2092C2.72786 18.7889 1.98211 18.203 1.43761 17.4513C0.899018 16.6997 0.594216 15.8267 0.523193 14.8324H2.79592C2.85511 15.5189 3.08593 16.0871 3.48839 16.5369C3.89677 16.9808 4.41169 17.3123 5.03313 17.5312C5.6605 17.7443 6.33522 17.8508 7.05728 17.8508C7.89772 17.8508 8.65234 17.7147 9.32114 17.4425C9.98993 17.1643 10.5196 16.7796 10.9103 16.2883C11.3009 15.7912 11.4962 15.2112 11.4962 14.5483C11.4962 13.9446 11.3275 13.4534 10.9902 13.0746C10.6528 12.6958 10.2089 12.388 9.65849 12.1513C9.10807 11.9145 8.51325 11.7074 7.87405 11.5298L5.63683 10.8906C4.21637 10.4822 3.09185 9.89926 2.26325 9.14168C1.43465 8.3841 1.02035 7.39275 1.02035 6.1676C1.02035 5.14961 1.29557 4.26183 1.84599 3.50425C2.40234 2.74076 3.14807 2.1489 4.08321 1.72868C5.02426 1.30255 6.0748 1.08948 7.23484 1.08948C8.40672 1.08948 9.44838 1.29959 10.3598 1.7198C11.2713 2.1341 11.9934 2.70228 12.526 3.42435C13.0646 4.14641 13.3487 4.96613 13.3783 5.88351H11.2476Z" fill="black"/>
</svg>
