<svg width="233" height="21" viewBox="0 0 233 21" fill="none" xmlns="http://www.w3.org/2000/svg">
<path d="M227.473 16.1724C226.208 16.1724 225.121 15.927 224.21 15.4362C223.304 14.9405 222.607 14.2533 222.12 13.3748C221.638 12.4963 221.396 11.4852 221.396 10.3416C221.396 9.1833 221.64 8.16733 222.128 7.2937C222.621 6.41515 223.32 5.73047 224.226 5.23967C225.131 4.74395 226.208 4.49609 227.457 4.49609C228.534 4.49609 229.477 4.67524 230.286 5.03353C231.095 5.39182 231.735 5.89489 232.207 6.54276C232.678 7.19063 232.938 7.95138 232.987 8.82502H229.755C229.664 8.26059 229.423 7.80659 229.032 7.46302C228.646 7.11455 228.14 6.94031 227.513 6.94031C226.983 6.94031 226.519 7.07283 226.123 7.33787C225.731 7.598 225.426 7.97837 225.206 8.479C224.987 8.97962 224.877 9.58577 224.877 10.2974C224.877 11.0189 224.984 11.6324 225.198 12.138C225.418 12.6435 225.726 13.0288 226.123 13.2938C226.519 13.5589 226.983 13.6914 227.513 13.6914C227.904 13.6914 228.255 13.6177 228.566 13.4705C228.882 13.3233 229.142 13.1098 229.346 12.83C229.555 12.5453 229.691 12.2042 229.755 11.8067H232.987C232.933 12.6705 232.676 13.4312 232.215 14.0889C231.76 14.7417 231.13 15.2521 230.326 15.6202C229.522 15.9883 228.571 16.1724 227.473 16.1724Z" fill="white"/>
<path d="M214.596 15.9517V4.64346H218.02V15.9517H214.596ZM216.316 3.18577C215.807 3.18577 215.371 3.03116 215.006 2.72195C214.647 2.40784 214.468 2.03237 214.468 1.59555C214.468 1.16364 214.647 0.79308 215.006 0.483871C215.371 0.169754 215.807 0.0126953 216.316 0.0126953C216.825 0.0126953 217.259 0.169754 217.618 0.483871C217.983 0.79308 218.165 1.16364 218.165 1.59555C218.165 2.03237 217.983 2.40784 217.618 2.72195C217.259 3.03116 216.825 3.18577 216.316 3.18577Z" fill="white"/>
<path d="M211.234 4.64383V6.9997H203.8V4.64383H211.234ZM205.488 1.93457H208.912V12.4771C208.912 12.7667 208.96 12.9925 209.056 13.1544C209.153 13.3115 209.287 13.4219 209.458 13.4857C209.635 13.5495 209.839 13.5814 210.069 13.5814C210.23 13.5814 210.391 13.5692 210.551 13.5446C210.712 13.5152 210.835 13.4931 210.921 13.4784L211.46 15.8122C211.288 15.8612 211.047 15.9177 210.736 15.9815C210.425 16.0502 210.048 16.0919 209.603 16.1066C208.778 16.1361 208.054 16.0355 207.433 15.8048C206.817 15.5741 206.337 15.2158 205.994 14.7299C205.651 14.244 205.482 13.6305 205.488 12.8894V1.93457Z" fill="white"/>
<path d="M192.88 9.41399V15.9515H189.456V4.64334H192.719V6.63847H192.864C193.137 5.98079 193.595 5.46053 194.238 5.0777C194.881 4.68996 195.661 4.49609 196.577 4.49609C197.435 4.49609 198.182 4.66788 198.82 5.01144C199.457 5.35501 199.953 5.84581 200.307 6.48386C200.66 7.11701 200.837 7.87285 200.837 8.75139V15.9515H197.413V9.31091C197.419 8.61888 197.226 8.07899 196.834 7.69125C196.443 7.2986 195.905 7.10228 195.219 7.10228C194.758 7.10228 194.351 7.19308 193.997 7.37468C193.649 7.55628 193.376 7.82131 193.177 8.16979C192.985 8.51335 192.885 8.92809 192.88 9.41399Z" fill="white"/>
<path d="M178.716 16.165C177.928 16.165 177.226 16.0399 176.61 15.7896C175.994 15.5344 175.506 15.1589 175.147 14.6632C174.794 14.1625 174.617 13.5392 174.617 12.7932C174.617 12.165 174.743 11.6373 174.994 11.2103C175.246 10.7833 175.589 10.4398 176.023 10.1796C176.457 9.91952 176.95 9.72319 177.502 9.59068C178.059 9.45816 178.643 9.3649 179.254 9.31091C179.972 9.2422 180.551 9.1784 180.99 9.1195C181.43 9.05569 181.749 8.96244 181.947 8.83974C182.145 8.71704 182.244 8.53544 182.244 8.29494V8.25077C182.244 7.7845 182.084 7.42376 181.762 7.16854C181.446 6.91332 180.996 6.78571 180.412 6.78571C179.796 6.78571 179.305 6.91087 178.941 7.16118C178.577 7.40658 178.335 7.71579 178.218 8.0888L175.051 7.85322C175.211 7.16609 175.528 6.57221 175.999 6.07159C176.471 5.56605 177.079 5.17831 177.824 4.90837C178.574 4.63352 179.442 4.49609 180.428 4.49609C181.114 4.49609 181.77 4.56971 182.397 4.71696C183.029 4.8642 183.589 5.09242 184.077 5.40163C184.57 5.71084 184.958 6.1084 185.242 6.59429C185.526 7.07529 185.668 7.65198 185.668 8.32439V15.9515H182.421V14.3834H182.325C182.126 14.7368 181.861 15.0485 181.529 15.3184C181.197 15.5834 180.798 15.792 180.331 15.9442C179.865 16.0914 179.327 16.165 178.716 16.165ZM179.696 14.0006C180.2 14.0006 180.645 13.9098 181.031 13.7282C181.416 13.5417 181.719 13.2914 181.939 12.9772C182.159 12.6631 182.268 12.3073 182.268 11.9097V10.7097C182.161 10.7735 182.014 10.8324 181.826 10.8864C181.644 10.9355 181.438 10.9821 181.207 11.0263C180.977 11.0656 180.747 11.1024 180.516 11.1367C180.286 11.1662 180.077 11.1932 179.889 11.2177C179.487 11.2717 179.136 11.3576 178.836 11.4754C178.536 11.5932 178.303 11.7527 178.137 11.9539C177.971 12.1502 177.888 12.3956 177.888 12.6901C177.888 13.1171 178.057 13.4435 178.394 13.6693C178.737 13.8901 179.171 14.0006 179.696 14.0006Z" fill="white"/>
<path d="M167.897 15.9517V4.64346H171.321V15.9517H167.897ZM169.617 3.18577C169.108 3.18577 168.671 3.03116 168.307 2.72195C167.948 2.40784 167.768 2.03237 167.768 1.59555C167.768 1.16364 167.948 0.79308 168.307 0.483871C168.671 0.169754 169.108 0.0126953 169.617 0.0126953C170.126 0.0126953 170.56 0.169754 170.919 0.483871C171.283 0.79308 171.465 1.16364 171.465 1.59555C171.465 2.03237 171.283 2.40784 170.919 2.72195C170.56 3.03116 170.126 3.18577 169.617 3.18577Z" fill="white"/>
<path d="M163.954 0.874023V15.9516H160.948L153.786 6.46187H153.666V15.9516H150.186V0.874023H153.24L160.345 10.3564H160.49V0.874023H163.954Z" fill="white"/>
<path d="M131.92 9.41407V15.9516H128.496V0.874023H131.824V6.63856H131.968C132.247 5.97106 132.697 5.44835 133.319 5.07043C133.94 4.6876 134.72 4.49618 135.658 4.49618C136.515 4.49618 137.262 4.66797 137.9 5.01153C138.543 5.35019 139.041 5.83854 139.395 6.47659C139.754 7.10973 139.931 7.86803 139.925 8.75148V15.9516H136.501V9.311C136.507 8.61406 136.314 8.07172 135.923 7.68398C135.537 7.29624 134.996 7.10237 134.299 7.10237C133.833 7.10237 133.42 7.19317 133.061 7.37477C132.708 7.55637 132.429 7.8214 132.225 8.16988C132.027 8.51344 131.925 8.92818 131.92 9.41407Z" fill="white"/>
<path d="M124.868 4.64383V6.9997H117.434V4.64383H124.868ZM119.121 1.93457H122.545V12.4771C122.545 12.7667 122.594 12.9925 122.69 13.1544C122.787 13.3115 122.921 13.4219 123.092 13.4857C123.269 13.5495 123.472 13.5814 123.703 13.5814C123.864 13.5814 124.024 13.5692 124.185 13.5446C124.346 13.5152 124.469 13.4931 124.555 13.4784L125.093 15.8122C124.922 15.8612 124.681 15.9177 124.37 15.9815C124.059 16.0502 123.681 16.0919 123.237 16.1066C122.411 16.1361 121.688 16.0355 121.067 15.8048C120.45 15.5741 119.971 15.2158 119.628 14.7299C119.285 14.244 119.116 13.6305 119.121 12.8894V1.93457Z" fill="white"/>
<path d="M111.004 15.9517V4.64346H114.428V15.9517H111.004ZM112.724 3.18577C112.215 3.18577 111.778 3.03116 111.414 2.72195C111.055 2.40784 110.875 2.03237 110.875 1.59555C110.875 1.16364 111.055 0.79308 111.414 0.483871C111.778 0.169754 112.215 0.0126953 112.724 0.0126953C113.233 0.0126953 113.667 0.169754 114.026 0.483871C114.39 0.79308 114.572 1.16364 114.572 1.59555C114.572 2.03237 114.39 2.40784 114.026 2.72195C113.667 3.03116 113.233 3.18577 112.724 3.18577Z" fill="white"/>
<path d="M93.055 15.9518L89.6953 4.64355H93.1595L95.0724 12.2413H95.1849L97.1782 4.64355H100.578L102.604 12.1971H102.708L104.589 4.64355H108.045L104.693 15.9518H101.068L98.9465 8.83996H98.7938L96.6719 15.9518H93.055Z" fill="white"/>
<path d="M72.4625 9.41399V15.9515H69.0386V4.64334H72.3018V6.63847H72.4465C72.7197 5.98079 73.1779 5.46053 73.8209 5.0777C74.4639 4.68996 75.2435 4.49609 76.1598 4.49609C77.0171 4.49609 77.7646 4.66788 78.4023 5.01144C79.0399 5.35501 79.5355 5.84581 79.8892 6.48386C80.2428 7.11701 80.4197 7.87285 80.4197 8.75139V15.9515H76.9957V9.31091C77.0011 8.61888 76.8082 8.07899 76.417 7.69125C76.0258 7.2986 75.4873 7.10228 74.8015 7.10228C74.3406 7.10228 73.9334 7.19308 73.5798 7.37468C73.2315 7.55628 72.9582 7.82131 72.7599 8.16979C72.567 8.51335 72.4679 8.92809 72.4625 9.41399Z" fill="white"/>
<path d="M61.7399 15.9517V4.64346H65.1639V15.9517H61.7399ZM63.4599 3.18577C62.9509 3.18577 62.5142 3.03116 62.1498 2.72195C61.7908 2.40784 61.6113 2.03237 61.6113 1.59555C61.6113 1.16364 61.7908 0.79308 62.1498 0.483871C62.5142 0.169754 62.9509 0.0126953 63.4599 0.0126953C63.969 0.0126953 64.403 0.169754 64.762 0.483871C65.1264 0.79308 65.3086 1.16364 65.3086 1.59555C65.3086 2.03237 65.1264 2.40784 64.762 2.72195C64.403 3.03116 63.969 3.18577 63.4599 3.18577Z" fill="white"/>
<path d="M43.5822 9.41399V15.9515H40.1582V4.64334H43.4214V6.63847H43.5661C43.8394 5.98079 44.2975 5.46053 44.9405 5.0777C45.5835 4.68996 46.3632 4.49609 47.2794 4.49609C48.1368 4.49609 48.8842 4.66788 49.5219 5.01144C50.1595 5.35501 50.6552 5.84581 51.0088 6.48386C51.3625 7.11701 51.5393 7.87285 51.5393 8.75139V15.9515H48.1153V9.31091C48.1207 8.61888 47.9278 8.07899 47.5366 7.69125C47.1455 7.2986 46.607 7.10228 45.9211 7.10228C45.4603 7.10228 45.053 7.19308 44.6994 7.37468C44.3511 7.55628 44.0778 7.82131 43.8796 8.16979C43.6867 8.51335 43.5875 8.92809 43.5822 9.41399Z" fill="white"/>
<path d="M30.2662 20.4277C29.157 20.4277 28.2059 20.2878 27.4129 20.0081C26.6252 19.7332 25.9983 19.3577 25.5321 18.8817C25.0659 18.4056 24.7632 17.8706 24.6239 17.2767L27.7906 16.8865C27.8871 17.1123 28.0398 17.3233 28.2488 17.5197C28.4577 17.716 28.7337 17.8731 29.0766 17.9908C29.4249 18.1135 29.8482 18.1749 30.3466 18.1749C31.0914 18.1749 31.7049 18.008 32.1871 17.6743C32.6747 17.3454 32.9186 16.7933 32.9186 16.0178V13.949H32.7739C32.6238 14.2632 32.3988 14.5601 32.0987 14.8399C31.7987 15.1196 31.4129 15.3478 30.9413 15.5245C30.4698 15.7012 29.9072 15.7896 29.2535 15.7896C28.3265 15.7896 27.4825 15.5933 26.7216 15.2006C25.9661 14.8031 25.3633 14.1969 24.9132 13.3822C24.4685 12.5625 24.2461 11.5269 24.2461 10.2754C24.2461 8.99434 24.4738 7.92438 24.9293 7.06547C25.3847 6.20656 25.9902 5.5636 26.7458 5.1366C27.5066 4.70959 28.3399 4.49609 29.2454 4.49609C29.9366 4.49609 30.5153 4.60407 30.9815 4.82003C31.4477 5.03107 31.8228 5.29611 32.1068 5.61513C32.3961 5.92925 32.6185 6.23846 32.7739 6.54276H32.9025V4.64334H36.3023V16.062C36.3023 17.024 36.0451 17.8289 35.5307 18.4767C35.0163 19.1246 34.3037 19.6105 33.3928 19.9344C32.4872 20.2633 31.445 20.4277 30.2662 20.4277ZM30.3385 13.4337C30.8904 13.4337 31.3566 13.3085 31.737 13.0582C32.1228 12.803 32.4175 12.4398 32.6212 11.9686C32.8301 11.4926 32.9346 10.9232 32.9346 10.2606C32.9346 9.59804 32.8328 9.02379 32.6292 8.53789C32.4256 8.04709 32.1309 7.66671 31.7451 7.39677C31.3593 7.12682 30.8904 6.99185 30.3385 6.99185C29.7759 6.99185 29.3017 7.13173 28.9159 7.41149C28.5301 7.68634 28.2381 8.06917 28.0398 8.55998C27.8415 9.05079 27.7424 9.61767 27.7424 10.2606C27.7424 10.9134 27.8415 11.4778 28.0398 11.9539C28.2434 12.4251 28.5354 12.7907 28.9159 13.0509C29.3017 13.3061 29.7759 13.4337 30.3385 13.4337Z" fill="white"/>
<path d="M17.4055 15.9517V4.64346H20.8294V15.9517H17.4055ZM19.1255 3.18577C18.6164 3.18577 18.1797 3.03116 17.8154 2.72195C17.4564 2.40784 17.2769 2.03237 17.2769 1.59555C17.2769 1.16364 17.4564 0.79308 17.8154 0.483871C18.1797 0.169754 18.6164 0.0126953 19.1255 0.0126953C19.6345 0.0126953 20.0685 0.169754 20.4276 0.483871C20.7919 0.79308 20.9741 1.16364 20.9741 1.59555C20.9741 2.03237 20.7919 2.40784 20.4276 2.72195C20.0685 3.03116 19.6345 3.18577 19.1255 3.18577Z" fill="white"/>
<path d="M10.4367 5.21039C10.3724 4.61652 10.0964 4.15516 9.60883 3.82632C9.12122 3.49747 8.45947 3.33305 7.62357 3.33305C7.05559 3.33305 6.57602 3.40667 6.18486 3.55392C5.7937 3.69625 5.49364 3.89503 5.28466 4.15025C5.08104 4.40547 4.97924 4.69504 4.97924 5.01898C4.96852 5.28892 5.03014 5.52451 5.1641 5.72574C5.30341 5.92697 5.49364 6.10121 5.73476 6.24845C5.97588 6.39078 6.25452 6.51594 6.57066 6.62392C6.8868 6.72699 7.22438 6.81533 7.58338 6.88895L9.06228 7.21289C9.7803 7.36013 10.4394 7.55645 11.0395 7.80186C11.6396 8.04726 12.1594 8.34911 12.5988 8.7074C13.0382 9.06569 13.3784 9.48778 13.6195 9.97368C13.866 10.4596 13.9919 11.0166 13.9973 11.6449C13.9919 12.5676 13.7347 13.3676 13.2257 14.0449C12.722 14.7173 11.9933 15.24 11.0395 15.6131C10.0911 15.9812 8.94708 16.1652 7.6075 16.1652C6.27863 16.1652 5.12123 15.9787 4.1353 15.6057C3.15472 15.2327 2.38848 14.6805 1.83657 13.9492C1.29002 13.213 1.00335 12.3026 0.976562 11.2179H4.34427C4.38178 11.7234 4.53985 12.1455 4.81849 12.4842C5.10248 12.8179 5.48024 13.0707 5.95177 13.2425C6.42866 13.4093 6.96718 13.4928 7.56731 13.4928C8.15672 13.4928 8.66845 13.4142 9.10247 13.2572C9.54185 13.1001 9.88211 12.8817 10.1232 12.602C10.3644 12.3222 10.4849 12.0007 10.4849 11.6375C10.4849 11.2989 10.3751 11.0142 10.1554 10.7835C9.94105 10.5528 9.62491 10.3565 9.20696 10.1945C8.79437 10.0326 8.288 9.88533 7.68787 9.75282L5.89551 9.34054C4.5077 9.03133 3.41192 8.54788 2.60817 7.8902C1.80442 7.23252 1.40523 6.34661 1.41059 5.23248C1.40523 4.31958 1.67047 3.52201 2.2063 2.83979C2.74749 2.15757 3.48962 1.62504 4.43269 1.24221C5.37575 0.859384 6.44742 0.667969 7.64768 0.667969C8.86938 0.667969 9.93569 0.859384 10.8466 1.24221C11.7629 1.62504 12.4755 2.15757 12.9846 2.83979C13.4936 3.52201 13.7562 4.31221 13.7723 5.21039H10.4367Z" fill="white"/>
</svg>
