<svg width="122" height="35" viewBox="0 0 122 35" fill="none" xmlns="http://www.w3.org/2000/svg">
<path d="M109.064 15.7628V26.9489H104.564V7.85795H108.865V11.1019H109.089C109.528 10.033 110.228 9.18371 111.189 8.55398C112.159 7.92424 113.356 7.60938 114.781 7.60938C116.099 7.60938 117.246 7.8911 118.224 8.45454C119.21 9.01799 119.972 9.83416 120.511 10.9031C121.058 11.9719 121.327 13.2687 121.319 14.7933V26.9489H116.819V15.4893C116.819 14.2133 116.488 13.2148 115.825 12.494C115.171 11.7731 114.263 11.4126 113.103 11.4126C112.316 11.4126 111.616 11.5866 111.003 11.9347C110.398 12.2744 109.921 12.7674 109.573 13.4137C109.234 14.06 109.064 14.843 109.064 15.7628Z" fill="black"/>
<path d="M98.0203 1.49414V26.9487H93.4092V1.49414H98.0203Z" fill="black"/>
<path d="M64.1995 15.7628V26.9489H59.7002V7.85795H64.0006V11.1019H64.2243C64.6635 10.033 65.3637 9.18371 66.3248 8.55398C67.2943 7.92424 68.4916 7.60938 69.9168 7.60938C71.2343 7.60938 72.3819 7.8911 73.3596 8.45454C74.3457 9.01799 75.108 9.83416 75.6466 10.9031C76.1935 11.9719 76.4627 13.2687 76.4545 14.7933V26.9489H71.9552V15.4893C71.9552 14.2133 71.6237 13.2148 70.9608 12.494C70.3063 11.7731 69.3989 11.4126 68.2389 11.4126C67.4517 11.4126 66.7516 11.5866 66.1384 11.9347C65.5335 12.2744 65.0571 12.7674 64.7091 13.4137C64.3694 14.06 64.1995 14.843 64.1995 15.7628Z" fill="black"/>
<path d="M44.3781 34.5057C42.7623 34.5057 41.3744 34.2861 40.2144 33.8469C39.0543 33.4161 38.1221 32.8361 37.4178 32.1069C36.7135 31.3777 36.2247 30.5698 35.9512 29.6832L40.0031 28.7014C40.1854 29.0742 40.4505 29.4429 40.7985 29.8075C41.1465 30.1804 41.6147 30.487 42.203 30.7273C42.7996 30.9759 43.5495 31.1001 44.4526 31.1001C45.7287 31.1001 46.7851 30.7894 47.622 30.168C48.4589 29.5548 48.8774 28.5439 48.8774 27.1353V23.5185H48.6536C48.4216 23.9825 48.0819 24.4589 47.6345 24.9478C47.1953 25.4367 46.6111 25.8468 45.882 26.1783C45.1611 26.5097 44.2538 26.6754 43.16 26.6754C41.6934 26.6754 40.3635 26.3316 39.1703 25.6438C37.9854 24.9478 37.0408 23.9121 36.3365 22.5366C35.6405 21.1528 35.2925 19.421 35.2925 17.3413C35.2925 15.2449 35.6405 13.4759 36.3365 12.0341C37.0408 10.584 37.9896 9.48615 39.1828 8.74041C40.3759 7.98639 41.7058 7.60938 43.1725 7.60938C44.2911 7.60938 45.2108 7.79995 45.9317 8.18111C46.6609 8.55398 47.2409 9.00556 47.6717 9.53586C48.1026 10.0579 48.4299 10.5509 48.6536 11.0149H48.9022V7.85795H53.3394V27.2596C53.3394 28.8919 52.9499 30.2425 52.171 31.3114C51.3922 32.3803 50.3274 33.1799 48.9768 33.7102C47.6262 34.2405 46.0933 34.5057 44.3781 34.5057ZM44.4154 23.1456C45.3682 23.1456 46.1803 22.9136 46.8514 22.4496C47.5226 21.9856 48.0322 21.3185 48.3802 20.4485C48.7282 19.5785 48.9022 18.5344 48.9022 17.3164C48.9022 16.1149 48.7282 15.0626 48.3802 14.1594C48.0405 13.2563 47.535 12.5561 46.8639 12.0589C46.201 11.5535 45.3848 11.3008 44.4154 11.3008C43.4127 11.3008 42.5759 11.5618 41.9047 12.0838C41.2335 12.6058 40.7281 13.3226 40.3884 14.234C40.0486 15.1372 39.8788 16.1647 39.8788 17.3164C39.8788 18.4847 40.0486 19.508 40.3884 20.3864C40.7364 21.2564 41.246 21.9358 41.9171 22.4247C42.5966 22.9053 43.4293 23.1456 44.4154 23.1456Z" fill="black"/>
<path d="M25.1996 26.9487V7.85778H29.6989V26.9487H25.1996ZM27.4616 5.14826C26.7491 5.14826 26.1359 4.91211 25.6222 4.43981C25.1084 3.95922 24.8516 3.38334 24.8516 2.71218C24.8516 2.03273 25.1084 1.45685 25.6222 0.984551C26.1359 0.503965 26.7491 0.263672 27.4616 0.263672C28.1825 0.263672 28.7957 0.503965 29.3011 0.984551C29.8149 1.45685 30.0717 2.03273 30.0717 2.71218C30.0717 3.38334 29.8149 3.95922 29.3011 4.43981C28.7957 4.91211 28.1825 5.14826 27.4616 5.14826Z" fill="black"/>
<path d="M14.7522 8.49201C14.6362 7.40655 14.1473 6.56138 13.2856 5.9565C12.4321 5.35162 11.3218 5.04918 9.95464 5.04918C8.99346 5.04918 8.16901 5.19419 7.48127 5.4842C6.79353 5.77421 6.26737 6.16779 5.90279 6.66495C5.53821 7.16211 5.35177 7.7297 5.34349 8.36772C5.34349 8.89802 5.46363 9.3579 5.70393 9.74734C5.95251 10.1368 6.28809 10.4682 6.71067 10.7417C7.13326 11.0068 7.60142 11.2305 8.11515 11.4128C8.62888 11.5951 9.14675 11.7484 9.66877 11.8727L12.0551 12.4693C13.0163 12.693 13.9402 12.9954 14.8268 13.3766C15.7217 13.7578 16.5213 14.2383 17.2256 14.8184C17.9382 15.3984 18.5016 16.0985 18.9159 16.9189C19.3302 17.7392 19.5374 18.7003 19.5374 19.8024C19.5374 21.2939 19.1562 22.6072 18.3939 23.7424C17.6316 24.8693 16.5296 25.7517 15.0878 26.3897C13.6543 27.0195 11.9184 27.3343 9.88006 27.3343C7.89971 27.3343 6.18037 27.0278 4.72203 26.4146C3.27199 25.8014 2.13681 24.9065 1.3165 23.7299C0.504471 22.5533 0.0653113 21.1199 -0.000976562 19.4295H4.5356C4.60189 20.3161 4.87533 21.0536 5.35592 21.6419C5.8365 22.2302 6.46209 22.6693 7.23269 22.9593C8.01157 23.2493 8.8816 23.3944 9.84277 23.3944C10.8454 23.3944 11.7237 23.2452 12.4777 22.9469C13.24 22.6403 13.8366 22.2177 14.2675 21.6792C14.6984 21.1323 14.9179 20.4943 14.9262 19.7651C14.9179 19.1022 14.7232 18.5553 14.3421 18.1245C13.9609 17.6853 13.4265 17.3207 12.7387 17.0307C12.0593 16.7324 11.2638 16.4673 10.3524 16.2353L7.45641 15.4895C5.36006 14.9509 3.70286 14.1348 2.48482 13.041C1.27507 11.939 0.670189 10.4765 0.670189 8.65359C0.670189 7.15382 1.0762 5.84049 1.88823 4.7136C2.70854 3.58671 3.82301 2.71254 5.23162 2.09109C6.64024 1.46135 8.23529 1.14648 10.0168 1.14648C11.8231 1.14648 13.4057 1.46135 14.7646 2.09109C16.1318 2.71254 17.2049 3.57842 17.9838 4.68874C18.7626 5.79078 19.1645 7.05854 19.1894 8.49201H14.7522Z" fill="black"/>
</svg>
