<svg width="113" height="16" viewBox="0 0 113 16" fill="none" xmlns="http://www.w3.org/2000/svg">
<path d="M111.267 15.6808C110.836 15.6808 110.467 15.5293 110.159 15.2263C109.851 14.9232 109.7 14.5539 109.705 14.1183C109.7 13.6922 109.851 13.3276 110.159 13.0245C110.467 12.7215 110.836 12.57 111.267 12.57C111.684 12.57 112.046 12.7215 112.354 13.0245C112.666 13.3276 112.825 13.6922 112.83 14.1183C112.825 14.4071 112.749 14.6699 112.602 14.9067C112.46 15.1434 112.271 15.3328 112.034 15.4748C111.802 15.6121 111.547 15.6808 111.267 15.6808ZM111.267 7.89671C110.836 7.89671 110.467 7.74519 110.159 7.44216C109.851 7.1344 109.7 6.76508 109.705 6.33421C109.7 5.90807 109.851 5.54349 110.159 5.24046C110.467 4.93269 110.836 4.77881 111.267 4.77881C111.684 4.77881 112.046 4.93269 112.354 5.24046C112.666 5.54349 112.825 5.90807 112.83 6.33421C112.825 6.6183 112.749 6.87871 112.602 7.11546C112.46 7.3522 112.271 7.54159 112.034 7.68364C111.802 7.82568 111.547 7.89671 111.267 7.89671Z" fill="#365F6F"/>
<path d="M101.658 15.7378C100.564 15.7378 99.6193 15.5106 98.8239 15.056C98.0331 14.5967 97.4247 13.9481 96.9986 13.11C96.5724 12.2672 96.3594 11.2752 96.3594 10.1341C96.3594 9.01198 96.5724 8.02714 96.9986 7.1796C97.4295 6.32732 98.0308 5.66445 98.8026 5.19096C99.5743 4.71274 100.481 4.47363 101.523 4.47363C102.195 4.47363 102.83 4.58253 103.426 4.80034C104.027 5.01341 104.558 5.34484 105.017 5.79465C105.481 6.24447 105.846 6.81738 106.111 7.5134C106.376 8.20469 106.509 9.02856 106.509 9.985V10.7733H97.5668V9.04039H104.044C104.039 8.54797 103.933 8.11 103.724 7.72647C103.516 7.33822 103.225 7.03282 102.851 6.81028C102.482 6.58774 102.051 6.47647 101.558 6.47647C101.033 6.47647 100.571 6.60431 100.173 6.86C99.7756 7.11094 99.4654 7.44238 99.2429 7.85431C99.0251 8.26151 98.9138 8.70895 98.9091 9.19664V10.7094C98.9091 11.3439 99.0251 11.8884 99.2571 12.343C99.4891 12.7928 99.8135 13.1384 100.23 13.3799C100.647 13.6166 101.134 13.735 101.693 13.735C102.067 13.735 102.406 13.6829 102.709 13.5787C103.012 13.4698 103.275 13.3112 103.497 13.1029C103.72 12.8946 103.888 12.6365 104.001 12.3287L106.402 12.5986C106.25 13.2331 105.962 13.7871 105.536 14.2606C105.114 14.7293 104.574 15.0939 103.916 15.3543C103.258 15.61 102.505 15.7378 101.658 15.7378Z" fill="#365F6F"/>
<path d="M93.7947 4.61559V6.60423H87.5234V4.61559H93.7947ZM89.0717 2.00195H91.6428V12.2434C91.6428 12.5891 91.6948 12.8542 91.799 13.0389C91.9079 13.2188 92.0499 13.3419 92.2251 13.4082C92.4003 13.4745 92.5945 13.5076 92.8075 13.5076C92.9685 13.5076 93.1153 13.4958 93.2479 13.4721C93.3852 13.4485 93.4893 13.4271 93.5604 13.4082L93.9936 15.4181C93.8563 15.4655 93.6598 15.5176 93.4041 15.5744C93.1532 15.6312 92.8454 15.6644 92.4808 15.6738C91.8369 15.6928 91.2569 15.5957 90.7408 15.3826C90.2247 15.1648 89.8151 14.8287 89.5121 14.3741C89.2138 13.9196 89.067 13.3514 89.0717 12.6696V2.00195Z" fill="#365F6F"/>
<path d="M79.0021 15.7449C78.3108 15.7449 77.6882 15.6218 77.1342 15.3756C76.585 15.1247 76.1494 14.7554 75.8274 14.2677C75.5102 13.78 75.3516 13.1787 75.3516 12.4637C75.3516 11.8482 75.4652 11.3392 75.6925 10.9367C75.9197 10.5342 76.2299 10.2123 76.6229 9.97079C77.0159 9.72931 77.4586 9.54702 77.951 9.42392C78.4481 9.29607 78.9619 9.20375 79.4922 9.14693C80.1314 9.08064 80.6499 9.02145 81.0476 8.96937C81.4453 8.91255 81.7341 8.82733 81.9141 8.71369C82.0987 8.59532 82.191 8.41303 82.191 8.16681V8.1242C82.191 7.58916 82.0324 7.17486 81.7152 6.8813C81.398 6.58774 80.9411 6.44096 80.3445 6.44096C79.7147 6.44096 79.2152 6.57827 78.8459 6.85289C78.4813 7.12751 78.2351 7.45185 78.1072 7.8259L75.7067 7.485C75.8961 6.82212 76.2086 6.26814 76.6442 5.82306C77.0798 5.37325 77.6125 5.03708 78.2422 4.81454C78.8719 4.58727 79.5679 4.47363 80.3303 4.47363C80.8558 4.47363 81.379 4.53519 81.8999 4.65829C82.4207 4.7814 82.8965 4.985 83.3274 5.26909C83.7583 5.54844 84.1039 5.9296 84.3643 6.41255C84.6295 6.89551 84.7621 7.4992 84.7621 8.22363V15.5248H82.2905V14.0262H82.2053C82.049 14.3292 81.8288 14.6133 81.5447 14.8785C81.2654 15.1389 80.9126 15.3496 80.4865 15.5106C80.0651 15.6668 79.5703 15.7449 79.0021 15.7449ZM79.6697 13.8557C80.1858 13.8557 80.6333 13.7539 81.0121 13.5503C81.3909 13.342 81.6821 13.0674 81.8857 12.7265C82.094 12.3856 82.1982 12.0139 82.1982 11.6114V10.3259C82.1177 10.3922 81.9803 10.4537 81.7862 10.5106C81.5968 10.5674 81.3838 10.6171 81.147 10.6597C80.9103 10.7023 80.6759 10.7402 80.4439 10.7733C80.2119 10.8065 80.0106 10.8349 79.8402 10.8586C79.4567 10.9107 79.1134 10.9959 78.8104 11.1143C78.5073 11.2326 78.2682 11.3983 78.093 11.6114C77.9179 11.8197 77.8303 12.0896 77.8303 12.4211C77.8303 12.8946 78.0031 13.252 78.3487 13.4935C78.6944 13.735 79.1347 13.8557 79.6697 13.8557Z" fill="#365F6F"/>
<path d="M65.4134 15.5245H60.4844V0.979004H65.5128C66.9569 0.979004 68.1974 1.2702 69.2344 1.85258C70.276 2.43023 71.0762 3.2612 71.6349 4.34548C72.1937 5.42976 72.473 6.72711 72.473 8.23753C72.473 9.75268 72.1913 11.0548 71.6278 12.1438C71.0691 13.2328 70.2618 14.0685 69.206 14.6509C68.1548 15.2333 66.8906 15.5245 65.4134 15.5245ZM63.1193 13.2446H65.2855C66.2988 13.2446 67.1439 13.06 67.821 12.6907C68.4981 12.3166 69.0071 11.7603 69.348 11.0216C69.6889 10.2782 69.8594 9.35022 69.8594 8.23753C69.8594 7.12484 69.6889 6.20154 69.348 5.46764C69.0071 4.729 68.5028 4.17739 67.8352 3.81281C67.1724 3.44349 66.3485 3.25883 65.3636 3.25883H63.1193V13.2446Z" fill="#365F6F"/>
<path d="M51.2596 4.61559V6.60423H44.9883V4.61559H51.2596ZM46.5366 2.00195H49.1076V12.2434C49.1076 12.5891 49.1597 12.8542 49.2639 13.0389C49.3728 13.2188 49.5148 13.3419 49.69 13.4082C49.8652 13.4745 50.0593 13.5076 50.2724 13.5076C50.4334 13.5076 50.5801 13.4958 50.7127 13.4721C50.85 13.4485 50.9542 13.4271 51.0252 13.4082L51.4585 15.4181C51.3211 15.4655 51.1246 15.5176 50.869 15.5744C50.618 15.6312 50.3103 15.6644 49.9457 15.6738C49.3017 15.6928 48.7217 15.5957 48.2056 15.3826C47.6895 15.1648 47.2799 14.8287 46.9769 14.3741C46.6786 13.9196 46.5318 13.3514 46.5366 12.6696V2.00195Z" fill="#365F6F"/>
<path d="M36.2969 15.5248V4.61572H38.7898V6.4339H38.9034C39.1023 5.80417 39.4432 5.31885 39.9261 4.97794C40.4138 4.63229 40.9702 4.45947 41.5952 4.45947C41.7372 4.45947 41.8958 4.46657 42.071 4.48078C42.2509 4.49025 42.4001 4.50682 42.5185 4.53049V6.89555C42.4096 6.85767 42.2367 6.82453 42 6.79612C41.768 6.76298 41.5431 6.7464 41.3253 6.7464C40.8565 6.7464 40.4351 6.8482 40.0611 7.0518C39.6918 7.25067 39.4006 7.52765 39.1875 7.88277C38.9744 8.23788 38.8679 8.64745 38.8679 9.11146V15.5248H36.2969Z" fill="#365F6F"/>
<path d="M26.9513 15.7449C26.2601 15.7449 25.6374 15.6218 25.0835 15.3756C24.5342 15.1247 24.0986 14.7554 23.7766 14.2677C23.4594 13.78 23.3008 13.1787 23.3008 12.4637C23.3008 11.8482 23.4144 11.3392 23.6417 10.9367C23.869 10.5342 24.1791 10.2123 24.5721 9.97079C24.9651 9.72931 25.4078 9.54702 25.9002 9.42392C26.3974 9.29607 26.9111 9.20375 27.4414 9.14693C28.0806 9.08064 28.5991 9.02145 28.9968 8.96937C29.3945 8.91255 29.6834 8.82733 29.8633 8.71369C30.0479 8.59532 30.1403 8.41303 30.1403 8.16681V8.1242C30.1403 7.58916 29.9817 7.17486 29.6644 6.8813C29.3472 6.58774 28.8903 6.44096 28.2937 6.44096C27.6639 6.44096 27.1644 6.57827 26.7951 6.85289C26.4305 7.12751 26.1843 7.45185 26.0565 7.8259L23.6559 7.485C23.8453 6.82212 24.1578 6.26814 24.5934 5.82306C25.029 5.37325 25.5617 5.03708 26.1914 4.81454C26.8211 4.58727 27.5172 4.47363 28.2795 4.47363C28.805 4.47363 29.3282 4.53519 29.8491 4.65829C30.3699 4.7814 30.8458 4.985 31.2766 5.26909C31.7075 5.54844 32.0531 5.9296 32.3136 6.41255C32.5787 6.89551 32.7113 7.4992 32.7113 8.22363V15.5248H30.2397V14.0262H30.1545C29.9982 14.3292 29.7781 14.6133 29.494 14.8785C29.2146 15.1389 28.8619 15.3496 28.4357 15.5106C28.0143 15.6668 27.5195 15.7449 26.9513 15.7449ZM27.619 13.8557C28.1351 13.8557 28.5825 13.7539 28.9613 13.5503C29.3401 13.342 29.6313 13.0674 29.8349 12.7265C30.0432 12.3856 30.1474 12.0139 30.1474 11.6114V10.3259C30.0669 10.3922 29.9296 10.4537 29.7354 10.5106C29.546 10.5674 29.333 10.6171 29.0962 10.6597C28.8595 10.7023 28.6251 10.7402 28.3931 10.7733C28.1611 10.8065 27.9599 10.8349 27.7894 10.8586C27.4059 10.9107 27.0626 10.9959 26.7596 11.1143C26.4566 11.2326 26.2174 11.3983 26.0423 11.6114C25.8671 11.8197 25.7795 12.0896 25.7795 12.4211C25.7795 12.8946 25.9523 13.252 26.2979 13.4935C26.6436 13.735 27.0839 13.8557 27.619 13.8557Z" fill="#365F6F"/>
<path d="M20.6619 4.61559V6.60423H14.3906V4.61559H20.6619ZM15.9389 2.00195H18.5099V12.2434C18.5099 12.5891 18.562 12.8542 18.6662 13.0389C18.7751 13.2188 18.9171 13.3419 19.0923 13.4082C19.2675 13.4745 19.4616 13.5076 19.6747 13.5076C19.8357 13.5076 19.9825 13.4958 20.1151 13.4721C20.2524 13.4485 20.3565 13.4271 20.4276 13.4082L20.8608 15.4181C20.7235 15.4655 20.527 15.5176 20.2713 15.5744C20.0204 15.6312 19.7126 15.6644 19.348 15.6738C18.7041 15.6928 18.1241 15.5957 17.608 15.3826C17.0919 15.1648 16.6823 14.8287 16.3793 14.3741C16.081 13.9196 15.9342 13.3514 15.9389 12.6696V2.00195Z" fill="#365F6F"/>
<path d="M9.24485 4.97772C9.17856 4.35745 8.89921 3.8745 8.40678 3.52885C7.91909 3.18321 7.28462 3.01039 6.50337 3.01039C5.95413 3.01039 5.48301 3.09325 5.09002 3.25897C4.69703 3.42469 4.39637 3.64959 4.18803 3.93368C3.9797 4.21777 3.87317 4.54211 3.86843 4.9067C3.86843 5.20973 3.93709 5.47251 4.0744 5.69505C4.21644 5.91758 4.4082 6.10698 4.64968 6.26323C4.89116 6.41474 5.15868 6.54258 5.45224 6.64675C5.7458 6.75092 6.04173 6.83851 6.34002 6.90954L7.70366 7.25044C8.2529 7.37829 8.78084 7.55111 9.28747 7.76891C9.79883 7.98671 10.2557 8.26133 10.6582 8.59277C11.0654 8.92421 11.3874 9.32431 11.6241 9.79306C11.8609 10.2618 11.9792 10.8111 11.9792 11.4408C11.9792 12.2931 11.7614 13.0435 11.3258 13.6922C10.8902 14.3361 10.2605 14.8404 9.43661 15.205C8.61748 15.5648 7.62553 15.7448 6.46076 15.7448C5.32913 15.7448 4.34665 15.5696 3.51332 15.2192C2.68472 14.8688 2.03604 14.3575 1.56729 13.6851C1.10328 13.0128 0.852332 12.1936 0.814453 11.2277H3.40678C3.44466 11.7343 3.60091 12.1557 3.87553 12.4919C4.15015 12.8281 4.50764 13.079 4.94798 13.2448C5.39305 13.4105 5.89021 13.4933 6.43945 13.4933C7.01237 13.4933 7.51426 13.4081 7.94514 13.2377C8.38074 13.0625 8.72165 12.821 8.96786 12.5132C9.21408 12.2007 9.33955 11.8361 9.34428 11.4195C9.33955 11.0407 9.22828 10.7282 9.01048 10.482C8.79267 10.231 8.48728 10.0227 8.09428 9.85698C7.70603 9.68652 7.25148 9.53501 6.73065 9.40243L5.07582 8.9763C3.8779 8.66853 2.93093 8.20215 2.23491 7.57715C1.54362 6.94741 1.19798 6.11171 1.19798 5.07005C1.19798 4.21304 1.42998 3.46257 1.894 2.81863C2.36275 2.17469 2.99959 1.67516 3.80451 1.32005C4.60943 0.960198 5.52089 0.780273 6.53889 0.780273C7.57108 0.780273 8.47544 0.960198 9.25195 1.32005C10.0332 1.67516 10.6464 2.16995 11.0914 2.80442C11.5365 3.43416 11.7662 4.15859 11.7804 4.97772H9.24485Z" fill="#365F6F"/>
</svg>
