<svg width="90" height="19" viewBox="0 0 90 19" fill="none" xmlns="http://www.w3.org/2000/svg">
<path d="M87.0225 4.90891C86.9202 4.04528 86.5055 3.37482 85.7782 2.89755C85.0509 2.42028 84.1589 2.18164 83.1021 2.18164C82.3293 2.18164 81.6532 2.30664 81.0736 2.55664C80.4998 2.80664 80.0509 3.15039 79.7271 3.58789C79.4089 4.02539 79.2498 4.52255 79.2498 5.07937C79.2498 5.54528 79.3606 5.94585 79.5822 6.28107C79.8094 6.61062 80.0992 6.88619 80.4515 7.10778C80.8038 7.32369 81.1731 7.50266 81.5594 7.64471C81.9458 7.78107 82.3009 7.89187 82.6248 7.9771L84.3975 8.45437C84.852 8.57369 85.3577 8.73846 85.9146 8.94869C86.4771 9.15891 87.014 9.44585 87.5253 9.80948C88.0424 10.1674 88.4685 10.6277 88.8037 11.1902C89.139 11.7527 89.3066 12.443 89.3066 13.2612C89.3066 14.2044 89.0594 15.0566 88.5651 15.818C88.0765 16.5794 87.3606 17.1845 86.4174 17.6333C85.4799 18.0822 84.3407 18.3066 82.9998 18.3066C81.7498 18.3066 80.6674 18.1049 79.7526 17.7015C78.8435 17.2981 78.1276 16.7356 77.6049 16.014C77.0878 15.2924 76.7952 14.4544 76.7271 13.4998H78.9089C78.9657 14.1589 79.1873 14.7044 79.5736 15.1362C79.9657 15.5623 80.46 15.8805 81.0566 16.0907C81.6589 16.2953 82.3066 16.3976 82.9998 16.3976C83.8066 16.3976 84.531 16.2669 85.1731 16.0055C85.8151 15.7385 86.3236 15.3691 86.6986 14.8976C87.0736 14.4203 87.2611 13.8635 87.2611 13.2271C87.2611 12.6475 87.0992 12.176 86.7753 11.8123C86.4515 11.4487 86.0253 11.1532 85.4969 10.926C84.9685 10.6987 84.3975 10.4998 83.7839 10.3294L81.6361 9.71573C80.2725 9.32369 79.193 8.76403 78.3975 8.03676C77.602 7.30948 77.2043 6.35778 77.2043 5.18164C77.2043 4.20437 77.4685 3.3521 77.9969 2.62482C78.531 1.89187 79.2469 1.32369 80.1447 0.920277C81.0481 0.511186 82.0566 0.306641 83.1702 0.306641C84.2952 0.306641 85.2952 0.508345 86.1702 0.911754C87.0452 1.30948 87.7384 1.85494 88.2498 2.54812C88.7668 3.2413 89.0395 4.02823 89.068 4.90891H87.0225Z" fill="black"/>
<path d="M71.1425 0.544922H73.2562V12.1017C73.2562 13.2949 72.9749 14.3603 72.4124 15.2978C71.8556 16.2296 71.0687 16.9654 70.0516 17.5051C69.0346 18.0392 67.8414 18.3063 66.4721 18.3063C65.1028 18.3063 63.9096 18.0392 62.8925 17.5051C61.8755 16.9654 61.0857 16.2296 60.5232 15.2978C59.9664 14.3603 59.688 13.2949 59.688 12.1017V0.544922H61.8016V11.9313C61.8016 12.7836 61.9891 13.5421 62.3641 14.2069C62.7391 14.8659 63.2732 15.3858 63.9664 15.7665C64.6653 16.1415 65.5005 16.329 66.4721 16.329C67.4437 16.329 68.2789 16.1415 68.9778 15.7665C69.6766 15.3858 70.2107 14.8659 70.58 14.2069C70.955 13.5421 71.1425 12.7836 71.1425 11.9313V0.544922Z" fill="black"/>
<path d="M43.335 2.41992V0.544922H56.4259V2.41992H50.9372V17.9995H48.8236V2.41992H43.335Z" fill="black"/>
<path d="M30.8258 17.9995H28.6099L35.019 0.544922H37.2008L43.6099 17.9995H41.394L36.178 3.30629H36.0417L30.8258 17.9995ZM31.644 11.1813H40.5758V13.0563H31.644V11.1813Z" fill="black"/>
<path d="M15.7959 2.41992V0.544922H28.8868V2.41992H23.3982V17.9995H21.2845V2.41992H15.7959Z" fill="black"/>
<path d="M10.9913 4.90891C10.889 4.04528 10.4742 3.37482 9.74694 2.89755C9.01966 2.42028 8.12762 2.18164 7.0708 2.18164C6.29807 2.18164 5.62194 2.30664 5.04239 2.55664C4.46853 2.80664 4.01966 3.15039 3.6958 3.58789C3.37762 4.02539 3.21853 4.52255 3.21853 5.07937C3.21853 5.54528 3.32932 5.94585 3.55091 6.28107C3.77819 6.61062 4.06796 6.88619 4.42023 7.10778C4.77251 7.32369 5.14182 7.50266 5.52819 7.64471C5.91455 7.78107 6.26967 7.89187 6.59353 7.9771L8.36626 8.45437C8.8208 8.57369 9.32648 8.73846 9.8833 8.94869C10.4458 9.15891 10.9827 9.44585 11.4941 9.80948C12.0111 10.1674 12.4373 10.6277 12.7725 11.1902C13.1077 11.7527 13.2753 12.443 13.2753 13.2612C13.2753 14.2044 13.0282 15.0566 12.5339 15.818C12.0452 16.5794 11.3293 17.1845 10.3861 17.6333C9.44864 18.0822 8.30944 18.3066 6.96853 18.3066C5.71853 18.3066 4.63614 18.1049 3.72137 17.7015C2.81228 17.2981 2.09637 16.7356 1.57364 16.014C1.0566 15.2924 0.763983 14.4544 0.695801 13.4998H2.87762C2.93444 14.1589 3.15603 14.7044 3.54239 15.1362C3.93444 15.5623 4.42876 15.8805 5.02535 16.0907C5.62762 16.2953 6.27535 16.3976 6.96853 16.3976C7.77535 16.3976 8.49978 16.2669 9.14182 16.0055C9.78387 15.7385 10.2924 15.3691 10.6674 14.8976C11.0424 14.4203 11.2299 13.8635 11.2299 13.2271C11.2299 12.6475 11.068 12.176 10.7441 11.8123C10.4202 11.4487 9.9941 11.1532 9.46569 10.926C8.93728 10.6987 8.36626 10.4998 7.75262 10.3294L5.60489 9.71573C4.24126 9.32369 3.16171 8.76403 2.36625 8.03676C1.5708 7.30948 1.17307 6.35778 1.17307 5.18164C1.17307 4.20437 1.43728 3.3521 1.96569 2.62482C2.49978 1.89187 3.21569 1.32369 4.11341 0.920277C5.01682 0.511186 6.02535 0.306641 7.13898 0.306641C8.26398 0.306641 9.26398 0.508345 10.139 0.911754C11.014 1.30948 11.7072 1.85494 12.2185 2.54812C12.7356 3.2413 13.0083 4.02823 13.0367 4.90891H10.9913Z" fill="black"/>
</svg>
