<svg width="101" height="16" viewBox="0 0 101 16" fill="none" xmlns="http://www.w3.org/2000/svg">
<path d="M97.6646 4.63796C97.6077 4.06505 97.3639 3.61997 96.933 3.30273C96.5021 2.9855 95.9174 2.82688 95.1788 2.82688C94.6769 2.82688 94.2531 2.89791 93.9074 3.03995C93.5618 3.17726 93.2967 3.36902 93.112 3.61523C92.9321 3.86145 92.8421 4.1408 92.8421 4.4533C92.8326 4.71372 92.8871 4.94099 93.0055 5.13512C93.1286 5.32925 93.2967 5.49734 93.5097 5.63938C93.7228 5.77669 93.969 5.89743 94.2484 6.0016C94.5277 6.10103 94.826 6.18626 95.1432 6.25728L96.4501 6.56978C97.0845 6.71183 97.6669 6.90122 98.1972 7.13796C98.7275 7.3747 99.1868 7.6659 99.5751 8.01154C99.9633 8.35719 100.264 8.76438 100.477 9.23313C100.695 9.70188 100.806 10.2393 100.811 10.8453C100.806 11.7355 100.579 12.5073 100.129 13.1607C99.684 13.8094 99.04 14.3136 98.1972 14.6735C97.3592 15.0286 96.3483 15.2061 95.1646 15.2061C93.9903 15.2061 92.9676 15.0262 92.0964 14.6664C91.2299 14.3065 90.5528 13.7739 90.0651 13.0684C89.5822 12.3581 89.3289 11.4798 89.3052 10.4334H92.281C92.3142 10.9211 92.4538 11.3283 92.7001 11.655C92.951 11.977 93.2848 12.2208 93.7015 12.3865C94.1229 12.5475 94.5987 12.628 95.129 12.628C95.6499 12.628 96.102 12.5523 96.4856 12.4007C96.8738 12.2492 97.1745 12.0385 97.3876 11.7686C97.6006 11.4988 97.7072 11.1886 97.7072 10.8382C97.7072 10.5115 97.6101 10.2369 97.416 10.0144C97.2266 9.79184 96.9472 9.60245 96.5779 9.4462C96.2133 9.28995 95.7659 9.14791 95.2356 9.02006L93.6518 8.62234C92.4254 8.32404 91.4572 7.85766 90.7469 7.22319C90.0367 6.58872 89.684 5.73408 89.6887 4.65927C89.684 3.77859 89.9183 3.00917 90.3918 2.35103C90.87 1.69289 91.5258 1.17916 92.3592 0.809837C93.1925 0.440519 94.1395 0.255859 95.2001 0.255859C96.2796 0.255859 97.2218 0.440519 98.0268 0.809837C98.8364 1.17916 99.4662 1.69289 99.916 2.35103C100.366 3.00917 100.598 3.77148 100.612 4.63796H97.6646Z" fill="#50C878"/>
<path d="M83.5591 4.63796C83.5023 4.06505 83.2584 3.61997 82.8275 3.30273C82.3967 2.9855 81.8119 2.82688 81.0733 2.82688C80.5714 2.82688 80.1476 2.89791 79.802 3.03995C79.4563 3.17726 79.1912 3.36902 79.0065 3.61523C78.8266 3.86145 78.7366 4.1408 78.7366 4.4533C78.7272 4.71372 78.7816 4.94099 78.9 5.13512C79.0231 5.32925 79.1912 5.49734 79.4043 5.63938C79.6173 5.77669 79.8635 5.89743 80.1429 6.0016C80.4222 6.10103 80.7205 6.18626 81.0378 6.25728L82.3446 6.56978C82.9791 6.71183 83.5614 6.90122 84.0918 7.13796C84.6221 7.3747 85.0813 7.6659 85.4696 8.01154C85.8578 8.35719 86.1585 8.76438 86.3716 9.23313C86.5894 9.70188 86.7007 10.2393 86.7054 10.8453C86.7007 11.7355 86.4734 12.5073 86.0236 13.1607C85.5785 13.8094 84.9346 14.3136 84.0918 14.6735C83.2537 15.0286 82.2428 15.2061 81.0591 15.2061C79.8848 15.2061 78.8621 15.0262 77.9909 14.6664C77.1244 14.3065 76.4473 13.7739 75.9596 13.0684C75.4767 12.3581 75.2234 11.4798 75.1997 10.4334H78.1756C78.2087 10.9211 78.3484 11.3283 78.5946 11.655C78.8455 11.977 79.1793 12.2208 79.596 12.3865C80.0174 12.5475 80.4933 12.628 81.0236 12.628C81.5444 12.628 81.9966 12.5523 82.3801 12.4007C82.7684 12.2492 83.069 12.0385 83.2821 11.7686C83.4952 11.4988 83.6017 11.1886 83.6017 10.8382C83.6017 10.5115 83.5046 10.2369 83.3105 10.0144C83.1211 9.79184 82.8418 9.60245 82.4724 9.4462C82.1079 9.28995 81.6604 9.14791 81.1301 9.02006L79.5463 8.62234C78.32 8.32404 77.3517 7.85766 76.6415 7.22319C75.9312 6.58872 75.5785 5.73408 75.5832 4.65927C75.5785 3.77859 75.8129 3.00917 76.2864 2.35103C76.7646 1.69289 77.4204 1.17916 78.2537 0.809837C79.087 0.440519 80.034 0.255859 81.0946 0.255859C82.1741 0.255859 83.1164 0.440519 83.9213 0.809837C84.731 1.17916 85.3607 1.69289 85.8105 2.35103C86.2603 3.00917 86.4923 3.77148 86.5065 4.63796H83.5591Z" fill="#50C878"/>
<path d="M62.4224 15.0005V0.455078H72.2235V2.99059H65.4976V6.4565H71.7192V8.99201H65.4976V12.465H72.2519V15.0005H62.4224Z" fill="#50C878"/>
<path d="M59.2172 5.54705H56.1064C56.0496 5.14459 55.9336 4.78711 55.7584 4.47461C55.5832 4.15737 55.3583 3.88749 55.0836 3.66495C54.809 3.44241 54.4918 3.27196 54.132 3.15359C53.7768 3.03522 53.3909 2.97603 52.9743 2.97603C52.2214 2.97603 51.5657 3.16306 51.007 3.53711C50.4482 3.90643 50.015 4.4462 49.7072 5.15643C49.3995 5.86192 49.2456 6.71893 49.2456 7.72745C49.2456 8.76438 49.3995 9.63559 49.7072 10.3411C50.0197 11.0466 50.4553 11.5792 51.0141 11.9391C51.5728 12.2989 52.2191 12.4789 52.953 12.4789C53.3649 12.4789 53.7461 12.4244 54.0964 12.3155C54.4515 12.2066 54.7664 12.048 55.041 11.8397C55.3157 11.6266 55.5429 11.3685 55.7229 11.0655C55.9075 10.7625 56.0354 10.4168 56.1064 10.0286L59.2172 10.0428C59.1367 10.7104 58.9354 11.3543 58.6135 11.9746C58.2962 12.5901 57.8677 13.1418 57.328 13.6294C56.7929 14.1124 56.1537 14.4959 55.4104 14.78C54.6717 15.0594 53.836 15.199 52.9033 15.199C51.6059 15.199 50.4459 14.9055 49.4231 14.3184C48.4051 13.7312 47.6002 12.8813 47.0084 11.7686C46.4212 10.656 46.1277 9.30889 46.1277 7.72745C46.1277 6.14128 46.426 4.79184 47.0226 3.67916C47.6192 2.56647 48.4288 1.71893 49.4516 1.13654C50.4743 0.549421 51.6248 0.255859 52.9033 0.255859C53.7461 0.255859 54.5273 0.374231 55.247 0.610973C55.9714 0.847716 56.613 1.19336 57.1717 1.6479C57.7304 2.09772 58.185 2.64933 58.5354 3.30273C58.8905 3.95614 59.1177 4.70425 59.2172 5.54705Z" fill="#50C878"/>
<path d="M43.1781 5.54705H40.0673C40.0105 5.14459 39.8945 4.78711 39.7193 4.47461C39.5441 4.15737 39.3192 3.88749 39.0446 3.66495C38.77 3.44241 38.4527 3.27196 38.0929 3.15359C37.7378 3.03522 37.3519 2.97603 36.9352 2.97603C36.1824 2.97603 35.5266 3.16306 34.9679 3.53711C34.4092 3.90643 33.9759 4.4462 33.6682 5.15643C33.3604 5.86192 33.2065 6.71893 33.2065 7.72745C33.2065 8.76438 33.3604 9.63559 33.6682 10.3411C33.9807 11.0466 34.4163 11.5792 34.975 11.9391C35.5337 12.2989 36.18 12.4789 36.9139 12.4789C37.3258 12.4789 37.707 12.4244 38.0574 12.3155C38.4125 12.2066 38.7274 12.048 39.002 11.8397C39.2766 11.6266 39.5039 11.3685 39.6838 11.0655C39.8685 10.7625 39.9963 10.4168 40.0673 10.0286L43.1781 10.0428C43.0976 10.7104 42.8964 11.3543 42.5744 11.9746C42.2572 12.5901 41.8287 13.1418 41.2889 13.6294C40.7539 14.1124 40.1147 14.4959 39.3713 14.78C38.6327 15.0594 37.797 15.199 36.8642 15.199C35.5668 15.199 34.4068 14.9055 33.3841 14.3184C32.3661 13.7312 31.5612 12.8813 30.9693 11.7686C30.3822 10.656 30.0886 9.30889 30.0886 7.72745C30.0886 6.14128 30.3869 4.79184 30.9835 3.67916C31.5801 2.56647 32.3898 1.71893 33.4125 1.13654C34.4352 0.549421 35.5858 0.255859 36.8642 0.255859C37.707 0.255859 38.4882 0.374231 39.2079 0.610973C39.9324 0.847716 40.5739 1.19336 41.1327 1.6479C41.6914 2.09772 42.1459 2.64933 42.4963 3.30273C42.8514 3.95614 43.0787 4.70425 43.1781 5.54705Z" fill="#50C878"/>
<path d="M23.7388 0.455078H26.8141V9.9011C26.8141 10.9617 26.5607 11.8897 26.0541 12.6852C25.5522 13.4806 24.8491 14.1009 23.9447 14.546C23.0404 14.9863 21.9869 15.2065 20.7842 15.2065C19.5768 15.2065 18.521 14.9863 17.6166 14.546C16.7123 14.1009 16.0091 13.4806 15.5072 12.6852C15.0053 11.8897 14.7544 10.9617 14.7544 9.9011V0.455078H17.8297V9.63832C17.8297 10.1923 17.9504 10.6847 18.1919 11.1156C18.4381 11.5465 18.7837 11.885 19.2288 12.1312C19.6739 12.3774 20.1924 12.5005 20.7842 12.5005C21.3808 12.5005 21.8993 12.3774 22.3396 12.1312C22.7847 11.885 23.128 11.5465 23.3694 11.1156C23.6157 10.6847 23.7388 10.1923 23.7388 9.63832V0.455078Z" fill="#50C878"/>
<path d="M8.53955 4.63796C8.48273 4.06505 8.23889 3.61997 7.80802 3.30273C7.37714 2.9855 6.79239 2.82688 6.05375 2.82688C5.55186 2.82688 5.12809 2.89791 4.78245 3.03995C4.43681 3.17726 4.17165 3.36902 3.98699 3.61523C3.80707 3.86145 3.71711 4.1408 3.71711 4.4533C3.70764 4.71372 3.76209 4.94099 3.88046 5.13512C4.00357 5.32925 4.17165 5.49734 4.38472 5.63938C4.59779 5.77669 4.844 5.89743 5.12336 6.0016C5.40271 6.10103 5.70101 6.18626 6.01824 6.25728L7.32506 6.56978C7.95953 6.71183 8.54192 6.90122 9.07222 7.13796C9.60252 7.3747 10.0618 7.6659 10.4501 8.01154C10.8383 8.35719 11.139 8.76438 11.3521 9.23313C11.5699 9.70188 11.6811 10.2393 11.6859 10.8453C11.6811 11.7355 11.4539 12.5073 11.004 13.1607C10.559 13.8094 9.91502 14.3136 9.07222 14.6735C8.23415 15.0286 7.22326 15.2061 6.03955 15.2061C4.86531 15.2061 3.84258 15.0262 2.97137 14.6664C2.10489 14.3065 1.42781 13.7739 0.940119 13.0684C0.457164 12.3581 0.20385 11.4798 0.180176 10.4334H3.15603C3.18917 10.9211 3.32885 11.3283 3.57506 11.655C3.82601 11.977 4.15982 12.2208 4.57648 12.3865C4.99788 12.5475 5.47374 12.628 6.00404 12.628C6.52488 12.628 6.97705 12.5523 7.36057 12.4007C7.74883 12.2492 8.0495 12.0385 8.26256 11.7686C8.47563 11.4988 8.58217 11.1886 8.58217 10.8382C8.58217 10.5115 8.4851 10.2369 8.29097 10.0144C8.10158 9.79184 7.82222 9.60245 7.4529 9.4462C7.08832 9.28995 6.64088 9.14791 6.11057 9.02006L4.52677 8.62234C3.30044 8.32404 2.33216 7.85766 1.62194 7.22319C0.911709 6.58872 0.558965 5.73408 0.5637 4.65927C0.558965 3.77859 0.79334 3.00917 1.26682 2.35103C1.74504 1.69289 2.40082 1.17916 3.23415 0.809837C4.06749 0.440519 5.01446 0.255859 6.07506 0.255859C7.15461 0.255859 8.09684 0.440519 8.90177 0.809837C9.71143 1.17916 10.3412 1.69289 10.791 2.35103C11.2408 3.00917 11.4728 3.77148 11.487 4.63796H8.53955Z" fill="#50C878"/>
</svg>
