<svg width="89" height="12" viewBox="0 0 89 12" fill="none" xmlns="http://www.w3.org/2000/svg">
<path d="M83.2446 11.0422V2.86035H85.4446V4.28791H85.5298C85.6789 3.7801 85.9293 3.39657 86.2809 3.13734C86.6324 2.87456 87.0372 2.74316 87.4953 2.74316C87.609 2.74316 87.7315 2.75027 87.8629 2.76447C87.9943 2.77868 88.1097 2.79821 88.2091 2.82306V4.83656C88.1026 4.8046 87.9552 4.77619 87.767 4.75133C87.5788 4.72647 87.4066 4.71405 87.2503 4.71405C86.9165 4.71405 86.6182 4.78684 86.3554 4.93244C86.0962 5.07449 85.8902 5.27335 85.7375 5.52903C85.5884 5.78471 85.5138 6.07946 85.5138 6.41326V11.0422H83.2446Z" fill="#FF0505"/>
<path d="M76.9918 11.2021C76.1644 11.2021 75.4489 11.0263 74.8452 10.6747C74.245 10.3196 73.7816 9.82599 73.4549 9.19389C73.1282 8.55824 72.9648 7.82138 72.9648 6.98331C72.9648 6.13814 73.1282 5.3995 73.4549 4.7674C73.7816 4.13175 74.245 3.63814 74.8452 3.28658C75.4489 2.93146 76.1644 2.75391 76.9918 2.75391C77.8192 2.75391 78.533 2.93146 79.1332 3.28658C79.7369 3.63814 80.2021 4.13175 80.5288 4.7674C80.8555 5.3995 81.0188 6.13814 81.0188 6.98331C81.0188 7.82138 80.8555 8.55824 80.5288 9.19389C80.2021 9.82599 79.7369 10.3196 79.1332 10.6747C78.533 11.0263 77.8192 11.2021 76.9918 11.2021ZM77.0025 9.44425C77.3789 9.44425 77.6932 9.33771 77.9453 9.12464C78.1974 8.90802 78.3874 8.61328 78.5153 8.24041C78.6467 7.86754 78.7124 7.44318 78.7124 6.96733C78.7124 6.49148 78.6467 6.06712 78.5153 5.69425C78.3874 5.32138 78.1974 5.02663 77.9453 4.81001C77.6932 4.59339 77.3789 4.48508 77.0025 4.48508C76.6225 4.48508 76.3029 4.59339 76.0437 4.81001C75.788 5.02663 75.5945 5.32138 75.4631 5.69425C75.3352 6.06712 75.2713 6.49148 75.2713 6.96733C75.2713 7.44318 75.3352 7.86754 75.4631 8.24041C75.5945 8.61328 75.788 8.90802 76.0437 9.12464C76.3029 9.33771 76.6225 9.44425 77.0025 9.44425Z" fill="#FF0505"/>
<path d="M70.7277 0.133301V11.0424H68.4585V0.133301H70.7277Z" fill="#FF0505"/>
<path d="M61.3402 11.1967C60.8181 11.1967 60.3529 11.1062 59.9446 10.9251C59.5362 10.7404 59.213 10.4687 58.9751 10.1101C58.7407 9.74787 58.6235 9.29688 58.6235 8.7571C58.6235 8.30256 58.707 7.92081 58.8739 7.61186C59.0408 7.30291 59.2681 7.05433 59.5557 6.86612C59.8433 6.67791 60.1701 6.53587 60.5358 6.43999C60.9051 6.3441 61.2922 6.27663 61.697 6.23757C62.1729 6.18785 62.5564 6.14169 62.8476 6.09908C63.1388 6.05291 63.3501 5.98544 63.4815 5.89666C63.6129 5.80788 63.6786 5.67649 63.6786 5.50249V5.47052C63.6786 5.13317 63.572 4.87216 63.359 4.6875C63.1495 4.50284 62.8512 4.41051 62.4641 4.41051C62.0557 4.41051 61.7308 4.50106 61.4893 4.68217C61.2478 4.85973 61.088 5.08345 61.0099 5.35334L58.9112 5.18288C59.0177 4.68572 59.2272 4.25604 59.5397 3.89382C59.8522 3.52805 60.2553 3.24751 60.7489 3.0522C61.246 2.85334 61.8213 2.75391 62.4747 2.75391C62.9293 2.75391 63.3643 2.80717 63.7798 2.91371C64.1988 3.02024 64.5699 3.18537 64.8931 3.40909C65.2198 3.63281 65.4772 3.92045 65.6654 4.27202C65.8536 4.62003 65.9478 5.03729 65.9478 5.52379V11.0423H63.7958V9.90767H63.7318C63.6005 10.1634 63.4247 10.3888 63.2045 10.5842C62.9843 10.7759 62.7198 10.9268 62.4108 11.0369C62.1019 11.1435 61.745 11.1967 61.3402 11.1967ZM61.99 9.63068C62.3238 9.63068 62.6186 9.56499 62.8742 9.43359C63.1299 9.29865 63.3306 9.11754 63.4762 8.89027C63.6218 8.663 63.6946 8.40554 63.6946 8.1179V7.24964C63.6235 7.29581 63.5259 7.33842 63.4016 7.37749C63.2808 7.413 63.1441 7.44673 62.9914 7.47869C62.8387 7.5071 62.686 7.53374 62.5333 7.55859C62.3806 7.5799 62.2421 7.59943 62.1179 7.61719C61.8515 7.65625 61.6189 7.71839 61.4201 7.80362C61.2212 7.88885 61.0667 8.00426 60.9566 8.14986C60.8465 8.2919 60.7915 8.46946 60.7915 8.68253C60.7915 8.99148 60.9034 9.22763 61.1271 9.39098C61.3544 9.55078 61.642 9.63068 61.99 9.63068Z" fill="#FF0505"/>
<path d="M49.9581 0.133301L52.5949 8.42165H52.6961L55.3381 0.133301H57.8949L54.1343 11.0424H51.162L47.396 0.133301H49.9581Z" fill="#FF0505"/>
<path d="M29.2915 11.0423V2.86044H31.4541V4.30398H31.55C31.7205 3.82457 32.0046 3.44638 32.4023 3.16939C32.8 2.8924 33.2759 2.75391 33.8299 2.75391C34.3909 2.75391 34.8686 2.89418 35.2627 3.17472C35.6569 3.4517 35.9197 3.82812 36.0511 4.30398H36.1363C36.3032 3.83523 36.6051 3.46058 37.0419 3.18004C37.4822 2.89595 38.0024 2.75391 38.6026 2.75391C39.3661 2.75391 39.9857 2.99716 40.4616 3.48366C40.941 3.96662 41.1807 4.65199 41.1807 5.53977V11.0423H38.9169V5.98722C38.9169 5.53267 38.7961 5.19176 38.5546 4.96449C38.3132 4.73722 38.0113 4.62358 37.6491 4.62358C37.2372 4.62358 36.9158 4.75497 36.685 5.01776C36.4541 5.27699 36.3387 5.61967 36.3387 6.04581V11.0423H34.1388V5.93927C34.1388 5.538 34.0234 5.21839 33.7926 4.98047C33.5653 4.74254 33.2652 4.62358 32.8924 4.62358C32.6402 4.62358 32.413 4.6875 32.2105 4.81534C32.0117 4.93963 31.8536 5.11541 31.7365 5.34268C31.6193 5.56641 31.5607 5.82919 31.5607 6.13104V11.0423H29.2915Z" fill="#FF0505"/>
<path d="M22.1732 11.1967C21.6511 11.1967 21.1859 11.1062 20.7776 10.9251C20.3692 10.7404 20.046 10.4687 19.8081 10.1101C19.5737 9.74787 19.4565 9.29688 19.4565 8.7571C19.4565 8.30256 19.54 7.92081 19.7069 7.61186C19.8738 7.30291 20.1011 7.05433 20.3887 6.86612C20.6764 6.67791 21.0031 6.53587 21.3688 6.43999C21.7381 6.3441 22.1252 6.27663 22.5301 6.23757C23.0059 6.18785 23.3894 6.14169 23.6806 6.09908C23.9718 6.05291 24.1831 5.98544 24.3145 5.89666C24.4459 5.80788 24.5116 5.67649 24.5116 5.50249V5.47052C24.5116 5.13317 24.4051 4.87216 24.192 4.6875C23.9825 4.50284 23.6842 4.41051 23.2971 4.41051C22.8887 4.41051 22.5638 4.50106 22.3223 4.68217C22.0808 4.85973 21.921 5.08345 21.8429 5.35334L19.7442 5.18288C19.8507 4.68572 20.0602 4.25604 20.3727 3.89382C20.6852 3.52805 21.0883 3.24751 21.5819 3.0522C22.0791 2.85334 22.6543 2.75391 23.3078 2.75391C23.7623 2.75391 24.1973 2.80717 24.6128 2.91371C25.0318 3.02024 25.4029 3.18537 25.7261 3.40909C26.0528 3.63281 26.3102 3.92045 26.4984 4.27202C26.6867 4.62003 26.7808 5.03729 26.7808 5.52379V11.0423H24.6288V9.90767H24.5649C24.4335 10.1634 24.2577 10.3888 24.0375 10.5842C23.8173 10.7759 23.5528 10.9268 23.2438 11.0369C22.9349 11.1435 22.578 11.1967 22.1732 11.1967ZM22.823 9.63068C23.1568 9.63068 23.4516 9.56499 23.7073 9.43359C23.9629 9.29865 24.1636 9.11754 24.3092 8.89027C24.4548 8.663 24.5276 8.40554 24.5276 8.1179V7.24964C24.4565 7.29581 24.3589 7.33842 24.2346 7.37749C24.1139 7.413 23.9771 7.44673 23.8244 7.47869C23.6717 7.5071 23.519 7.53374 23.3663 7.55859C23.2136 7.5799 23.0752 7.59943 22.9509 7.61719C22.6845 7.65625 22.4519 7.71839 22.2531 7.80362C22.0542 7.88885 21.8997 8.00426 21.7896 8.14986C21.6796 8.2919 21.6245 8.46946 21.6245 8.68253C21.6245 8.99148 21.7364 9.22763 21.9601 9.39098C22.1874 9.55078 22.475 9.63068 22.823 9.63068Z" fill="#FF0505"/>
<path d="M13.8539 11.2021C13.0123 11.2021 12.2878 11.0316 11.6806 10.6907C11.0769 10.3462 10.6117 9.85973 10.285 9.23118C9.95827 8.59908 9.79492 7.85156 9.79492 6.98864C9.79492 6.14702 9.95827 5.40838 10.285 4.77273C10.6117 4.13707 11.0716 3.64169 11.6646 3.28658C12.2612 2.93146 12.9608 2.75391 13.7633 2.75391C14.3031 2.75391 14.8056 2.84091 15.2708 3.01491C15.7395 3.18537 16.1479 3.44283 16.4959 3.78729C16.8475 4.13175 17.1209 4.56499 17.3162 5.087C17.5115 5.60547 17.6092 6.21271 17.6092 6.90874V7.53196H10.7005V6.12571H15.4732C15.4732 5.79901 15.4022 5.50959 15.2601 5.25746C15.1181 5.00533 14.921 4.80824 14.6689 4.66619C14.4203 4.5206 14.1309 4.4478 13.8006 4.4478C13.4561 4.4478 13.1507 4.5277 12.8844 4.6875C12.6216 4.84375 12.4157 5.05504 12.2665 5.32138C12.1174 5.58416 12.041 5.87713 12.0375 6.20028V7.53729C12.0375 7.94212 12.112 8.2919 12.2612 8.58665C12.4139 8.88139 12.6287 9.10866 12.9057 9.26847C13.1827 9.42827 13.5112 9.50817 13.8912 9.50817C14.1433 9.50817 14.3741 9.47266 14.5836 9.40163C14.7931 9.33061 14.9725 9.22408 15.1216 9.08203C15.2708 8.93999 15.3844 8.76598 15.4625 8.56001L17.5613 8.69851C17.4547 9.20277 17.2363 9.64311 16.9061 10.0195C16.5794 10.3924 16.1568 10.6836 15.6383 10.8931C15.1234 11.0991 14.5286 11.2021 13.8539 11.2021Z" fill="#FF0505"/>
<path d="M0.169434 2.03493V0.133301H9.12895V2.03493H5.78911V11.0424H3.50928V2.03493H0.169434Z" fill="#FF0505"/>
</svg>
