<svg width="92" height="20" viewBox="0 0 92 20" fill="none" xmlns="http://www.w3.org/2000/svg">
<path d="M90.2794 15.3854C89.8485 15.3854 89.4792 15.2339 89.1714 14.9308C88.8637 14.6278 88.7122 14.2585 88.7169 13.8229C88.7122 13.3968 88.8637 13.0322 89.1714 12.7291C89.4792 12.4261 89.8485 12.2746 90.2794 12.2746C90.6961 12.2746 91.0583 12.4261 91.3661 12.7291C91.6786 13.0322 91.8372 13.3968 91.8419 13.8229C91.8372 14.1117 91.7614 14.3745 91.6146 14.6112C91.4726 14.848 91.2832 15.0374 91.0464 15.1794C90.8144 15.3167 90.5588 15.3854 90.2794 15.3854ZM90.2794 7.6013C89.8485 7.6013 89.4792 7.44978 89.1714 7.14675C88.8637 6.83899 88.7122 6.46967 88.7169 6.0388C88.7122 5.61266 88.8637 5.24808 89.1714 4.94505C89.4792 4.63728 89.8485 4.4834 90.2794 4.4834C90.6961 4.4834 91.0583 4.63728 91.3661 4.94505C91.6786 5.24808 91.8372 5.61266 91.8419 6.0388C91.8372 6.32289 91.7614 6.5833 91.6146 6.82005C91.4726 7.05679 91.2832 7.24618 91.0464 7.38823C90.8144 7.53027 90.5588 7.6013 90.2794 7.6013Z" fill="#365F6F"/>
<path d="M75.1953 19.3198V4.31978H77.7237V6.12376H77.8729C78.0054 5.8586 78.1925 5.57688 78.434 5.27859C78.6754 4.97556 79.0021 4.71751 79.4141 4.50444C79.826 4.28664 80.3516 4.17773 80.9908 4.17773C81.8336 4.17773 82.5935 4.39317 83.2706 4.82404C83.9524 5.25018 84.4922 5.88228 84.8899 6.72035C85.2924 7.55368 85.4936 8.57641 85.4936 9.78853C85.4936 10.9864 85.2971 12.0044 84.9041 12.8425C84.5111 13.6806 83.9761 14.3198 83.299 14.7601C82.6219 15.2005 81.8549 15.4206 80.9979 15.4206C80.3729 15.4206 79.8544 15.3165 79.4425 15.1081C79.0305 14.8998 78.6991 14.6489 78.4482 14.3553C78.2019 14.057 78.0102 13.7753 77.8729 13.5101H77.7663V19.3198H75.1953ZM77.7166 9.77432C77.7166 10.4798 77.8161 11.0977 78.0149 11.628C78.2185 12.1583 78.5097 12.5726 78.8885 12.8709C79.272 13.1645 79.736 13.3113 80.2805 13.3113C80.8487 13.3113 81.3246 13.1597 81.7081 12.8567C82.0916 12.5489 82.3804 12.1299 82.5746 11.5996C82.7734 11.0646 82.8729 10.4561 82.8729 9.77432C82.8729 9.09724 82.7758 8.49592 82.5817 7.97035C82.3876 7.44478 82.0987 7.03285 81.7152 6.73455C81.3317 6.43626 80.8535 6.28711 80.2805 6.28711C79.7313 6.28711 79.2649 6.43152 78.8814 6.72035C78.4979 7.00917 78.2067 7.414 78.0078 7.93484C77.8137 8.45567 77.7166 9.06883 77.7166 9.77432Z" fill="#365F6F"/>
<path d="M62.7022 0.683594L65.9054 6.0103H66.019L69.2363 0.683594H72.2406L67.7591 7.95632L72.3116 15.229H69.2576L66.019 9.93786H65.9054L62.6667 15.229H59.627L64.2221 7.95632L59.6838 0.683594H62.7022Z" fill="#365F6F"/>
<path d="M50.782 0.683594V15.229H48.2109V0.683594H50.782Z" fill="#365F6F"/>
<path d="M38.8659 15.449C38.1746 15.449 37.552 15.3259 36.998 15.0797C36.4488 14.8288 36.0132 14.4595 35.6912 13.9718C35.374 13.4841 35.2153 12.8828 35.2153 12.1678C35.2153 11.5523 35.329 11.0433 35.5562 10.6408C35.7835 10.2383 36.0936 9.91637 36.4866 9.67489C36.8796 9.43342 37.3223 9.25112 37.8148 9.12802C38.3119 9.00018 38.8257 8.90785 39.356 8.85103C39.9952 8.78474 40.5136 8.72556 40.9114 8.67347C41.3091 8.61665 41.5979 8.53143 41.7778 8.41779C41.9625 8.29942 42.0548 8.11713 42.0548 7.87092V7.8283C42.0548 7.29326 41.8962 6.87897 41.579 6.5854C41.2617 6.29184 40.8048 6.14506 40.2082 6.14506C39.5785 6.14506 39.079 6.28237 38.7097 6.557C38.3451 6.83162 38.0989 7.15595 37.971 7.53001L35.5704 7.1891C35.7598 6.52622 36.0723 5.97224 36.5079 5.52717C36.9436 5.07735 37.4762 4.74118 38.106 4.51864C38.7357 4.29137 39.4317 4.17773 40.194 4.17773C40.7196 4.17773 41.2428 4.23929 41.7636 4.36239C42.2845 4.4855 42.7603 4.6891 43.1912 4.97319C43.6221 5.25254 43.9677 5.6337 44.2281 6.11665C44.4933 6.59961 44.6258 7.2033 44.6258 7.92773V15.2289H42.1543V13.7303H42.069C41.9128 14.0333 41.6926 14.3174 41.4085 14.5826C41.1292 14.843 40.7764 15.0537 40.3503 15.2147C39.9289 15.3709 39.4341 15.449 38.8659 15.449ZM39.5335 13.5598C40.0496 13.5598 40.4971 13.458 40.8758 13.2544C41.2546 13.0461 41.5458 12.7715 41.7494 12.4306C41.9578 12.0897 42.0619 11.718 42.0619 11.3155V10.03C41.9814 10.0963 41.8441 10.1578 41.65 10.2147C41.4606 10.2715 41.2475 10.3212 41.0108 10.3638C40.774 10.4064 40.5397 10.4443 40.3077 10.4774C40.0757 10.5106 39.8744 10.539 39.704 10.5627C39.3204 10.6148 38.9772 10.7 38.6741 10.8184C38.3711 10.9367 38.132 11.1024 37.9568 11.3155C37.7816 11.5239 37.694 11.7937 37.694 12.1252C37.694 12.5987 37.8668 12.9561 38.2125 13.1976C38.5581 13.4391 38.9985 13.5598 39.5335 13.5598Z" fill="#365F6F"/>
<path d="M32.5765 4.32018V6.30882H26.3052V4.32018H32.5765ZM27.8535 1.70654H30.4245V11.948C30.4245 12.2937 30.4766 12.5588 30.5807 12.7435C30.6896 12.9234 30.8317 13.0465 31.0069 13.1128C31.1821 13.1791 31.3762 13.2122 31.5893 13.2122C31.7503 13.2122 31.897 13.2004 32.0296 13.1767C32.1669 13.153 32.2711 13.1317 32.3421 13.1128L32.7753 15.1227C32.638 15.1701 32.4415 15.2222 32.1859 15.279C31.9349 15.3358 31.6271 15.3689 31.2626 15.3784C30.6186 15.3974 30.0386 15.3003 29.5225 15.0872C29.0064 14.8694 28.5968 14.5332 28.2938 14.0787C27.9955 13.6242 27.8487 13.056 27.8535 12.3742V1.70654Z" fill="#365F6F"/>
<path d="M18.7195 15.4419C17.6541 15.4419 16.7308 15.2076 15.9496 14.7388C15.1683 14.2701 14.5623 13.6143 14.1314 12.7715C13.7053 11.9287 13.4922 10.9438 13.4922 9.81694C13.4922 8.69004 13.7053 7.70283 14.1314 6.85529C14.5623 6.00775 15.1683 5.34961 15.9496 4.88086C16.7308 4.41211 17.6541 4.17773 18.7195 4.17773C19.7848 4.17773 20.7081 4.41211 21.4893 4.88086C22.2706 5.34961 22.8743 6.00775 23.3004 6.85529C23.7313 7.70283 23.9467 8.69004 23.9467 9.81694C23.9467 10.9438 23.7313 11.9287 23.3004 12.7715C22.8743 13.6143 22.2706 14.2701 21.4893 14.7388C20.7081 15.2076 19.7848 15.4419 18.7195 15.4419ZM18.7337 13.3823C19.3113 13.3823 19.7943 13.2237 20.1825 12.9064C20.5708 12.5845 20.8596 12.1536 21.049 11.6138C21.2431 11.074 21.3402 10.4727 21.3402 9.80984C21.3402 9.14222 21.2431 8.53853 21.049 7.99876C20.8596 7.45425 20.5708 7.02101 20.1825 6.69904C19.7943 6.37707 19.3113 6.21609 18.7337 6.21609C18.1418 6.21609 17.6494 6.37707 17.2564 6.69904C16.8681 7.02101 16.5769 7.45425 16.3828 7.99876C16.1934 8.53853 16.0987 9.14222 16.0987 9.80984C16.0987 10.4727 16.1934 11.074 16.3828 11.6138C16.5769 12.1536 16.8681 12.5845 17.2564 12.9064C17.6494 13.2237 18.1418 13.3823 18.7337 13.3823Z" fill="#365F6F"/>
<path d="M0.814453 2.8924V0.683594H12.4196V2.8924H7.92383V15.229H5.31019V2.8924H0.814453Z" fill="#365F6F"/>
</svg>
