<svg width="140" height="20" viewBox="0 0 140 20" fill="none" xmlns="http://www.w3.org/2000/svg">
<path d="M131.817 19.7476C131.467 19.7476 131.142 19.7191 130.844 19.6623C130.55 19.6102 130.316 19.5487 130.141 19.4777L130.737 17.4748C131.112 17.5837 131.445 17.6358 131.739 17.6311C132.032 17.6263 132.291 17.534 132.513 17.3541C132.74 17.1789 132.932 16.8853 133.088 16.4734L133.309 15.8839L129.353 4.74756H132.08L134.594 12.9862H134.708L137.229 4.74756H139.963L135.595 16.9777C135.392 17.5553 135.122 18.0501 134.786 18.462C134.45 18.8787 134.038 19.1959 133.55 19.4138C133.067 19.6363 132.489 19.7476 131.817 19.7476Z" fill="black"/>
<path d="M127.069 4.74743V6.73606H120.797V4.74743H127.069ZM122.346 2.13379H124.917V12.3753C124.917 12.7209 124.969 12.9861 125.073 13.1707C125.182 13.3506 125.324 13.4738 125.499 13.54C125.674 13.6063 125.868 13.6395 126.081 13.6395C126.242 13.6395 126.389 13.6276 126.522 13.604C126.659 13.5803 126.763 13.559 126.834 13.54L127.268 15.55C127.13 15.5973 126.934 15.6494 126.678 15.7062C126.427 15.7631 126.119 15.7962 125.755 15.8057C125.111 15.8246 124.531 15.7275 124.015 15.5145C123.499 15.2967 123.089 14.9605 122.786 14.5059C122.488 14.0514 122.341 13.4832 122.346 12.8014V2.13379Z" fill="black"/>
<path d="M115.406 15.6568V4.74769H117.977V15.6568H115.406ZM116.699 3.1994C116.292 3.1994 115.941 3.06445 115.648 2.79457C115.354 2.51995 115.208 2.19087 115.208 1.80735C115.208 1.41909 115.354 1.09002 115.648 0.820134C115.941 0.545513 116.292 0.408203 116.699 0.408203C117.111 0.408203 117.461 0.545513 117.75 0.820134C118.044 1.09002 118.19 1.41909 118.19 1.80735C118.19 2.19087 118.044 2.51995 117.75 2.79457C117.461 3.06445 117.111 3.1994 116.699 3.1994Z" fill="black"/>
<path d="M112.627 4.74756L108.742 15.6566H105.902L102.017 4.74756H104.758L107.265 12.8513H107.379L109.893 4.74756H112.627Z" fill="black"/>
<path d="M96.6681 15.6568V4.74769H99.2391V15.6568H96.6681ZM97.9607 3.1994C97.5535 3.1994 97.2031 3.06445 96.9096 2.79457C96.616 2.51995 96.4692 2.19087 96.4692 1.80735C96.4692 1.41909 96.616 1.09002 96.9096 0.820134C97.2031 0.545513 97.5535 0.408203 97.9607 0.408203C98.3726 0.408203 98.723 0.545513 99.0118 0.820134C99.3054 1.09002 99.4522 1.41909 99.4522 1.80735C99.4522 2.19087 99.3054 2.51995 99.0118 2.79457C98.723 3.06445 98.3726 3.1994 97.9607 3.1994Z" fill="black"/>
<path d="M93.5179 4.74743V6.73606H87.2466V4.74743H93.5179ZM88.7949 2.13379H91.3659V12.3753C91.3659 12.7209 91.418 12.9861 91.5221 13.1707C91.631 13.3506 91.7731 13.4738 91.9483 13.54C92.1235 13.6063 92.3176 13.6395 92.5307 13.6395C92.6917 13.6395 92.8384 13.6276 92.971 13.604C93.1083 13.5803 93.2125 13.559 93.2835 13.54L93.7168 15.55C93.5794 15.5973 93.3829 15.6494 93.1273 15.7062C92.8763 15.7631 92.5685 15.7962 92.204 15.8057C91.56 15.8246 90.98 15.7275 90.4639 15.5145C89.9478 15.2967 89.5382 14.9605 89.2352 14.5059C88.9369 14.0514 88.7901 13.4832 88.7949 12.8014V2.13379Z" fill="black"/>
<path d="M80.2859 15.8697C79.1969 15.8697 78.2617 15.6306 77.4805 15.1523C76.704 14.6741 76.105 14.0136 75.6836 13.1708C75.2669 12.3233 75.0586 11.3479 75.0586 10.2447C75.0586 9.13672 75.2717 8.15897 75.6978 7.31143C76.1239 6.45916 76.7253 5.79628 77.5018 5.3228C78.283 4.84458 79.2063 4.60547 80.2717 4.60547C81.1571 4.60547 81.9407 4.76882 82.6225 5.09552C83.3091 5.41749 83.8559 5.87441 84.2631 6.46626C84.6703 7.05339 84.9023 7.73994 84.9592 8.52592H82.5018C82.4023 8.00035 82.1656 7.56238 81.7915 7.212C81.4222 6.85689 80.9274 6.67933 80.3072 6.67933C79.7816 6.67933 79.32 6.82138 78.9222 7.10547C78.5245 7.38482 78.2144 7.78729 77.9918 8.31285C77.774 8.83842 77.6651 9.46816 77.6651 10.2021C77.6651 10.9454 77.774 11.5846 77.9918 12.1197C78.2096 12.65 78.515 13.0595 78.908 13.3484C79.3058 13.6325 79.7721 13.7745 80.3072 13.7745C80.686 13.7745 81.0245 13.7035 81.3228 13.5614C81.6258 13.4147 81.8791 13.204 82.0827 12.9293C82.2863 12.6547 82.426 12.3209 82.5018 11.9279H84.9592C84.8976 12.6997 84.6703 13.3839 84.2773 13.9805C83.8844 14.5723 83.3493 15.0363 82.6722 15.3725C81.9952 15.704 81.1997 15.8697 80.2859 15.8697Z" fill="black"/>
<path d="M62.3682 15.6568H59.5557L64.6764 1.11133H67.9292L73.0571 15.6568H70.2446L66.3596 4.09428H66.246L62.3682 15.6568ZM62.4605 9.95366H70.1309V12.0701H62.4605V9.95366Z" fill="black"/>
<path d="M50.782 1.11133V15.6568H48.2109V1.11133H50.782Z" fill="black"/>
<path d="M38.8659 15.8768C38.1746 15.8768 37.552 15.7537 36.998 15.5075C36.4488 15.2565 36.0132 14.8872 35.6912 14.3995C35.374 13.9118 35.2153 13.3105 35.2153 12.5955C35.2153 11.98 35.329 11.471 35.5562 11.0685C35.7835 10.6661 36.0936 10.3441 36.4866 10.1026C36.8796 9.86115 37.3223 9.67886 37.8148 9.55575C38.3119 9.42791 38.8257 9.33558 39.356 9.27876C39.9952 9.21248 40.5136 9.15329 40.9114 9.10121C41.3091 9.04439 41.5979 8.95916 41.7778 8.84552C41.9625 8.72715 42.0548 8.54486 42.0548 8.29865V8.25604C42.0548 7.721 41.8962 7.3067 41.579 7.01314C41.2617 6.71958 40.8048 6.5728 40.2082 6.5728C39.5785 6.5728 39.079 6.71011 38.7097 6.98473C38.3451 7.25935 38.0989 7.58369 37.971 7.95774L35.5704 7.61683C35.7598 6.95395 36.0723 6.39998 36.5079 5.9549C36.9436 5.50509 37.4762 5.16891 38.106 4.94638C38.7357 4.7191 39.4317 4.60547 40.194 4.60547C40.7196 4.60547 41.2428 4.66702 41.7636 4.79013C42.2845 4.91323 42.7603 5.11683 43.1912 5.40092C43.6221 5.68028 43.9677 6.06143 44.2281 6.54439C44.4933 7.02734 44.6258 7.63104 44.6258 8.35547V15.6566H42.1543V14.158H42.069C41.9128 14.4611 41.6926 14.7451 41.4085 15.0103C41.1292 15.2707 40.7764 15.4814 40.3503 15.6424C39.9289 15.7987 39.4341 15.8768 38.8659 15.8768ZM39.5335 13.9876C40.0496 13.9876 40.4971 13.8858 40.8758 13.6822C41.2546 13.4738 41.5458 13.1992 41.7494 12.8583C41.9578 12.5174 42.0619 12.1457 42.0619 11.7433V10.4577C41.9814 10.524 41.8441 10.5856 41.65 10.6424C41.4606 10.6992 41.2475 10.7489 41.0108 10.7915C40.774 10.8342 40.5397 10.872 40.3077 10.9052C40.0757 10.9383 39.8744 10.9667 39.704 10.9904C39.3204 11.0425 38.9772 11.1277 38.6741 11.2461C38.3711 11.3645 38.132 11.5302 37.9568 11.7433C37.7816 11.9516 37.694 12.2215 37.694 12.5529C37.694 13.0264 37.8668 13.3839 38.2125 13.6254C38.5581 13.8668 38.9985 13.9876 39.5335 13.9876Z" fill="black"/>
<path d="M32.5765 4.74743V6.73606H26.3052V4.74743H32.5765ZM27.8535 2.13379H30.4245V12.3753C30.4245 12.7209 30.4766 12.9861 30.5807 13.1707C30.6896 13.3506 30.8317 13.4738 31.0069 13.54C31.1821 13.6063 31.3762 13.6395 31.5893 13.6395C31.7503 13.6395 31.897 13.6276 32.0296 13.604C32.1669 13.5803 32.2711 13.559 32.3421 13.54L32.7753 15.55C32.638 15.5973 32.4415 15.6494 32.1859 15.7062C31.9349 15.7631 31.6271 15.7962 31.2626 15.8057C30.6186 15.8246 30.0386 15.7275 29.5225 15.5145C29.0064 15.2967 28.5968 14.9605 28.2938 14.5059C27.9955 14.0514 27.8487 13.4832 27.8535 12.8014V2.13379Z" fill="black"/>
<path d="M18.7195 15.8697C17.6541 15.8697 16.7308 15.6353 15.9496 15.1665C15.1683 14.6978 14.5623 14.042 14.1314 13.1992C13.7053 12.3564 13.4922 11.3716 13.4922 10.2447C13.4922 9.11778 13.7053 8.13056 14.1314 7.28302C14.5623 6.43549 15.1683 5.77734 15.9496 5.30859C16.7308 4.83984 17.6541 4.60547 18.7195 4.60547C19.7848 4.60547 20.7081 4.83984 21.4893 5.30859C22.2706 5.77734 22.8743 6.43549 23.3004 7.28302C23.7313 8.13056 23.9467 9.11778 23.9467 10.2447C23.9467 11.3716 23.7313 12.3564 23.3004 13.1992C22.8743 14.042 22.2706 14.6978 21.4893 15.1665C20.7081 15.6353 19.7848 15.8697 18.7195 15.8697ZM18.7337 13.81C19.3113 13.81 19.7943 13.6514 20.1825 13.3342C20.5708 13.0122 20.8596 12.5813 21.049 12.0415C21.2431 11.5018 21.3402 10.9004 21.3402 10.2376C21.3402 9.56996 21.2431 8.96626 21.049 8.42649C20.8596 7.88198 20.5708 7.44874 20.1825 7.12677C19.7943 6.80481 19.3113 6.64382 18.7337 6.64382C18.1418 6.64382 17.6494 6.80481 17.2564 7.12677C16.8681 7.44874 16.5769 7.88198 16.3828 8.42649C16.1934 8.96626 16.0987 9.56996 16.0987 10.2376C16.0987 10.9004 16.1934 11.5018 16.3828 12.0415C16.5769 12.5813 16.8681 13.0122 17.2564 13.3342C17.6494 13.6514 18.1418 13.81 18.7337 13.81Z" fill="black"/>
<path d="M0.814453 3.32014V1.11133H12.4196V3.32014H7.92383V15.6568H5.31019V3.32014H0.814453Z" fill="black"/>
</svg>
