<svg width="10" height="7" viewBox="0 0 10 7" fill="none" xmlns="http://www.w3.org/2000/svg">
<path d="M0.0513916 6.99982V0.454368H1.52582V1.56658H1.60253C1.73889 1.19158 1.96474 0.89897 2.28008 0.688743C2.59543 0.475675 2.97185 0.369141 3.40935 0.369141C3.85253 0.369141 4.22611 0.477096 4.53009 0.693005C4.8369 0.906073 5.05281 1.19727 5.17781 1.56658H5.24599C5.39088 1.20295 5.6352 0.913175 5.97895 0.697266C6.32554 0.478516 6.73605 0.369141 7.21048 0.369141C7.81276 0.369141 8.30423 0.559482 8.68492 0.940163C9.0656 1.32085 9.25594 1.87624 9.25594 2.60636V6.99982H7.70906V2.84499C7.70906 2.43874 7.60111 2.14187 7.3852 1.95437C7.16929 1.76403 6.90508 1.66886 6.59258 1.66886C6.22043 1.66886 5.92923 1.78533 5.71901 2.01829C5.51162 2.2484 5.40793 2.54812 5.40793 2.91744V6.99982H3.89514V2.78107C3.89514 2.443 3.79287 2.17312 3.58832 1.97141C3.38662 1.76971 3.12241 1.66886 2.79571 1.66886C2.57412 1.66886 2.37242 1.72567 2.1906 1.83931C2.00878 1.95011 1.86389 2.10778 1.75594 2.31232C1.64798 2.51403 1.59401 2.74982 1.59401 3.01971V6.99982H0.0513916Z" fill="white"/>
</svg>
